<?xml version="1.0" encoding="UTF-8" standalone="no"?>
<!DOCTYPE svg PUBLIC "-//W3C//DTD SVG 1.1//EN" "http://www.w3.org/Graphics/SVG/1.1/DTD/svg11.dtd">
<svg version="1.1" xmlns="http://www.w3.org/2000/svg" xmlns:xlink="http://www.w3.org/1999/xlink" preserveAspectRatio="xMidYMid meet" viewBox="0 0 640 640" width="640" height="640"><defs><path d="M610.75 308.78C610.75 473.33 477.16 606.93 312.6 606.93C148.05 606.93 14.45 473.33 14.45 308.78C14.45 144.23 148.05 10.63 312.6 10.63C477.16 10.63 610.75 144.23 610.75 308.78Z" id="e1y3pVFUCl"></path><radialGradient id="gradiente4vZFhg2oe" gradientUnits="userSpaceOnUse" cx="312.6" cy="308.78" dx="308.42" dy="606.93" r="298.18"><stop style="stop-color: #00b2c4;stop-opacity: 1" offset="0%"></stop><stop style="stop-color: #038390;stop-opacity: 1" offset="100%"></stop></radialGradient><path d="M505.57 163.61C505.57 238.96 419.1 300.14 312.6 300.14C206.1 300.14 119.64 238.96 119.64 163.61C119.64 88.25 206.1 27.07 312.6 27.07C419.1 27.07 505.57 88.25 505.57 163.61Z" id="d31uBoST9w"></path><linearGradient id="gradientd8ardGh5e" gradientUnits="userSpaceOnUse" x1="312.6" y1="27.07" x2="312.6" y2="300.14"><stop style="stop-color: #bde4e7;stop-opacity: 1" offset="0%"></stop><stop style="stop-color: #00b1c3;stop-opacity: 1" offset="100%"></stop></linearGradient><path d="M252.65 62.31C260.74 75.39 247.4 98.32 222.87 113.48C198.35 128.64 171.87 130.32 163.78 117.24C155.7 104.16 169.04 81.23 193.57 66.07C218.09 50.91 244.57 49.22 252.65 62.31Z" id="b4n3UrjLU"></path><path d="M123.88 272.21L197.41 272.21L292.56 203.49L292.56 452.19L188.76 365.68L123.88 365.68L123.88 282.38L123.88 272.21Z" id="a4U8WrbGA"></path><path d="M123.88 272.03L197.83 269.78L292.56 203.49L292.56 226.76L197.83 291.63L123.88 291.63L123.88 272.03Z" id="bwM93KsH8"></path><linearGradient id="gradientayV4VBqgM" gradientUnits="userSpaceOnUse" x1="208.22" y1="266.19" x2="208.22" y2="291.63"><stop style="stop-color: #242424;stop-opacity: 1" offset="0%"></stop><stop style="stop-color: #3b3b3b;stop-opacity: 1" offset="100%"></stop></linearGradient><path d="M123.88 273.3L123.88 365.84L139.86 365.84L139.86 273.3L123.88 273.3Z" id="aNtPj6f0n"></path><linearGradient id="gradienta33vlfTKf" gradientUnits="userSpaceOnUse" x1="119.64" y1="319.57" x2="139.86" y2="320.62"><stop style="stop-color: #141414;stop-opacity: 1" offset="0%"></stop><stop style="stop-color: #3b3b3b;stop-opacity: 1" offset="100%"></stop></linearGradient><path d="" id="abBAuzyGF"></path><path d="M349.18 404.34C378.46 356.32 376.7 306.55 343.91 255.02" id="b1cGnb5L5H"></path><path d="M406.8 429.18C422.32 395.26 429.12 360.69 427.2 325.46C425.5 294.21 416.94 262.45 401.53 230.17" id="m98Klc8wi9"></path><path d="M462.66 458.71C477.89 416.04 493.5 372.55 491.94 328.25C490.5 287.35 478.99 245.77 457.39 203.49" id="b21qUTkVKh"></path></defs><g><g><g><g><filter id="shadow14559429" x="-33.55" y="-37.37" width="699.3" height="699.3" filterUnits="userSpaceOnUse" primitiveUnits="userSpaceOnUse"><feFlood></feFlood><feComposite in2="SourceAlpha" operator="in"></feComposite><feGaussianBlur stdDeviation="4.12"></feGaussianBlur><feOffset dx="7" dy="7" result="afterOffset"></feOffset><feFlood flood-color="#000000" flood-opacity="0.66"></feFlood><feComposite in2="afterOffset" operator="in"></feComposite><feMorphology operator="dilate" radius="2"></feMorphology><feComposite in2="SourceAlpha" operator="out"></feComposite></filter><path d="M610.75 308.78C610.75 473.33 477.16 606.93 312.6 606.93C148.05 606.93 14.45 473.33 14.45 308.78C14.45 144.23 148.05 10.63 312.6 10.63C477.16 10.63 610.75 144.23 610.75 308.78Z" id="b3QezEank2" fill="white" fill-opacity="1" filter="url(#shadow14559429)"></path></g><use xlink:href="#e1y3pVFUCl" opacity="1" fill="url(#gradiente4vZFhg2oe)"></use><g><filter id="shadow1943767" x="-20.55" y="-24.37" width="675.3" height="674.3" filterUnits="userSpaceOnUse" primitiveUnits="userSpaceOnUse"><feFlood></feFlood><feComposite in2="SourceAlpha" operator="out"></feComposite><feGaussianBlur stdDeviation="3"></feGaussianBlur><feOffset dx="9" dy="8" result="afterOffset"></feOffset><feFlood flood-color="#055f68" flood-opacity="1"></feFlood><feComposite in2="afterOffset" operator="in"></feComposite><feMorphology operator="dilate" radius="3"></feMorphology><feComposite in2="SourceAlpha" operator="in"></feComposite></filter><path d="M610.75 308.78C610.75 473.33 477.16 606.93 312.6 606.93C148.05 606.93 14.45 473.33 14.45 308.78C14.45 144.23 148.05 10.63 312.6 10.63C477.16 10.63 610.75 144.23 610.75 308.78Z" id="e54rtwSKGK" fill="white" fill-opacity="1" filter="url(#shadow1943767)"></path></g></g><g><use xlink:href="#d31uBoST9w" opacity="1" fill="url(#gradientd8ardGh5e)"></use></g><g><use xlink:href="#b4n3UrjLU" opacity="1" fill="#f5f5f5" fill-opacity="1"></use></g><g><use xlink:href="#a4U8WrbGA" opacity="1" fill="#3b3b3b" fill-opacity="1"></use><g><use xlink:href="#a4U8WrbGA" opacity="1" fill-opacity="0" stroke="#000000" stroke-width="1" stroke-opacity="1"></use></g></g><g><use xlink:href="#bwM93KsH8" opacity="1" fill="url(#gradientayV4VBqgM)"></use><g><use xlink:href="#bwM93KsH8" opacity="1" fill-opacity="0" stroke="#3b3b3b" stroke-width="2" stroke-opacity="1"></use></g></g><g><use xlink:href="#aNtPj6f0n" opacity="1" fill="url(#gradienta33vlfTKf)"></use><g><use xlink:href="#aNtPj6f0n" opacity="1" fill-opacity="0" stroke="#3b3b3b" stroke-width="2" stroke-opacity="0"></use></g></g><g><g><use xlink:href="#abBAuzyGF" opacity="1" fill-opacity="0" stroke="#292929" stroke-width="2" stroke-opacity="1"></use></g></g><g><use xlink:href="#b1cGnb5L5H" opacity="1" fill="#292929" fill-opacity="0"></use><g><use xlink:href="#b1cGnb5L5H" opacity="1" fill-opacity="0" stroke="#3b3b3b" stroke-width="14" stroke-opacity="1"></use></g></g><g><use xlink:href="#m98Klc8wi9" opacity="1" fill="#292929" fill-opacity="0"></use><g><use xlink:href="#m98Klc8wi9" opacity="1" fill-opacity="0" stroke="#3b3b3b" stroke-width="14" stroke-opacity="1"></use></g></g><g><use xlink:href="#b21qUTkVKh" opacity="1" fill="#292929" fill-opacity="0"></use><g><use xlink:href="#b21qUTkVKh" opacity="1" fill-opacity="0" stroke="#3b3b3b" stroke-width="14" stroke-opacity="1"></use></g></g></g></g></svg>