<?xml version="1.0" encoding="UTF-8" standalone="no"?>
<!DOCTYPE svg PUBLIC "-//W3C//DTD SVG 1.1//EN" "http://www.w3.org/Graphics/SVG/1.1/DTD/svg11.dtd">
<svg version="1.1" xmlns="http://www.w3.org/2000/svg" xmlns:xlink="http://www.w3.org/1999/xlink" preserveAspectRatio="xMidYMid meet" viewBox="0 0 640 640" width="640" height="640"><defs><path d="M61.38 183.79C47.59 186.86 43.75 197.97 49.89 217.13C97.39 335.13 124.98 402.57 132.64 419.43C140.31 436.28 153.33 440.88 171.72 433.22L225.75 419.43L252.18 491.84L320 380.34C424.98 356.59 485.52 341.26 501.61 334.37C517.7 327.47 524.98 315.59 523.45 298.74C504.29 215.21 492.03 164.64 486.67 147.01C481.3 129.39 469.81 122.11 452.18 125.17L114.25 173.45C92.8 177.28 75.17 180.73 61.38 183.79Z" id="n2dAoH8Oj1"></path><path d="M132.64 416.58L145.29 433.95L162.53 433.95L224.6 416.58L253.33 491.84L320 377.22L495.86 336.7L517.7 321.65L523.65 300.81L503.91 210.5L488.97 213.98L459.08 218.61L428.05 222.08L399.31 225.55L365.98 229.03L329.2 234.82L290.11 240.6L260.23 245.24L224.6 248.71L184.37 252.18L145.29 254.5L117.7 254.5L87.82 254.5L65.98 254.5L132.64 416.58Z" id="aKJ3VFkKE"></path><linearGradient id="gradientb29BlH6nCK" gradientUnits="userSpaceOnUse" x1="294.81" y1="210.5" x2="294.81" y2="491.84"><stop style="stop-color: #ffad00;stop-opacity: 1" offset="0%"></stop><stop style="stop-color: #fcf300;stop-opacity: 1" offset="100%"></stop></linearGradient><path d="M47.06 201.03L51.03 187.24L65.98 180.34L447.59 124.49L462.53 124.49L478.62 129.77L486.67 143.56L503.91 212.53L468.28 219.43L411.95 228.62L357.93 232.07L323.45 237.82L254.48 248.16L213.1 251.61L164.83 256.21L123.45 256.21L84.37 256.21L65.98 256.21L51.03 219.43L47.06 201.03Z" id="d5lhPGsiz"></path><linearGradient id="gradientd1M1WXIyvk" gradientUnits="userSpaceOnUse" x1="275.48" y1="124.49" x2="275.48" y2="256.21"><stop style="stop-color: #fd9505;stop-opacity: 1" offset="0%"></stop><stop style="stop-color: #ffda6b;stop-opacity: 1" offset="100%"></stop></linearGradient><path d="" id="dCuwr1nyP"></path><path d="M51.28 218.56L132.97 418.56L143.53 433.35L159.03 437.57L225.22 418.56L251.98 491.84L242.83 502.36L216.07 431.24C175.69 441.57 151.51 446.49 143.53 446.03C135.55 445.56 129.21 440.63 124.52 431.24C71.47 299.31 44 229.83 42.12 222.79C40.25 215.74 41.89 208.23 47.06 200.25L51.28 218.56Z" id="bdvkrkP2n"></path></defs><g><g><g><use xlink:href="#n2dAoH8Oj1" opacity="1" fill="#ffffff" fill-opacity="1"></use><g><use xlink:href="#n2dAoH8Oj1" opacity="1" fill-opacity="0" stroke="#ffee22" stroke-width="1" stroke-opacity="1"></use></g></g><g><use xlink:href="#aKJ3VFkKE" opacity="1" fill="url(#gradientb29BlH6nCK)"></use><g><use xlink:href="#aKJ3VFkKE" opacity="1" fill-opacity="0" stroke="#ffffff" stroke-width="1" stroke-opacity="1"></use></g></g><g><use xlink:href="#d5lhPGsiz" opacity="1" fill="url(#gradientd1M1WXIyvk)"></use><g><use xlink:href="#d5lhPGsiz" opacity="1" fill-opacity="0" stroke="#101004" stroke-width="1" stroke-opacity="0"></use></g></g><g><g><use xlink:href="#dCuwr1nyP" opacity="1" fill-opacity="0" stroke="#ada97e" stroke-width="1" stroke-opacity="1"></use></g></g><g><use xlink:href="#bdvkrkP2n" opacity="1" fill="#fb7e00" fill-opacity="1"></use><g><use xlink:href="#bdvkrkP2n" opacity="1" fill-opacity="0" stroke="#ada97e" stroke-width="1" stroke-opacity="1"></use></g></g></g></g></svg>