<?xml version="1.0" encoding="UTF-8" standalone="no"?>
<!DOCTYPE svg PUBLIC "-//W3C//DTD SVG 1.1//EN" "http://www.w3.org/Graphics/SVG/1.1/DTD/svg11.dtd">
<svg version="1.1" xmlns="http://www.w3.org/2000/svg" xmlns:xlink="http://www.w3.org/1999/xlink" preserveAspectRatio="xMidYMid meet" viewBox="0 0 640 640" width="640" height="640"><defs><path d="M574.29 352.7C574.29 456.68 463.51 541.1 327.06 541.1C190.6 541.1 79.82 456.68 79.82 352.7C79.82 248.71 190.6 164.29 327.06 164.29C463.51 164.29 574.29 248.71 574.29 352.7Z" id="a5JV99RLF"></path><path d="M571.44 335.79C571.44 430.44 461.29 507.28 325.63 507.28C189.96 507.28 79.82 430.44 79.82 335.79C79.82 241.13 189.96 164.29 325.63 164.29C461.29 164.29 571.44 241.13 571.44 335.79Z" id="i6YjYbAxEP"></path><path d="M204.63 104.98L204.63 104.98C189.17 196.54 180.56 250.28 178.77 266.18C176.99 282.07 185.61 293.84 204.63 301.47C377.57 347.89 474.14 373.32 494.35 377.77C514.55 382.23 525.84 373.96 528.22 352.97C542.48 262.68 551.4 207.04 554.96 186.05C558.53 165.07 551.99 151.71 535.35 145.99C368.66 118.29 264.48 100.98 222.81 94.05C218.33 93.31 213.77 94.89 210.72 98.26C209.91 99.15 207.88 101.39 204.63 104.98Z" id="e1R4oDz4H6"></path><path d="M197.79 117.57L197.79 117.57C182.94 209.14 174.65 262.87 172.94 278.77C171.22 294.66 179.51 306.43 197.79 314.06C364.05 360.48 456.9 385.91 476.33 390.36C495.75 394.82 506.61 386.55 508.89 365.56C522.61 275.27 531.18 219.63 534.6 198.64C538.03 177.66 531.75 164.31 515.75 158.58C355.49 130.88 255.33 113.57 215.27 106.64C210.98 105.9 206.61 107.45 203.75 110.73C202.96 111.64 200.97 113.92 197.79 117.57Z" id="i29YU0QUiR"></path><radialGradient id="gradienta2eq3CL0ZQ" gradientUnits="userSpaceOnUse" cx="427.55" cy="196.99" dx="418.18" dy="482.16" r="285.32"><stop style="stop-color: #97dedb;stop-opacity: 1" offset="0%"></stop><stop style="stop-color: #167571;stop-opacity: 1" offset="100%"></stop></radialGradient><path d="M147.79 161.28L147.79 161.28C134.5 232.02 127.09 273.53 125.56 285.81C124.03 298.1 131.44 307.18 147.79 313.08C296.49 348.94 379.53 368.59 396.9 372.03C414.28 375.47 423.99 369.08 426.03 352.87C438.29 283.11 445.96 240.13 449.02 223.91C452.09 207.7 446.47 197.39 432.16 192.96C288.72 171.54 199.06 158.16 163.2 152.8C159.45 152.24 155.66 153.48 152.96 156.15C152.27 156.84 150.55 158.54 147.79 161.28Z" id="b1OzXva8Ye"></path><path d="M141.91 171L141.91 171C129.14 241.75 122.02 283.26 120.54 295.54C119.07 307.82 126.19 316.91 141.91 322.81C284.87 358.67 364.7 378.32 381.41 381.76C398.11 385.2 407.44 378.81 409.41 362.6C421.2 292.84 428.57 249.85 431.52 233.64C434.46 217.43 429.06 207.11 415.31 202.69C277.52 181.29 191.4 167.92 156.96 162.57C153.22 161.99 149.44 163.25 146.8 165.96C146.15 166.64 144.52 168.32 141.91 171Z" id="fz8H6kv6"></path><linearGradient id="gradientccJRxtz1R" gradientUnits="userSpaceOnUse" x1="276.32" y1="162.43" x2="276.32" y2="382.66"><stop style="stop-color: #c6c9c8;stop-opacity: 1" offset="0%"></stop><stop style="stop-color: #898989;stop-opacity: 1" offset="100%"></stop></linearGradient><path d="" id="g2HR9db94W"></path><path d="M228.43 341.23L156.95 369.99L166.53 326.49L228.43 341.23Z" id="a2YRhFTQnV"></path><path d="M379.9 242.84C381 243.05 381.72 244.1 381.52 245.2C381.26 246.6 380.85 248.82 380.59 250.23C380.38 251.32 379.33 252.05 378.23 251.84C338.42 244.44 220.96 222.6 181.15 215.19C180.05 214.99 179.33 213.94 179.53 212.84C179.79 211.44 180.2 209.22 180.46 207.81C180.67 206.72 181.72 205.99 182.82 206.2C222.63 213.6 340.09 235.44 379.9 242.84Z" id="e2Dtb8yEEc"></path><path d="M373.12 275.12C374.22 275.32 374.94 276.38 374.74 277.48C374.48 278.88 374.07 281.1 373.81 282.5C373.6 283.6 372.55 284.32 371.45 284.12C331.64 276.71 214.18 254.87 174.37 247.47C173.27 247.27 172.55 246.21 172.75 245.12C173.01 243.71 173.42 241.49 173.69 240.09C173.89 238.99 174.94 238.27 176.04 238.47C215.85 245.88 333.31 267.72 373.12 275.12Z" id="c1imLJXhtE"></path><path d="M239.9 281.26C241 281.47 241.72 282.52 241.52 283.62C241.26 285.02 240.84 287.24 240.58 288.64C240.38 289.74 239.32 290.46 238.23 290.26C224.14 287.64 183.88 280.16 169.8 277.54C168.7 277.33 167.98 276.28 168.18 275.18C168.44 273.78 168.86 271.56 169.12 270.16C169.32 269.06 170.37 268.33 171.47 268.54C185.55 271.16 225.82 278.64 239.9 281.26Z" id="f7SLbfMiPc"></path><path d="" id="ayglLLEXt"></path><path d="M470.04 387.74L461.19 432.69L432.3 378.94L470.04 387.74Z" id="amzzTfiPj"></path><path d="M470.24 389.19L478.53 391.52L486.82 391.53L498.04 389.19L494.35 412.04L461.19 432.69L470.24 389.19Z" id="bpkso7fKJ"></path></defs><g><g><g><use xlink:href="#a5JV99RLF" opacity="1" fill="#eeab00" fill-opacity="1"></use></g><g><use xlink:href="#i6YjYbAxEP" opacity="1" fill="#fdc125" fill-opacity="1"></use></g><g><use xlink:href="#e1R4oDz4H6" opacity="1" fill="#97dedb" fill-opacity="1"></use><g><use xlink:href="#e1R4oDz4H6" opacity="1" fill-opacity="0" stroke="#000000" stroke-width="1" stroke-opacity="0"></use></g></g><g><use xlink:href="#i29YU0QUiR" opacity="1" fill="url(#gradienta2eq3CL0ZQ)"></use><g><use xlink:href="#i29YU0QUiR" opacity="1" fill-opacity="0" stroke="#000000" stroke-width="1" stroke-opacity="0"></use></g></g><g><use xlink:href="#b1OzXva8Ye" opacity="1" fill="#d8dfdd" fill-opacity="1"></use><g><use xlink:href="#b1OzXva8Ye" opacity="1" fill-opacity="0" stroke="#000000" stroke-width="1" stroke-opacity="0"></use></g></g><g><use xlink:href="#fz8H6kv6" opacity="1" fill="url(#gradientccJRxtz1R)"></use><g><use xlink:href="#fz8H6kv6" opacity="1" fill-opacity="0" stroke="#000000" stroke-width="1" stroke-opacity="0"></use></g></g><g><g><use xlink:href="#g2HR9db94W" opacity="1" fill-opacity="0" stroke="#000000" stroke-width="1" stroke-opacity="1"></use></g></g><g><use xlink:href="#a2YRhFTQnV" opacity="1" fill="#959696" fill-opacity="1"></use><g><use xlink:href="#a2YRhFTQnV" opacity="1" fill-opacity="0" stroke="#000000" stroke-width="1" stroke-opacity="0"></use></g></g><g><use xlink:href="#e2Dtb8yEEc" opacity="1" fill="#007287" fill-opacity="1"></use></g><g><use xlink:href="#c1imLJXhtE" opacity="1" fill="#007287" fill-opacity="1"></use></g><g><use xlink:href="#f7SLbfMiPc" opacity="1" fill="#007287" fill-opacity="1"></use></g><g><g><use xlink:href="#ayglLLEXt" opacity="1" fill-opacity="0" stroke="#000000" stroke-width="1" stroke-opacity="0.41"></use></g></g><g><use xlink:href="#amzzTfiPj" opacity="1" fill="#148883" fill-opacity="1"></use><g><use xlink:href="#amzzTfiPj" opacity="1" fill-opacity="0" stroke="#148883" stroke-width="1" stroke-opacity="1"></use></g></g><g><use xlink:href="#bpkso7fKJ" opacity="1" fill="#97dedb" fill-opacity="1"></use><g><use xlink:href="#bpkso7fKJ" opacity="1" fill-opacity="0" stroke="#5fcfd3" stroke-width="1" stroke-opacity="1"></use></g></g></g></g></svg>