<?xml version="1.0" encoding="UTF-8" standalone="no"?>
<!DOCTYPE svg PUBLIC "-//W3C//DTD SVG 1.1//EN" "http://www.w3.org/Graphics/SVG/1.1/DTD/svg11.dtd">
<svg version="1.1" xmlns="http://www.w3.org/2000/svg" xmlns:xlink="http://www.w3.org/1999/xlink" preserveAspectRatio="xMidYMid meet" viewBox="0 0 640 640" width="640" height="640"><defs><path d="M57.05 215L333.38 367.57L464.34 171.13L191.94 25.76L57.05 215Z" id="c12B5XWRIM"></path><path d="M464.34 171.13L576.96 196.66L347.78 75.52L191.94 25.76L464.34 171.13Z" id="a8IxLrsOjS"></path><path d="M464.34 168.51L576.96 196.66L576.96 218.27L474.82 196.66L349.09 385.9L333.38 367.57L464.34 168.51Z" id="a17OD0ufN6"></path><path d="M339.93 370.18L333.38 632.11L83.24 482.81L83.24 228.75L339.93 370.18Z" id="b3Uro8yUx4"></path><path d="M237.78 380.66L237.78 459.24L168.37 417.33L168.37 340.06L237.78 380.66Z" id="c5tYzjdJnM"></path><path d="M339.93 374.11L350.4 385.9L474.82 196.66L561.25 214.34L557.32 459.24L329.45 632.11L339.93 374.11Z" id="e1OCPK8O8b"></path><path d="M482.67 516.86L482.67 389.83L425.05 436.97L425.05 556.15L482.67 516.86Z" id="a2ilKFq4lA"></path><path d="M482.67 515.55L482.67 389.83L493.15 379.35L493.15 505.07L482.67 515.55Z" id="fMujLFRqo"></path><path d="M169.33 410.11C168.25 411.48 168.25 413.13 169.33 415.04C170.4 416.95 172.56 419.12 175.78 421.57L237.78 456.9L237.78 472.99L153.96 426.07L153.96 330.9L169.33 340.28L169.33 410.11Z" id="a1cRV4X4Cf"></path><path d="M211.59 216.31L211.59 130.94L268.69 168.51L268.69 250.38L211.59 216.31Z" id="d5R4xgMOZW"></path><path d="M268.69 242.91L301.04 180.71L301.04 143.38L268.69 168.51L268.69 242.91Z" id="f8IbPXb3C"></path><path d="M268.69 168.51L211.59 130.94L240.14 103.57L301.04 143.38L268.69 168.51Z" id="b1mo9f1d8j"></path><path d="M284.87 141.43L265.46 154.7L229.38 128.99L245.55 117.38L284.87 141.43Z" id="b1EeJNnVET"></path><path d="M229.38 130.94L245.55 140.48L245.55 114.35L229.38 130.94Z" id="a13KcUAx89"></path><path d="M482.67 190.66L561.25 212.88L561.25 235.28L464.34 212.88L482.67 190.66Z" id="cfQjqYG61"></path></defs><g><g><g><use xlink:href="#c12B5XWRIM" opacity="1" fill="#474747" fill-opacity="1"></use><g><use xlink:href="#c12B5XWRIM" opacity="1" fill-opacity="0" stroke="#474747" stroke-width="1" stroke-opacity="1"></use></g></g><g><use xlink:href="#a8IxLrsOjS" opacity="1" fill="#9b9b9b" fill-opacity="1"></use><g><use xlink:href="#a8IxLrsOjS" opacity="1" fill-opacity="0" stroke="#9b9b9b" stroke-width="1" stroke-opacity="1"></use></g></g><g><use xlink:href="#a17OD0ufN6" opacity="1" fill="#bdbdbd" fill-opacity="1"></use><g><use xlink:href="#a17OD0ufN6" opacity="1" fill-opacity="0" stroke="#bdbdbd" stroke-width="1" stroke-opacity="1"></use></g></g><g><use xlink:href="#b3Uro8yUx4" opacity="1" fill="#988e8b" fill-opacity="1"></use><g><use xlink:href="#b3Uro8yUx4" opacity="1" fill-opacity="0" stroke="#9c9c9c" stroke-width="1" stroke-opacity="1"></use></g></g><g><use xlink:href="#c5tYzjdJnM" opacity="1" fill="#bc4d0b" fill-opacity="1"></use><g><use xlink:href="#c5tYzjdJnM" opacity="1" fill-opacity="0" stroke="#a79393" stroke-width="1" stroke-opacity="1"></use></g></g><g><use xlink:href="#e1OCPK8O8b" opacity="1" fill="#d2d2d2" fill-opacity="1"></use><g><use xlink:href="#e1OCPK8O8b" opacity="1" fill-opacity="0" stroke="#a79393" stroke-width="1" stroke-opacity="1"></use></g></g><g><use xlink:href="#a2ilKFq4lA" opacity="1" fill="#bc4d0b" fill-opacity="1"></use><g><use xlink:href="#a2ilKFq4lA" opacity="1" fill-opacity="0" stroke="#a79393" stroke-width="1" stroke-opacity="1"></use></g></g><g><use xlink:href="#fMujLFRqo" opacity="1" fill="#5c5c5c" fill-opacity="1"></use><g><use xlink:href="#fMujLFRqo" opacity="1" fill-opacity="0" stroke="#5c5c5c" stroke-width="1" stroke-opacity="1"></use></g></g><g><use xlink:href="#a1cRV4X4Cf" opacity="1" fill="#545454" fill-opacity="1"></use><g><use xlink:href="#a1cRV4X4Cf" opacity="1" fill-opacity="0" stroke="#5c5c5c" stroke-width="1" stroke-opacity="1"></use></g></g><g><use xlink:href="#d5R4xgMOZW" opacity="1" fill="#7a7a7a" fill-opacity="1"></use><g><use xlink:href="#d5R4xgMOZW" opacity="1" fill-opacity="0" stroke="#5c5c5c" stroke-width="1" stroke-opacity="1"></use></g></g><g><use xlink:href="#f8IbPXb3C" opacity="1" fill="#5d544f" fill-opacity="1"></use><g><use xlink:href="#f8IbPXb3C" opacity="1" fill-opacity="0" stroke="#5c5c5c" stroke-width="1" stroke-opacity="1"></use></g></g><g><use xlink:href="#b1mo9f1d8j" opacity="1" fill="#b6b6b6" fill-opacity="1"></use><g><use xlink:href="#b1mo9f1d8j" opacity="1" fill-opacity="0" stroke="#5c5c5c" stroke-width="1" stroke-opacity="1"></use></g></g><g><use xlink:href="#b1EeJNnVET" opacity="1" fill="#474747" fill-opacity="1"></use><g><use xlink:href="#b1EeJNnVET" opacity="1" fill-opacity="0" stroke="#5c5c5c" stroke-width="1" stroke-opacity="1"></use></g></g><g><use xlink:href="#a13KcUAx89" opacity="1" fill="#a7a6a6" fill-opacity="1"></use><g><use xlink:href="#a13KcUAx89" opacity="1" fill-opacity="0" stroke="#a7a6a6" stroke-width="1" stroke-opacity="1"></use></g></g><g><use xlink:href="#cfQjqYG61" opacity="1" fill="#929292" fill-opacity="1"></use><g><use xlink:href="#cfQjqYG61" opacity="1" fill-opacity="0" stroke="#a7a6a6" stroke-width="1" stroke-opacity="1"></use></g></g></g></g></svg>