<?xml version="1.0" encoding="UTF-8" standalone="no"?>
<!DOCTYPE svg PUBLIC "-//W3C//DTD SVG 1.1//EN" "http://www.w3.org/Graphics/SVG/1.1/DTD/svg11.dtd">
<svg version="1.1" xmlns="http://www.w3.org/2000/svg" xmlns:xlink="http://www.w3.org/1999/xlink" preserveAspectRatio="xMidYMid meet" viewBox="0 0 640 640" width="640" height="640"><defs><path d="M543.17 102.1L550.11 112.08L555.94 124.97L555.94 540.4L555.66 537.67L545.88 546.8L535.68 554.53L525.12 560.56L510.8 565.56L515.61 566.88L107.29 566.88L97.19 559.41L87.73 550.78L79.87 541.5L73.13 529.69L73.13 122.79L80.16 111.41L87.97 101.26L96.56 92.66L109.06 84.06L525.04 84.06L534.56 92.61L543.17 102.1Z" id="asPxqWuft"></path><path d="M536.79 553.7L526.36 559.95L512.15 565.25L518.63 566.88L108.15 566.88L109.06 566.59L98.15 558.85L88.53 550.4L80.49 541.28L75.47 532.88L75.47 119.65L81.72 110.63L87.97 102.81L89.52 101.26L539.26 551.74L536.79 553.7Z" id="aWKNPa7jN"></path><path d="M270.26 173.21L264.45 175.28L258.75 177.56L253.16 180.06L247.68 182.76L242.33 185.67L237.1 188.78L232.01 192.08L227.05 195.57L222.24 199.25L217.58 203.1L213.06 207.12L208.71 211.31L204.52 215.67L200.49 220.18L196.64 224.85L192.97 229.66L189.48 234.61L186.18 239.71L183.07 244.93L180.16 250.29L177.45 255.76L174.96 261.35L172.67 267.06L170.61 272.87L168.77 278.78L167.16 284.79L165.78 290.9L164.64 297.08L163.75 303.35L163.1 309.7L162.71 316.12L162.58 322.6L162.71 329.09L163.1 335.51L163.75 341.85L164.64 348.13L165.78 354.31L167.16 360.42L168.77 366.43L170.61 372.34L172.67 378.15L174.96 383.86L177.45 389.45L180.16 394.92L183.07 400.28L186.18 405.5L189.48 410.59L192.97 415.55L196.64 420.36L200.49 425.03L204.52 429.54L208.71 433.9L213.06 438.09L217.58 442.11L222.24 445.96L227.05 449.64L232.01 453.13L237.1 456.43L242.33 459.53L247.68 462.44L253.16 465.15L258.75 467.65L264.45 469.93L270.26 472L276.18 473.84L282.19 475.45L288.29 476.83L294.48 477.96L300.75 478.86L307.1 479.5L313.52 479.89L320 480.03L326.48 479.89L332.9 479.5L339.25 478.86L345.52 477.96L351.71 476.83L357.81 475.45L363.82 473.84L369.74 472L375.55 469.93L381.25 467.65L386.84 465.15L392.32 462.44L397.67 459.53L402.9 456.43L407.99 453.13L412.95 449.64L417.76 445.96L422.42 442.11L426.94 438.09L431.29 433.9L435.48 429.54L439.51 425.03L443.36 420.36L447.03 415.55L450.52 410.59L453.82 405.5L456.93 400.28L459.84 394.92L462.55 389.45L465.04 383.86L467.33 378.15L469.39 372.34L471.23 366.43L472.84 360.42L474.22 354.31L475.36 348.13L476.25 341.85L476.9 335.51L477.29 329.09L477.42 322.6L477.29 316.12L476.9 309.7L476.25 303.35L475.36 297.08L474.22 290.9L472.84 284.79L471.23 278.78L469.39 272.87L467.33 267.06L465.04 261.35L462.55 255.76L459.84 250.29L456.93 244.93L453.82 239.71L450.52 234.61L447.03 229.66L443.36 224.85L439.51 220.18L435.48 215.67L431.29 211.31L426.94 207.12L422.42 203.1L417.76 199.25L412.95 195.57L407.99 192.08L402.9 188.78L397.67 185.67L392.32 182.76L386.84 180.06L381.25 177.56L379.38 176.81L379.38 142.29L384.56 144.13L391.47 146.9L398.24 149.92L404.87 153.2L411.36 156.73L417.69 160.49L423.86 164.49L429.86 168.72L435.69 173.17L441.34 177.83L446.81 182.71L452.09 187.78L457.16 193.06L462.04 198.53L466.7 204.18L471.15 210.01L475.38 216.01L479.38 222.18L483.15 228.51L486.67 235L489.95 241.63L492.97 248.4L495.74 255.31L498.24 262.35L500.47 269.52L502.42 276.8L504.09 284.19L505.47 291.69L506.55 299.28L507.34 306.97L507.81 314.75L507.97 322.6L507.81 330.46L507.34 338.24L506.55 345.92L505.47 353.52L504.09 361.02L502.42 368.41L500.47 375.69L498.24 382.85L495.74 389.89L492.97 396.81L489.95 403.58L486.67 410.21L483.15 416.7L479.38 423.03L475.38 429.2L471.15 435.2L466.7 441.03L462.04 446.68L457.16 452.15L452.09 457.43L446.81 462.5L441.34 467.38L435.69 472.04L429.86 476.49L423.86 480.72L417.69 484.72L411.36 488.48L404.87 492.01L398.24 495.29L391.47 498.31L384.56 501.08L377.52 503.58L370.35 505.81L363.07 507.76L355.68 509.43L348.18 510.81L340.59 511.89L332.9 512.67L325.12 513.15L317.27 513.31L309.41 513.15L301.63 512.67L293.95 511.89L286.35 510.81L278.85 509.43L271.46 507.76L264.18 505.81L257.02 503.58L249.98 501.08L243.07 498.31L236.29 495.29L229.66 492.01L223.17 488.48L216.84 484.72L210.67 480.72L204.67 476.49L198.84 472.04L193.19 467.38L187.72 462.5L182.44 457.43L177.37 452.15L172.49 446.68L167.83 441.03L163.38 435.2L159.15 429.2L155.15 423.03L151.39 416.7L147.86 410.21L144.58 403.58L141.56 396.81L138.79 389.89L136.29 382.85L134.06 375.69L132.11 368.41L130.44 361.02L129.06 353.52L127.98 345.92L127.2 338.24L126.72 330.46L126.56 322.6L126.72 314.75L127.2 306.97L127.98 299.28L129.06 291.69L130.44 284.19L132.11 276.8L134.06 269.52L136.29 262.35L138.79 255.31L141.56 248.4L144.58 241.63L147.86 235L151.39 228.51L155.15 222.18L159.15 216.01L163.38 210.01L167.83 204.18L172.49 198.53L177.37 193.06L182.44 187.78L187.72 182.71L193.19 177.83L198.84 173.17L204.67 168.72L210.67 164.49L216.84 160.49L223.17 156.73L229.66 153.2L236.29 149.92L243.07 146.9L249.98 144.13L257.02 141.63L264.18 139.4L270.78 137.63L270.78 173.05L270.26 173.21Z" id="cj72KPp1P"></path><path d="M320 413.75L324.69 122.79" id="bo65gS19w"></path><path d="" id="cG8vyMWLW"></path></defs><g><g><g><use xlink:href="#asPxqWuft" opacity="1" fill="#aa1515" fill-opacity="1"></use></g><g><use xlink:href="#aWKNPa7jN" opacity="1" fill="#cb2929" fill-opacity="1"></use><g><use xlink:href="#aWKNPa7jN" opacity="1" fill-opacity="0" stroke="#ff1e1e" stroke-width="1" stroke-opacity="0"></use></g></g><g><use xlink:href="#cj72KPp1P" opacity="1" fill="#ffffff" fill-opacity="1"></use></g><g><use xlink:href="#bo65gS19w" opacity="1" fill="#f5dcdc" fill-opacity="1"></use><g><use xlink:href="#bo65gS19w" opacity="1" fill-opacity="0" stroke="#ffffff" stroke-width="24" stroke-opacity="1"></use></g></g><g><g><use xlink:href="#cG8vyMWLW" opacity="1" fill-opacity="0" stroke="#000000" stroke-width="2" stroke-opacity="0.3"></use></g></g></g></g></svg>