<?xml version="1.0" encoding="UTF-8" standalone="no"?>
<!DOCTYPE svg PUBLIC "-//W3C//DTD SVG 1.1//EN" "http://www.w3.org/Graphics/SVG/1.1/DTD/svg11.dtd">
<svg version="1.1" xmlns="http://www.w3.org/2000/svg" xmlns:xlink="http://www.w3.org/1999/xlink" preserveAspectRatio="xMidYMid meet" viewBox="0 0 640 640" width="640" height="640"><defs><path d="M264.59 140.25L257.56 142.75L250.67 145.51L243.91 148.52L237.29 151.79L230.83 155.31L224.51 159.07L218.36 163.05L212.37 167.27L206.55 171.71L200.91 176.36L195.46 181.23L190.2 186.29L185.13 191.55L180.27 197.01L175.62 202.65L171.18 208.46L166.96 214.45L162.97 220.61L159.22 226.92L155.7 233.39L152.43 240.01L149.41 246.76L146.65 253.66L144.16 260.68L141.93 267.83L139.99 275.09L138.32 282.46L136.94 289.94L135.86 297.52L135.08 305.19L134.61 312.94L134.45 320.78L134.61 328.62L135.08 336.37L135.86 344.04L136.94 351.62L138.32 359.1L139.99 366.47L141.93 373.74L144.16 380.88L146.65 387.91L149.41 394.8L152.43 401.56L155.7 408.17L159.22 414.64L162.97 420.96L166.96 427.11L171.18 433.1L175.62 438.92L180.27 444.56L185.13 450.01L190.2 455.27L195.46 460.34L200.91 465.2L206.55 469.85L212.37 474.29L218.36 478.51L224.51 482.5L230.83 486.25L237.29 489.77L243.91 493.04L250.67 496.06L257.56 498.82L264.59 501.31L271.73 503.54L278.99 505.48L286.37 507.15L293.85 508.52L301.42 509.6L309.09 510.38L316.85 510.86L324.69 511.02L332.52 510.86L340.28 510.38L347.95 509.6L355.53 508.52L363.01 507.15L370.38 505.48L377.64 503.54L384.79 501.31L391.81 498.82L398.71 496.06L405.46 493.04L412.08 489.77L418.55 486.25L424.86 482.5L431.02 478.51L437.01 474.29L442.82 469.85L448.46 465.2L453.91 460.34L459.18 455.27L464.24 450.01L469.11 444.56L473.76 438.92L478.2 433.1L482.41 427.11L486.4 420.96L490.16 414.64L493.67 408.17L496.94 401.56L499.96 394.8L502.72 387.91L505.22 380.88L507.44 373.74L509.39 366.47L511.05 359.1L512.43 351.62L513.51 344.04L514.29 336.37L514.76 328.62L514.92 320.78L514.76 312.94L514.29 305.19L513.51 297.52L512.43 289.94L511.05 282.46L509.39 275.09L507.44 267.83L505.22 260.68L502.72 253.66L499.96 246.76L496.94 240.01L493.67 233.39L490.16 226.92L486.4 220.61L482.41 214.45L478.2 208.46L473.76 202.65L469.11 197.01L464.24 191.55L459.18 186.29L453.91 181.23L448.46 176.36L442.82 171.71L437.01 167.27L431.02 163.05L424.86 159.07L418.55 155.31L412.08 151.79L405.46 148.52L398.71 145.51L391.81 142.75L391.09 142.49L391.09 105.8L395.77 107.26L404.08 110.21L412.23 113.47L420.23 117.04L428.05 120.91L435.7 125.07L443.17 129.51L450.45 134.23L457.53 139.22L464.41 144.47L471.08 149.97L477.53 155.72L483.76 161.71L489.75 167.94L495.5 174.39L501 181.06L506.25 187.94L511.24 195.02L515.96 202.3L520.4 209.77L524.56 217.42L528.43 225.24L531.99 233.24L535.26 241.39L538.21 249.7L540.84 258.15L543.14 266.74L545.11 275.46L546.74 284.31L548.02 293.27L548.94 302.34L549.5 311.51L549.69 320.78L549.5 330.05L548.94 339.22L548.02 348.3L546.74 357.26L545.11 366.1L543.14 374.82L540.84 383.41L538.21 391.87L535.26 400.17L531.99 408.33L528.43 416.32L524.56 424.15L520.4 431.8L515.96 439.26L511.24 446.54L506.25 453.63L501 460.51L495.5 467.17L489.75 473.62L483.76 479.85L477.53 485.84L471.08 491.59L464.41 497.1L457.53 502.35L450.45 507.33L443.17 512.05L435.7 516.49L428.05 520.65L420.23 524.52L412.23 528.09L404.08 531.35L395.77 534.3L387.32 536.93L378.73 539.24L370.01 541.21L361.16 542.83L352.2 544.11L343.13 545.03L333.96 545.59L324.69 545.78L315.42 545.59L306.25 545.03L297.17 544.11L288.21 542.83L279.37 541.21L270.64 539.24L262.05 536.93L253.6 534.3L245.3 531.35L237.14 528.09L229.15 524.52L221.32 520.65L213.67 516.49L206.2 512.05L198.92 507.33L191.84 502.35L184.96 497.1L178.29 491.59L171.84 485.84L165.62 479.85L159.63 473.62L153.88 467.17L148.37 460.51L143.12 453.63L138.14 446.54L133.42 439.26L128.98 431.8L124.82 424.15L120.95 416.32L117.38 408.33L114.12 400.17L111.17 391.87L108.54 383.41L106.23 374.82L104.26 366.1L102.63 357.26L101.36 348.3L100.43 339.22L99.88 330.05L99.69 320.78L99.88 311.51L100.43 302.34L101.36 293.27L102.63 284.31L104.26 275.46L106.23 266.74L108.54 258.15L111.17 249.7L114.12 241.39L117.38 233.24L120.95 225.24L124.82 217.42L128.98 209.77L133.42 202.3L138.14 195.02L143.12 187.94L148.37 181.06L153.88 174.39L159.63 167.94L165.62 161.71L171.84 155.72L178.29 149.97L184.96 144.47L191.84 139.22L198.92 134.23L206.2 129.51L213.67 125.07L221.32 120.91L229.15 117.04L237.14 113.47L245.3 110.21L253.6 107.26L262.05 104.63L268.44 102.92L268.44 139.05L264.59 140.25Z" id="c1J8yX8Rs"></path><path d="M333.28 427.81L333.28 98.91" id="i1lS4EFeph"></path></defs><g><g><g><use xlink:href="#c1J8yX8Rs" opacity="1" fill="#ffffff" fill-opacity="1"></use></g><g><use xlink:href="#i1lS4EFeph" opacity="1" fill="#ffffff" fill-opacity="1"></use><g><use xlink:href="#i1lS4EFeph" opacity="1" fill-opacity="0" stroke="#ffffff" stroke-width="24" stroke-opacity="1"></use></g></g></g></g></svg>