<?xml version="1.0" encoding="UTF-8" standalone="no"?>
<!DOCTYPE svg PUBLIC "-//W3C//DTD SVG 1.1//EN" "http://www.w3.org/Graphics/SVG/1.1/DTD/svg11.dtd">
<svg version="1.1" xmlns="http://www.w3.org/2000/svg" xmlns:xlink="http://www.w3.org/1999/xlink" preserveAspectRatio="xMidYMid meet" viewBox="0 0 640 640" width="640" height="640"><defs><path d="M342.05 54.57L352.53 55.63L362.89 57.11L373.11 58.99L383.19 61.27L393.12 63.93L402.88 66.97L412.48 70.38L421.9 74.15L431.14 78.27L440.18 82.74L449.02 87.55L457.65 92.68L466.07 98.13L474.25 103.9L482.2 109.96L489.91 116.32L497.36 122.97L504.55 129.89L511.48 137.08L518.12 144.54L524.48 152.24L530.55 160.19L536.31 168.38L541.76 176.79L546.9 185.42L551.7 194.26L556.17 203.3L560.3 212.54L564.07 221.96L567.48 231.56L570.52 241.33L573.18 251.25L575.45 261.33L577.34 271.55L578.81 281.91L579.88 292.39L580.52 302.99L580.74 313.7L580.52 324.41L579.88 335.01L578.81 345.5L577.34 355.85L575.45 366.08L573.18 376.15L570.52 386.08L567.48 395.85L564.07 405.45L560.3 414.87L556.17 424.1L551.7 433.15L546.9 441.99L541.76 450.62L536.31 459.03L530.55 467.21L524.48 475.16L518.12 482.87L511.48 490.32L504.55 497.52L497.36 504.44L489.91 511.08L482.2 517.45L474.25 523.51L466.07 529.27L457.65 534.73L449.02 539.86L440.18 544.66L431.14 549.13L421.9 553.26L412.48 557.03L402.88 560.44L393.12 563.48L383.19 566.14L373.11 568.42L362.89 570.3L352.53 571.78L342.05 572.84L331.45 573.49L320.74 573.7L310.03 573.49L299.43 572.84L288.95 571.78L278.59 570.3L268.37 568.42L258.29 566.14L248.36 563.48L238.6 560.44L229 557.03L219.58 553.26L210.34 549.13L201.3 544.66L192.46 539.86L183.83 534.73L175.41 529.27L167.23 523.51L159.28 517.45L151.57 511.08L144.12 504.44L136.93 497.52L130.01 490.32L123.36 482.87L117 475.16L110.93 467.21L105.17 459.03L99.72 450.62L94.58 441.99L89.78 433.15L85.31 424.1L81.19 414.87L77.41 405.45L74 395.85L70.96 386.08L68.3 376.15L66.03 366.08L64.15 355.85L62.67 345.5L61.6 335.01L60.96 324.41L60.74 313.7L60.96 302.99L61.6 292.39L62.67 281.91L64.15 271.55L66.03 261.33L68.3 251.25L70.96 241.33L74 231.56L77.41 221.96L81.19 212.54L85.31 203.3L89.78 194.26L94.58 185.42L99.72 176.79L105.17 168.38L110.93 160.19L117 152.24L123.36 144.54L130.01 137.08L136.93 129.89L144.12 122.97L151.57 116.32L159.28 109.96L167.23 103.9L175.41 98.13L183.83 92.68L192.46 87.55L201.3 82.74L210.34 78.27L219.58 74.15L229 70.38L238.6 66.97L248.36 63.93L258.29 61.27L268.37 58.99L278.59 57.11L288.95 55.63L299.43 54.57L310.03 53.92L320.74 53.7L331.45 53.92L342.05 54.57ZM307.55 140.21L300.52 140.92L293.57 141.91L286.71 143.18L279.95 144.7L273.29 146.49L266.74 148.53L260.3 150.82L253.98 153.35L247.78 156.11L241.71 159.11L235.78 162.34L229.99 165.78L224.35 169.44L218.86 173.31L213.52 177.38L208.35 181.64L203.35 186.1L198.53 190.75L193.88 195.57L189.42 200.57L185.15 205.74L181.08 211.08L177.22 216.57L173.56 222.21L170.11 228L166.89 233.94L163.89 240L161.13 246.2L158.59 252.52L156.31 258.96L154.27 265.51L152.48 272.17L150.95 278.94L149.69 285.79L148.7 292.74L147.99 299.78L147.55 306.89L147.41 314.07L147.55 321.26L147.99 328.37L148.7 335.41L149.69 342.35L150.95 349.21L152.48 355.97L154.27 362.63L156.31 369.19L158.59 375.63L161.13 381.95L163.89 388.15L166.89 394.21L170.11 400.14L173.56 405.94L177.22 411.58L181.08 417.07L185.15 422.4L189.42 427.57L193.88 432.57L198.53 437.4L203.35 442.05L208.35 446.51L213.52 450.77L218.86 454.84L224.35 458.71L229.99 462.37L235.78 465.81L241.71 469.04L247.78 472.03L253.98 474.8L260.3 477.33L266.74 479.62L273.29 481.66L279.95 483.44L286.71 484.97L293.57 486.23L300.52 487.22L307.55 487.94L314.67 488.37L321.85 488.52L329.04 488.37L336.15 487.94L343.18 487.22L350.13 486.23L356.99 484.97L363.75 483.44L370.41 481.66L376.97 479.62L383.4 477.33L389.73 474.8L395.92 472.03L401.99 469.04L407.92 465.81L413.71 462.37L419.36 458.71L424.85 454.84L430.18 450.77L435.35 446.51L440.35 442.05L445.18 437.4L449.82 432.57L454.28 427.57L458.55 422.4L462.62 417.07L466.49 411.58L470.15 405.94L473.59 400.14L476.81 394.21L479.81 388.15L482.58 381.95L485.11 375.63L487.4 369.19L489.44 362.63L491.22 355.97L492.75 349.21L494.01 342.35L495 335.41L495.72 328.37L496.15 321.26L496.3 314.07L496.15 306.89L495.72 299.78L495 292.74L494.01 285.79L492.75 278.94L491.22 272.17L489.44 265.51L487.4 258.96L485.11 252.52L482.58 246.2L479.81 240L476.81 233.94L473.59 228L470.15 222.21L466.49 216.57L462.62 211.08L458.55 205.74L454.28 200.57L449.82 195.57L445.18 190.75L440.35 186.1L435.35 181.64L430.18 177.38L424.85 173.31L419.36 169.44L413.71 165.78L407.92 162.34L401.99 159.11L395.92 156.11L389.73 153.35L383.4 150.82L376.97 148.53L370.41 146.49L363.75 144.7L356.99 143.18L350.13 141.91L343.18 140.92L336.15 140.21L329.04 139.78L321.85 139.63L314.67 139.78L307.55 140.21Z" id="i1g5YBdOOY"></path><linearGradient id="gradienta19cpTFsGo" gradientUnits="userSpaceOnUse" x1="320.74" y1="53.7" x2="320.74" y2="573.7"><stop style="stop-color: #0077f8;stop-opacity: 1" offset="0%"></stop><stop style="stop-color: #143251;stop-opacity: 1" offset="100%"></stop></linearGradient><path d="M272.5 315.12L272.62 316.7L272.83 318.27L273.11 319.82L273.48 321.35L273.92 322.86L274.44 324.35L275.03 325.81L275.69 327.25L276.42 328.66L277.22 330.04L278.09 331.39L279.02 332.72L280.02 334.01L281.08 335.27L282.2 336.49L283.37 337.68L284.61 338.84L285.9 339.95L287.24 341.03L288.64 342.07L290.09 343.06L291.58 344.01L293.12 344.92L294.71 345.79L296.35 346.6L298.02 347.37L299.74 348.09L301.49 348.76L303.29 349.38L305.11 349.94L306.98 350.45L308.87 350.91L310.8 351.3L312.76 351.64L314.74 351.93L316.75 352.15L318.79 352.31L320.84 352.4L322.92 352.44L325 352.4L327.06 352.31L329.09 352.15L331.1 351.93L333.09 351.64L335.04 351.3L336.97 350.91L338.87 350.45L340.73 349.94L342.56 349.38L344.35 348.76L346.11 348.09L347.82 347.37L349.5 346.6L351.13 345.79L352.72 344.92L354.26 344.01L355.76 343.06L357.21 342.07L358.6 341.03L359.95 339.95L361.24 338.84L362.47 337.68L363.65 336.49L364.77 335.27L365.83 334.01L366.82 332.72L367.75 331.39L368.62 330.04L369.42 328.66L370.15 327.25L370.82 325.81L371.41 324.35L371.92 322.86L372.37 321.35L372.73 319.82L373.02 318.27L373.22 316.7L373.35 315.12L373.39 313.51L373.39 232.7L377.02 232.7L377.39 232.7L377.75 232.73L378.11 232.76L378.46 232.81L378.81 232.88L379.16 232.96L379.5 233.05L379.83 233.15L380.16 233.27L380.49 233.4L380.8 233.54L381.11 233.69L381.42 233.86L381.71 234.03L382 234.22L382.28 234.42L382.55 234.62L382.82 234.84L383.07 235.07L383.32 235.31L383.55 235.55L383.78 235.81L384 236.07L384.21 236.34L384.4 236.62L384.59 236.91L384.77 237.21L384.93 237.51L385.08 237.82L385.23 238.14L385.36 238.46L385.47 238.79L385.58 239.12L385.67 239.46L385.74 239.81L385.81 240.16L385.86 240.51L385.9 240.87L385.92 241.24L385.93 241.6L385.93 369.59L385.92 369.96L385.9 370.32L385.86 370.68L385.81 371.03L385.74 371.38L385.67 371.73L385.58 372.07L385.47 372.4L385.36 372.73L385.23 373.06L385.08 373.37L384.93 373.68L384.77 373.98L384.59 374.28L384.4 374.57L384.21 374.85L384 375.12L383.78 375.39L383.55 375.64L383.32 375.89L383.07 376.12L382.82 376.35L382.55 376.57L382.28 376.78L382 376.97L381.71 377.16L381.42 377.34L381.11 377.5L380.8 377.65L380.49 377.8L380.16 377.92L379.83 378.04L379.5 378.15L379.16 378.24L378.81 378.31L378.46 378.38L378.11 378.43L377.75 378.47L377.39 378.49L377.02 378.5L333.1 378.5L333.1 378.52L333.2 379.04L333.27 379.58L333.32 380.12L333.33 380.67L333.33 424.37L333.32 424.92L333.27 425.46L333.22 425.85L358.98 425.85L359.25 425.86L359.52 425.87L359.78 425.9L360.04 425.94L360.3 425.99L360.55 426.05L360.8 426.12L361.04 426.2L361.28 426.29L361.51 426.39L361.74 426.5L361.97 426.62L362.19 426.74L362.4 426.88L362.61 427.02L362.81 427.17L363 427.33L363.19 427.49L363.37 427.67L363.54 427.85L363.71 428.04L363.87 428.23L364.02 428.43L364.16 428.64L364.3 428.85L364.42 429.07L364.54 429.29L364.65 429.52L364.75 429.76L364.84 430L364.92 430.24L364.99 430.49L365.05 430.74L365.1 430.99L365.13 431.25L365.16 431.52L365.18 431.78L365.19 432.05L365.19 434.37L372.59 434.37L372.94 434.38L373.29 434.4L373.63 434.43L373.97 434.48L374.31 434.54L374.64 434.62L374.97 434.71L375.29 434.8L375.6 434.92L375.91 435.04L376.21 435.17L376.51 435.32L376.8 435.48L377.08 435.65L377.36 435.83L377.62 436.01L377.88 436.21L378.14 436.42L378.38 436.64L378.62 436.87L378.84 437.1L379.06 437.35L379.27 437.6L379.47 437.86L379.66 438.13L379.83 438.4L380 438.68L380.16 438.97L380.31 439.27L380.44 439.57L380.57 439.88L380.68 440.2L380.78 440.52L380.86 440.84L380.94 441.17L381 441.51L381.05 441.85L381.08 442.19L381.1 442.54L381.11 442.89L381.1 443.24L381.08 443.59L381.05 443.93L381 444.27L380.94 444.61L380.86 444.94L380.78 445.26L380.68 445.58L380.57 445.9L380.44 446.2L380.31 446.51L380.16 446.8L380 447.09L379.83 447.38L379.66 447.65L379.47 447.92L379.27 448.18L379.06 448.43L378.84 448.68L378.62 448.91L378.38 449.14L378.14 449.36L377.88 449.57L377.62 449.76L377.36 449.95L377.08 450.13L376.8 450.3L376.51 450.46L376.21 450.6L375.91 450.74L375.6 450.86L375.29 450.97L374.97 451.07L374.64 451.16L374.31 451.23L373.97 451.3L373.63 451.34L373.29 451.38L372.94 451.4L372.59 451.41L272.59 451.41L272.24 451.4L271.89 451.38L271.55 451.34L271.21 451.3L270.88 451.23L270.55 451.16L270.22 451.07L269.9 450.97L269.59 450.86L269.28 450.74L268.97 450.6L268.68 450.46L268.39 450.3L268.11 450.13L267.83 449.95L267.56 449.76L267.3 449.57L267.05 449.36L266.8 449.14L266.57 448.91L266.34 448.68L266.12 448.43L265.92 448.18L265.72 447.92L265.53 447.65L265.35 447.38L265.18 447.09L265.02 446.8L264.88 446.51L264.74 446.2L264.62 445.9L264.51 445.58L264.41 445.26L264.32 444.94L264.25 444.61L264.19 444.27L264.14 443.93L264.1 443.59L264.08 443.24L264.07 442.89L264.08 442.54L264.1 442.19L264.14 441.85L264.19 441.51L264.25 441.17L264.32 440.84L264.41 440.52L264.51 440.2L264.62 439.88L264.74 439.57L264.88 439.27L265.02 438.97L265.18 438.68L265.35 438.4L265.53 438.13L265.72 437.86L265.92 437.6L266.12 437.35L266.34 437.1L266.57 436.87L266.8 436.64L267.05 436.42L267.3 436.21L267.56 436.01L267.83 435.83L268.11 435.65L268.39 435.48L268.68 435.32L268.97 435.17L269.28 435.04L269.59 434.92L269.9 434.8L270.22 434.71L270.55 434.62L270.88 434.54L271.21 434.48L271.55 434.43L271.89 434.4L272.24 434.38L272.59 434.37L280 434.37L280 432.05L280.01 431.78L280.02 431.52L280.05 431.25L280.09 430.99L280.14 430.74L280.2 430.49L280.27 430.24L280.35 430L280.44 429.76L280.54 429.52L280.65 429.29L280.76 429.07L280.89 428.85L281.02 428.64L281.17 428.43L281.32 428.23L281.48 428.04L281.64 427.85L281.82 427.67L282 427.49L282.18 427.33L282.38 427.17L282.58 427.02L282.79 426.88L283 426.74L283.22 426.62L283.44 426.5L283.67 426.39L283.9 426.29L284.14 426.2L284.39 426.12L284.64 426.05L284.89 425.99L285.14 425.94L285.4 425.9L285.67 425.87L285.93 425.86L286.2 425.85L311.96 425.85L311.91 425.46L311.87 424.92L311.85 424.37L311.85 380.67L311.87 380.12L311.91 379.58L311.98 379.04L312.08 378.52L312.09 378.5L268.17 378.5L267.8 378.49L267.44 378.47L267.08 378.43L266.72 378.38L266.37 378.31L266.03 378.24L265.69 378.15L265.35 378.04L265.02 377.92L264.7 377.8L264.38 377.65L264.07 377.5L263.77 377.34L263.47 377.16L263.19 376.97L262.91 376.78L262.63 376.57L262.37 376.35L262.11 376.12L261.87 375.89L261.63 375.64L261.4 375.39L261.19 375.12L260.98 374.85L260.78 374.57L260.59 374.28L260.42 373.98L260.25 373.68L260.1 373.37L259.96 373.06L259.83 372.73L259.71 372.4L259.61 372.07L259.52 371.73L259.44 371.38L259.38 371.03L259.33 370.68L259.29 370.32L259.27 369.96L259.26 369.59L259.26 241.6L259.27 241.24L259.29 240.87L259.33 240.51L259.38 240.16L259.44 239.81L259.52 239.46L259.61 239.12L259.71 238.79L259.83 238.46L259.96 238.14L260.1 237.82L260.25 237.51L260.42 237.21L260.59 236.91L260.78 236.62L260.98 236.34L261.19 236.07L261.4 235.81L261.63 235.55L261.87 235.31L262.11 235.07L262.37 234.84L262.63 234.62L262.91 234.42L263.19 234.22L263.47 234.03L263.77 233.86L264.07 233.69L264.38 233.54L264.7 233.4L265.02 233.27L265.35 233.15L265.69 233.05L266.03 232.96L266.37 232.88L266.72 232.81L267.08 232.76L267.44 232.73L267.8 232.7L268.17 232.7L272.45 232.7L272.45 313.51L272.5 315.12ZM325.76 158.28L327.31 158.44L328.85 158.66L330.37 158.94L331.86 159.28L333.34 159.68L334.79 160.13L336.21 160.64L337.61 161.21L338.98 161.83L340.32 162.5L341.63 163.21L342.92 163.98L344.16 164.8L345.38 165.66L346.56 166.57L347.7 167.52L348.81 168.52L349.88 169.55L350.9 170.63L351.89 171.75L352.84 172.9L353.74 174.09L354.59 175.32L355.4 176.57L356.16 177.87L356.88 179.19L357.54 180.54L358.15 181.93L358.71 183.34L359.22 184.77L359.67 186.24L360.06 187.72L360.4 189.23L360.68 190.76L360.9 192.31L361.06 193.88L361.09 194.43L361.19 194.43L361.19 301.97L361.15 303.57L361.06 305.16L360.9 306.73L360.68 308.28L360.4 309.81L360.06 311.32L359.67 312.8L359.22 314.26L358.71 315.7L358.15 317.11L357.54 318.5L356.88 319.85L356.16 321.17L355.4 322.46L354.59 323.72L353.74 324.95L352.84 326.14L351.89 327.29L350.9 328.41L349.88 329.49L348.81 330.52L347.7 331.52L346.56 332.47L345.38 333.38L344.16 334.24L342.92 335.06L341.63 335.82L340.32 336.54L338.98 337.21L337.61 337.83L336.21 338.39L334.79 338.91L333.34 339.36L331.86 339.76L330.37 340.1L328.85 340.38L327.31 340.6L325.76 340.76L324.18 340.86L322.59 340.89L321 340.86L319.43 340.76L317.87 340.6L316.34 340.38L314.82 340.1L313.32 339.76L311.85 339.36L310.4 338.91L308.97 338.39L307.58 337.83L306.21 337.21L304.86 336.54L303.55 335.82L302.27 335.06L301.02 334.24L299.81 333.38L298.63 332.47L297.48 331.52L296.38 330.52L295.31 329.49L294.28 328.41L293.29 327.29L292.35 326.14L291.45 324.95L290.59 323.72L289.78 322.46L289.02 321.17L288.31 319.85L287.65 318.5L287.03 317.11L286.47 315.7L285.97 314.26L285.52 312.8L285.12 311.32L284.78 309.81L284.5 308.28L284.29 306.73L284.13 305.16L284.03 303.57L284 301.97L284 194.43L284.09 194.43L284.13 193.88L284.29 192.31L284.5 190.76L284.78 189.23L285.12 187.72L285.52 186.24L285.97 184.77L286.47 183.34L287.03 181.93L287.65 180.54L288.31 179.19L289.02 177.87L289.78 176.57L290.59 175.32L291.45 174.09L292.35 172.9L293.29 171.75L294.28 170.63L295.31 169.55L296.38 168.52L297.48 167.52L298.63 166.57L299.81 165.66L301.02 164.8L302.27 163.98L303.55 163.21L304.86 162.5L306.21 161.83L307.58 161.21L308.97 160.64L310.4 160.13L311.85 159.68L313.32 159.28L314.82 158.94L316.34 158.66L317.87 158.44L319.43 158.28L321 158.18L322.59 158.15L324.18 158.18L325.76 158.28Z" id="b8OVU25VhN"></path><linearGradient id="gradientcjItT7p4z" gradientUnits="userSpaceOnUse" x1="322.59" y1="158.15" x2="322.59" y2="451.41"><stop style="stop-color: #0077f7;stop-opacity: 1" offset="0%"></stop><stop style="stop-color: #143454;stop-opacity: 1" offset="100%"></stop></linearGradient></defs><g><g><g><g><filter id="shadow6063714" x="17.74" y="10.7" width="612" height="617" filterUnits="userSpaceOnUse" primitiveUnits="userSpaceOnUse"><feFlood></feFlood><feComposite in2="SourceAlpha" operator="in"></feComposite><feGaussianBlur stdDeviation="3.61"></feGaussianBlur><feOffset dx="6" dy="11" result="afterOffset"></feOffset><feFlood flood-color="#000000" flood-opacity="0.5"></feFlood><feComposite in2="afterOffset" operator="in"></feComposite><feMorphology operator="dilate" radius="1"></feMorphology><feComposite in2="SourceAlpha" operator="out"></feComposite></filter><path d="M342.05 54.57L352.53 55.63L362.89 57.11L373.11 58.99L383.19 61.27L393.12 63.93L402.88 66.97L412.48 70.38L421.9 74.15L431.14 78.27L440.18 82.74L449.02 87.55L457.65 92.68L466.07 98.13L474.25 103.9L482.2 109.96L489.91 116.32L497.36 122.97L504.55 129.89L511.48 137.08L518.12 144.54L524.48 152.24L530.55 160.19L536.31 168.38L541.76 176.79L546.9 185.42L551.7 194.26L556.17 203.3L560.3 212.54L564.07 221.96L567.48 231.56L570.52 241.33L573.18 251.25L575.45 261.33L577.34 271.55L578.81 281.91L579.88 292.39L580.52 302.99L580.74 313.7L580.52 324.41L579.88 335.01L578.81 345.5L577.34 355.85L575.45 366.08L573.18 376.15L570.52 386.08L567.48 395.85L564.07 405.45L560.3 414.87L556.17 424.1L551.7 433.15L546.9 441.99L541.76 450.62L536.31 459.03L530.55 467.21L524.48 475.16L518.12 482.87L511.48 490.32L504.55 497.52L497.36 504.44L489.91 511.08L482.2 517.45L474.25 523.51L466.07 529.27L457.65 534.73L449.02 539.86L440.18 544.66L431.14 549.13L421.9 553.26L412.48 557.03L402.88 560.44L393.12 563.48L383.19 566.14L373.11 568.42L362.89 570.3L352.53 571.78L342.05 572.84L331.45 573.49L320.74 573.7L310.03 573.49L299.43 572.84L288.95 571.78L278.59 570.3L268.37 568.42L258.29 566.14L248.36 563.48L238.6 560.44L229 557.03L219.58 553.26L210.34 549.13L201.3 544.66L192.46 539.86L183.83 534.73L175.41 529.27L167.23 523.51L159.28 517.45L151.57 511.08L144.12 504.44L136.93 497.52L130.01 490.32L123.36 482.87L117 475.16L110.93 467.21L105.17 459.03L99.72 450.62L94.58 441.99L89.78 433.15L85.31 424.1L81.19 414.87L77.41 405.45L74 395.85L70.96 386.08L68.3 376.15L66.03 366.08L64.15 355.85L62.67 345.5L61.6 335.01L60.96 324.41L60.74 313.7L60.96 302.99L61.6 292.39L62.67 281.91L64.15 271.55L66.03 261.33L68.3 251.25L70.96 241.33L74 231.56L77.41 221.96L81.19 212.54L85.31 203.3L89.78 194.26L94.58 185.42L99.72 176.79L105.17 168.38L110.93 160.19L117 152.24L123.36 144.54L130.01 137.08L136.93 129.89L144.12 122.97L151.57 116.32L159.28 109.96L167.23 103.9L175.41 98.13L183.83 92.68L192.46 87.55L201.3 82.74L210.34 78.27L219.58 74.15L229 70.38L238.6 66.97L248.36 63.93L258.29 61.27L268.37 58.99L278.59 57.11L288.95 55.63L299.43 54.57L310.03 53.92L320.74 53.7L331.45 53.92L342.05 54.57ZM307.55 140.21L300.52 140.92L293.57 141.91L286.71 143.18L279.95 144.7L273.29 146.49L266.74 148.53L260.3 150.82L253.98 153.35L247.78 156.11L241.71 159.11L235.78 162.34L229.99 165.78L224.35 169.44L218.86 173.31L213.52 177.38L208.35 181.64L203.35 186.1L198.53 190.75L193.88 195.57L189.42 200.57L185.15 205.74L181.08 211.08L177.22 216.57L173.56 222.21L170.11 228L166.89 233.94L163.89 240L161.13 246.2L158.59 252.52L156.31 258.96L154.27 265.51L152.48 272.17L150.95 278.94L149.69 285.79L148.7 292.74L147.99 299.78L147.55 306.89L147.41 314.07L147.55 321.26L147.99 328.37L148.7 335.41L149.69 342.35L150.95 349.21L152.48 355.97L154.27 362.63L156.31 369.19L158.59 375.63L161.13 381.95L163.89 388.15L166.89 394.21L170.11 400.14L173.56 405.94L177.22 411.58L181.08 417.07L185.15 422.4L189.42 427.57L193.88 432.57L198.53 437.4L203.35 442.05L208.35 446.51L213.52 450.77L218.86 454.84L224.35 458.71L229.99 462.37L235.78 465.81L241.71 469.04L247.78 472.03L253.98 474.8L260.3 477.33L266.74 479.62L273.29 481.66L279.95 483.44L286.71 484.97L293.57 486.23L300.52 487.22L307.55 487.94L314.67 488.37L321.85 488.52L329.04 488.37L336.15 487.94L343.18 487.22L350.13 486.23L356.99 484.97L363.75 483.44L370.41 481.66L376.97 479.62L383.4 477.33L389.73 474.8L395.92 472.03L401.99 469.04L407.92 465.81L413.71 462.37L419.36 458.71L424.85 454.84L430.18 450.77L435.35 446.51L440.35 442.05L445.18 437.4L449.82 432.57L454.28 427.57L458.55 422.4L462.62 417.07L466.49 411.58L470.15 405.94L473.59 400.14L476.81 394.21L479.81 388.15L482.58 381.95L485.11 375.63L487.4 369.19L489.44 362.63L491.22 355.97L492.75 349.21L494.01 342.35L495 335.41L495.72 328.37L496.15 321.26L496.3 314.07L496.15 306.89L495.72 299.78L495 292.74L494.01 285.79L492.75 278.94L491.22 272.17L489.44 265.51L487.4 258.96L485.11 252.52L482.58 246.2L479.81 240L476.81 233.94L473.59 228L470.15 222.21L466.49 216.57L462.62 211.08L458.55 205.74L454.28 200.57L449.82 195.57L445.18 190.75L440.35 186.1L435.35 181.64L430.18 177.38L424.85 173.31L419.36 169.44L413.71 165.78L407.92 162.34L401.99 159.11L395.92 156.11L389.73 153.35L383.4 150.82L376.97 148.53L370.41 146.49L363.75 144.7L356.99 143.18L350.13 141.91L343.18 140.92L336.15 140.21L329.04 139.78L321.85 139.63L314.67 139.78L307.55 140.21Z" id="f9WYWShamd" fill="white" fill-opacity="1" filter="url(#shadow6063714)"></path></g><use xlink:href="#i1g5YBdOOY" opacity="1" fill="url(#gradienta19cpTFsGo)"></use></g><g><g><filter id="shadow8051422" x="225.26" y="124.15" width="199.67" height="369.26" filterUnits="userSpaceOnUse" primitiveUnits="userSpaceOnUse"><feFlood></feFlood><feComposite in2="SourceAlpha" operator="in"></feComposite><feGaussianBlur stdDeviation="3.16"></feGaussianBlur><feOffset dx="5" dy="8" result="afterOffset"></feOffset><feFlood flood-color="#000000" flood-opacity="0.5"></feFlood><feComposite in2="afterOffset" operator="in"></feComposite><feMorphology operator="dilate" radius="1"></feMorphology><feComposite in2="SourceAlpha" operator="out"></feComposite></filter><path d="M272.5 315.12L272.62 316.7L272.83 318.27L273.11 319.82L273.48 321.35L273.92 322.86L274.44 324.35L275.03 325.81L275.69 327.25L276.42 328.66L277.22 330.04L278.09 331.39L279.02 332.72L280.02 334.01L281.08 335.27L282.2 336.49L283.37 337.68L284.61 338.84L285.9 339.95L287.24 341.03L288.64 342.07L290.09 343.06L291.58 344.01L293.12 344.92L294.71 345.79L296.35 346.6L298.02 347.37L299.74 348.09L301.49 348.76L303.29 349.38L305.11 349.94L306.98 350.45L308.87 350.91L310.8 351.3L312.76 351.64L314.74 351.93L316.75 352.15L318.79 352.31L320.84 352.4L322.92 352.44L325 352.4L327.06 352.31L329.09 352.15L331.1 351.93L333.09 351.64L335.04 351.3L336.97 350.91L338.87 350.45L340.73 349.94L342.56 349.38L344.35 348.76L346.11 348.09L347.82 347.37L349.5 346.6L351.13 345.79L352.72 344.92L354.26 344.01L355.76 343.06L357.21 342.07L358.6 341.03L359.95 339.95L361.24 338.84L362.47 337.68L363.65 336.49L364.77 335.27L365.83 334.01L366.82 332.72L367.75 331.39L368.62 330.04L369.42 328.66L370.15 327.25L370.82 325.81L371.41 324.35L371.92 322.86L372.37 321.35L372.73 319.82L373.02 318.27L373.22 316.7L373.35 315.12L373.39 313.51L373.39 232.7L377.02 232.7L377.39 232.7L377.75 232.73L378.11 232.76L378.46 232.81L378.81 232.88L379.16 232.96L379.5 233.05L379.83 233.15L380.16 233.27L380.49 233.4L380.8 233.54L381.11 233.69L381.42 233.86L381.71 234.03L382 234.22L382.28 234.42L382.55 234.62L382.82 234.84L383.07 235.07L383.32 235.31L383.55 235.55L383.78 235.81L384 236.07L384.21 236.34L384.4 236.62L384.59 236.91L384.77 237.21L384.93 237.51L385.08 237.82L385.23 238.14L385.36 238.46L385.47 238.79L385.58 239.12L385.67 239.46L385.74 239.81L385.81 240.16L385.86 240.51L385.9 240.87L385.92 241.24L385.93 241.6L385.93 369.59L385.92 369.96L385.9 370.32L385.86 370.68L385.81 371.03L385.74 371.38L385.67 371.73L385.58 372.07L385.47 372.4L385.36 372.73L385.23 373.06L385.08 373.37L384.93 373.68L384.77 373.98L384.59 374.28L384.4 374.57L384.21 374.85L384 375.12L383.78 375.39L383.55 375.64L383.32 375.89L383.07 376.12L382.82 376.35L382.55 376.57L382.28 376.78L382 376.97L381.71 377.16L381.42 377.34L381.11 377.5L380.8 377.65L380.49 377.8L380.16 377.92L379.83 378.04L379.5 378.15L379.16 378.24L378.81 378.31L378.46 378.38L378.11 378.43L377.75 378.47L377.39 378.49L377.02 378.5L333.1 378.5L333.1 378.52L333.2 379.04L333.27 379.58L333.32 380.12L333.33 380.67L333.33 424.37L333.32 424.92L333.27 425.46L333.22 425.85L358.98 425.85L359.25 425.86L359.52 425.87L359.78 425.9L360.04 425.94L360.3 425.99L360.55 426.05L360.8 426.12L361.04 426.2L361.28 426.29L361.51 426.39L361.74 426.5L361.97 426.62L362.19 426.74L362.4 426.88L362.61 427.02L362.81 427.17L363 427.33L363.19 427.49L363.37 427.67L363.54 427.85L363.71 428.04L363.87 428.23L364.02 428.43L364.16 428.64L364.3 428.85L364.42 429.07L364.54 429.29L364.65 429.52L364.75 429.76L364.84 430L364.92 430.24L364.99 430.49L365.05 430.74L365.1 430.99L365.13 431.25L365.16 431.52L365.18 431.78L365.19 432.05L365.19 434.37L372.59 434.37L372.94 434.38L373.29 434.4L373.63 434.43L373.97 434.48L374.31 434.54L374.64 434.62L374.97 434.71L375.29 434.8L375.6 434.92L375.91 435.04L376.21 435.17L376.51 435.32L376.8 435.48L377.08 435.65L377.36 435.83L377.62 436.01L377.88 436.21L378.14 436.42L378.38 436.64L378.62 436.87L378.84 437.1L379.06 437.35L379.27 437.6L379.47 437.86L379.66 438.13L379.83 438.4L380 438.68L380.16 438.97L380.31 439.27L380.44 439.57L380.57 439.88L380.68 440.2L380.78 440.52L380.86 440.84L380.94 441.17L381 441.51L381.05 441.85L381.08 442.19L381.1 442.54L381.11 442.89L381.1 443.24L381.08 443.59L381.05 443.93L381 444.27L380.94 444.61L380.86 444.94L380.78 445.26L380.68 445.58L380.57 445.9L380.44 446.2L380.31 446.51L380.16 446.8L380 447.09L379.83 447.38L379.66 447.65L379.47 447.92L379.27 448.18L379.06 448.43L378.84 448.68L378.62 448.91L378.38 449.14L378.14 449.36L377.88 449.57L377.62 449.76L377.36 449.95L377.08 450.13L376.8 450.3L376.51 450.46L376.21 450.6L375.91 450.74L375.6 450.86L375.29 450.97L374.97 451.07L374.64 451.16L374.31 451.23L373.97 451.3L373.63 451.34L373.29 451.38L372.94 451.4L372.59 451.41L272.59 451.41L272.24 451.4L271.89 451.38L271.55 451.34L271.21 451.3L270.88 451.23L270.55 451.16L270.22 451.07L269.9 450.97L269.59 450.86L269.28 450.74L268.97 450.6L268.68 450.46L268.39 450.3L268.11 450.13L267.83 449.95L267.56 449.76L267.3 449.57L267.05 449.36L266.8 449.14L266.57 448.91L266.34 448.68L266.12 448.43L265.92 448.18L265.72 447.92L265.53 447.65L265.35 447.38L265.18 447.09L265.02 446.8L264.88 446.51L264.74 446.2L264.62 445.9L264.51 445.58L264.41 445.26L264.32 444.94L264.25 444.61L264.19 444.27L264.14 443.93L264.1 443.59L264.08 443.24L264.07 442.89L264.08 442.54L264.1 442.19L264.14 441.85L264.19 441.51L264.25 441.17L264.32 440.84L264.41 440.52L264.51 440.2L264.62 439.88L264.74 439.57L264.88 439.27L265.02 438.97L265.18 438.68L265.35 438.4L265.53 438.13L265.72 437.86L265.92 437.6L266.12 437.35L266.34 437.1L266.57 436.87L266.8 436.64L267.05 436.42L267.3 436.21L267.56 436.01L267.83 435.83L268.11 435.65L268.39 435.48L268.68 435.32L268.97 435.17L269.28 435.04L269.59 434.92L269.9 434.8L270.22 434.71L270.55 434.62L270.88 434.54L271.21 434.48L271.55 434.43L271.89 434.4L272.24 434.38L272.59 434.37L280 434.37L280 432.05L280.01 431.78L280.02 431.52L280.05 431.25L280.09 430.99L280.14 430.74L280.2 430.49L280.27 430.24L280.35 430L280.44 429.76L280.54 429.52L280.65 429.29L280.76 429.07L280.89 428.85L281.02 428.64L281.17 428.43L281.32 428.23L281.48 428.04L281.64 427.85L281.82 427.67L282 427.49L282.18 427.33L282.38 427.17L282.58 427.02L282.79 426.88L283 426.74L283.22 426.62L283.44 426.5L283.67 426.39L283.9 426.29L284.14 426.2L284.39 426.12L284.64 426.05L284.89 425.99L285.14 425.94L285.4 425.9L285.67 425.87L285.93 425.86L286.2 425.85L311.96 425.85L311.91 425.46L311.87 424.92L311.85 424.37L311.85 380.67L311.87 380.12L311.91 379.58L311.98 379.04L312.08 378.52L312.09 378.5L268.17 378.5L267.8 378.49L267.44 378.47L267.08 378.43L266.72 378.38L266.37 378.31L266.03 378.24L265.69 378.15L265.35 378.04L265.02 377.92L264.7 377.8L264.38 377.65L264.07 377.5L263.77 377.34L263.47 377.16L263.19 376.97L262.91 376.78L262.63 376.57L262.37 376.35L262.11 376.12L261.87 375.89L261.63 375.64L261.4 375.39L261.19 375.12L260.98 374.85L260.78 374.57L260.59 374.28L260.42 373.98L260.25 373.68L260.1 373.37L259.96 373.06L259.83 372.73L259.71 372.4L259.61 372.07L259.52 371.73L259.44 371.38L259.38 371.03L259.33 370.68L259.29 370.32L259.27 369.96L259.26 369.59L259.26 241.6L259.27 241.24L259.29 240.87L259.33 240.51L259.38 240.16L259.44 239.81L259.52 239.46L259.61 239.12L259.71 238.79L259.83 238.46L259.96 238.14L260.1 237.82L260.25 237.51L260.42 237.21L260.59 236.91L260.78 236.62L260.98 236.34L261.19 236.07L261.4 235.81L261.63 235.55L261.87 235.31L262.11 235.07L262.37 234.84L262.63 234.62L262.91 234.42L263.19 234.22L263.47 234.03L263.77 233.86L264.07 233.69L264.38 233.54L264.7 233.4L265.02 233.27L265.35 233.15L265.69 233.05L266.03 232.96L266.37 232.88L266.72 232.81L267.08 232.76L267.44 232.73L267.8 232.7L268.17 232.7L272.45 232.7L272.45 313.51L272.5 315.12ZM325.76 158.28L327.31 158.44L328.85 158.66L330.37 158.94L331.86 159.28L333.34 159.68L334.79 160.13L336.21 160.64L337.61 161.21L338.98 161.83L340.32 162.5L341.63 163.21L342.92 163.98L344.16 164.8L345.38 165.66L346.56 166.57L347.7 167.52L348.81 168.52L349.88 169.55L350.9 170.63L351.89 171.75L352.84 172.9L353.74 174.09L354.59 175.32L355.4 176.57L356.16 177.87L356.88 179.19L357.54 180.54L358.15 181.93L358.71 183.34L359.22 184.77L359.67 186.24L360.06 187.72L360.4 189.23L360.68 190.76L360.9 192.31L361.06 193.88L361.09 194.43L361.19 194.43L361.19 301.97L361.15 303.57L361.06 305.16L360.9 306.73L360.68 308.28L360.4 309.81L360.06 311.32L359.67 312.8L359.22 314.26L358.71 315.7L358.15 317.11L357.54 318.5L356.88 319.85L356.16 321.17L355.4 322.46L354.59 323.72L353.74 324.95L352.84 326.14L351.89 327.29L350.9 328.41L349.88 329.49L348.81 330.52L347.7 331.52L346.56 332.47L345.38 333.38L344.16 334.24L342.92 335.06L341.63 335.82L340.32 336.54L338.98 337.21L337.61 337.83L336.21 338.39L334.79 338.91L333.34 339.36L331.86 339.76L330.37 340.1L328.85 340.38L327.31 340.6L325.76 340.76L324.18 340.86L322.59 340.89L321 340.86L319.43 340.76L317.87 340.6L316.34 340.38L314.82 340.1L313.32 339.76L311.85 339.36L310.4 338.91L308.97 338.39L307.58 337.83L306.21 337.21L304.86 336.54L303.55 335.82L302.27 335.06L301.02 334.24L299.81 333.38L298.63 332.47L297.48 331.52L296.38 330.52L295.31 329.49L294.28 328.41L293.29 327.29L292.35 326.14L291.45 324.95L290.59 323.72L289.78 322.46L289.02 321.17L288.31 319.85L287.65 318.5L287.03 317.11L286.47 315.7L285.97 314.26L285.52 312.8L285.12 311.32L284.78 309.81L284.5 308.28L284.29 306.73L284.13 305.16L284.03 303.57L284 301.97L284 194.43L284.09 194.43L284.13 193.88L284.29 192.31L284.5 190.76L284.78 189.23L285.12 187.72L285.52 186.24L285.97 184.77L286.47 183.34L287.03 181.93L287.65 180.54L288.31 179.19L289.02 177.87L289.78 176.57L290.59 175.32L291.45 174.09L292.35 172.9L293.29 171.75L294.28 170.63L295.31 169.55L296.38 168.52L297.48 167.52L298.63 166.57L299.81 165.66L301.02 164.8L302.27 163.98L303.55 163.21L304.86 162.5L306.21 161.83L307.58 161.21L308.97 160.64L310.4 160.13L311.85 159.68L313.32 159.28L314.82 158.94L316.34 158.66L317.87 158.44L319.43 158.28L321 158.18L322.59 158.15L324.18 158.18L325.76 158.28Z" id="a1AmXJYCjM" fill="white" fill-opacity="1" filter="url(#shadow8051422)"></path></g><use xlink:href="#b8OVU25VhN" opacity="1" fill="url(#gradientcjItT7p4z)"></use></g></g></g></svg>