<?xml version="1.0" encoding="UTF-8" standalone="no"?>
<!DOCTYPE svg PUBLIC "-//W3C//DTD SVG 1.1//EN" "http://www.w3.org/Graphics/SVG/1.1/DTD/svg11.dtd">
<svg version="1.1" xmlns="http://www.w3.org/2000/svg" xmlns:xlink="http://www.w3.org/1999/xlink" preserveAspectRatio="xMidYMid meet" viewBox="0 0 640 640" width="640" height="640"><defs><path d="M352.05 64.57L362.53 65.63L372.89 67.11L383.11 68.99L393.19 71.27L403.12 73.93L412.88 76.97L422.48 80.38L431.9 84.15L441.14 88.27L450.18 92.74L459.02 97.55L467.65 102.68L476.07 108.13L484.25 113.9L492.2 119.96L499.91 126.32L507.36 132.97L514.55 139.89L521.48 147.08L528.12 154.54L534.48 162.24L540.55 170.19L546.31 178.38L551.76 186.79L556.9 195.42L561.7 204.26L566.17 213.3L570.3 222.54L574.07 231.96L577.48 241.56L580.52 251.33L583.18 261.25L585.45 271.33L587.34 281.55L588.81 291.91L589.88 302.39L590.52 312.99L590.74 323.7L590.52 334.41L589.88 345.01L588.81 355.5L587.34 365.85L585.45 376.08L583.18 386.15L580.52 396.08L577.48 405.85L574.07 415.45L570.3 424.87L566.17 434.1L561.7 443.15L556.9 451.99L551.76 460.62L546.31 469.03L540.55 477.21L534.48 485.16L528.12 492.87L521.48 500.32L514.55 507.52L507.36 514.44L499.91 521.08L492.2 527.45L484.25 533.51L476.07 539.27L467.65 544.73L459.02 549.86L450.18 554.66L441.14 559.13L431.9 563.26L422.48 567.03L412.88 570.44L403.12 573.48L393.19 576.14L383.11 578.42L372.89 580.3L362.53 581.78L352.05 582.84L341.45 583.49L330.74 583.7L320.03 583.49L309.43 582.84L298.95 581.78L288.59 580.3L278.37 578.42L268.29 576.14L258.36 573.48L248.6 570.44L239 567.03L229.58 563.26L220.34 559.13L211.3 554.66L202.46 549.86L193.83 544.73L185.41 539.27L177.23 533.51L169.28 527.45L161.57 521.08L154.12 514.44L146.93 507.52L140.01 500.32L133.36 492.87L127 485.16L120.93 477.21L115.17 469.03L109.72 460.62L104.58 451.99L99.78 443.15L95.31 434.1L91.19 424.87L87.41 415.45L84 405.85L80.96 396.08L78.3 386.15L76.03 376.08L74.15 365.85L72.67 355.5L71.6 345.01L70.96 334.41L70.74 323.7L70.96 312.99L71.6 302.39L72.67 291.91L74.15 281.55L76.03 271.33L78.3 261.25L80.96 251.33L84 241.56L87.41 231.96L91.19 222.54L95.31 213.3L99.78 204.26L104.58 195.42L109.72 186.79L115.17 178.38L120.93 170.19L127 162.24L133.36 154.54L140.01 147.08L146.93 139.89L154.12 132.97L161.57 126.32L169.28 119.96L177.23 113.9L185.41 108.13L193.83 102.68L202.46 97.55L211.3 92.74L220.34 88.27L229.58 84.15L239 80.38L248.6 76.97L258.36 73.93L268.29 71.27L278.37 68.99L288.59 67.11L298.95 65.63L309.43 64.57L320.03 63.92L330.74 63.7L341.45 63.92L352.05 64.57ZM317.55 150.21L310.52 150.92L303.57 151.91L296.71 153.18L289.95 154.7L283.29 156.49L276.74 158.53L270.3 160.82L263.98 163.35L257.78 166.11L251.71 169.11L245.78 172.34L239.99 175.78L234.35 179.44L228.86 183.31L223.52 187.38L218.35 191.64L213.35 196.1L208.53 200.75L203.88 205.57L199.42 210.57L195.15 215.74L191.08 221.08L187.22 226.57L183.56 232.21L180.11 238L176.89 243.94L173.89 250L171.13 256.2L168.59 262.52L166.31 268.96L164.27 275.51L162.48 282.17L160.95 288.94L159.69 295.79L158.7 302.74L157.99 309.78L157.55 316.89L157.41 324.07L157.55 331.26L157.99 338.37L158.7 345.41L159.69 352.35L160.95 359.21L162.48 365.97L164.27 372.63L166.31 379.19L168.59 385.63L171.13 391.95L173.89 398.15L176.89 404.21L180.11 410.14L183.56 415.94L187.22 421.58L191.08 427.07L195.15 432.4L199.42 437.57L203.88 442.57L208.53 447.4L213.35 452.05L218.35 456.51L223.52 460.77L228.86 464.84L234.35 468.71L239.99 472.37L245.78 475.81L251.71 479.04L257.78 482.03L263.98 484.8L270.3 487.33L276.74 489.62L283.29 491.66L289.95 493.44L296.71 494.97L303.57 496.23L310.52 497.22L317.55 497.94L324.67 498.37L331.85 498.52L339.04 498.37L346.15 497.94L353.18 497.22L360.13 496.23L366.99 494.97L373.75 493.44L380.41 491.66L386.97 489.62L393.4 487.33L399.73 484.8L405.92 482.03L411.99 479.04L417.92 475.81L423.71 472.37L429.36 468.71L434.85 464.84L440.18 460.77L445.35 456.51L450.35 452.05L455.18 447.4L459.82 442.57L464.28 437.57L468.55 432.4L472.62 427.07L476.49 421.58L480.15 415.94L483.59 410.14L486.81 404.21L489.81 398.15L492.58 391.95L495.11 385.63L497.4 379.19L499.44 372.63L501.22 365.97L502.75 359.21L504.01 352.35L505 345.41L505.72 338.37L506.15 331.26L506.3 324.07L506.15 316.89L505.72 309.78L505 302.74L504.01 295.79L502.75 288.94L501.22 282.17L499.44 275.51L497.4 268.96L495.11 262.52L492.58 256.2L489.81 250L486.81 243.94L483.59 238L480.15 232.21L476.49 226.57L472.62 221.08L468.55 215.74L464.28 210.57L459.82 205.57L455.18 200.75L450.35 196.1L445.35 191.64L440.18 187.38L434.85 183.31L429.36 179.44L423.71 175.78L417.92 172.34L411.99 169.11L405.92 166.11L399.73 163.35L393.4 160.82L386.97 158.53L380.41 156.49L373.75 154.7L366.99 153.18L360.13 151.91L353.18 150.92L346.15 150.21L339.04 149.78L331.85 149.63L324.67 149.78L317.55 150.21Z" id="af2Qf5aS"></path><linearGradient id="gradientawGZ2wtSi" gradientUnits="userSpaceOnUse" x1="330.74" y1="63.7" x2="330.74" y2="583.7"><stop style="stop-color: #ff4a4a;stop-opacity: 1" offset="0%"></stop><stop style="stop-color: #4e1818;stop-opacity: 1" offset="100%"></stop></linearGradient><path d="M282.5 325.12L282.62 326.7L282.83 328.27L283.11 329.82L283.48 331.35L283.92 332.86L284.44 334.35L285.03 335.81L285.69 337.25L286.42 338.66L287.22 340.04L288.09 341.39L289.02 342.72L290.02 344.01L291.08 345.27L292.2 346.49L293.37 347.68L294.61 348.84L295.9 349.95L297.24 351.03L298.64 352.07L300.09 353.06L301.58 354.01L303.12 354.92L304.71 355.79L306.35 356.6L308.02 357.37L309.74 358.09L311.49 358.76L313.29 359.38L315.11 359.94L316.98 360.45L318.87 360.91L320.8 361.3L322.76 361.64L324.74 361.93L326.75 362.15L328.79 362.31L330.84 362.4L332.92 362.44L335 362.4L337.06 362.31L339.09 362.15L341.1 361.93L343.09 361.64L345.04 361.3L346.97 360.91L348.87 360.45L350.73 359.94L352.56 359.38L354.35 358.76L356.11 358.09L357.82 357.37L359.5 356.6L361.13 355.79L362.72 354.92L364.26 354.01L365.76 353.06L367.21 352.07L368.6 351.03L369.95 349.95L371.24 348.84L372.47 347.68L373.65 346.49L374.77 345.27L375.83 344.01L376.82 342.72L377.75 341.39L378.62 340.04L379.42 338.66L380.15 337.25L380.82 335.81L381.41 334.35L381.92 332.86L382.37 331.35L382.73 329.82L383.02 328.27L383.22 326.7L383.35 325.12L383.39 323.51L383.39 242.7L387.02 242.7L387.39 242.7L387.75 242.73L388.11 242.76L388.46 242.81L388.81 242.88L389.16 242.96L389.5 243.05L389.83 243.15L390.16 243.27L390.49 243.4L390.8 243.54L391.11 243.69L391.42 243.86L391.71 244.03L392 244.22L392.28 244.42L392.55 244.62L392.82 244.84L393.07 245.07L393.32 245.31L393.55 245.55L393.78 245.81L394 246.07L394.21 246.34L394.4 246.62L394.59 246.91L394.77 247.21L394.93 247.51L395.08 247.82L395.23 248.14L395.36 248.46L395.47 248.79L395.58 249.12L395.67 249.46L395.74 249.81L395.81 250.16L395.86 250.51L395.9 250.87L395.92 251.24L395.93 251.6L395.93 379.59L395.92 379.96L395.9 380.32L395.86 380.68L395.81 381.03L395.74 381.38L395.67 381.73L395.58 382.07L395.47 382.4L395.36 382.73L395.23 383.06L395.08 383.37L394.93 383.68L394.77 383.98L394.59 384.28L394.4 384.57L394.21 384.85L394 385.12L393.78 385.39L393.55 385.64L393.32 385.89L393.07 386.12L392.82 386.35L392.55 386.57L392.28 386.78L392 386.97L391.71 387.16L391.42 387.34L391.11 387.5L390.8 387.65L390.49 387.8L390.16 387.92L389.83 388.04L389.5 388.15L389.16 388.24L388.81 388.31L388.46 388.38L388.11 388.43L387.75 388.47L387.39 388.49L387.02 388.5L343.1 388.5L343.1 388.52L343.2 389.04L343.27 389.58L343.32 390.12L343.33 390.67L343.33 434.37L343.32 434.92L343.27 435.46L343.22 435.85L368.98 435.85L369.25 435.86L369.52 435.87L369.78 435.9L370.04 435.94L370.3 435.99L370.55 436.05L370.8 436.12L371.04 436.2L371.28 436.29L371.51 436.39L371.74 436.5L371.97 436.62L372.19 436.74L372.4 436.88L372.61 437.02L372.81 437.17L373 437.33L373.19 437.49L373.37 437.67L373.54 437.85L373.71 438.04L373.87 438.23L374.02 438.43L374.16 438.64L374.3 438.85L374.42 439.07L374.54 439.29L374.65 439.52L374.75 439.76L374.84 440L374.92 440.24L374.99 440.49L375.05 440.74L375.1 440.99L375.13 441.25L375.16 441.52L375.18 441.78L375.19 442.05L375.19 444.37L382.59 444.37L382.94 444.38L383.29 444.4L383.63 444.43L383.97 444.48L384.31 444.54L384.64 444.62L384.97 444.71L385.29 444.8L385.6 444.92L385.91 445.04L386.21 445.17L386.51 445.32L386.8 445.48L387.08 445.65L387.36 445.83L387.62 446.01L387.88 446.21L388.14 446.42L388.38 446.64L388.62 446.87L388.84 447.1L389.06 447.35L389.27 447.6L389.47 447.86L389.66 448.13L389.83 448.4L390 448.68L390.16 448.97L390.31 449.27L390.44 449.57L390.57 449.88L390.68 450.2L390.78 450.52L390.86 450.84L390.94 451.17L391 451.51L391.05 451.85L391.08 452.19L391.1 452.54L391.11 452.89L391.1 453.24L391.08 453.59L391.05 453.93L391 454.27L390.94 454.61L390.86 454.94L390.78 455.26L390.68 455.58L390.57 455.9L390.44 456.2L390.31 456.51L390.16 456.8L390 457.09L389.83 457.38L389.66 457.65L389.47 457.92L389.27 458.18L389.06 458.43L388.84 458.68L388.62 458.91L388.38 459.14L388.14 459.36L387.88 459.57L387.62 459.76L387.36 459.95L387.08 460.13L386.8 460.3L386.51 460.46L386.21 460.6L385.91 460.74L385.6 460.86L385.29 460.97L384.97 461.07L384.64 461.16L384.31 461.23L383.97 461.3L383.63 461.34L383.29 461.38L382.94 461.4L382.59 461.41L282.59 461.41L282.24 461.4L281.89 461.38L281.55 461.34L281.21 461.3L280.88 461.23L280.55 461.16L280.22 461.07L279.9 460.97L279.59 460.86L279.28 460.74L278.97 460.6L278.68 460.46L278.39 460.3L278.11 460.13L277.83 459.95L277.56 459.76L277.3 459.57L277.05 459.36L276.8 459.14L276.57 458.91L276.34 458.68L276.12 458.43L275.92 458.18L275.72 457.92L275.53 457.65L275.35 457.38L275.18 457.09L275.02 456.8L274.88 456.51L274.74 456.2L274.62 455.9L274.51 455.58L274.41 455.26L274.32 454.94L274.25 454.61L274.19 454.27L274.14 453.93L274.1 453.59L274.08 453.24L274.07 452.89L274.08 452.54L274.1 452.19L274.14 451.85L274.19 451.51L274.25 451.17L274.32 450.84L274.41 450.52L274.51 450.2L274.62 449.88L274.74 449.57L274.88 449.27L275.02 448.97L275.18 448.68L275.35 448.4L275.53 448.13L275.72 447.86L275.92 447.6L276.12 447.35L276.34 447.1L276.57 446.87L276.8 446.64L277.05 446.42L277.3 446.21L277.56 446.01L277.83 445.83L278.11 445.65L278.39 445.48L278.68 445.32L278.97 445.17L279.28 445.04L279.59 444.92L279.9 444.8L280.22 444.71L280.55 444.62L280.88 444.54L281.21 444.48L281.55 444.43L281.89 444.4L282.24 444.38L282.59 444.37L290 444.37L290 442.05L290.01 441.78L290.02 441.52L290.05 441.25L290.09 440.99L290.14 440.74L290.2 440.49L290.27 440.24L290.35 440L290.44 439.76L290.54 439.52L290.65 439.29L290.76 439.07L290.89 438.85L291.02 438.64L291.17 438.43L291.32 438.23L291.48 438.04L291.64 437.85L291.82 437.67L292 437.49L292.18 437.33L292.38 437.17L292.58 437.02L292.79 436.88L293 436.74L293.22 436.62L293.44 436.5L293.67 436.39L293.9 436.29L294.14 436.2L294.39 436.12L294.64 436.05L294.89 435.99L295.14 435.94L295.4 435.9L295.67 435.87L295.93 435.86L296.2 435.85L321.96 435.85L321.91 435.46L321.87 434.92L321.85 434.37L321.85 390.67L321.87 390.12L321.91 389.58L321.98 389.04L322.08 388.52L322.09 388.5L278.17 388.5L277.8 388.49L277.44 388.47L277.08 388.43L276.72 388.38L276.37 388.31L276.03 388.24L275.69 388.15L275.35 388.04L275.02 387.92L274.7 387.8L274.38 387.65L274.07 387.5L273.77 387.34L273.47 387.16L273.19 386.97L272.91 386.78L272.63 386.57L272.37 386.35L272.11 386.12L271.87 385.89L271.63 385.64L271.4 385.39L271.19 385.12L270.98 384.85L270.78 384.57L270.59 384.28L270.42 383.98L270.25 383.68L270.1 383.37L269.96 383.06L269.83 382.73L269.71 382.4L269.61 382.07L269.52 381.73L269.44 381.38L269.38 381.03L269.33 380.68L269.29 380.32L269.27 379.96L269.26 379.59L269.26 251.6L269.27 251.24L269.29 250.87L269.33 250.51L269.38 250.16L269.44 249.81L269.52 249.46L269.61 249.12L269.71 248.79L269.83 248.46L269.96 248.14L270.1 247.82L270.25 247.51L270.42 247.21L270.59 246.91L270.78 246.62L270.98 246.34L271.19 246.07L271.4 245.81L271.63 245.55L271.87 245.31L272.11 245.07L272.37 244.84L272.63 244.62L272.91 244.42L273.19 244.22L273.47 244.03L273.77 243.86L274.07 243.69L274.38 243.54L274.7 243.4L275.02 243.27L275.35 243.15L275.69 243.05L276.03 242.96L276.37 242.88L276.72 242.81L277.08 242.76L277.44 242.73L277.8 242.7L278.17 242.7L282.45 242.7L282.45 323.51L282.5 325.12ZM335.76 168.28L337.31 168.44L338.85 168.66L340.37 168.94L341.86 169.28L343.34 169.68L344.79 170.13L346.21 170.64L347.61 171.21L348.98 171.83L350.32 172.5L351.63 173.21L352.92 173.98L354.16 174.8L355.38 175.66L356.56 176.57L357.7 177.52L358.81 178.52L359.88 179.55L360.9 180.63L361.89 181.75L362.84 182.9L363.74 184.09L364.59 185.32L365.4 186.57L366.16 187.87L366.88 189.19L367.54 190.54L368.15 191.93L368.71 193.34L369.22 194.77L369.67 196.24L370.06 197.72L370.4 199.23L370.68 200.76L370.9 202.31L371.06 203.88L371.09 204.43L371.19 204.43L371.19 311.97L371.15 313.57L371.06 315.16L370.9 316.73L370.68 318.28L370.4 319.81L370.06 321.32L369.67 322.8L369.22 324.26L368.71 325.7L368.15 327.11L367.54 328.5L366.88 329.85L366.16 331.17L365.4 332.46L364.59 333.72L363.74 334.95L362.84 336.14L361.89 337.29L360.9 338.41L359.88 339.49L358.81 340.52L357.7 341.52L356.56 342.47L355.38 343.38L354.16 344.24L352.92 345.06L351.63 345.82L350.32 346.54L348.98 347.21L347.61 347.83L346.21 348.39L344.79 348.91L343.34 349.36L341.86 349.76L340.37 350.1L338.85 350.38L337.31 350.6L335.76 350.76L334.18 350.86L332.59 350.89L331 350.86L329.43 350.76L327.87 350.6L326.34 350.38L324.82 350.1L323.32 349.76L321.85 349.36L320.4 348.91L318.97 348.39L317.58 347.83L316.21 347.21L314.86 346.54L313.55 345.82L312.27 345.06L311.02 344.24L309.81 343.38L308.63 342.47L307.48 341.52L306.38 340.52L305.31 339.49L304.28 338.41L303.29 337.29L302.35 336.14L301.45 334.95L300.59 333.72L299.78 332.46L299.02 331.17L298.31 329.85L297.65 328.5L297.03 327.11L296.47 325.7L295.97 324.26L295.52 322.8L295.12 321.32L294.78 319.81L294.5 318.28L294.29 316.73L294.13 315.16L294.03 313.57L294 311.97L294 204.43L294.09 204.43L294.13 203.88L294.29 202.31L294.5 200.76L294.78 199.23L295.12 197.72L295.52 196.24L295.97 194.77L296.47 193.34L297.03 191.93L297.65 190.54L298.31 189.19L299.02 187.87L299.78 186.57L300.59 185.32L301.45 184.09L302.35 182.9L303.29 181.75L304.28 180.63L305.31 179.55L306.38 178.52L307.48 177.52L308.63 176.57L309.81 175.66L311.02 174.8L312.27 173.98L313.55 173.21L314.86 172.5L316.21 171.83L317.58 171.21L318.97 170.64L320.4 170.13L321.85 169.68L323.32 169.28L324.82 168.94L326.34 168.66L327.87 168.44L329.43 168.28L331 168.18L332.59 168.15L334.18 168.18L335.76 168.28Z" id="a4I9RTF8i9"></path><linearGradient id="gradientc2MAvZ8Cj5" gradientUnits="userSpaceOnUse" x1="332.59" y1="168.15" x2="332.59" y2="461.41"><stop style="stop-color: #fd4949;stop-opacity: 1" offset="0%"></stop><stop style="stop-color: #501818;stop-opacity: 1" offset="100%"></stop></linearGradient></defs><g><g><g><g><filter id="shadow25669" x="27.74" y="20.7" width="612" height="617" filterUnits="userSpaceOnUse" primitiveUnits="userSpaceOnUse"><feFlood></feFlood><feComposite in2="SourceAlpha" operator="in"></feComposite><feGaussianBlur stdDeviation="3.61"></feGaussianBlur><feOffset dx="6" dy="11" result="afterOffset"></feOffset><feFlood flood-color="#000000" flood-opacity="0.5"></feFlood><feComposite in2="afterOffset" operator="in"></feComposite><feMorphology operator="dilate" radius="1"></feMorphology><feComposite in2="SourceAlpha" operator="out"></feComposite></filter><path d="M352.05 64.57L362.53 65.63L372.89 67.11L383.11 68.99L393.19 71.27L403.12 73.93L412.88 76.97L422.48 80.38L431.9 84.15L441.14 88.27L450.18 92.74L459.02 97.55L467.65 102.68L476.07 108.13L484.25 113.9L492.2 119.96L499.91 126.32L507.36 132.97L514.55 139.89L521.48 147.08L528.12 154.54L534.48 162.24L540.55 170.19L546.31 178.38L551.76 186.79L556.9 195.42L561.7 204.26L566.17 213.3L570.3 222.54L574.07 231.96L577.48 241.56L580.52 251.33L583.18 261.25L585.45 271.33L587.34 281.55L588.81 291.91L589.88 302.39L590.52 312.99L590.74 323.7L590.52 334.41L589.88 345.01L588.81 355.5L587.34 365.85L585.45 376.08L583.18 386.15L580.52 396.08L577.48 405.85L574.07 415.45L570.3 424.87L566.17 434.1L561.7 443.15L556.9 451.99L551.76 460.62L546.31 469.03L540.55 477.21L534.48 485.16L528.12 492.87L521.48 500.32L514.55 507.52L507.36 514.44L499.91 521.08L492.2 527.45L484.25 533.51L476.07 539.27L467.65 544.73L459.02 549.86L450.18 554.66L441.14 559.13L431.9 563.26L422.48 567.03L412.88 570.44L403.12 573.48L393.19 576.14L383.11 578.42L372.89 580.3L362.53 581.78L352.05 582.84L341.45 583.49L330.74 583.7L320.03 583.49L309.43 582.84L298.95 581.78L288.59 580.3L278.37 578.42L268.29 576.14L258.36 573.48L248.6 570.44L239 567.03L229.58 563.26L220.34 559.13L211.3 554.66L202.46 549.86L193.83 544.73L185.41 539.27L177.23 533.51L169.28 527.45L161.57 521.08L154.12 514.44L146.93 507.52L140.01 500.32L133.36 492.87L127 485.16L120.93 477.21L115.17 469.03L109.72 460.62L104.58 451.99L99.78 443.15L95.31 434.1L91.19 424.87L87.41 415.45L84 405.85L80.96 396.08L78.3 386.15L76.03 376.08L74.15 365.85L72.67 355.5L71.6 345.01L70.96 334.41L70.74 323.7L70.96 312.99L71.6 302.39L72.67 291.91L74.15 281.55L76.03 271.33L78.3 261.25L80.96 251.33L84 241.56L87.41 231.96L91.19 222.54L95.31 213.3L99.78 204.26L104.58 195.42L109.72 186.79L115.17 178.38L120.93 170.19L127 162.24L133.36 154.54L140.01 147.08L146.93 139.89L154.12 132.97L161.57 126.32L169.28 119.96L177.23 113.9L185.41 108.13L193.83 102.68L202.46 97.55L211.3 92.74L220.34 88.27L229.58 84.15L239 80.38L248.6 76.97L258.36 73.93L268.29 71.27L278.37 68.99L288.59 67.11L298.95 65.63L309.43 64.57L320.03 63.92L330.74 63.7L341.45 63.92L352.05 64.57ZM317.55 150.21L310.52 150.92L303.57 151.91L296.71 153.18L289.95 154.7L283.29 156.49L276.74 158.53L270.3 160.82L263.98 163.35L257.78 166.11L251.71 169.11L245.78 172.34L239.99 175.78L234.35 179.44L228.86 183.31L223.52 187.38L218.35 191.64L213.35 196.1L208.53 200.75L203.88 205.57L199.42 210.57L195.15 215.74L191.08 221.08L187.22 226.57L183.56 232.21L180.11 238L176.89 243.94L173.89 250L171.13 256.2L168.59 262.52L166.31 268.96L164.27 275.51L162.48 282.17L160.95 288.94L159.69 295.79L158.7 302.74L157.99 309.78L157.55 316.89L157.41 324.07L157.55 331.26L157.99 338.37L158.7 345.41L159.69 352.35L160.95 359.21L162.48 365.97L164.27 372.63L166.31 379.19L168.59 385.63L171.13 391.95L173.89 398.15L176.89 404.21L180.11 410.14L183.56 415.94L187.22 421.58L191.08 427.07L195.15 432.4L199.42 437.57L203.88 442.57L208.53 447.4L213.35 452.05L218.35 456.51L223.52 460.77L228.86 464.84L234.35 468.71L239.99 472.37L245.78 475.81L251.71 479.04L257.78 482.03L263.98 484.8L270.3 487.33L276.74 489.62L283.29 491.66L289.95 493.44L296.71 494.97L303.57 496.23L310.52 497.22L317.55 497.94L324.67 498.37L331.85 498.52L339.04 498.37L346.15 497.94L353.18 497.22L360.13 496.23L366.99 494.97L373.75 493.44L380.41 491.66L386.97 489.62L393.4 487.33L399.73 484.8L405.92 482.03L411.99 479.04L417.92 475.81L423.71 472.37L429.36 468.71L434.85 464.84L440.18 460.77L445.35 456.51L450.35 452.05L455.18 447.4L459.82 442.57L464.28 437.57L468.55 432.4L472.62 427.07L476.49 421.58L480.15 415.94L483.59 410.14L486.81 404.21L489.81 398.15L492.58 391.95L495.11 385.63L497.4 379.19L499.44 372.63L501.22 365.97L502.75 359.21L504.01 352.35L505 345.41L505.72 338.37L506.15 331.26L506.3 324.07L506.15 316.89L505.72 309.78L505 302.74L504.01 295.79L502.75 288.94L501.22 282.17L499.44 275.51L497.4 268.96L495.11 262.52L492.58 256.2L489.81 250L486.81 243.94L483.59 238L480.15 232.21L476.49 226.57L472.62 221.08L468.55 215.74L464.28 210.57L459.82 205.57L455.18 200.75L450.35 196.1L445.35 191.64L440.18 187.38L434.85 183.31L429.36 179.44L423.71 175.78L417.92 172.34L411.99 169.11L405.92 166.11L399.73 163.35L393.4 160.82L386.97 158.53L380.41 156.49L373.75 154.7L366.99 153.18L360.13 151.91L353.18 150.92L346.15 150.21L339.04 149.78L331.85 149.63L324.67 149.78L317.55 150.21Z" id="afg1bYV00" fill="white" fill-opacity="1" filter="url(#shadow25669)"></path></g><use xlink:href="#af2Qf5aS" opacity="1" fill="url(#gradientawGZ2wtSi)"></use></g><g><g><filter id="shadow9183907" x="235.26" y="134.15" width="199.67" height="369.26" filterUnits="userSpaceOnUse" primitiveUnits="userSpaceOnUse"><feFlood></feFlood><feComposite in2="SourceAlpha" operator="in"></feComposite><feGaussianBlur stdDeviation="3.16"></feGaussianBlur><feOffset dx="5" dy="8" result="afterOffset"></feOffset><feFlood flood-color="#000000" flood-opacity="0.5"></feFlood><feComposite in2="afterOffset" operator="in"></feComposite><feMorphology operator="dilate" radius="1"></feMorphology><feComposite in2="SourceAlpha" operator="out"></feComposite></filter><path d="M282.5 325.12L282.62 326.7L282.83 328.27L283.11 329.82L283.48 331.35L283.92 332.86L284.44 334.35L285.03 335.81L285.69 337.25L286.42 338.66L287.22 340.04L288.09 341.39L289.02 342.72L290.02 344.01L291.08 345.27L292.2 346.49L293.37 347.68L294.61 348.84L295.9 349.95L297.24 351.03L298.64 352.07L300.09 353.06L301.58 354.01L303.12 354.92L304.71 355.79L306.35 356.6L308.02 357.37L309.74 358.09L311.49 358.76L313.29 359.38L315.11 359.94L316.98 360.45L318.87 360.91L320.8 361.3L322.76 361.64L324.74 361.93L326.75 362.15L328.79 362.31L330.84 362.4L332.92 362.44L335 362.4L337.06 362.31L339.09 362.15L341.1 361.93L343.09 361.64L345.04 361.3L346.97 360.91L348.87 360.45L350.73 359.94L352.56 359.38L354.35 358.76L356.11 358.09L357.82 357.37L359.5 356.6L361.13 355.79L362.72 354.92L364.26 354.01L365.76 353.06L367.21 352.07L368.6 351.03L369.95 349.95L371.24 348.84L372.47 347.68L373.65 346.49L374.77 345.27L375.83 344.01L376.82 342.72L377.75 341.39L378.62 340.04L379.42 338.66L380.15 337.25L380.82 335.81L381.41 334.35L381.92 332.86L382.37 331.35L382.73 329.82L383.02 328.27L383.22 326.7L383.35 325.12L383.39 323.51L383.39 242.7L387.02 242.7L387.39 242.7L387.75 242.73L388.11 242.76L388.46 242.81L388.81 242.88L389.16 242.96L389.5 243.05L389.83 243.15L390.16 243.27L390.49 243.4L390.8 243.54L391.11 243.69L391.42 243.86L391.71 244.03L392 244.22L392.28 244.42L392.55 244.62L392.82 244.84L393.07 245.07L393.32 245.31L393.55 245.55L393.78 245.81L394 246.07L394.21 246.34L394.4 246.62L394.59 246.91L394.77 247.21L394.93 247.51L395.08 247.82L395.23 248.14L395.36 248.46L395.47 248.79L395.58 249.12L395.67 249.46L395.74 249.81L395.81 250.16L395.86 250.51L395.9 250.87L395.92 251.24L395.93 251.6L395.93 379.59L395.92 379.96L395.9 380.32L395.86 380.68L395.81 381.03L395.74 381.38L395.67 381.73L395.58 382.07L395.47 382.4L395.36 382.73L395.23 383.06L395.08 383.37L394.93 383.68L394.77 383.98L394.59 384.28L394.4 384.57L394.21 384.85L394 385.12L393.78 385.39L393.55 385.64L393.32 385.89L393.07 386.12L392.82 386.35L392.55 386.57L392.28 386.78L392 386.97L391.71 387.16L391.42 387.34L391.11 387.5L390.8 387.65L390.49 387.8L390.16 387.92L389.83 388.04L389.5 388.15L389.16 388.24L388.81 388.31L388.46 388.38L388.11 388.43L387.75 388.47L387.39 388.49L387.02 388.5L343.1 388.5L343.1 388.52L343.2 389.04L343.27 389.58L343.32 390.12L343.33 390.67L343.33 434.37L343.32 434.92L343.27 435.46L343.22 435.85L368.98 435.85L369.25 435.86L369.52 435.87L369.78 435.9L370.04 435.94L370.3 435.99L370.55 436.05L370.8 436.12L371.04 436.2L371.28 436.29L371.51 436.39L371.74 436.5L371.97 436.62L372.19 436.74L372.4 436.88L372.61 437.02L372.81 437.17L373 437.33L373.19 437.49L373.37 437.67L373.54 437.85L373.71 438.04L373.87 438.23L374.02 438.43L374.16 438.64L374.3 438.85L374.42 439.07L374.54 439.29L374.65 439.52L374.75 439.76L374.84 440L374.92 440.24L374.99 440.49L375.05 440.74L375.1 440.99L375.13 441.25L375.16 441.52L375.18 441.78L375.19 442.05L375.19 444.37L382.59 444.37L382.94 444.38L383.29 444.4L383.63 444.43L383.97 444.48L384.31 444.54L384.64 444.62L384.97 444.71L385.29 444.8L385.6 444.92L385.91 445.04L386.21 445.17L386.51 445.32L386.8 445.48L387.08 445.65L387.36 445.83L387.62 446.01L387.88 446.21L388.14 446.42L388.38 446.64L388.62 446.87L388.84 447.1L389.06 447.35L389.27 447.6L389.47 447.86L389.66 448.13L389.83 448.4L390 448.68L390.16 448.97L390.31 449.27L390.44 449.57L390.57 449.88L390.68 450.2L390.78 450.52L390.86 450.84L390.94 451.17L391 451.51L391.05 451.85L391.08 452.19L391.1 452.54L391.11 452.89L391.1 453.24L391.08 453.59L391.05 453.93L391 454.27L390.94 454.61L390.86 454.94L390.78 455.26L390.68 455.58L390.57 455.9L390.44 456.2L390.31 456.51L390.16 456.8L390 457.09L389.83 457.38L389.66 457.65L389.47 457.92L389.27 458.18L389.06 458.43L388.84 458.68L388.62 458.91L388.38 459.14L388.14 459.36L387.88 459.57L387.62 459.76L387.36 459.95L387.08 460.13L386.8 460.3L386.51 460.46L386.21 460.6L385.91 460.74L385.6 460.86L385.29 460.97L384.97 461.07L384.64 461.16L384.31 461.23L383.97 461.3L383.63 461.34L383.29 461.38L382.94 461.4L382.59 461.41L282.59 461.41L282.24 461.4L281.89 461.38L281.55 461.34L281.21 461.3L280.88 461.23L280.55 461.16L280.22 461.07L279.9 460.97L279.59 460.86L279.28 460.74L278.97 460.6L278.68 460.46L278.39 460.3L278.11 460.13L277.83 459.95L277.56 459.76L277.3 459.57L277.05 459.36L276.8 459.14L276.57 458.91L276.34 458.68L276.12 458.43L275.92 458.18L275.72 457.92L275.53 457.65L275.35 457.38L275.18 457.09L275.02 456.8L274.88 456.51L274.74 456.2L274.62 455.9L274.51 455.58L274.41 455.26L274.32 454.94L274.25 454.61L274.19 454.27L274.14 453.93L274.1 453.59L274.08 453.24L274.07 452.89L274.08 452.54L274.1 452.19L274.14 451.85L274.19 451.51L274.25 451.17L274.32 450.84L274.41 450.52L274.51 450.2L274.62 449.88L274.74 449.57L274.88 449.27L275.02 448.97L275.18 448.68L275.35 448.4L275.53 448.13L275.72 447.86L275.92 447.6L276.12 447.35L276.34 447.1L276.57 446.87L276.8 446.64L277.05 446.42L277.3 446.21L277.56 446.01L277.83 445.83L278.11 445.65L278.39 445.48L278.68 445.32L278.97 445.17L279.28 445.04L279.59 444.92L279.9 444.8L280.22 444.71L280.55 444.62L280.88 444.54L281.21 444.48L281.55 444.43L281.89 444.4L282.24 444.38L282.59 444.37L290 444.37L290 442.05L290.01 441.78L290.02 441.52L290.05 441.25L290.09 440.99L290.14 440.74L290.2 440.49L290.27 440.24L290.35 440L290.44 439.76L290.54 439.52L290.65 439.29L290.76 439.07L290.89 438.85L291.02 438.64L291.17 438.43L291.32 438.23L291.48 438.04L291.64 437.85L291.82 437.67L292 437.49L292.18 437.33L292.38 437.17L292.58 437.02L292.79 436.88L293 436.74L293.22 436.62L293.44 436.5L293.67 436.39L293.9 436.29L294.14 436.2L294.39 436.12L294.64 436.05L294.89 435.99L295.14 435.94L295.4 435.9L295.67 435.87L295.93 435.86L296.2 435.85L321.96 435.85L321.91 435.46L321.87 434.92L321.85 434.37L321.85 390.67L321.87 390.12L321.91 389.58L321.98 389.04L322.08 388.52L322.09 388.5L278.17 388.5L277.8 388.49L277.44 388.47L277.08 388.43L276.72 388.38L276.37 388.31L276.03 388.24L275.69 388.15L275.35 388.04L275.02 387.92L274.7 387.8L274.38 387.65L274.07 387.5L273.77 387.34L273.47 387.16L273.19 386.97L272.91 386.78L272.63 386.57L272.37 386.35L272.11 386.12L271.87 385.89L271.63 385.64L271.4 385.39L271.19 385.12L270.98 384.85L270.78 384.57L270.59 384.28L270.42 383.98L270.25 383.68L270.1 383.37L269.96 383.06L269.83 382.73L269.71 382.4L269.61 382.07L269.52 381.73L269.44 381.38L269.38 381.03L269.33 380.68L269.29 380.32L269.27 379.96L269.26 379.59L269.26 251.6L269.27 251.24L269.29 250.87L269.33 250.51L269.38 250.16L269.44 249.81L269.52 249.46L269.61 249.12L269.71 248.79L269.83 248.46L269.96 248.14L270.1 247.82L270.25 247.51L270.42 247.21L270.59 246.91L270.78 246.62L270.98 246.34L271.19 246.07L271.4 245.81L271.63 245.55L271.87 245.31L272.11 245.07L272.37 244.84L272.63 244.62L272.91 244.42L273.19 244.22L273.47 244.03L273.77 243.86L274.07 243.69L274.38 243.54L274.7 243.4L275.02 243.27L275.35 243.15L275.69 243.05L276.03 242.96L276.37 242.88L276.72 242.81L277.08 242.76L277.44 242.73L277.8 242.7L278.17 242.7L282.45 242.7L282.45 323.51L282.5 325.12ZM335.76 168.28L337.31 168.44L338.85 168.66L340.37 168.94L341.86 169.28L343.34 169.68L344.79 170.13L346.21 170.64L347.61 171.21L348.98 171.83L350.32 172.5L351.63 173.21L352.92 173.98L354.16 174.8L355.38 175.66L356.56 176.57L357.7 177.52L358.81 178.52L359.88 179.55L360.9 180.63L361.89 181.75L362.84 182.9L363.74 184.09L364.59 185.32L365.4 186.57L366.16 187.87L366.88 189.19L367.54 190.54L368.15 191.93L368.71 193.34L369.22 194.77L369.67 196.24L370.06 197.72L370.4 199.23L370.68 200.76L370.9 202.31L371.06 203.88L371.09 204.43L371.19 204.43L371.19 311.97L371.15 313.57L371.06 315.16L370.9 316.73L370.68 318.28L370.4 319.81L370.06 321.32L369.67 322.8L369.22 324.26L368.71 325.7L368.15 327.11L367.54 328.5L366.88 329.85L366.16 331.17L365.4 332.46L364.59 333.72L363.74 334.95L362.84 336.14L361.89 337.29L360.9 338.41L359.88 339.49L358.81 340.52L357.7 341.52L356.56 342.47L355.38 343.38L354.16 344.24L352.92 345.06L351.63 345.82L350.32 346.54L348.98 347.21L347.61 347.83L346.21 348.39L344.79 348.91L343.34 349.36L341.86 349.76L340.37 350.1L338.85 350.38L337.31 350.6L335.76 350.76L334.18 350.86L332.59 350.89L331 350.86L329.43 350.76L327.87 350.6L326.34 350.38L324.82 350.1L323.32 349.76L321.85 349.36L320.4 348.91L318.97 348.39L317.58 347.83L316.21 347.21L314.86 346.54L313.55 345.82L312.27 345.06L311.02 344.24L309.81 343.38L308.63 342.47L307.48 341.52L306.38 340.52L305.31 339.49L304.28 338.41L303.29 337.29L302.35 336.14L301.45 334.95L300.59 333.72L299.78 332.46L299.02 331.17L298.31 329.85L297.65 328.5L297.03 327.11L296.47 325.7L295.97 324.26L295.52 322.8L295.12 321.32L294.78 319.81L294.5 318.28L294.29 316.73L294.13 315.16L294.03 313.57L294 311.97L294 204.43L294.09 204.43L294.13 203.88L294.29 202.31L294.5 200.76L294.78 199.23L295.12 197.72L295.52 196.24L295.97 194.77L296.47 193.34L297.03 191.93L297.65 190.54L298.31 189.19L299.02 187.87L299.78 186.57L300.59 185.32L301.45 184.09L302.35 182.9L303.29 181.75L304.28 180.63L305.31 179.55L306.38 178.52L307.48 177.52L308.63 176.57L309.81 175.66L311.02 174.8L312.27 173.98L313.55 173.21L314.86 172.5L316.21 171.83L317.58 171.21L318.97 170.64L320.4 170.13L321.85 169.68L323.32 169.28L324.82 168.94L326.34 168.66L327.87 168.44L329.43 168.28L331 168.18L332.59 168.15L334.18 168.18L335.76 168.28Z" id="cfmqbs7hV" fill="white" fill-opacity="1" filter="url(#shadow9183907)"></path></g><use xlink:href="#a4I9RTF8i9" opacity="1" fill="url(#gradientc2MAvZ8Cj5)"></use></g></g></g></svg>