<?xml version="1.0" encoding="UTF-8" standalone="no"?>
<!DOCTYPE svg PUBLIC "-//W3C//DTD SVG 1.1//EN" "http://www.w3.org/Graphics/SVG/1.1/DTD/svg11.dtd">
<svg version="1.1" xmlns="http://www.w3.org/2000/svg" xmlns:xlink="http://www.w3.org/1999/xlink" preserveAspectRatio="xMidYMid meet" viewBox="0 0 640 640" width="640" height="640"><defs><path d="M566.35 137.4L567.68 137.53L568.99 137.72L570.28 137.96L571.56 138.25L572.81 138.58L574.05 138.97L575.26 139.4L576.45 139.87L577.62 140.4L578.76 140.96L579.88 141.57L580.97 142.22L582.04 142.91L583.07 143.63L584.08 144.4L585.05 145.2L585.99 146.04L586.9 146.92L587.78 147.83L588.62 148.77L589.42 149.74L590.19 150.75L590.91 151.78L591.6 152.85L592.25 153.94L592.86 155.06L593.42 156.2L593.95 157.37L594.42 158.56L594.85 159.77L595.24 161.01L595.57 162.26L595.86 163.54L596.1 164.83L596.28 166.14L596.42 167.47L596.5 168.81L596.53 170.16L596.53 501.79L596.5 503.14L596.42 504.48L596.28 505.81L596.1 507.12L595.86 508.41L595.57 509.69L595.24 510.94L594.85 512.18L594.42 513.39L593.95 514.58L593.42 515.75L592.86 516.89L592.25 518.01L591.6 519.1L590.91 520.17L590.19 521.2L589.42 522.21L588.62 523.18L587.78 524.12L586.9 525.03L585.99 525.91L585.05 526.75L584.08 527.55L583.07 528.32L582.04 529.05L580.97 529.74L579.88 530.38L578.76 530.99L577.62 531.56L576.45 532.08L575.26 532.55L574.05 532.98L572.81 533.37L571.56 533.71L570.28 533.99L568.99 534.23L567.68 534.42L566.35 534.55L565.01 534.63L563.66 534.66L87.2 534.66L85.84 534.63L84.5 534.55L83.17 534.42L81.86 534.23L80.57 533.99L79.3 533.71L78.04 533.37L76.81 532.98L75.59 532.55L74.4 532.08L73.23 531.56L72.09 530.99L70.97 530.38L69.88 529.74L68.82 529.05L67.78 528.32L66.78 527.55L65.8 526.75L64.86 525.91L63.95 525.03L63.08 524.12L62.24 523.18L61.43 522.21L60.67 521.2L59.94 520.17L59.25 519.1L58.6 518.01L57.99 516.89L57.43 515.75L56.91 514.58L56.43 513.39L56 512.18L55.62 510.94L55.28 509.69L54.99 508.41L54.75 507.12L54.57 505.81L54.43 504.48L54.35 503.14L54.32 501.79L54.32 170.16L54.35 168.81L54.43 167.47L54.57 166.14L54.75 164.83L54.99 163.54L55.28 162.26L55.62 161.01L56 159.77L56.43 158.56L56.91 157.37L57.43 156.2L57.99 155.06L58.6 153.94L59.25 152.85L59.94 151.78L60.67 150.75L61.43 149.74L62.24 148.77L63.08 147.83L63.95 146.92L64.86 146.04L65.8 145.2L66.78 144.4L67.78 143.63L68.82 142.91L69.88 142.22L70.97 141.57L72.09 140.96L73.23 140.4L74.4 139.87L75.59 139.4L76.81 138.97L78.04 138.58L79.3 138.25L80.57 137.96L81.86 137.72L83.17 137.53L84.5 137.4L85.84 137.32L87.2 137.29L225.16 137.29L225.16 168.24L110.93 168.24L110.02 168.26L109.13 168.31L108.24 168.4L107.37 168.53L106.51 168.68L105.65 168.88L104.82 169.1L103.99 169.36L103.18 169.65L102.39 169.96L101.61 170.31L100.84 170.69L100.1 171.09L99.37 171.53L98.66 171.99L97.97 172.47L97.3 172.98L96.65 173.52L96.02 174.08L95.41 174.67L94.83 175.27L94.27 175.9L93.73 176.55L93.22 177.22L92.73 177.91L92.27 178.62L91.84 179.35L91.43 180.1L91.06 180.86L90.71 181.64L90.39 182.44L90.1 183.25L89.85 184.07L89.62 184.91L89.43 185.76L89.27 186.62L89.15 187.5L89.06 188.38L89 189.28L88.99 190.18L88.99 483.01L89 483.91L89.06 484.81L89.15 485.69L89.27 486.57L89.43 487.43L89.62 488.28L89.85 489.12L90.1 489.94L90.39 490.75L90.71 491.55L91.06 492.33L91.43 493.09L91.84 493.84L92.27 494.57L92.73 495.28L93.22 495.97L93.73 496.64L94.27 497.29L94.83 497.92L95.41 498.52L96.02 499.11L96.65 499.67L97.3 500.21L97.97 500.72L98.66 501.2L99.37 501.66L100.1 502.1L100.84 502.5L101.61 502.88L102.39 503.23L103.18 503.54L103.99 503.83L104.82 504.09L105.65 504.31L106.51 504.5L107.37 504.66L108.24 504.79L109.13 504.88L110.02 504.93L110.93 504.95L541.16 504.95L542.07 504.93L542.96 504.88L543.85 504.79L544.72 504.66L545.58 504.5L546.44 504.31L547.27 504.09L548.1 503.83L548.91 503.54L549.7 503.23L550.48 502.88L551.25 502.5L551.99 502.1L552.72 501.66L553.43 501.2L554.12 500.72L554.79 500.21L555.44 499.67L556.07 499.11L556.68 498.52L557.26 497.92L557.82 497.29L558.36 496.64L558.87 495.97L559.36 495.28L559.82 494.57L560.25 493.84L560.66 493.09L561.03 492.33L561.38 491.55L561.7 490.75L561.99 489.94L562.24 489.12L562.47 488.28L562.66 487.43L562.82 486.57L562.94 485.69L563.03 484.81L563.09 483.91L563.1 483.01L563.1 190.18L563.09 189.28L563.03 188.38L562.94 187.5L562.82 186.62L562.66 185.76L562.47 184.91L562.24 184.07L561.99 183.25L561.7 182.44L561.38 181.64L561.03 180.86L560.66 180.1L560.25 179.35L559.82 178.62L559.36 177.91L558.87 177.22L558.36 176.55L557.82 175.9L557.26 175.27L556.68 174.67L556.07 174.08L555.44 173.52L554.79 172.98L554.12 172.47L553.43 171.99L552.72 171.53L551.99 171.09L551.25 170.69L550.48 170.31L549.7 169.96L548.91 169.65L548.1 169.36L547.27 169.1L546.44 168.88L545.58 168.68L544.72 168.53L543.85 168.4L542.96 168.31L542.07 168.26L541.16 168.24L434.36 168.24L434.36 137.29L563.66 137.29L565.01 137.32L566.35 137.4Z" id="b1X3cjak9A"></path><linearGradient id="gradientcbjIw6Kr1" gradientUnits="userSpaceOnUse" x1="325.43" y1="137.29" x2="325.43" y2="534.66"><stop style="stop-color: #7297f9;stop-opacity: 1" offset="0%"></stop><stop style="stop-color: #4572e6;stop-opacity: 1" offset="100%"></stop></linearGradient><path d="M363.03 50.71L363.86 50.79L364.68 50.91L365.48 51.05L366.28 51.23L367.07 51.44L367.84 51.69L368.6 51.95L369.34 52.25L370.07 52.58L370.79 52.93L371.49 53.31L372.17 53.72L372.83 54.15L373.48 54.6L374.11 55.08L374.72 55.59L375.31 56.11L375.88 56.66L376.42 57.23L376.95 57.81L377.45 58.42L377.93 59.05L378.39 59.7L378.82 60.36L379.22 61.05L379.6 61.75L379.95 62.46L380.28 63.19L380.58 63.94L380.85 64.69L381.09 65.47L381.3 66.25L381.48 67.05L381.63 67.86L381.74 68.68L381.83 69.51L381.88 70.34L381.9 71.19L381.9 210.82L381.88 211.67L381.83 212.5L381.74 213.33L381.63 214.15L381.48 214.96L381.3 215.76L381.09 216.54L380.85 217.31L380.58 218.07L380.28 218.82L379.95 219.55L379.6 220.26L379.22 220.96L378.82 221.65L378.39 222.31L377.93 222.96L377.45 223.59L376.95 224.19L376.42 224.78L375.88 225.35L375.31 225.9L374.72 226.42L374.11 226.93L373.48 227.41L372.83 227.86L372.17 228.29L371.49 228.7L370.79 229.08L370.07 229.43L369.34 229.76L368.6 230.05L367.84 230.32L367.07 230.56L366.28 230.77L365.48 230.95L364.68 231.1L363.86 231.22L363.03 231.3L362.19 231.36L361.34 231.37L278.66 231.37L277.81 231.36L276.97 231.3L276.14 231.22L275.32 231.1L274.52 230.95L273.72 230.77L272.93 230.56L272.16 230.32L271.4 230.05L270.66 229.76L269.93 229.43L269.21 229.08L268.51 228.7L267.83 228.29L267.17 227.86L266.52 227.41L265.89 226.93L265.28 226.42L264.69 225.9L264.12 225.35L263.58 224.78L263.05 224.19L262.55 223.59L262.07 222.96L261.61 222.31L261.18 221.65L260.78 220.96L260.4 220.26L260.05 219.55L259.72 218.82L259.42 218.07L259.15 217.31L258.91 216.54L258.7 215.76L258.52 214.96L258.37 214.15L258.26 213.33L258.17 212.5L258.12 211.67L258.1 210.82L258.1 71.19L258.12 70.34L258.17 69.51L258.26 68.68L258.37 67.86L258.52 67.05L258.7 66.25L258.91 65.47L259.15 64.69L259.42 63.94L259.72 63.19L260.05 62.46L260.4 61.75L260.78 61.05L261.18 60.36L261.61 59.7L262.07 59.05L262.55 58.42L263.05 57.81L263.58 57.23L264.12 56.66L264.69 56.11L265.28 55.59L265.89 55.08L266.52 54.6L267.17 54.15L267.83 53.72L268.51 53.31L269.21 52.93L269.93 52.58L270.66 52.25L271.4 51.95L272.16 51.69L272.93 51.44L273.72 51.23L274.52 51.05L275.32 50.91L276.14 50.79L276.97 50.71L277.81 50.65L278.66 50.64L361.34 50.64L362.19 50.65L363.03 50.71ZM315.57 127.52L313.99 127.68L312.44 127.9L310.91 128.18L309.4 128.52L307.91 128.92L306.44 129.38L305 129.89L303.59 130.45L302.2 131.07L300.85 131.74L299.52 132.46L298.23 133.23L296.97 134.05L295.74 134.92L294.55 135.83L293.39 136.78L292.27 137.78L291.19 138.81L290.16 139.89L289.16 141.01L288.21 142.17L287.3 143.36L286.43 144.59L285.61 145.85L284.84 147.14L284.12 148.47L283.45 149.82L282.83 151.21L282.27 152.62L281.76 154.06L281.3 155.53L280.9 157.02L280.56 158.53L280.28 160.06L280.06 161.61L279.9 163.19L279.8 164.78L279.77 166.38L279.8 167.99L279.9 169.58L280.06 171.15L280.28 172.7L280.56 174.24L280.9 175.75L281.3 177.24L281.76 178.7L282.27 180.14L282.83 181.55L283.45 182.94L284.12 184.3L284.84 185.62L285.61 186.92L286.43 188.18L287.3 189.41L288.21 190.6L289.16 191.75L290.16 192.87L291.19 193.95L292.27 194.99L293.39 195.98L294.55 196.94L295.74 197.85L296.97 198.71L298.23 199.53L299.52 200.3L300.85 201.02L302.2 201.69L303.59 202.31L305 202.88L306.44 203.39L307.91 203.84L309.4 204.24L310.91 204.58L312.44 204.87L313.99 205.09L315.57 205.25L317.16 205.34L318.76 205.38L320.37 205.34L321.96 205.25L323.53 205.09L325.08 204.87L326.62 204.58L328.13 204.24L329.62 203.84L331.08 203.39L332.52 202.88L333.93 202.31L335.32 201.69L336.68 201.02L338 200.3L339.3 199.53L340.56 198.71L341.79 197.85L342.98 196.94L344.13 195.98L345.25 194.99L346.33 193.95L347.37 192.87L348.36 191.75L349.32 190.6L350.23 189.41L351.09 188.18L351.91 186.92L352.68 185.62L353.4 184.3L354.07 182.94L354.69 181.55L355.26 180.14L355.77 178.7L356.22 177.24L356.62 175.75L356.96 174.24L357.25 172.7L357.47 171.15L357.63 169.58L357.72 167.99L357.76 166.38L357.72 164.78L357.63 163.19L357.47 161.61L357.25 160.06L356.96 158.53L356.62 157.02L356.22 155.53L355.77 154.06L355.26 152.62L354.69 151.21L354.07 149.82L353.4 148.47L352.68 147.14L351.91 145.85L351.09 144.59L350.23 143.36L349.32 142.17L348.36 141.01L347.37 139.89L346.33 138.81L345.25 137.78L344.13 136.78L342.98 135.83L341.79 134.92L340.56 134.05L339.3 133.23L338 132.46L336.68 131.74L335.32 131.07L333.93 130.45L332.52 129.89L331.08 129.38L329.62 128.92L328.13 128.52L326.62 128.18L325.08 127.9L323.53 127.68L321.96 127.52L320.37 127.42L318.76 127.39L317.16 127.42L315.57 127.52Z" id="b1C9EsdupZ"></path><linearGradient id="gradientd3RcYeJ9W" gradientUnits="userSpaceOnUse" x1="320" y1="50.64" x2="320" y2="231.37"><stop style="stop-color: #7095f8;stop-opacity: 1" offset="0%"></stop><stop style="stop-color: #4773e7;stop-opacity: 1" offset="100%"></stop></linearGradient><path d="M494.18 296.98C504.09 296.98 512.12 305.02 512.12 314.93C512.12 318.52 512.12 311.34 512.12 314.93C512.12 324.84 504.09 332.88 494.18 332.88C463.85 332.88 390.81 332.88 360.48 332.88C350.57 332.88 342.53 324.84 342.53 314.93C342.53 311.34 342.53 318.52 342.53 314.93C342.53 305.02 350.57 296.98 360.48 296.98C390.81 296.98 463.85 296.98 494.18 296.98Z" id="a3f2umvJan"></path><path d="M494.18 349.47C504.09 349.47 512.12 357.51 512.12 367.42C512.12 371.01 512.12 363.83 512.12 367.42C512.12 377.33 504.09 385.37 494.18 385.37C463.85 385.37 390.81 385.37 360.48 385.37C350.57 385.37 342.53 377.33 342.53 367.42C342.53 363.83 342.53 371.01 342.53 367.42C342.53 357.51 350.57 349.47 360.48 349.47C390.81 349.47 463.85 349.47 494.18 349.47Z" id="j1chK3rPYw"></path><path d="M495.88 401.49C505.79 401.49 513.83 409.53 513.83 419.44C513.83 423.03 513.83 415.85 513.83 419.44C513.83 429.36 505.79 437.39 495.88 437.39C465.55 437.39 392.51 437.39 362.18 437.39C352.27 437.39 344.23 429.36 344.23 419.44C344.23 415.85 344.23 423.03 344.23 419.44C344.23 409.53 352.27 401.49 362.18 401.49C392.51 401.49 465.55 401.49 495.88 401.49Z" id="a2VOhj2zUm"></path><path d="M257.12 296.98C257.12 336.95 232.15 369.4 201.41 369.4C170.66 369.4 145.7 336.95 145.7 296.98C145.7 257.01 170.66 224.56 201.41 224.56C232.15 224.56 257.12 257.01 257.12 296.98Z" id="e7mMmzvxos"></path><radialGradient id="gradientk3IGAnIdyI" gradientUnits="userSpaceOnUse" cx="223.52" cy="268.07" dx="223.52" dy="412.9" r="144.84"><stop style="stop-color: #7095f8;stop-opacity: 1" offset="0%"></stop><stop style="stop-color: #204fc8;stop-opacity: 1" offset="100%"></stop></radialGradient><path d="M299.2 429.93C299.2 454.53 257.6 474.5 206.36 474.5C155.12 474.5 113.52 454.53 113.52 429.93C113.52 405.34 155.12 385.37 206.36 385.37C257.6 385.37 299.2 405.34 299.2 429.93Z" id="e9wJWLko8"></path><radialGradient id="gradientb31QRbnJd" gradientUnits="userSpaceOnUse" cx="252.45" cy="401.49" dx="178.24" dy="460.15" r="94.6"><stop style="stop-color: #5e87f5;stop-opacity: 1" offset="0%"></stop><stop style="stop-color: #5071c8;stop-opacity: 1" offset="100%"></stop></radialGradient></defs><g><g><g><g><filter id="shadow7951309" x="20.32" y="103.29" width="613.21" height="471.37" filterUnits="userSpaceOnUse" primitiveUnits="userSpaceOnUse"><feFlood></feFlood><feComposite in2="SourceAlpha" operator="in"></feComposite><feGaussianBlur stdDeviation="3.16"></feGaussianBlur><feOffset dx="3" dy="6" result="afterOffset"></feOffset><feFlood flood-color="#4b4b4b" flood-opacity="0.5"></feFlood><feComposite in2="afterOffset" operator="in"></feComposite><feMorphology operator="dilate" radius="3"></feMorphology><feComposite in2="SourceAlpha" operator="out"></feComposite></filter><path d="M566.35 137.4L567.68 137.53L568.99 137.72L570.28 137.96L571.56 138.25L572.81 138.58L574.05 138.97L575.26 139.4L576.45 139.87L577.62 140.4L578.76 140.96L579.88 141.57L580.97 142.22L582.04 142.91L583.07 143.63L584.08 144.4L585.05 145.2L585.99 146.04L586.9 146.92L587.78 147.83L588.62 148.77L589.42 149.74L590.19 150.75L590.91 151.78L591.6 152.85L592.25 153.94L592.86 155.06L593.42 156.2L593.95 157.37L594.42 158.56L594.85 159.77L595.24 161.01L595.57 162.26L595.86 163.54L596.1 164.83L596.28 166.14L596.42 167.47L596.5 168.81L596.53 170.16L596.53 501.79L596.5 503.14L596.42 504.48L596.28 505.81L596.1 507.12L595.86 508.41L595.57 509.69L595.24 510.94L594.85 512.18L594.42 513.39L593.95 514.58L593.42 515.75L592.86 516.89L592.25 518.01L591.6 519.1L590.91 520.17L590.19 521.2L589.42 522.21L588.62 523.18L587.78 524.12L586.9 525.03L585.99 525.91L585.05 526.75L584.08 527.55L583.07 528.32L582.04 529.05L580.97 529.74L579.88 530.38L578.76 530.99L577.62 531.56L576.45 532.08L575.26 532.55L574.05 532.98L572.81 533.37L571.56 533.71L570.28 533.99L568.99 534.23L567.68 534.42L566.35 534.55L565.01 534.63L563.66 534.66L87.2 534.66L85.84 534.63L84.5 534.55L83.17 534.42L81.86 534.23L80.57 533.99L79.3 533.71L78.04 533.37L76.81 532.98L75.59 532.55L74.4 532.08L73.23 531.56L72.09 530.99L70.97 530.38L69.88 529.74L68.82 529.05L67.78 528.32L66.78 527.55L65.8 526.75L64.86 525.91L63.95 525.03L63.08 524.12L62.24 523.18L61.43 522.21L60.67 521.2L59.94 520.17L59.25 519.1L58.6 518.01L57.99 516.89L57.43 515.75L56.91 514.58L56.43 513.39L56 512.18L55.62 510.94L55.28 509.69L54.99 508.41L54.75 507.12L54.57 505.81L54.43 504.48L54.35 503.14L54.32 501.79L54.32 170.16L54.35 168.81L54.43 167.47L54.57 166.14L54.75 164.83L54.99 163.54L55.28 162.26L55.62 161.01L56 159.77L56.43 158.56L56.91 157.37L57.43 156.2L57.99 155.06L58.6 153.94L59.25 152.85L59.94 151.78L60.67 150.75L61.43 149.74L62.24 148.77L63.08 147.83L63.95 146.92L64.86 146.04L65.8 145.2L66.78 144.4L67.78 143.63L68.82 142.91L69.88 142.22L70.97 141.57L72.09 140.96L73.23 140.4L74.4 139.87L75.59 139.4L76.81 138.97L78.04 138.58L79.3 138.25L80.57 137.96L81.86 137.72L83.17 137.53L84.5 137.4L85.84 137.32L87.2 137.29L225.16 137.29L225.16 168.24L110.93 168.24L110.02 168.26L109.13 168.31L108.24 168.4L107.37 168.53L106.51 168.68L105.65 168.88L104.82 169.1L103.99 169.36L103.18 169.65L102.39 169.96L101.61 170.31L100.84 170.69L100.1 171.09L99.37 171.53L98.66 171.99L97.97 172.47L97.3 172.98L96.65 173.52L96.02 174.08L95.41 174.67L94.83 175.27L94.27 175.9L93.73 176.55L93.22 177.22L92.73 177.91L92.27 178.62L91.84 179.35L91.43 180.1L91.06 180.86L90.71 181.64L90.39 182.44L90.1 183.25L89.85 184.07L89.62 184.91L89.43 185.76L89.27 186.62L89.15 187.5L89.06 188.38L89 189.28L88.99 190.18L88.99 483.01L89 483.91L89.06 484.81L89.15 485.69L89.27 486.57L89.43 487.43L89.62 488.28L89.85 489.12L90.1 489.94L90.39 490.75L90.71 491.55L91.06 492.33L91.43 493.09L91.84 493.84L92.27 494.57L92.73 495.28L93.22 495.97L93.73 496.64L94.27 497.29L94.83 497.92L95.41 498.52L96.02 499.11L96.65 499.67L97.3 500.21L97.97 500.72L98.66 501.2L99.37 501.66L100.1 502.1L100.84 502.5L101.61 502.88L102.39 503.23L103.18 503.54L103.99 503.83L104.82 504.09L105.65 504.31L106.51 504.5L107.37 504.66L108.24 504.79L109.13 504.88L110.02 504.93L110.93 504.95L541.16 504.95L542.07 504.93L542.96 504.88L543.85 504.79L544.72 504.66L545.58 504.5L546.44 504.31L547.27 504.09L548.1 503.83L548.91 503.54L549.7 503.23L550.48 502.88L551.25 502.5L551.99 502.1L552.72 501.66L553.43 501.2L554.12 500.72L554.79 500.21L555.44 499.67L556.07 499.11L556.68 498.52L557.26 497.92L557.82 497.29L558.36 496.64L558.87 495.97L559.36 495.28L559.82 494.57L560.25 493.84L560.66 493.09L561.03 492.33L561.38 491.55L561.7 490.75L561.99 489.94L562.24 489.12L562.47 488.28L562.66 487.43L562.82 486.57L562.94 485.69L563.03 484.81L563.09 483.91L563.1 483.01L563.1 190.18L563.09 189.28L563.03 188.38L562.94 187.5L562.82 186.62L562.66 185.76L562.47 184.91L562.24 184.07L561.99 183.25L561.7 182.44L561.38 181.64L561.03 180.86L560.66 180.1L560.25 179.35L559.82 178.62L559.36 177.91L558.87 177.22L558.36 176.55L557.82 175.9L557.26 175.27L556.68 174.67L556.07 174.08L555.44 173.52L554.79 172.98L554.12 172.47L553.43 171.99L552.72 171.53L551.99 171.09L551.25 170.69L550.48 170.31L549.7 169.96L548.91 169.65L548.1 169.36L547.27 169.1L546.44 168.88L545.58 168.68L544.72 168.53L543.85 168.4L542.96 168.31L542.07 168.26L541.16 168.24L434.36 168.24L434.36 137.29L563.66 137.29L565.01 137.32L566.35 137.4Z" id="bEAhXLdE" fill="white" fill-opacity="1" filter="url(#shadow7951309)"></path></g><use xlink:href="#b1X3cjak9A" opacity="1" fill="url(#gradientcbjIw6Kr1)"></use></g><g><g><filter id="shadow15500018" x="224.1" y="16.64" width="194.79" height="254.74" filterUnits="userSpaceOnUse" primitiveUnits="userSpaceOnUse"><feFlood></feFlood><feComposite in2="SourceAlpha" operator="in"></feComposite><feGaussianBlur stdDeviation="3.16"></feGaussianBlur><feOffset dx="3" dy="6" result="afterOffset"></feOffset><feFlood flood-color="#4b4b4b" flood-opacity="0.5"></feFlood><feComposite in2="afterOffset" operator="in"></feComposite><feMorphology operator="dilate" radius="3"></feMorphology><feComposite in2="SourceAlpha" operator="out"></feComposite></filter><path d="M363.03 50.71L363.86 50.79L364.68 50.91L365.48 51.05L366.28 51.23L367.07 51.44L367.84 51.69L368.6 51.95L369.34 52.25L370.07 52.58L370.79 52.93L371.49 53.31L372.17 53.72L372.83 54.15L373.48 54.6L374.11 55.08L374.72 55.59L375.31 56.11L375.88 56.66L376.42 57.23L376.95 57.81L377.45 58.42L377.93 59.05L378.39 59.7L378.82 60.36L379.22 61.05L379.6 61.75L379.95 62.46L380.28 63.19L380.58 63.94L380.85 64.69L381.09 65.47L381.3 66.25L381.48 67.05L381.63 67.86L381.74 68.68L381.83 69.51L381.88 70.34L381.9 71.19L381.9 210.82L381.88 211.67L381.83 212.5L381.74 213.33L381.63 214.15L381.48 214.96L381.3 215.76L381.09 216.54L380.85 217.31L380.58 218.07L380.28 218.82L379.95 219.55L379.6 220.26L379.22 220.96L378.82 221.65L378.39 222.31L377.93 222.96L377.45 223.59L376.95 224.19L376.42 224.78L375.88 225.35L375.31 225.9L374.72 226.42L374.11 226.93L373.48 227.41L372.83 227.86L372.17 228.29L371.49 228.7L370.79 229.08L370.07 229.43L369.34 229.76L368.6 230.05L367.84 230.32L367.07 230.56L366.28 230.77L365.48 230.95L364.68 231.1L363.86 231.22L363.03 231.3L362.19 231.36L361.34 231.37L278.66 231.37L277.81 231.36L276.97 231.3L276.14 231.22L275.32 231.1L274.52 230.95L273.72 230.77L272.93 230.56L272.16 230.32L271.4 230.05L270.66 229.76L269.93 229.43L269.21 229.08L268.51 228.7L267.83 228.29L267.17 227.86L266.52 227.41L265.89 226.93L265.28 226.42L264.69 225.9L264.12 225.35L263.58 224.78L263.05 224.19L262.55 223.59L262.07 222.96L261.61 222.31L261.18 221.65L260.78 220.96L260.4 220.26L260.05 219.55L259.72 218.82L259.42 218.07L259.15 217.31L258.91 216.54L258.7 215.76L258.52 214.96L258.37 214.15L258.26 213.33L258.17 212.5L258.12 211.67L258.1 210.82L258.1 71.19L258.12 70.34L258.17 69.51L258.26 68.68L258.37 67.86L258.52 67.05L258.7 66.25L258.91 65.47L259.15 64.69L259.42 63.94L259.72 63.19L260.05 62.46L260.4 61.75L260.78 61.05L261.18 60.36L261.61 59.7L262.07 59.05L262.55 58.42L263.05 57.81L263.58 57.23L264.12 56.66L264.69 56.11L265.28 55.59L265.89 55.08L266.52 54.6L267.17 54.15L267.83 53.72L268.51 53.31L269.21 52.93L269.93 52.58L270.66 52.25L271.4 51.95L272.16 51.69L272.93 51.44L273.72 51.23L274.52 51.05L275.32 50.91L276.14 50.79L276.97 50.71L277.81 50.65L278.66 50.64L361.34 50.64L362.19 50.65L363.03 50.71ZM315.57 127.52L313.99 127.68L312.44 127.9L310.91 128.18L309.4 128.52L307.91 128.92L306.44 129.38L305 129.89L303.59 130.45L302.2 131.07L300.85 131.74L299.52 132.46L298.23 133.23L296.97 134.05L295.74 134.92L294.55 135.83L293.39 136.78L292.27 137.78L291.19 138.81L290.16 139.89L289.16 141.01L288.21 142.17L287.3 143.36L286.43 144.59L285.61 145.85L284.84 147.14L284.12 148.47L283.45 149.82L282.83 151.21L282.27 152.62L281.76 154.06L281.3 155.53L280.9 157.02L280.56 158.53L280.28 160.06L280.06 161.61L279.9 163.19L279.8 164.78L279.77 166.38L279.8 167.99L279.9 169.58L280.06 171.15L280.28 172.7L280.56 174.24L280.9 175.75L281.3 177.24L281.76 178.7L282.27 180.14L282.83 181.55L283.45 182.94L284.12 184.3L284.84 185.62L285.61 186.92L286.43 188.18L287.3 189.41L288.21 190.6L289.16 191.75L290.16 192.87L291.19 193.95L292.27 194.99L293.39 195.98L294.55 196.94L295.74 197.85L296.97 198.71L298.23 199.53L299.52 200.3L300.85 201.02L302.2 201.69L303.59 202.31L305 202.88L306.44 203.39L307.91 203.84L309.4 204.24L310.91 204.58L312.44 204.87L313.99 205.09L315.57 205.25L317.16 205.34L318.76 205.38L320.37 205.34L321.96 205.25L323.53 205.09L325.08 204.87L326.62 204.58L328.13 204.24L329.62 203.84L331.08 203.39L332.52 202.88L333.93 202.31L335.32 201.69L336.68 201.02L338 200.3L339.3 199.53L340.56 198.71L341.79 197.85L342.98 196.94L344.13 195.98L345.25 194.99L346.33 193.95L347.37 192.87L348.36 191.75L349.32 190.6L350.23 189.41L351.09 188.18L351.91 186.92L352.68 185.62L353.4 184.3L354.07 182.94L354.69 181.55L355.26 180.14L355.77 178.7L356.22 177.24L356.62 175.75L356.96 174.24L357.25 172.7L357.47 171.15L357.63 169.58L357.72 167.99L357.76 166.38L357.72 164.78L357.63 163.19L357.47 161.61L357.25 160.06L356.96 158.53L356.62 157.02L356.22 155.53L355.77 154.06L355.26 152.62L354.69 151.21L354.07 149.82L353.4 148.47L352.68 147.14L351.91 145.85L351.09 144.59L350.23 143.36L349.32 142.17L348.36 141.01L347.37 139.89L346.33 138.81L345.25 137.78L344.13 136.78L342.98 135.83L341.79 134.92L340.56 134.05L339.3 133.23L338 132.46L336.68 131.74L335.32 131.07L333.93 130.45L332.52 129.89L331.08 129.38L329.62 128.92L328.13 128.52L326.62 128.18L325.08 127.9L323.53 127.68L321.96 127.52L320.37 127.42L318.76 127.39L317.16 127.42L315.57 127.52Z" id="a3VFA8Zdas" fill="white" fill-opacity="1" filter="url(#shadow15500018)"></path></g><use xlink:href="#b1C9EsdupZ" opacity="1" fill="url(#gradientd3RcYeJ9W)"></use></g><g><g><filter id="shadow116016" x="308.53" y="262.98" width="240.59" height="109.9" filterUnits="userSpaceOnUse" primitiveUnits="userSpaceOnUse"><feFlood></feFlood><feComposite in2="SourceAlpha" operator="in"></feComposite><feGaussianBlur stdDeviation="3.16"></feGaussianBlur><feOffset dx="3" dy="6" result="afterOffset"></feOffset><feFlood flood-color="#4b4b4b" flood-opacity="0.5"></feFlood><feComposite in2="afterOffset" operator="in"></feComposite><feMorphology operator="dilate" radius="3"></feMorphology><feComposite in2="SourceAlpha" operator="out"></feComposite></filter><path d="M494.18 296.98C504.09 296.98 512.12 305.02 512.12 314.93C512.12 318.52 512.12 311.34 512.12 314.93C512.12 324.84 504.09 332.88 494.18 332.88C463.85 332.88 390.81 332.88 360.48 332.88C350.57 332.88 342.53 324.84 342.53 314.93C342.53 311.34 342.53 318.52 342.53 314.93C342.53 305.02 350.57 296.98 360.48 296.98C390.81 296.98 463.85 296.98 494.18 296.98Z" id="d6D5RACPH" fill="white" fill-opacity="1" filter="url(#shadow116016)"></path></g><use xlink:href="#a3f2umvJan" opacity="1" fill="#7297f9" fill-opacity="1"></use></g><g><g><filter id="shadow16597280" x="308.53" y="315.47" width="240.59" height="109.9" filterUnits="userSpaceOnUse" primitiveUnits="userSpaceOnUse"><feFlood></feFlood><feComposite in2="SourceAlpha" operator="in"></feComposite><feGaussianBlur stdDeviation="3.16"></feGaussianBlur><feOffset dx="3" dy="6" result="afterOffset"></feOffset><feFlood flood-color="#4b4b4b" flood-opacity="0.5"></feFlood><feComposite in2="afterOffset" operator="in"></feComposite><feMorphology operator="dilate" radius="3"></feMorphology><feComposite in2="SourceAlpha" operator="out"></feComposite></filter><path d="M494.18 349.47C504.09 349.47 512.12 357.51 512.12 367.42C512.12 371.01 512.12 363.83 512.12 367.42C512.12 377.33 504.09 385.37 494.18 385.37C463.85 385.37 390.81 385.37 360.48 385.37C350.57 385.37 342.53 377.33 342.53 367.42C342.53 363.83 342.53 371.01 342.53 367.42C342.53 357.51 350.57 349.47 360.48 349.47C390.81 349.47 463.85 349.47 494.18 349.47Z" id="b1HZJzXCa4" fill="white" fill-opacity="1" filter="url(#shadow16597280)"></path></g><use xlink:href="#j1chK3rPYw" opacity="1" fill="#547fef" fill-opacity="1"></use></g><g><g><filter id="shadow10300473" x="310.23" y="367.49" width="240.59" height="109.9" filterUnits="userSpaceOnUse" primitiveUnits="userSpaceOnUse"><feFlood></feFlood><feComposite in2="SourceAlpha" operator="in"></feComposite><feGaussianBlur stdDeviation="3.16"></feGaussianBlur><feOffset dx="3" dy="6" result="afterOffset"></feOffset><feFlood flood-color="#4b4b4b" flood-opacity="0.5"></feFlood><feComposite in2="afterOffset" operator="in"></feComposite><feMorphology operator="dilate" radius="3"></feMorphology><feComposite in2="SourceAlpha" operator="out"></feComposite></filter><path d="M495.88 401.49C505.79 401.49 513.83 409.53 513.83 419.44C513.83 423.03 513.83 415.85 513.83 419.44C513.83 429.36 505.79 437.39 495.88 437.39C465.55 437.39 392.51 437.39 362.18 437.39C352.27 437.39 344.23 429.36 344.23 419.44C344.23 415.85 344.23 423.03 344.23 419.44C344.23 409.53 352.27 401.49 362.18 401.49C392.51 401.49 465.55 401.49 495.88 401.49Z" id="f3cmMCdvjz" fill="white" fill-opacity="1" filter="url(#shadow10300473)"></path></g><use xlink:href="#a2VOhj2zUm" opacity="1" fill="#4572e6" fill-opacity="1"></use></g><g><g><filter id="shadow16226539" x="111.7" y="190.56" width="182.41" height="218.84" filterUnits="userSpaceOnUse" primitiveUnits="userSpaceOnUse"><feFlood></feFlood><feComposite in2="SourceAlpha" operator="in"></feComposite><feGaussianBlur stdDeviation="3.16"></feGaussianBlur><feOffset dx="3" dy="6" result="afterOffset"></feOffset><feFlood flood-color="#4b4b4b" flood-opacity="0.5"></feFlood><feComposite in2="afterOffset" operator="in"></feComposite><feMorphology operator="dilate" radius="3"></feMorphology><feComposite in2="SourceAlpha" operator="out"></feComposite></filter><path d="M257.12 296.98C257.12 336.95 232.15 369.4 201.41 369.4C170.66 369.4 145.7 336.95 145.7 296.98C145.7 257.01 170.66 224.56 201.41 224.56C232.15 224.56 257.12 257.01 257.12 296.98Z" id="cY6DkBsXS" fill="white" fill-opacity="1" filter="url(#shadow16226539)"></path></g><use xlink:href="#e7mMmzvxos" opacity="1" fill="url(#gradientk3IGAnIdyI)"></use><g><use xlink:href="#e7mMmzvxos" opacity="1" fill-opacity="0" stroke="#b3fe7f" stroke-width="1" stroke-opacity="0"></use></g></g><g><g><filter id="shadow6194410" x="79.52" y="351.37" width="256.69" height="163.13" filterUnits="userSpaceOnUse" primitiveUnits="userSpaceOnUse"><feFlood></feFlood><feComposite in2="SourceAlpha" operator="in"></feComposite><feGaussianBlur stdDeviation="3.16"></feGaussianBlur><feOffset dx="3" dy="6" result="afterOffset"></feOffset><feFlood flood-color="#4b4b4b" flood-opacity="0.5"></feFlood><feComposite in2="afterOffset" operator="in"></feComposite><feMorphology operator="dilate" radius="3"></feMorphology><feComposite in2="SourceAlpha" operator="out"></feComposite></filter><path d="M299.2 429.93C299.2 454.53 257.6 474.5 206.36 474.5C155.12 474.5 113.52 454.53 113.52 429.93C113.52 405.34 155.12 385.37 206.36 385.37C257.6 385.37 299.2 405.34 299.2 429.93Z" id="bddKyb4hS" fill="white" fill-opacity="1" filter="url(#shadow6194410)"></path></g><use xlink:href="#e9wJWLko8" opacity="1" fill="url(#gradientb31QRbnJd)"></use></g></g></g></svg>