<?xml version="1.0" encoding="UTF-8" standalone="no"?>
<!DOCTYPE svg PUBLIC "-//W3C//DTD SVG 1.1//EN" "http://www.w3.org/Graphics/SVG/1.1/DTD/svg11.dtd">
<svg version="1.1" xmlns="http://www.w3.org/2000/svg" xmlns:xlink="http://www.w3.org/1999/xlink" preserveAspectRatio="xMidYMid meet" viewBox="0 0 640 640" width="640" height="640"><defs><path d="M534.51 133.89L535.74 134.02L536.96 134.19L538.16 134.41L539.34 134.68L540.51 134.99L541.65 135.35L542.78 135.75L543.89 136.19L544.97 136.68L546.03 137.2L547.07 137.76L548.08 138.37L549.07 139.01L550.03 139.68L550.97 140.39L551.87 141.14L552.74 141.92L553.59 142.73L554.4 143.58L555.18 144.45L555.93 145.36L556.64 146.29L557.32 147.25L557.96 148.24L558.56 149.25L559.12 150.29L559.65 151.35L560.13 152.43L560.57 153.54L560.97 154.67L561.33 155.82L561.64 156.98L561.91 158.16L562.13 159.36L562.3 160.58L562.43 161.81L562.5 163.06L562.53 164.32L562.53 472.24L562.5 473.49L562.43 474.74L562.3 475.97L562.13 477.19L561.91 478.39L561.64 479.57L561.33 480.74L560.97 481.88L560.57 483.01L560.13 484.12L559.65 485.2L559.12 486.26L558.56 487.3L557.96 488.31L557.32 489.3L556.64 490.26L555.93 491.2L555.18 492.1L554.4 492.97L553.59 493.82L552.74 494.63L551.87 495.41L550.97 496.16L550.03 496.87L549.07 497.55L548.08 498.19L547.07 498.79L546.03 499.35L544.97 499.88L543.89 500.36L542.78 500.8L541.65 501.2L540.51 501.56L539.34 501.87L538.16 502.14L536.96 502.36L535.74 502.53L534.51 502.66L533.26 502.73L532.01 502.76L89.6 502.76L88.34 502.73L87.1 502.66L85.87 502.53L84.65 502.36L83.45 502.14L82.27 501.87L81.1 501.56L79.96 501.2L78.83 500.8L77.72 500.36L76.64 499.88L75.58 499.35L74.54 498.79L73.53 498.19L72.54 497.55L71.58 496.87L70.64 496.16L69.74 495.41L68.86 494.63L68.02 493.82L67.21 492.97L66.43 492.1L65.68 491.2L64.97 490.26L64.29 489.3L63.65 488.31L63.05 487.3L62.49 486.26L61.96 485.2L61.48 484.12L61.04 483.01L60.64 481.88L60.28 480.74L59.97 479.57L59.7 478.39L59.48 477.19L59.31 475.97L59.18 474.74L59.11 473.49L59.08 472.24L59.08 164.32L59.11 163.06L59.18 161.81L59.31 160.58L59.48 159.36L59.7 158.16L59.97 156.98L60.28 155.82L60.64 154.67L61.04 153.54L61.48 152.43L61.96 151.35L62.49 150.29L63.05 149.25L63.65 148.24L64.29 147.25L64.97 146.29L65.68 145.36L66.43 144.45L67.21 143.58L68.02 142.73L68.86 141.92L69.74 141.14L70.64 140.39L71.58 139.68L72.54 139.01L73.53 138.37L74.54 137.76L75.58 137.2L76.64 136.68L77.72 136.19L78.83 135.75L79.96 135.35L81.1 134.99L82.27 134.68L83.45 134.41L84.65 134.19L85.87 134.02L87.1 133.89L88.34 133.82L89.6 133.79L217.7 133.79L217.7 162.53L111.64 162.53L110.8 162.55L109.97 162.6L109.15 162.68L108.33 162.8L107.53 162.94L106.74 163.12L105.96 163.33L105.2 163.57L104.45 163.83L103.71 164.13L102.98 164.45L102.28 164.8L101.58 165.18L100.91 165.58L100.25 166.01L99.61 166.46L98.98 166.94L98.38 167.43L97.8 167.95L97.23 168.5L96.69 169.06L96.17 169.64L95.67 170.25L95.2 170.87L94.74 171.51L94.32 172.17L93.91 172.85L93.54 173.54L93.19 174.25L92.87 174.97L92.57 175.71L92.3 176.46L92.06 177.23L91.86 178.01L91.68 178.8L91.53 179.6L91.42 180.41L91.33 181.23L91.28 182.06L91.26 182.9L91.26 454.8L91.28 455.64L91.33 456.47L91.42 457.29L91.53 458.1L91.68 458.9L91.86 459.69L92.06 460.47L92.3 461.24L92.57 461.99L92.87 462.73L93.19 463.45L93.54 464.16L93.91 464.85L94.32 465.53L94.74 466.19L95.2 466.83L95.67 467.45L96.17 468.06L96.69 468.64L97.23 469.2L97.8 469.75L98.38 470.27L98.98 470.77L99.61 471.24L100.25 471.69L100.91 472.12L101.58 472.52L102.28 472.9L102.98 473.25L103.71 473.57L104.45 473.87L105.2 474.13L105.96 474.37L106.74 474.58L107.53 474.76L108.33 474.91L109.15 475.02L109.97 475.1L110.8 475.16L111.64 475.17L511.12 475.17L511.96 475.16L512.79 475.1L513.61 475.02L514.42 474.91L515.23 474.76L516.02 474.58L516.79 474.37L517.56 474.13L518.31 473.87L519.05 473.57L519.77 473.25L520.48 472.9L521.18 472.52L521.85 472.12L522.51 471.69L523.15 471.24L523.78 470.77L524.38 470.27L524.96 469.75L525.53 469.2L526.07 468.64L526.59 468.06L527.09 467.45L527.56 466.83L528.01 466.19L528.44 465.53L528.84 464.85L529.22 464.16L529.57 463.45L529.89 462.73L530.19 461.99L530.46 461.24L530.69 460.47L530.9 459.69L531.08 458.9L531.23 458.1L531.34 457.29L531.43 456.47L531.48 455.64L531.49 454.8L531.49 182.9L531.48 182.06L531.43 181.23L531.34 180.41L531.23 179.6L531.08 178.8L530.9 178.01L530.69 177.23L530.46 176.46L530.19 175.71L529.89 174.97L529.57 174.25L529.22 173.54L528.84 172.85L528.44 172.17L528.01 171.51L527.56 170.87L527.09 170.25L526.59 169.64L526.07 169.06L525.53 168.5L524.96 167.95L524.38 167.43L523.78 166.94L523.15 166.46L522.51 166.01L521.85 165.58L521.18 165.18L520.48 164.8L519.77 164.45L519.05 164.13L518.31 163.83L517.56 163.57L516.79 163.33L516.02 163.12L515.23 162.94L514.42 162.8L513.61 162.68L512.79 162.6L511.96 162.55L511.12 162.53L411.95 162.53L411.95 133.79L532.01 133.79L533.26 133.82L534.51 133.89Z" id="hkRBRlSLI"></path><path d="M351.91 53.4L352.68 53.47L353.44 53.58L354.19 53.72L354.93 53.89L355.66 54.08L356.37 54.31L357.08 54.56L357.77 54.83L358.45 55.14L359.11 55.46L359.76 55.82L360.39 56.19L361.01 56.59L361.61 57.02L362.2 57.46L362.76 57.93L363.31 58.42L363.84 58.92L364.34 59.45L364.83 60L365.3 60.56L365.74 61.15L366.17 61.75L366.57 62.37L366.94 63L367.3 63.65L367.62 64.31L367.93 64.99L368.2 65.68L368.45 66.39L368.68 67.1L368.87 67.83L369.04 68.57L369.18 69.32L369.28 70.08L369.36 70.85L369.41 71.63L369.43 72.42L369.43 202.06L369.41 202.85L369.36 203.63L369.28 204.4L369.18 205.16L369.04 205.91L368.87 206.65L368.68 207.38L368.45 208.1L368.2 208.8L367.93 209.49L367.62 210.17L367.3 210.84L366.94 211.48L366.57 212.12L366.17 212.74L365.74 213.34L365.3 213.92L364.83 214.48L364.34 215.03L363.84 215.56L363.31 216.07L362.76 216.56L362.2 217.02L361.61 217.47L361.01 217.89L360.39 218.29L359.76 218.67L359.11 219.02L358.45 219.35L357.77 219.65L357.08 219.93L356.37 220.18L355.66 220.4L354.93 220.59L354.19 220.76L353.44 220.9L352.68 221.01L351.91 221.09L351.13 221.13L350.34 221.15L273.57 221.15L272.78 221.13L272 221.09L271.23 221.01L270.47 220.9L269.72 220.76L268.98 220.59L268.25 220.4L267.54 220.18L266.83 219.93L266.14 219.65L265.46 219.35L264.8 219.02L264.15 218.67L263.51 218.29L262.9 217.89L262.3 217.47L261.71 217.02L261.15 216.56L260.6 216.07L260.07 215.56L259.56 215.03L259.08 214.48L258.61 213.92L258.17 213.34L257.74 212.74L257.34 212.12L256.97 211.48L256.61 210.84L256.29 210.17L255.98 209.49L255.71 208.8L255.46 208.1L255.23 207.38L255.04 206.65L254.87 205.91L254.73 205.16L254.62 204.4L254.55 203.63L254.5 202.85L254.48 202.06L254.48 72.42L254.5 71.63L254.55 70.85L254.62 70.08L254.73 69.32L254.87 68.57L255.04 67.83L255.23 67.1L255.46 66.39L255.71 65.68L255.98 64.99L256.29 64.31L256.61 63.65L256.97 63L257.34 62.37L257.74 61.75L258.17 61.15L258.61 60.56L259.08 60L259.56 59.45L260.07 58.92L260.6 58.42L261.15 57.93L261.71 57.46L262.3 57.02L262.9 56.59L263.51 56.19L264.15 55.82L264.8 55.46L265.46 55.14L266.14 54.83L266.83 54.56L267.54 54.31L268.25 54.08L268.98 53.89L269.72 53.72L270.47 53.58L271.23 53.47L272 53.4L272.78 53.35L273.57 53.33L350.34 53.33L351.13 53.35L351.91 53.4ZM307.84 124.72L306.38 124.87L304.93 125.07L303.51 125.33L302.11 125.65L300.73 126.02L299.37 126.44L298.03 126.92L296.72 127.44L295.43 128.02L294.17 128.64L292.94 129.31L291.74 130.03L290.57 130.78L289.43 131.59L288.32 132.43L287.25 133.32L286.21 134.24L285.21 135.21L284.24 136.21L283.32 137.25L282.43 138.32L281.59 139.43L280.78 140.57L280.03 141.74L279.31 142.94L278.64 144.17L278.02 145.43L277.44 146.72L276.92 148.03L276.44 149.37L276.02 150.73L275.65 152.11L275.33 153.51L275.07 154.93L274.87 156.38L274.72 157.84L274.63 159.31L274.6 160.8L274.63 162.3L274.72 163.77L274.87 165.23L275.07 166.67L275.33 168.1L275.65 169.5L276.02 170.88L276.44 172.24L276.92 173.58L277.44 174.89L278.02 176.18L278.64 177.44L279.31 178.67L280.03 179.87L280.78 181.04L281.59 182.18L282.43 183.29L283.32 184.36L284.24 185.4L285.21 186.4L286.21 187.37L287.25 188.29L288.32 189.18L289.43 190.02L290.57 190.82L291.74 191.58L292.94 192.3L294.17 192.97L295.43 193.59L296.72 194.16L298.03 194.69L299.37 195.16L300.73 195.59L302.11 195.96L303.51 196.28L304.93 196.54L306.38 196.74L307.84 196.89L309.31 196.98L310.8 197.01L312.3 196.98L313.77 196.89L315.23 196.74L316.67 196.54L318.1 196.28L319.5 195.96L320.88 195.59L322.24 195.16L323.58 194.69L324.89 194.16L326.18 193.59L327.44 192.97L328.67 192.3L329.87 191.58L331.04 190.82L332.18 190.02L333.29 189.18L334.36 188.29L335.4 187.37L336.4 186.4L337.37 185.4L338.29 184.36L339.18 183.29L340.02 182.18L340.82 181.04L341.58 179.87L342.3 178.67L342.97 177.44L343.59 176.18L344.16 174.89L344.69 173.58L345.16 172.24L345.59 170.88L345.96 169.5L346.28 168.1L346.54 166.67L346.74 165.23L346.89 163.77L346.98 162.3L347.01 160.8L346.98 159.31L346.89 157.84L346.74 156.38L346.54 154.93L346.28 153.51L345.96 152.11L345.59 150.73L345.16 149.37L344.69 148.03L344.16 146.72L343.59 145.43L342.97 144.17L342.3 142.94L341.58 141.74L340.82 140.57L340.02 139.43L339.18 138.32L338.29 137.25L337.37 136.21L336.4 135.21L335.4 134.24L334.36 133.32L333.29 132.43L332.18 131.59L331.04 130.78L329.87 130.03L328.67 129.31L327.44 128.64L326.18 128.02L324.89 127.44L323.58 126.92L322.24 126.44L320.88 126.02L319.5 125.65L318.1 125.33L316.67 125.07L315.23 124.87L313.77 124.72L312.3 124.63L310.8 124.6L309.31 124.63L307.84 124.72Z" id="c22pzHY3Hy"></path><path d="M474.6 282.07C483.8 282.07 491.26 289.53 491.26 298.74C491.26 302.07 491.26 295.4 491.26 298.74C491.26 307.94 483.8 315.4 474.6 315.4C446.44 315.4 378.62 315.4 350.46 315.4C341.26 315.4 333.79 307.94 333.79 298.74C333.79 295.4 333.79 302.07 333.79 298.74C333.79 289.53 341.26 282.07 350.46 282.07C378.62 282.07 446.44 282.07 474.6 282.07Z" id="a1f9f5tQd5"></path><path d="M474.6 330.8C483.8 330.8 491.26 338.27 491.26 347.47C491.26 350.8 491.26 344.14 491.26 347.47C491.26 356.68 483.8 364.14 474.6 364.14C446.44 364.14 378.62 364.14 350.46 364.14C341.26 364.14 333.79 356.68 333.79 347.47C333.79 344.14 333.79 350.8 333.79 347.47C333.79 338.27 341.26 330.8 350.46 330.8C378.62 330.8 446.44 330.8 474.6 330.8Z" id="b1cQzFLcKD"></path><path d="M474.6 380.69C483.8 380.69 491.26 388.15 491.26 397.36C491.26 400.69 491.26 394.02 491.26 397.36C491.26 406.56 483.8 414.02 474.6 414.02C446.44 414.02 378.62 414.02 350.46 414.02C341.26 414.02 333.79 406.56 333.79 397.36C333.79 394.02 333.79 400.69 333.79 397.36C333.79 388.15 341.26 380.69 350.46 380.69C378.62 380.69 446.44 380.69 474.6 380.69Z" id="ayBwNgqNG"></path><path d="M254.48 282.07C254.48 319.18 231.31 349.31 202.76 349.31C174.21 349.31 151.03 319.18 151.03 282.07C151.03 244.96 174.21 214.83 202.76 214.83C231.31 214.83 254.48 244.96 254.48 282.07Z" id="bgyHur5zj"></path><path d="M293.56 405.52C293.56 428.36 254.94 446.9 207.36 446.9C159.78 446.9 121.15 428.36 121.15 405.52C121.15 382.68 159.78 364.14 207.36 364.14C254.94 364.14 293.56 382.68 293.56 405.52Z" id="c3e4BVt89k"></path><path d="M121.15 405.4L293.56 405.4L293.56 446.78L121.15 446.78L121.15 405.4Z" id="d1AU6pdD9Q"></path></defs><g><g><g><use xlink:href="#hkRBRlSLI" opacity="1" fill="#ffffff" fill-opacity="1"></use></g><g><use xlink:href="#c22pzHY3Hy" opacity="1" fill="#ffffff" fill-opacity="1"></use></g><g><use xlink:href="#a1f9f5tQd5" opacity="1" fill="#ffffff" fill-opacity="1"></use></g><g><use xlink:href="#b1cQzFLcKD" opacity="1" fill="#ffffff" fill-opacity="1"></use></g><g><use xlink:href="#ayBwNgqNG" opacity="1" fill="#ffffff" fill-opacity="1"></use></g><g><use xlink:href="#bgyHur5zj" opacity="1" fill="#ffffff" fill-opacity="1"></use></g><g><use xlink:href="#c3e4BVt89k" opacity="1" fill="#ffffff" fill-opacity="1"></use></g><g><use xlink:href="#d1AU6pdD9Q" opacity="1" fill="#ffffff" fill-opacity="1"></use></g></g></g></svg>