<?xml version="1.0" encoding="UTF-8" standalone="no"?>
<!DOCTYPE svg PUBLIC "-//W3C//DTD SVG 1.1//EN" "http://www.w3.org/Graphics/SVG/1.1/DTD/svg11.dtd">
<svg version="1.1" xmlns="http://www.w3.org/2000/svg" xmlns:xlink="http://www.w3.org/1999/xlink" preserveAspectRatio="xMidYMid meet" viewBox="0 0 640 640" width="640" height="640"><defs><path d="M577.03 107.19C582.55 107.19 587.03 111.67 587.03 117.19C587.03 202.85 587.03 449.82 587.03 535.48C587.03 541 582.55 545.48 577.03 545.48C476.22 545.48 183.78 545.48 82.97 545.48C77.45 545.48 72.97 541 72.97 535.48C72.97 449.82 72.97 202.85 72.97 117.19C72.97 111.67 77.45 107.19 82.97 107.19C183.78 107.19 476.22 107.19 577.03 107.19Z" id="a4yRHjJIac"></path><linearGradient id="gradienta1Q5NFYsqo" gradientUnits="userSpaceOnUse" x1="330" y1="107.19" x2="325.97" y2="394.36"><stop style="stop-color: #f85f5f;stop-opacity: 1" offset="0%"></stop><stop style="stop-color: #ae0000;stop-opacity: 1" offset="100%"></stop></linearGradient><path d="M483.37 185.45L484.24 185.53L485.09 185.66L485.94 185.81L486.77 186L487.59 186.22L488.4 186.47L489.19 186.75L489.97 187.06L490.73 187.4L491.48 187.77L492.21 188.17L492.92 188.59L493.62 189.04L494.29 189.52L494.95 190.02L495.58 190.54L496.2 191.09L496.79 191.66L497.37 192.26L497.91 192.87L498.44 193.51L498.94 194.17L499.42 194.84L499.87 195.54L500.29 196.25L500.69 196.98L501.06 197.73L501.4 198.49L501.71 199.27L501.99 200.06L502.24 200.87L502.46 201.69L502.65 202.52L502.8 203.37L502.93 204.22L503.01 205.09L503.07 205.96L503.08 206.85L503.08 423.5L503.07 424.39L503.01 425.27L502.93 426.13L502.8 426.99L502.65 427.83L502.46 428.67L502.24 429.49L501.99 430.29L501.71 431.09L501.4 431.86L501.06 432.63L500.69 433.37L500.29 434.1L499.87 434.82L499.42 435.51L498.94 436.19L498.44 436.84L497.91 437.48L497.37 438.1L496.79 438.69L496.2 439.26L495.58 439.81L494.95 440.34L494.29 440.84L493.62 441.31L492.92 441.76L492.21 442.19L491.48 442.58L490.73 442.95L489.97 443.29L489.19 443.6L488.4 443.89L487.59 444.14L486.77 444.36L485.94 444.54L485.09 444.7L484.24 444.82L483.37 444.91L482.49 444.96L481.61 444.98L170.33 444.98L169.45 444.96L168.57 444.91L167.7 444.82L166.85 444.7L166 444.54L165.17 444.36L164.35 444.14L163.54 443.89L162.75 443.6L161.97 443.29L161.21 442.95L160.46 442.58L159.73 442.19L159.02 441.76L158.32 441.31L157.65 440.84L156.99 440.34L156.35 439.81L155.74 439.26L155.14 438.69L154.57 438.1L154.02 437.48L153.5 436.84L153 436.19L152.52 435.51L152.07 434.82L151.65 434.1L151.25 433.37L150.88 432.63L150.54 431.86L150.23 431.09L149.95 430.29L149.7 429.49L149.48 428.67L149.29 427.83L149.14 426.99L149.01 426.13L148.93 425.27L148.87 424.39L148.85 423.5L148.85 206.85L148.87 205.96L148.93 205.09L149.01 204.22L149.14 203.37L149.29 202.52L149.48 201.69L149.7 200.87L149.95 200.06L150.23 199.27L150.54 198.49L150.88 197.73L151.25 196.98L151.65 196.25L152.07 195.54L152.52 194.84L153 194.17L153.5 193.51L154.02 192.87L154.57 192.26L155.14 191.66L155.74 191.09L156.35 190.54L156.99 190.02L157.65 189.52L158.32 189.04L159.02 188.59L159.73 188.17L160.46 187.77L161.21 187.4L161.97 187.06L162.75 186.75L163.54 186.47L164.35 186.22L165.17 186L166 185.81L166.85 185.66L167.7 185.53L168.57 185.45L169.45 185.39L170.33 185.37L260.46 185.37L260.46 205.59L185.84 205.59L185.24 205.6L184.66 205.64L184.08 205.7L183.51 205.78L182.95 205.88L182.39 206.01L181.84 206.16L181.3 206.32L180.77 206.51L180.26 206.72L179.75 206.95L179.25 207.19L178.76 207.46L178.28 207.74L177.82 208.04L177.37 208.36L176.93 208.69L176.51 209.04L176.09 209.41L175.7 209.79L175.32 210.19L174.95 210.6L174.6 211.02L174.27 211.46L173.95 211.91L173.65 212.38L173.36 212.85L173.1 213.34L172.85 213.84L172.63 214.35L172.42 214.87L172.23 215.4L172.06 215.94L171.92 216.48L171.79 217.04L171.69 217.6L171.61 218.17L171.55 218.75L171.51 219.34L171.5 219.93L171.5 411.24L171.51 411.83L171.55 412.41L171.61 412.99L171.69 413.56L171.79 414.12L171.92 414.68L172.06 415.23L172.23 415.77L172.42 416.3L172.63 416.82L172.85 417.32L173.1 417.82L173.36 418.31L173.65 418.79L173.95 419.25L174.27 419.7L174.6 420.14L174.95 420.56L175.32 420.98L175.7 421.37L176.09 421.75L176.51 422.12L176.93 422.47L177.37 422.81L177.82 423.12L178.28 423.42L178.76 423.71L179.25 423.97L179.75 424.22L180.26 424.44L180.77 424.65L181.3 424.84L181.84 425.01L182.39 425.15L182.95 425.28L183.51 425.38L184.08 425.46L184.66 425.52L185.24 425.56L185.84 425.57L466.91 425.57L467.5 425.56L468.09 425.52L468.67 425.46L469.24 425.38L469.8 425.28L470.36 425.15L470.91 425.01L471.44 424.84L471.97 424.65L472.49 424.44L473 424.22L473.5 423.97L473.99 423.71L474.46 423.42L474.93 423.12L475.38 422.81L475.82 422.47L476.24 422.12L476.65 421.75L477.05 421.37L477.43 420.98L477.8 420.56L478.15 420.14L478.48 419.7L478.8 419.25L479.1 418.79L479.38 418.31L479.65 417.82L479.89 417.32L480.12 416.82L480.33 416.3L480.52 415.77L480.68 415.23L480.83 414.68L480.96 414.12L481.06 413.56L481.14 412.99L481.2 412.41L481.24 411.83L481.25 411.24L481.25 219.93L481.24 219.34L481.2 218.75L481.14 218.17L481.06 217.6L480.96 217.04L480.83 216.48L480.68 215.94L480.52 215.4L480.33 214.87L480.12 214.35L479.89 213.84L479.65 213.34L479.38 212.85L479.1 212.38L478.8 211.91L478.48 211.46L478.15 211.02L477.8 210.6L477.43 210.19L477.05 209.79L476.65 209.41L476.24 209.04L475.82 208.69L475.38 208.36L474.93 208.04L474.46 207.74L473.99 207.46L473.5 207.19L473 206.95L472.49 206.72L471.97 206.51L471.44 206.32L470.91 206.16L470.36 206.01L469.8 205.88L469.24 205.78L468.67 205.7L468.09 205.64L467.5 205.6L466.91 205.59L397.14 205.59L397.14 185.37L481.61 185.37L482.49 185.39L483.37 185.45Z" id="dYkyzsSEi"></path><linearGradient id="gradientd5pP83ho2N" gradientUnits="userSpaceOnUse" x1="325.97" y1="185.37" x2="325.97" y2="444.98"><stop style="stop-color: #ae3030;stop-opacity: 1" offset="0%"></stop><stop style="stop-color: #b72e2e;stop-opacity: 1" offset="100%"></stop></linearGradient><path d="M349.89 128.81L350.43 128.86L350.97 128.94L351.49 129.04L352.01 129.15L352.53 129.29L353.03 129.45L353.53 129.62L354.01 129.82L354.49 130.03L354.96 130.26L355.41 130.51L355.86 130.77L356.3 131.06L356.72 131.35L357.13 131.67L357.53 131.99L357.91 132.34L358.28 132.7L358.64 133.07L358.98 133.45L359.31 133.85L359.62 134.26L359.92 134.68L360.2 135.12L360.47 135.56L360.72 136.02L360.95 136.49L361.16 136.96L361.35 137.45L361.53 137.95L361.69 138.45L361.83 138.96L361.94 139.48L362.04 140.01L362.12 140.55L362.17 141.09L362.2 141.64L362.22 142.19L362.22 233.41L362.2 233.96L362.17 234.51L362.12 235.05L362.04 235.59L361.94 236.12L361.83 236.64L361.69 237.15L361.53 237.65L361.35 238.15L361.16 238.64L360.95 239.11L360.72 239.58L360.47 240.04L360.2 240.48L359.92 240.92L359.62 241.34L359.31 241.75L358.98 242.15L358.64 242.53L358.28 242.91L357.91 243.26L357.53 243.61L357.13 243.93L356.72 244.25L356.3 244.55L355.86 244.83L355.41 245.09L354.96 245.34L354.49 245.57L354.01 245.78L353.53 245.98L353.03 246.15L352.53 246.31L352.01 246.45L351.49 246.57L350.97 246.66L350.43 246.74L349.89 246.79L349.34 246.83L348.79 246.84L294.77 246.84L294.22 246.83L293.67 246.79L293.13 246.74L292.59 246.66L292.06 246.57L291.54 246.45L291.03 246.31L290.53 246.15L290.03 245.98L289.54 245.78L289.07 245.57L288.6 245.34L288.14 245.09L287.7 244.83L287.26 244.55L286.84 244.25L286.43 243.93L286.03 243.61L285.65 243.26L285.27 242.91L284.92 242.53L284.57 242.15L284.25 241.75L283.93 241.34L283.63 240.92L283.35 240.48L283.09 240.04L282.84 239.58L282.61 239.11L282.4 238.64L282.2 238.15L282.03 237.65L281.87 237.15L281.73 236.64L281.61 236.12L281.52 235.59L281.44 235.05L281.39 234.51L281.35 233.96L281.34 233.41L281.34 142.19L281.35 141.64L281.39 141.09L281.44 140.55L281.52 140.01L281.61 139.48L281.73 138.96L281.87 138.45L282.03 137.95L282.2 137.45L282.4 136.96L282.61 136.49L282.84 136.02L283.09 135.56L283.35 135.12L283.63 134.68L283.93 134.26L284.25 133.85L284.57 133.45L284.92 133.07L285.27 132.7L285.65 132.34L286.03 131.99L286.43 131.67L286.84 131.35L287.26 131.06L287.7 130.77L288.14 130.51L288.6 130.26L289.07 130.03L289.54 129.82L290.03 129.62L290.53 129.45L291.03 129.29L291.54 129.15L292.06 129.04L292.59 128.94L293.13 128.86L293.67 128.81L294.22 128.77L294.77 128.76L348.79 128.76L349.34 128.77L349.89 128.81ZM318.28 179.04L316.97 179.22L315.68 179.46L314.41 179.76L313.17 180.12L311.95 180.55L310.76 181.03L309.61 181.58L308.48 182.17L307.39 182.82L306.34 183.53L305.32 184.28L304.35 185.08L303.41 185.93L302.52 186.82L301.67 187.76L300.87 188.73L300.12 189.75L299.41 190.8L298.76 191.89L298.17 193.02L297.62 194.17L297.14 195.36L296.71 196.58L296.35 197.82L296.05 199.09L295.81 200.38L295.63 201.69L295.53 203.03L295.49 204.38L295.53 205.73L295.63 207.07L295.81 208.38L296.05 209.67L296.35 210.94L296.71 212.18L297.14 213.4L297.62 214.59L298.17 215.74L298.76 216.87L299.41 217.96L300.12 219.01L300.87 220.03L301.67 221L302.52 221.94L303.41 222.83L304.35 223.68L305.32 224.48L306.34 225.23L307.39 225.94L308.48 226.59L309.61 227.18L310.76 227.73L311.95 228.21L313.17 228.64L314.41 229L315.68 229.3L316.97 229.54L318.28 229.71L319.62 229.82L320.97 229.86L322.32 229.82L323.66 229.71L324.97 229.54L326.26 229.3L327.53 229L328.77 228.64L329.99 228.21L331.18 227.73L332.33 227.18L333.46 226.59L334.55 225.94L335.6 225.23L336.62 224.48L337.59 223.68L338.53 222.83L339.42 221.94L340.27 221L341.07 220.03L341.82 219.01L342.52 217.96L343.18 216.87L343.77 215.74L344.32 214.59L344.8 213.4L345.23 212.18L345.59 210.94L345.89 209.67L346.13 208.38L346.3 207.07L346.41 205.73L346.44 204.38L346.41 203.03L346.3 201.69L346.13 200.38L345.89 199.09L345.59 197.82L345.23 196.58L344.8 195.36L344.32 194.17L343.77 193.02L343.18 191.89L342.52 190.8L341.82 189.75L341.07 188.73L340.27 187.76L339.42 186.82L338.53 185.93L337.59 185.08L336.62 184.28L335.6 183.53L334.55 182.82L333.46 182.17L332.33 181.58L331.18 181.03L329.99 180.55L328.77 180.12L327.53 179.76L326.26 179.46L324.97 179.22L323.66 179.04L322.32 178.94L320.97 178.9L319.62 178.94L318.28 179.04Z" id="a4WYo8mzsr"></path><linearGradient id="gradientb1ob4hpUX" gradientUnits="userSpaceOnUse" x1="321.78" y1="128.76" x2="321.78" y2="246.84"><stop style="stop-color: #c51515;stop-opacity: 1" offset="0%"></stop><stop style="stop-color: #c53636;stop-opacity: 1" offset="100%"></stop></linearGradient><path d="M436.22 289.7C442.69 289.7 447.94 294.95 447.94 301.43C447.94 303.77 447.94 299.08 447.94 301.43C447.94 307.91 442.69 313.16 436.22 313.16C416.4 313.16 368.69 313.16 348.87 313.16C342.39 313.16 337.14 307.91 337.14 301.43C337.14 299.08 337.14 303.77 337.14 301.43C337.14 294.95 342.39 289.7 348.87 289.7C368.69 289.7 416.4 289.7 436.22 289.7Z" id="a2vAUlFA76"></path><path d="M436.22 323.99C442.69 323.99 447.94 329.24 447.94 335.72C447.94 338.06 447.94 333.37 447.94 335.72C447.94 342.2 442.69 347.45 436.22 347.45C416.4 347.45 368.69 347.45 348.87 347.45C342.39 347.45 337.14 342.2 337.14 335.72C337.14 333.37 337.14 338.06 337.14 335.72C337.14 329.24 342.39 323.99 348.87 323.99C368.69 323.99 416.4 323.99 436.22 323.99Z" id="c14LbWmq4J"></path><path d="M437.33 357.98C443.8 357.98 449.05 363.23 449.05 369.71C449.05 372.05 449.05 367.36 449.05 369.71C449.05 376.18 443.8 381.43 437.33 381.43C417.51 381.43 369.8 381.43 349.98 381.43C343.51 381.43 338.26 376.18 338.26 369.71C338.26 367.36 338.26 372.05 338.26 369.71C338.26 363.23 343.51 357.98 349.98 357.98C369.8 357.98 417.51 357.98 437.33 357.98Z" id="bWLON32bQ"></path><path d="M281.34 289.7C281.34 315.81 265.03 337.01 244.95 337.01C224.86 337.01 208.55 315.81 208.55 289.7C208.55 263.59 224.86 242.39 244.95 242.39C265.03 242.39 281.34 263.59 281.34 289.7Z" id="d2jbjXHqWL"></path><radialGradient id="gradientcAW7aq1b0" gradientUnits="userSpaceOnUse" cx="259.39" cy="270.81" dx="259.39" dy="365.44" r="94.62"><stop style="stop-color: #86fc4f;stop-opacity: 1" offset="0%"></stop><stop style="stop-color: #1f3615;stop-opacity: 1" offset="100%"></stop></radialGradient><path d="M308.84 376.56C308.84 392.63 281.66 405.68 248.18 405.68C214.71 405.68 187.53 392.63 187.53 376.56C187.53 360.49 214.71 347.45 248.18 347.45C281.66 347.45 308.84 360.49 308.84 376.56Z" id="b3PZE6EgJq"></path><path d="M187.53 376.56L308.84 376.56L308.84 405.68L187.53 405.68L187.53 376.56Z" id="fdZlu79tI"></path></defs><g><g><g><g><filter id="shadow12937132" x="40.97" y="75.19" width="584.06" height="511.28" filterUnits="userSpaceOnUse" primitiveUnits="userSpaceOnUse"><feFlood></feFlood><feComposite in2="SourceAlpha" operator="in"></feComposite><feGaussianBlur stdDeviation="2.83"></feGaussianBlur><feOffset dx="6" dy="9" result="afterOffset"></feOffset><feFlood flood-color="#373737" flood-opacity="0.5"></feFlood><feComposite in2="afterOffset" operator="in"></feComposite><feMorphology operator="dilate" radius="2"></feMorphology><feComposite in2="SourceAlpha" operator="out"></feComposite></filter><path d="M577.03 107.19C582.55 107.19 587.03 111.67 587.03 117.19C587.03 202.85 587.03 449.82 587.03 535.48C587.03 541 582.55 545.48 577.03 545.48C476.22 545.48 183.78 545.48 82.97 545.48C77.45 545.48 72.97 541 72.97 535.48C72.97 449.82 72.97 202.85 72.97 117.19C72.97 111.67 77.45 107.19 82.97 107.19C183.78 107.19 476.22 107.19 577.03 107.19Z" id="g1Wp5KuI4z" fill="white" fill-opacity="1" filter="url(#shadow12937132)"></path></g><use xlink:href="#a4yRHjJIac" opacity="1" fill="url(#gradienta1Q5NFYsqo)"></use></g><g><g><filter id="shadow7679359" x="114.85" y="151.37" width="425.23" height="333.61" filterUnits="userSpaceOnUse" primitiveUnits="userSpaceOnUse"><feFlood></feFlood><feComposite in2="SourceAlpha" operator="in"></feComposite><feGaussianBlur stdDeviation="3.16"></feGaussianBlur><feOffset dx="3" dy="6" result="afterOffset"></feOffset><feFlood flood-color="#4b4b4b" flood-opacity="0.5"></feFlood><feComposite in2="afterOffset" operator="in"></feComposite><feMorphology operator="dilate" radius="3"></feMorphology><feComposite in2="SourceAlpha" operator="out"></feComposite></filter><path d="M483.37 185.45L484.24 185.53L485.09 185.66L485.94 185.81L486.77 186L487.59 186.22L488.4 186.47L489.19 186.75L489.97 187.06L490.73 187.4L491.48 187.77L492.21 188.17L492.92 188.59L493.62 189.04L494.29 189.52L494.95 190.02L495.58 190.54L496.2 191.09L496.79 191.66L497.37 192.26L497.91 192.87L498.44 193.51L498.94 194.17L499.42 194.84L499.87 195.54L500.29 196.25L500.69 196.98L501.06 197.73L501.4 198.49L501.71 199.27L501.99 200.06L502.24 200.87L502.46 201.69L502.65 202.52L502.8 203.37L502.93 204.22L503.01 205.09L503.07 205.96L503.08 206.85L503.08 423.5L503.07 424.39L503.01 425.27L502.93 426.13L502.8 426.99L502.65 427.83L502.46 428.67L502.24 429.49L501.99 430.29L501.71 431.09L501.4 431.86L501.06 432.63L500.69 433.37L500.29 434.1L499.87 434.82L499.42 435.51L498.94 436.19L498.44 436.84L497.91 437.48L497.37 438.1L496.79 438.69L496.2 439.26L495.58 439.81L494.95 440.34L494.29 440.84L493.62 441.31L492.92 441.76L492.21 442.19L491.48 442.58L490.73 442.95L489.97 443.29L489.19 443.6L488.4 443.89L487.59 444.14L486.77 444.36L485.94 444.54L485.09 444.7L484.24 444.82L483.37 444.91L482.49 444.96L481.61 444.98L170.33 444.98L169.45 444.96L168.57 444.91L167.7 444.82L166.85 444.7L166 444.54L165.17 444.36L164.35 444.14L163.54 443.89L162.75 443.6L161.97 443.29L161.21 442.95L160.46 442.58L159.73 442.19L159.02 441.76L158.32 441.31L157.65 440.84L156.99 440.34L156.35 439.81L155.74 439.26L155.14 438.69L154.57 438.1L154.02 437.48L153.5 436.84L153 436.19L152.52 435.51L152.07 434.82L151.65 434.1L151.25 433.37L150.88 432.63L150.54 431.86L150.23 431.09L149.95 430.29L149.7 429.49L149.48 428.67L149.29 427.83L149.14 426.99L149.01 426.13L148.93 425.27L148.87 424.39L148.85 423.5L148.85 206.85L148.87 205.96L148.93 205.09L149.01 204.22L149.14 203.37L149.29 202.52L149.48 201.69L149.7 200.87L149.95 200.06L150.23 199.27L150.54 198.49L150.88 197.73L151.25 196.98L151.65 196.25L152.07 195.54L152.52 194.84L153 194.17L153.5 193.51L154.02 192.87L154.57 192.26L155.14 191.66L155.74 191.09L156.35 190.54L156.99 190.02L157.65 189.52L158.32 189.04L159.02 188.59L159.73 188.17L160.46 187.77L161.21 187.4L161.97 187.06L162.75 186.75L163.54 186.47L164.35 186.22L165.17 186L166 185.81L166.85 185.66L167.7 185.53L168.57 185.45L169.45 185.39L170.33 185.37L260.46 185.37L260.46 205.59L185.84 205.59L185.24 205.6L184.66 205.64L184.08 205.7L183.51 205.78L182.95 205.88L182.39 206.01L181.84 206.16L181.3 206.32L180.77 206.51L180.26 206.72L179.75 206.95L179.25 207.19L178.76 207.46L178.28 207.74L177.82 208.04L177.37 208.36L176.93 208.69L176.51 209.04L176.09 209.41L175.7 209.79L175.32 210.19L174.95 210.6L174.6 211.02L174.27 211.46L173.95 211.91L173.65 212.38L173.36 212.85L173.1 213.34L172.85 213.84L172.63 214.35L172.42 214.87L172.23 215.4L172.06 215.94L171.92 216.48L171.79 217.04L171.69 217.6L171.61 218.17L171.55 218.75L171.51 219.34L171.5 219.93L171.5 411.24L171.51 411.83L171.55 412.41L171.61 412.99L171.69 413.56L171.79 414.12L171.92 414.68L172.06 415.23L172.23 415.77L172.42 416.3L172.63 416.82L172.85 417.32L173.1 417.82L173.36 418.31L173.65 418.79L173.95 419.25L174.27 419.7L174.6 420.14L174.95 420.56L175.32 420.98L175.7 421.37L176.09 421.75L176.51 422.12L176.93 422.47L177.37 422.81L177.82 423.12L178.28 423.42L178.76 423.71L179.25 423.97L179.75 424.22L180.26 424.44L180.77 424.65L181.3 424.84L181.84 425.01L182.39 425.15L182.95 425.28L183.51 425.38L184.08 425.46L184.66 425.52L185.24 425.56L185.84 425.57L466.91 425.57L467.5 425.56L468.09 425.52L468.67 425.46L469.24 425.38L469.8 425.28L470.36 425.15L470.91 425.01L471.44 424.84L471.97 424.65L472.49 424.44L473 424.22L473.5 423.97L473.99 423.71L474.46 423.42L474.93 423.12L475.38 422.81L475.82 422.47L476.24 422.12L476.65 421.75L477.05 421.37L477.43 420.98L477.8 420.56L478.15 420.14L478.48 419.7L478.8 419.25L479.1 418.79L479.38 418.31L479.65 417.82L479.89 417.32L480.12 416.82L480.33 416.3L480.52 415.77L480.68 415.23L480.83 414.68L480.96 414.12L481.06 413.56L481.14 412.99L481.2 412.41L481.24 411.83L481.25 411.24L481.25 219.93L481.24 219.34L481.2 218.75L481.14 218.17L481.06 217.6L480.96 217.04L480.83 216.48L480.68 215.94L480.52 215.4L480.33 214.87L480.12 214.35L479.89 213.84L479.65 213.34L479.38 212.85L479.1 212.38L478.8 211.91L478.48 211.46L478.15 211.02L477.8 210.6L477.43 210.19L477.05 209.79L476.65 209.41L476.24 209.04L475.82 208.69L475.38 208.36L474.93 208.04L474.46 207.74L473.99 207.46L473.5 207.19L473 206.95L472.49 206.72L471.97 206.51L471.44 206.32L470.91 206.16L470.36 206.01L469.8 205.88L469.24 205.78L468.67 205.7L468.09 205.64L467.5 205.6L466.91 205.59L397.14 205.59L397.14 185.37L481.61 185.37L482.49 185.39L483.37 185.45Z" id="d1UHezpGLg" fill="white" fill-opacity="1" filter="url(#shadow7679359)"></path></g><use xlink:href="#dYkyzsSEi" opacity="1" fill="url(#gradientd5pP83ho2N)"></use></g><g><g><filter id="shadow16142694" x="247.34" y="94.76" width="151.87" height="192.08" filterUnits="userSpaceOnUse" primitiveUnits="userSpaceOnUse"><feFlood></feFlood><feComposite in2="SourceAlpha" operator="in"></feComposite><feGaussianBlur stdDeviation="3.16"></feGaussianBlur><feOffset dx="3" dy="6" result="afterOffset"></feOffset><feFlood flood-color="#4b4b4b" flood-opacity="0.5"></feFlood><feComposite in2="afterOffset" operator="in"></feComposite><feMorphology operator="dilate" radius="3"></feMorphology><feComposite in2="SourceAlpha" operator="out"></feComposite></filter><path d="M349.89 128.81L350.43 128.86L350.97 128.94L351.49 129.04L352.01 129.15L352.53 129.29L353.03 129.45L353.53 129.62L354.01 129.82L354.49 130.03L354.96 130.26L355.41 130.51L355.86 130.77L356.3 131.06L356.72 131.35L357.13 131.67L357.53 131.99L357.91 132.34L358.28 132.7L358.64 133.07L358.98 133.45L359.31 133.85L359.62 134.26L359.92 134.68L360.2 135.12L360.47 135.56L360.72 136.02L360.95 136.49L361.16 136.96L361.35 137.45L361.53 137.95L361.69 138.45L361.83 138.96L361.94 139.48L362.04 140.01L362.12 140.55L362.17 141.09L362.2 141.64L362.22 142.19L362.22 233.41L362.2 233.96L362.17 234.51L362.12 235.05L362.04 235.59L361.94 236.12L361.83 236.64L361.69 237.15L361.53 237.65L361.35 238.15L361.16 238.64L360.95 239.11L360.72 239.58L360.47 240.04L360.2 240.48L359.92 240.92L359.62 241.34L359.31 241.75L358.98 242.15L358.64 242.53L358.28 242.91L357.91 243.26L357.53 243.61L357.13 243.93L356.72 244.25L356.3 244.55L355.86 244.83L355.41 245.09L354.96 245.34L354.49 245.57L354.01 245.78L353.53 245.98L353.03 246.15L352.53 246.31L352.01 246.45L351.49 246.57L350.97 246.66L350.43 246.74L349.89 246.79L349.34 246.83L348.79 246.84L294.77 246.84L294.22 246.83L293.67 246.79L293.13 246.74L292.59 246.66L292.06 246.57L291.54 246.45L291.03 246.31L290.53 246.15L290.03 245.98L289.54 245.78L289.07 245.57L288.6 245.34L288.14 245.09L287.7 244.83L287.26 244.55L286.84 244.25L286.43 243.93L286.03 243.61L285.65 243.26L285.27 242.91L284.92 242.53L284.57 242.15L284.25 241.75L283.93 241.34L283.63 240.92L283.35 240.48L283.09 240.04L282.84 239.58L282.61 239.11L282.4 238.64L282.2 238.15L282.03 237.65L281.87 237.15L281.73 236.64L281.61 236.12L281.52 235.59L281.44 235.05L281.39 234.51L281.35 233.96L281.34 233.41L281.34 142.19L281.35 141.64L281.39 141.09L281.44 140.55L281.52 140.01L281.61 139.48L281.73 138.96L281.87 138.45L282.03 137.95L282.2 137.45L282.4 136.96L282.61 136.49L282.84 136.02L283.09 135.56L283.35 135.12L283.63 134.68L283.93 134.26L284.25 133.85L284.57 133.45L284.92 133.07L285.27 132.7L285.65 132.34L286.03 131.99L286.43 131.67L286.84 131.35L287.26 131.06L287.7 130.77L288.14 130.51L288.6 130.26L289.07 130.03L289.54 129.82L290.03 129.62L290.53 129.45L291.03 129.29L291.54 129.15L292.06 129.04L292.59 128.94L293.13 128.86L293.67 128.81L294.22 128.77L294.77 128.76L348.79 128.76L349.34 128.77L349.89 128.81ZM318.28 179.04L316.97 179.22L315.68 179.46L314.41 179.76L313.17 180.12L311.95 180.55L310.76 181.03L309.61 181.58L308.48 182.17L307.39 182.82L306.34 183.53L305.32 184.28L304.35 185.08L303.41 185.93L302.52 186.82L301.67 187.76L300.87 188.73L300.12 189.75L299.41 190.8L298.76 191.89L298.17 193.02L297.62 194.17L297.14 195.36L296.71 196.58L296.35 197.82L296.05 199.09L295.81 200.38L295.63 201.69L295.53 203.03L295.49 204.38L295.53 205.73L295.63 207.07L295.81 208.38L296.05 209.67L296.35 210.94L296.71 212.18L297.14 213.4L297.62 214.59L298.17 215.74L298.76 216.87L299.41 217.96L300.12 219.01L300.87 220.03L301.67 221L302.52 221.94L303.41 222.83L304.35 223.68L305.32 224.48L306.34 225.23L307.39 225.94L308.48 226.59L309.61 227.18L310.76 227.73L311.95 228.21L313.17 228.64L314.41 229L315.68 229.3L316.97 229.54L318.28 229.71L319.62 229.82L320.97 229.86L322.32 229.82L323.66 229.71L324.97 229.54L326.26 229.3L327.53 229L328.77 228.64L329.99 228.21L331.18 227.73L332.33 227.18L333.46 226.59L334.55 225.94L335.6 225.23L336.62 224.48L337.59 223.68L338.53 222.83L339.42 221.94L340.27 221L341.07 220.03L341.82 219.01L342.52 217.96L343.18 216.87L343.77 215.74L344.32 214.59L344.8 213.4L345.23 212.18L345.59 210.94L345.89 209.67L346.13 208.38L346.3 207.07L346.41 205.73L346.44 204.38L346.41 203.03L346.3 201.69L346.13 200.38L345.89 199.09L345.59 197.82L345.23 196.58L344.8 195.36L344.32 194.17L343.77 193.02L343.18 191.89L342.52 190.8L341.82 189.75L341.07 188.73L340.27 187.76L339.42 186.82L338.53 185.93L337.59 185.08L336.62 184.28L335.6 183.53L334.55 182.82L333.46 182.17L332.33 181.58L331.18 181.03L329.99 180.55L328.77 180.12L327.53 179.76L326.26 179.46L324.97 179.22L323.66 179.04L322.32 178.94L320.97 178.9L319.62 178.94L318.28 179.04Z" id="d2oWQfgdhy" fill="white" fill-opacity="1" filter="url(#shadow16142694)"></path></g><use xlink:href="#a4WYo8mzsr" opacity="1" fill="url(#gradientb1ob4hpUX)"></use></g><g><g><filter id="shadow9574401" x="303.14" y="255.7" width="181.8" height="97.45" filterUnits="userSpaceOnUse" primitiveUnits="userSpaceOnUse"><feFlood></feFlood><feComposite in2="SourceAlpha" operator="in"></feComposite><feGaussianBlur stdDeviation="3.16"></feGaussianBlur><feOffset dx="3" dy="6" result="afterOffset"></feOffset><feFlood flood-color="#4b4b4b" flood-opacity="0.5"></feFlood><feComposite in2="afterOffset" operator="in"></feComposite><feMorphology operator="dilate" radius="3"></feMorphology><feComposite in2="SourceAlpha" operator="out"></feComposite></filter><path d="M436.22 289.7C442.69 289.7 447.94 294.95 447.94 301.43C447.94 303.77 447.94 299.08 447.94 301.43C447.94 307.91 442.69 313.16 436.22 313.16C416.4 313.16 368.69 313.16 348.87 313.16C342.39 313.16 337.14 307.91 337.14 301.43C337.14 299.08 337.14 303.77 337.14 301.43C337.14 294.95 342.39 289.7 348.87 289.7C368.69 289.7 416.4 289.7 436.22 289.7Z" id="c1lw153jr" fill="white" fill-opacity="1" filter="url(#shadow9574401)"></path></g><use xlink:href="#a2vAUlFA76" opacity="1" fill="#7297f9" fill-opacity="1"></use></g><g><g><filter id="shadow16432548" x="303.14" y="289.99" width="181.8" height="97.45" filterUnits="userSpaceOnUse" primitiveUnits="userSpaceOnUse"><feFlood></feFlood><feComposite in2="SourceAlpha" operator="in"></feComposite><feGaussianBlur stdDeviation="3.16"></feGaussianBlur><feOffset dx="3" dy="6" result="afterOffset"></feOffset><feFlood flood-color="#4b4b4b" flood-opacity="0.5"></feFlood><feComposite in2="afterOffset" operator="in"></feComposite><feMorphology operator="dilate" radius="3"></feMorphology><feComposite in2="SourceAlpha" operator="out"></feComposite></filter><path d="M436.22 323.99C442.69 323.99 447.94 329.24 447.94 335.72C447.94 338.06 447.94 333.37 447.94 335.72C447.94 342.2 442.69 347.45 436.22 347.45C416.4 347.45 368.69 347.45 348.87 347.45C342.39 347.45 337.14 342.2 337.14 335.72C337.14 333.37 337.14 338.06 337.14 335.72C337.14 329.24 342.39 323.99 348.87 323.99C368.69 323.99 416.4 323.99 436.22 323.99Z" id="cyXbUq6" fill="white" fill-opacity="1" filter="url(#shadow16432548)"></path></g><use xlink:href="#c14LbWmq4J" opacity="1" fill="#547fef" fill-opacity="1"></use></g><g><g><filter id="shadow15585173" x="304.26" y="323.98" width="181.8" height="97.45" filterUnits="userSpaceOnUse" primitiveUnits="userSpaceOnUse"><feFlood></feFlood><feComposite in2="SourceAlpha" operator="in"></feComposite><feGaussianBlur stdDeviation="3.16"></feGaussianBlur><feOffset dx="3" dy="6" result="afterOffset"></feOffset><feFlood flood-color="#4b4b4b" flood-opacity="0.5"></feFlood><feComposite in2="afterOffset" operator="in"></feComposite><feMorphology operator="dilate" radius="3"></feMorphology><feComposite in2="SourceAlpha" operator="out"></feComposite></filter><path d="M437.33 357.98C443.8 357.98 449.05 363.23 449.05 369.71C449.05 372.05 449.05 367.36 449.05 369.71C449.05 376.18 443.8 381.43 437.33 381.43C417.51 381.43 369.8 381.43 349.98 381.43C343.51 381.43 338.26 376.18 338.26 369.71C338.26 367.36 338.26 372.05 338.26 369.71C338.26 363.23 343.51 357.98 349.98 357.98C369.8 357.98 417.51 357.98 437.33 357.98Z" id="aDR1W4Ley" fill="white" fill-opacity="1" filter="url(#shadow15585173)"></path></g><use xlink:href="#bWLON32bQ" opacity="1" fill="#4572e6" fill-opacity="1"></use></g><g><g><filter id="shadow8345823" x="174.55" y="208.39" width="143.79" height="168.62" filterUnits="userSpaceOnUse" primitiveUnits="userSpaceOnUse"><feFlood></feFlood><feComposite in2="SourceAlpha" operator="in"></feComposite><feGaussianBlur stdDeviation="3.16"></feGaussianBlur><feOffset dx="3" dy="6" result="afterOffset"></feOffset><feFlood flood-color="#4b4b4b" flood-opacity="0.5"></feFlood><feComposite in2="afterOffset" operator="in"></feComposite><feMorphology operator="dilate" radius="3"></feMorphology><feComposite in2="SourceAlpha" operator="out"></feComposite></filter><path d="M281.34 289.7C281.34 315.81 265.03 337.01 244.95 337.01C224.86 337.01 208.55 315.81 208.55 289.7C208.55 263.59 224.86 242.39 244.95 242.39C265.03 242.39 281.34 263.59 281.34 289.7Z" id="a5fkRHgNcn" fill="white" fill-opacity="1" filter="url(#shadow8345823)"></path></g><use xlink:href="#d2jbjXHqWL" opacity="1" fill="url(#gradientcAW7aq1b0)"></use><g><use xlink:href="#d2jbjXHqWL" opacity="1" fill-opacity="0" stroke="#b3fe7f" stroke-width="1" stroke-opacity="0"></use></g></g><g><g><filter id="shadow6040442" x="153.53" y="313.45" width="192.31" height="132.23" filterUnits="userSpaceOnUse" primitiveUnits="userSpaceOnUse"><feFlood></feFlood><feComposite in2="SourceAlpha" operator="in"></feComposite><feGaussianBlur stdDeviation="3.16"></feGaussianBlur><feOffset dx="3" dy="6" result="afterOffset"></feOffset><feFlood flood-color="#4b4b4b" flood-opacity="0.5"></feFlood><feComposite in2="afterOffset" operator="in"></feComposite><feMorphology operator="dilate" radius="3"></feMorphology><feComposite in2="SourceAlpha" operator="out"></feComposite></filter><path d="M308.84 376.56C308.84 392.63 281.66 405.68 248.18 405.68C214.71 405.68 187.53 392.63 187.53 376.56C187.53 360.49 214.71 347.45 248.18 347.45C281.66 347.45 308.84 360.49 308.84 376.56Z" id="iF3pAP2Ak" fill="white" fill-opacity="1" filter="url(#shadow6040442)"></path></g><use xlink:href="#b3PZE6EgJq" opacity="1" fill="#7dea4a" fill-opacity="1"></use></g><g><use xlink:href="#fdZlu79tI" opacity="1" fill="#7deb4a" fill-opacity="1"></use></g></g></g></svg>