<?xml version="1.0" encoding="UTF-8" standalone="no"?>
<!DOCTYPE svg PUBLIC "-//W3C//DTD SVG 1.1//EN" "http://www.w3.org/Graphics/SVG/1.1/DTD/svg11.dtd">
<svg version="1.1" xmlns="http://www.w3.org/2000/svg" xmlns:xlink="http://www.w3.org/1999/xlink" preserveAspectRatio="xMidYMid meet" viewBox="0 0 640 640" width="640" height="640"><defs><path d="M566.35 137.4L567.68 137.53L568.99 137.72L570.28 137.96L571.56 138.25L572.81 138.58L574.05 138.97L575.26 139.4L576.45 139.87L577.62 140.4L578.76 140.96L579.88 141.57L580.97 142.22L582.04 142.91L583.07 143.63L584.08 144.4L585.05 145.2L585.99 146.04L586.9 146.92L587.78 147.83L588.62 148.77L589.42 149.74L590.19 150.75L590.91 151.78L591.6 152.85L592.25 153.94L592.86 155.06L593.42 156.2L593.95 157.37L594.42 158.56L594.85 159.77L595.24 161.01L595.57 162.26L595.86 163.54L596.1 164.83L596.28 166.14L596.42 167.47L596.5 168.81L596.53 170.16L596.53 501.79L596.5 503.14L596.42 504.48L596.28 505.81L596.1 507.12L595.86 508.41L595.57 509.69L595.24 510.94L594.85 512.18L594.42 513.39L593.95 514.58L593.42 515.75L592.86 516.89L592.25 518.01L591.6 519.1L590.91 520.17L590.19 521.2L589.42 522.21L588.62 523.18L587.78 524.12L586.9 525.03L585.99 525.91L585.05 526.75L584.08 527.55L583.07 528.32L582.04 529.05L580.97 529.74L579.88 530.38L578.76 530.99L577.62 531.56L576.45 532.08L575.26 532.55L574.05 532.98L572.81 533.37L571.56 533.71L570.28 533.99L568.99 534.23L567.68 534.42L566.35 534.55L565.01 534.63L563.66 534.66L87.2 534.66L85.84 534.63L84.5 534.55L83.17 534.42L81.86 534.23L80.57 533.99L79.3 533.71L78.04 533.37L76.81 532.98L75.59 532.55L74.4 532.08L73.23 531.56L72.09 530.99L70.97 530.38L69.88 529.74L68.82 529.05L67.78 528.32L66.78 527.55L65.8 526.75L64.86 525.91L63.95 525.03L63.08 524.12L62.24 523.18L61.43 522.21L60.67 521.2L59.94 520.17L59.25 519.1L58.6 518.01L57.99 516.89L57.43 515.75L56.91 514.58L56.43 513.39L56 512.18L55.62 510.94L55.28 509.69L54.99 508.41L54.75 507.12L54.57 505.81L54.43 504.48L54.35 503.14L54.32 501.79L54.32 170.16L54.35 168.81L54.43 167.47L54.57 166.14L54.75 164.83L54.99 163.54L55.28 162.26L55.62 161.01L56 159.77L56.43 158.56L56.91 157.37L57.43 156.2L57.99 155.06L58.6 153.94L59.25 152.85L59.94 151.78L60.67 150.75L61.43 149.74L62.24 148.77L63.08 147.83L63.95 146.92L64.86 146.04L65.8 145.2L66.78 144.4L67.78 143.63L68.82 142.91L69.88 142.22L70.97 141.57L72.09 140.96L73.23 140.4L74.4 139.87L75.59 139.4L76.81 138.97L78.04 138.58L79.3 138.25L80.57 137.96L81.86 137.72L83.17 137.53L84.5 137.4L85.84 137.32L87.2 137.29L225.16 137.29L225.16 168.24L110.93 168.24L110.02 168.26L109.13 168.31L108.24 168.4L107.37 168.53L106.51 168.68L105.65 168.88L104.82 169.1L103.99 169.36L103.18 169.65L102.39 169.96L101.61 170.31L100.84 170.69L100.1 171.09L99.37 171.53L98.66 171.99L97.97 172.47L97.3 172.98L96.65 173.52L96.02 174.08L95.41 174.67L94.83 175.27L94.27 175.9L93.73 176.55L93.22 177.22L92.73 177.91L92.27 178.62L91.84 179.35L91.43 180.1L91.06 180.86L90.71 181.64L90.39 182.44L90.1 183.25L89.85 184.07L89.62 184.91L89.43 185.76L89.27 186.62L89.15 187.5L89.06 188.38L89 189.28L88.99 190.18L88.99 483.01L89 483.91L89.06 484.81L89.15 485.69L89.27 486.57L89.43 487.43L89.62 488.28L89.85 489.12L90.1 489.94L90.39 490.75L90.71 491.55L91.06 492.33L91.43 493.09L91.84 493.84L92.27 494.57L92.73 495.28L93.22 495.97L93.73 496.64L94.27 497.29L94.83 497.92L95.41 498.52L96.02 499.11L96.65 499.67L97.3 500.21L97.97 500.72L98.66 501.2L99.37 501.66L100.1 502.1L100.84 502.5L101.61 502.88L102.39 503.23L103.18 503.54L103.99 503.83L104.82 504.09L105.65 504.31L106.51 504.5L107.37 504.66L108.24 504.79L109.13 504.88L110.02 504.93L110.93 504.95L541.16 504.95L542.07 504.93L542.96 504.88L543.85 504.79L544.72 504.66L545.58 504.5L546.44 504.31L547.27 504.09L548.1 503.83L548.91 503.54L549.7 503.23L550.48 502.88L551.25 502.5L551.99 502.1L552.72 501.66L553.43 501.2L554.12 500.72L554.79 500.21L555.44 499.67L556.07 499.11L556.68 498.52L557.26 497.92L557.82 497.29L558.36 496.64L558.87 495.97L559.36 495.28L559.82 494.57L560.25 493.84L560.66 493.09L561.03 492.33L561.38 491.55L561.7 490.75L561.99 489.94L562.24 489.12L562.47 488.28L562.66 487.43L562.82 486.57L562.94 485.69L563.03 484.81L563.09 483.91L563.1 483.01L563.1 190.18L563.09 189.28L563.03 188.38L562.94 187.5L562.82 186.62L562.66 185.76L562.47 184.91L562.24 184.07L561.99 183.25L561.7 182.44L561.38 181.64L561.03 180.86L560.66 180.1L560.25 179.35L559.82 178.62L559.36 177.91L558.87 177.22L558.36 176.55L557.82 175.9L557.26 175.27L556.68 174.67L556.07 174.08L555.44 173.52L554.79 172.98L554.12 172.47L553.43 171.99L552.72 171.53L551.99 171.09L551.25 170.69L550.48 170.31L549.7 169.96L548.91 169.65L548.1 169.36L547.27 169.1L546.44 168.88L545.58 168.68L544.72 168.53L543.85 168.4L542.96 168.31L542.07 168.26L541.16 168.24L434.36 168.24L434.36 137.29L563.66 137.29L565.01 137.32L566.35 137.4Z" id="cdK9dWG8G"></path><linearGradient id="gradienta2Ust3KeOJ" gradientUnits="userSpaceOnUse" x1="325.43" y1="137.29" x2="325.43" y2="534.66"><stop style="stop-color: #ae3030;stop-opacity: 1" offset="0%"></stop><stop style="stop-color: #b72e2e;stop-opacity: 1" offset="100%"></stop></linearGradient><path d="M362.04 50.71L362.87 50.79L363.69 50.91L364.49 51.05L365.29 51.23L366.08 51.44L366.85 51.69L367.61 51.95L368.35 52.25L369.08 52.58L369.8 52.93L370.5 53.31L371.18 53.72L371.84 54.15L372.49 54.6L373.12 55.08L373.73 55.59L374.32 56.11L374.89 56.66L375.43 57.23L375.96 57.81L376.46 58.42L376.94 59.05L377.4 59.7L377.83 60.36L378.23 61.05L378.61 61.75L378.97 62.46L379.29 63.19L379.59 63.94L379.86 64.69L380.1 65.47L380.31 66.25L380.49 67.05L380.64 67.86L380.75 68.68L380.84 69.51L380.89 70.34L380.91 71.19L380.91 210.82L380.89 211.67L380.84 212.5L380.75 213.33L380.64 214.15L380.49 214.96L380.31 215.76L380.1 216.54L379.86 217.31L379.59 218.07L379.29 218.82L378.97 219.55L378.61 220.26L378.23 220.96L377.83 221.65L377.4 222.31L376.94 222.96L376.46 223.59L375.96 224.19L375.43 224.78L374.89 225.35L374.32 225.9L373.73 226.42L373.12 226.93L372.49 227.41L371.84 227.86L371.18 228.29L370.5 228.7L369.8 229.08L369.08 229.43L368.35 229.76L367.61 230.05L366.85 230.32L366.08 230.56L365.29 230.77L364.49 230.95L363.69 231.1L362.87 231.22L362.04 231.3L361.2 231.36L360.35 231.37L277.67 231.37L276.82 231.36L275.98 231.3L275.15 231.22L274.34 231.1L273.53 230.95L272.73 230.77L271.94 230.56L271.17 230.32L270.41 230.05L269.67 229.76L268.94 229.43L268.22 229.08L267.52 228.7L266.84 228.29L266.18 227.86L265.53 227.41L264.9 226.93L264.29 226.42L263.7 225.9L263.14 225.35L262.59 224.78L262.06 224.19L261.56 223.59L261.08 222.96L260.63 222.31L260.19 221.65L259.79 220.96L259.41 220.26L259.06 219.55L258.73 218.82L258.43 218.07L258.16 217.31L257.92 216.54L257.71 215.76L257.53 214.96L257.38 214.15L257.27 213.33L257.18 212.5L257.13 211.67L257.12 210.82L257.12 71.19L257.13 70.34L257.18 69.51L257.27 68.68L257.38 67.86L257.53 67.05L257.71 66.25L257.92 65.47L258.16 64.69L258.43 63.94L258.73 63.19L259.06 62.46L259.41 61.75L259.79 61.05L260.19 60.36L260.63 59.7L261.08 59.05L261.56 58.42L262.06 57.81L262.59 57.23L263.14 56.66L263.7 56.11L264.29 55.59L264.9 55.08L265.53 54.6L266.18 54.15L266.84 53.72L267.52 53.31L268.22 52.93L268.94 52.58L269.67 52.25L270.41 51.95L271.17 51.69L271.94 51.44L272.73 51.23L273.53 51.05L274.34 50.91L275.15 50.79L275.98 50.71L276.82 50.65L277.67 50.64L360.35 50.64L361.2 50.65L362.04 50.71ZM314.58 127.52L313 127.68L311.45 127.9L309.92 128.18L308.41 128.52L306.92 128.92L305.45 129.38L304.01 129.89L302.6 130.45L301.22 131.07L299.86 131.74L298.53 132.46L297.24 133.23L295.98 134.05L294.75 134.92L293.56 135.83L292.4 136.78L291.28 137.78L290.21 138.81L289.17 139.89L288.17 141.01L287.22 142.17L286.31 143.36L285.44 144.59L284.62 145.85L283.85 147.14L283.13 148.47L282.46 149.82L281.84 151.21L281.28 152.62L280.77 154.06L280.31 155.53L279.91 157.02L279.57 158.53L279.29 160.06L279.07 161.61L278.91 163.19L278.81 164.78L278.78 166.38L278.81 167.99L278.91 169.58L279.07 171.15L279.29 172.7L279.57 174.24L279.91 175.75L280.31 177.24L280.77 178.7L281.28 180.14L281.84 181.55L282.46 182.94L283.13 184.3L283.85 185.62L284.62 186.92L285.44 188.18L286.31 189.41L287.22 190.6L288.17 191.75L289.17 192.87L290.21 193.95L291.28 194.99L292.4 195.98L293.56 196.94L294.75 197.85L295.98 198.71L297.24 199.53L298.53 200.3L299.86 201.02L301.22 201.69L302.6 202.31L304.01 202.88L305.45 203.39L306.92 203.84L308.41 204.24L309.92 204.58L311.45 204.87L313 205.09L314.58 205.25L316.17 205.34L317.77 205.38L319.38 205.34L320.97 205.25L322.54 205.09L324.09 204.87L325.63 204.58L327.14 204.24L328.63 203.84L330.09 203.39L331.53 202.88L332.94 202.31L334.33 201.69L335.69 201.02L337.01 200.3L338.31 199.53L339.57 198.71L340.8 197.85L341.99 196.94L343.14 195.98L344.26 194.99L345.34 193.95L346.38 192.87L347.38 191.75L348.33 190.6L349.24 189.41L350.1 188.18L350.92 186.92L351.69 185.62L352.41 184.3L353.08 182.94L353.7 181.55L354.27 180.14L354.78 178.7L355.23 177.24L355.63 175.75L355.97 174.24L356.26 172.7L356.48 171.15L356.64 169.58L356.73 167.99L356.77 166.38L356.73 164.78L356.64 163.19L356.48 161.61L356.26 160.06L355.97 158.53L355.63 157.02L355.23 155.53L354.78 154.06L354.27 152.62L353.7 151.21L353.08 149.82L352.41 148.47L351.69 147.14L350.92 145.85L350.1 144.59L349.24 143.36L348.33 142.17L347.38 141.01L346.38 139.89L345.34 138.81L344.26 137.78L343.14 136.78L341.99 135.83L340.8 134.92L339.57 134.05L338.31 133.23L337.01 132.46L335.69 131.74L334.33 131.07L332.94 130.45L331.53 129.89L330.09 129.38L328.63 128.92L327.14 128.52L325.63 128.18L324.09 127.9L322.54 127.68L320.97 127.52L319.38 127.42L317.77 127.39L316.17 127.42L314.58 127.52Z" id="b7DfCDPVIK"></path><linearGradient id="gradientbnJD8hmpl" gradientUnits="userSpaceOnUse" x1="319.01" y1="50.64" x2="319.01" y2="231.37"><stop style="stop-color: #c51515;stop-opacity: 1" offset="0%"></stop><stop style="stop-color: #c53636;stop-opacity: 1" offset="100%"></stop></linearGradient><path d="M494.18 296.98C504.09 296.98 512.12 305.02 512.12 314.93C512.12 318.52 512.12 311.34 512.12 314.93C512.12 324.84 504.09 332.88 494.18 332.88C463.85 332.88 390.81 332.88 360.48 332.88C350.57 332.88 342.53 324.84 342.53 314.93C342.53 311.34 342.53 318.52 342.53 314.93C342.53 305.02 350.57 296.98 360.48 296.98C390.81 296.98 463.85 296.98 494.18 296.98Z" id="a3f2umvJan"></path><path d="M494.18 349.47C504.09 349.47 512.12 357.51 512.12 367.42C512.12 371.01 512.12 363.83 512.12 367.42C512.12 377.33 504.09 385.37 494.18 385.37C463.85 385.37 390.81 385.37 360.48 385.37C350.57 385.37 342.53 377.33 342.53 367.42C342.53 363.83 342.53 371.01 342.53 367.42C342.53 357.51 350.57 349.47 360.48 349.47C390.81 349.47 463.85 349.47 494.18 349.47Z" id="j1chK3rPYw"></path><path d="M495.88 401.49C505.79 401.49 513.83 409.53 513.83 419.44C513.83 423.03 513.83 415.85 513.83 419.44C513.83 429.36 505.79 437.39 495.88 437.39C465.55 437.39 392.51 437.39 362.18 437.39C352.27 437.39 344.23 429.36 344.23 419.44C344.23 415.85 344.23 423.03 344.23 419.44C344.23 409.53 352.27 401.49 362.18 401.49C392.51 401.49 465.55 401.49 495.88 401.49Z" id="a2VOhj2zUm"></path><path d="M257.12 296.98C257.12 336.95 232.15 369.4 201.41 369.4C170.66 369.4 145.7 336.95 145.7 296.98C145.7 257.01 170.66 224.56 201.41 224.56C232.15 224.56 257.12 257.01 257.12 296.98Z" id="c2koUtAIik"></path><radialGradient id="gradienta1eh1WSWf" gradientUnits="userSpaceOnUse" cx="223.52" cy="268.07" dx="223.52" dy="412.9" r="144.84"><stop style="stop-color: #86fc4f;stop-opacity: 1" offset="0%"></stop><stop style="stop-color: #1f3615;stop-opacity: 1" offset="100%"></stop></radialGradient><path d="M299.2 429.93C299.2 454.53 257.6 474.5 206.36 474.5C155.12 474.5 113.52 454.53 113.52 429.93C113.52 405.34 155.12 385.37 206.36 385.37C257.6 385.37 299.2 405.34 299.2 429.93Z" id="a15ExpEaVr"></path><path d="M113.52 429.93L299.2 429.93L299.2 474.5L113.52 474.5L113.52 429.93Z" id="d2vpZhTLGI"></path></defs><g><g><g><g><filter id="shadow2230153" x="20.32" y="103.29" width="613.21" height="471.37" filterUnits="userSpaceOnUse" primitiveUnits="userSpaceOnUse"><feFlood></feFlood><feComposite in2="SourceAlpha" operator="in"></feComposite><feGaussianBlur stdDeviation="3.16"></feGaussianBlur><feOffset dx="3" dy="6" result="afterOffset"></feOffset><feFlood flood-color="#4b4b4b" flood-opacity="0.5"></feFlood><feComposite in2="afterOffset" operator="in"></feComposite><feMorphology operator="dilate" radius="3"></feMorphology><feComposite in2="SourceAlpha" operator="out"></feComposite></filter><path d="M566.35 137.4L567.68 137.53L568.99 137.72L570.28 137.96L571.56 138.25L572.81 138.58L574.05 138.97L575.26 139.4L576.45 139.87L577.62 140.4L578.76 140.96L579.88 141.57L580.97 142.22L582.04 142.91L583.07 143.63L584.08 144.4L585.05 145.2L585.99 146.04L586.9 146.92L587.78 147.83L588.62 148.77L589.42 149.74L590.19 150.75L590.91 151.78L591.6 152.85L592.25 153.94L592.86 155.06L593.42 156.2L593.95 157.37L594.42 158.56L594.85 159.77L595.24 161.01L595.57 162.26L595.86 163.54L596.1 164.83L596.28 166.14L596.42 167.47L596.5 168.81L596.53 170.16L596.53 501.79L596.5 503.14L596.42 504.48L596.28 505.81L596.1 507.12L595.86 508.41L595.57 509.69L595.24 510.94L594.85 512.18L594.42 513.39L593.95 514.58L593.42 515.75L592.86 516.89L592.25 518.01L591.6 519.1L590.91 520.17L590.19 521.2L589.42 522.21L588.62 523.18L587.78 524.12L586.9 525.03L585.99 525.91L585.05 526.75L584.08 527.55L583.07 528.32L582.04 529.05L580.97 529.74L579.88 530.38L578.76 530.99L577.62 531.56L576.45 532.08L575.26 532.55L574.05 532.98L572.81 533.37L571.56 533.71L570.28 533.99L568.99 534.23L567.68 534.42L566.35 534.55L565.01 534.63L563.66 534.66L87.2 534.66L85.84 534.63L84.5 534.55L83.17 534.42L81.86 534.23L80.57 533.99L79.3 533.71L78.04 533.37L76.81 532.98L75.59 532.55L74.4 532.08L73.23 531.56L72.09 530.99L70.97 530.38L69.88 529.74L68.82 529.05L67.78 528.32L66.78 527.55L65.8 526.75L64.86 525.91L63.95 525.03L63.08 524.12L62.24 523.18L61.43 522.21L60.67 521.2L59.94 520.17L59.25 519.1L58.6 518.01L57.99 516.89L57.43 515.75L56.91 514.58L56.43 513.39L56 512.18L55.62 510.94L55.28 509.69L54.99 508.41L54.75 507.12L54.57 505.81L54.43 504.48L54.35 503.14L54.32 501.79L54.32 170.16L54.35 168.81L54.43 167.47L54.57 166.14L54.75 164.83L54.99 163.54L55.28 162.26L55.62 161.01L56 159.77L56.43 158.56L56.91 157.37L57.43 156.2L57.99 155.06L58.6 153.94L59.25 152.85L59.94 151.78L60.67 150.75L61.43 149.74L62.24 148.77L63.08 147.83L63.95 146.92L64.86 146.04L65.8 145.2L66.78 144.4L67.78 143.63L68.82 142.91L69.88 142.22L70.97 141.57L72.09 140.96L73.23 140.4L74.4 139.87L75.59 139.4L76.81 138.97L78.04 138.58L79.3 138.25L80.57 137.96L81.86 137.72L83.17 137.53L84.5 137.4L85.84 137.32L87.2 137.29L225.16 137.29L225.16 168.24L110.93 168.24L110.02 168.26L109.13 168.31L108.24 168.4L107.37 168.53L106.51 168.68L105.65 168.88L104.82 169.1L103.99 169.36L103.18 169.65L102.39 169.96L101.61 170.31L100.84 170.69L100.1 171.09L99.37 171.53L98.66 171.99L97.97 172.47L97.3 172.98L96.65 173.52L96.02 174.08L95.41 174.67L94.83 175.27L94.27 175.9L93.73 176.55L93.22 177.22L92.73 177.91L92.27 178.62L91.84 179.35L91.43 180.1L91.06 180.86L90.71 181.64L90.39 182.44L90.1 183.25L89.85 184.07L89.62 184.91L89.43 185.76L89.27 186.62L89.15 187.5L89.06 188.38L89 189.28L88.99 190.18L88.99 483.01L89 483.91L89.06 484.81L89.15 485.69L89.27 486.57L89.43 487.43L89.62 488.28L89.85 489.12L90.1 489.94L90.39 490.75L90.71 491.55L91.06 492.33L91.43 493.09L91.84 493.84L92.27 494.57L92.73 495.28L93.22 495.97L93.73 496.64L94.27 497.29L94.83 497.92L95.41 498.52L96.02 499.11L96.65 499.67L97.3 500.21L97.97 500.72L98.66 501.2L99.37 501.66L100.1 502.1L100.84 502.5L101.61 502.88L102.39 503.23L103.18 503.54L103.99 503.83L104.82 504.09L105.65 504.31L106.51 504.5L107.37 504.66L108.24 504.79L109.13 504.88L110.02 504.93L110.93 504.95L541.16 504.95L542.07 504.93L542.96 504.88L543.85 504.79L544.72 504.66L545.58 504.5L546.44 504.31L547.27 504.09L548.1 503.83L548.91 503.54L549.7 503.23L550.48 502.88L551.25 502.5L551.99 502.1L552.72 501.66L553.43 501.2L554.12 500.72L554.79 500.21L555.44 499.67L556.07 499.11L556.68 498.52L557.26 497.92L557.82 497.29L558.36 496.64L558.87 495.97L559.36 495.28L559.82 494.57L560.25 493.84L560.66 493.09L561.03 492.33L561.38 491.55L561.7 490.75L561.99 489.94L562.24 489.12L562.47 488.28L562.66 487.43L562.82 486.57L562.94 485.69L563.03 484.81L563.09 483.91L563.1 483.01L563.1 190.18L563.09 189.28L563.03 188.38L562.94 187.5L562.82 186.62L562.66 185.76L562.47 184.91L562.24 184.07L561.99 183.25L561.7 182.44L561.38 181.64L561.03 180.86L560.66 180.1L560.25 179.35L559.82 178.62L559.36 177.91L558.87 177.22L558.36 176.55L557.82 175.9L557.26 175.27L556.68 174.67L556.07 174.08L555.44 173.52L554.79 172.98L554.12 172.47L553.43 171.99L552.72 171.53L551.99 171.09L551.25 170.69L550.48 170.31L549.7 169.96L548.91 169.65L548.1 169.36L547.27 169.1L546.44 168.88L545.58 168.68L544.72 168.53L543.85 168.4L542.96 168.31L542.07 168.26L541.16 168.24L434.36 168.24L434.36 137.29L563.66 137.29L565.01 137.32L566.35 137.4Z" id="d2yf76Zm5A" fill="white" fill-opacity="1" filter="url(#shadow2230153)"></path></g><use xlink:href="#cdK9dWG8G" opacity="1" fill="url(#gradienta2Ust3KeOJ)"></use></g><g><g><filter id="shadow2452464" x="223.12" y="16.64" width="194.79" height="254.74" filterUnits="userSpaceOnUse" primitiveUnits="userSpaceOnUse"><feFlood></feFlood><feComposite in2="SourceAlpha" operator="in"></feComposite><feGaussianBlur stdDeviation="3.16"></feGaussianBlur><feOffset dx="3" dy="6" result="afterOffset"></feOffset><feFlood flood-color="#4b4b4b" flood-opacity="0.5"></feFlood><feComposite in2="afterOffset" operator="in"></feComposite><feMorphology operator="dilate" radius="3"></feMorphology><feComposite in2="SourceAlpha" operator="out"></feComposite></filter><path d="M362.04 50.71L362.87 50.79L363.69 50.91L364.49 51.05L365.29 51.23L366.08 51.44L366.85 51.69L367.61 51.95L368.35 52.25L369.08 52.58L369.8 52.93L370.5 53.31L371.18 53.72L371.84 54.15L372.49 54.6L373.12 55.08L373.73 55.59L374.32 56.11L374.89 56.66L375.43 57.23L375.96 57.81L376.46 58.42L376.94 59.05L377.4 59.7L377.83 60.36L378.23 61.05L378.61 61.75L378.97 62.46L379.29 63.19L379.59 63.94L379.86 64.69L380.1 65.47L380.31 66.25L380.49 67.05L380.64 67.86L380.75 68.68L380.84 69.51L380.89 70.34L380.91 71.19L380.91 210.82L380.89 211.67L380.84 212.5L380.75 213.33L380.64 214.15L380.49 214.96L380.31 215.76L380.1 216.54L379.86 217.31L379.59 218.07L379.29 218.82L378.97 219.55L378.61 220.26L378.23 220.96L377.83 221.65L377.4 222.31L376.94 222.96L376.46 223.59L375.96 224.19L375.43 224.78L374.89 225.35L374.32 225.9L373.73 226.42L373.12 226.93L372.49 227.41L371.84 227.86L371.18 228.29L370.5 228.7L369.8 229.08L369.08 229.43L368.35 229.76L367.61 230.05L366.85 230.32L366.08 230.56L365.29 230.77L364.49 230.95L363.69 231.1L362.87 231.22L362.04 231.3L361.2 231.36L360.35 231.37L277.67 231.37L276.82 231.36L275.98 231.3L275.15 231.22L274.34 231.1L273.53 230.95L272.73 230.77L271.94 230.56L271.17 230.32L270.41 230.05L269.67 229.76L268.94 229.43L268.22 229.08L267.52 228.7L266.84 228.29L266.18 227.86L265.53 227.41L264.9 226.93L264.29 226.42L263.7 225.9L263.14 225.35L262.59 224.78L262.06 224.19L261.56 223.59L261.08 222.96L260.63 222.31L260.19 221.65L259.79 220.96L259.41 220.26L259.06 219.55L258.73 218.82L258.43 218.07L258.16 217.31L257.92 216.54L257.71 215.76L257.53 214.96L257.38 214.15L257.27 213.33L257.18 212.5L257.13 211.67L257.12 210.82L257.12 71.19L257.13 70.34L257.18 69.51L257.27 68.68L257.38 67.86L257.53 67.05L257.71 66.25L257.92 65.47L258.16 64.69L258.43 63.94L258.73 63.19L259.06 62.46L259.41 61.75L259.79 61.05L260.19 60.36L260.63 59.7L261.08 59.05L261.56 58.42L262.06 57.81L262.59 57.23L263.14 56.66L263.7 56.11L264.29 55.59L264.9 55.08L265.53 54.6L266.18 54.15L266.84 53.72L267.52 53.31L268.22 52.93L268.94 52.58L269.67 52.25L270.41 51.95L271.17 51.69L271.94 51.44L272.73 51.23L273.53 51.05L274.34 50.91L275.15 50.79L275.98 50.71L276.82 50.65L277.67 50.64L360.35 50.64L361.2 50.65L362.04 50.71ZM314.58 127.52L313 127.68L311.45 127.9L309.92 128.18L308.41 128.52L306.92 128.92L305.45 129.38L304.01 129.89L302.6 130.45L301.22 131.07L299.86 131.74L298.53 132.46L297.24 133.23L295.98 134.05L294.75 134.92L293.56 135.83L292.4 136.78L291.28 137.78L290.21 138.81L289.17 139.89L288.17 141.01L287.22 142.17L286.31 143.36L285.44 144.59L284.62 145.85L283.85 147.14L283.13 148.47L282.46 149.82L281.84 151.21L281.28 152.62L280.77 154.06L280.31 155.53L279.91 157.02L279.57 158.53L279.29 160.06L279.07 161.61L278.91 163.19L278.81 164.78L278.78 166.38L278.81 167.99L278.91 169.58L279.07 171.15L279.29 172.7L279.57 174.24L279.91 175.75L280.31 177.24L280.77 178.7L281.28 180.14L281.84 181.55L282.46 182.94L283.13 184.3L283.85 185.62L284.62 186.92L285.44 188.18L286.31 189.41L287.22 190.6L288.17 191.75L289.17 192.87L290.21 193.95L291.28 194.99L292.4 195.98L293.56 196.94L294.75 197.85L295.98 198.71L297.24 199.53L298.53 200.3L299.86 201.02L301.22 201.69L302.6 202.31L304.01 202.88L305.45 203.39L306.92 203.84L308.41 204.24L309.92 204.58L311.45 204.87L313 205.09L314.58 205.25L316.17 205.34L317.77 205.38L319.38 205.34L320.97 205.25L322.54 205.09L324.09 204.87L325.63 204.58L327.14 204.24L328.63 203.84L330.09 203.39L331.53 202.88L332.94 202.31L334.33 201.69L335.69 201.02L337.01 200.3L338.31 199.53L339.57 198.71L340.8 197.85L341.99 196.94L343.14 195.98L344.26 194.99L345.34 193.95L346.38 192.87L347.38 191.75L348.33 190.6L349.24 189.41L350.1 188.18L350.92 186.92L351.69 185.62L352.41 184.3L353.08 182.94L353.7 181.55L354.27 180.14L354.78 178.7L355.23 177.24L355.63 175.75L355.97 174.24L356.26 172.7L356.48 171.15L356.64 169.58L356.73 167.99L356.77 166.38L356.73 164.78L356.64 163.19L356.48 161.61L356.26 160.06L355.97 158.53L355.63 157.02L355.23 155.53L354.78 154.06L354.27 152.62L353.7 151.21L353.08 149.82L352.41 148.47L351.69 147.14L350.92 145.85L350.1 144.59L349.24 143.36L348.33 142.17L347.38 141.01L346.38 139.89L345.34 138.81L344.26 137.78L343.14 136.78L341.99 135.83L340.8 134.92L339.57 134.05L338.31 133.23L337.01 132.46L335.69 131.74L334.33 131.07L332.94 130.45L331.53 129.89L330.09 129.38L328.63 128.92L327.14 128.52L325.63 128.18L324.09 127.9L322.54 127.68L320.97 127.52L319.38 127.42L317.77 127.39L316.17 127.42L314.58 127.52Z" id="a27NliuqOB" fill="white" fill-opacity="1" filter="url(#shadow2452464)"></path></g><use xlink:href="#b7DfCDPVIK" opacity="1" fill="url(#gradientbnJD8hmpl)"></use></g><g><g><filter id="shadow116016" x="308.53" y="262.98" width="240.59" height="109.9" filterUnits="userSpaceOnUse" primitiveUnits="userSpaceOnUse"><feFlood></feFlood><feComposite in2="SourceAlpha" operator="in"></feComposite><feGaussianBlur stdDeviation="3.16"></feGaussianBlur><feOffset dx="3" dy="6" result="afterOffset"></feOffset><feFlood flood-color="#4b4b4b" flood-opacity="0.5"></feFlood><feComposite in2="afterOffset" operator="in"></feComposite><feMorphology operator="dilate" radius="3"></feMorphology><feComposite in2="SourceAlpha" operator="out"></feComposite></filter><path d="M494.18 296.98C504.09 296.98 512.12 305.02 512.12 314.93C512.12 318.52 512.12 311.34 512.12 314.93C512.12 324.84 504.09 332.88 494.18 332.88C463.85 332.88 390.81 332.88 360.48 332.88C350.57 332.88 342.53 324.84 342.53 314.93C342.53 311.34 342.53 318.52 342.53 314.93C342.53 305.02 350.57 296.98 360.48 296.98C390.81 296.98 463.85 296.98 494.18 296.98Z" id="d6D5RACPH" fill="white" fill-opacity="1" filter="url(#shadow116016)"></path></g><use xlink:href="#a3f2umvJan" opacity="1" fill="#7297f9" fill-opacity="1"></use></g><g><g><filter id="shadow16597280" x="308.53" y="315.47" width="240.59" height="109.9" filterUnits="userSpaceOnUse" primitiveUnits="userSpaceOnUse"><feFlood></feFlood><feComposite in2="SourceAlpha" operator="in"></feComposite><feGaussianBlur stdDeviation="3.16"></feGaussianBlur><feOffset dx="3" dy="6" result="afterOffset"></feOffset><feFlood flood-color="#4b4b4b" flood-opacity="0.5"></feFlood><feComposite in2="afterOffset" operator="in"></feComposite><feMorphology operator="dilate" radius="3"></feMorphology><feComposite in2="SourceAlpha" operator="out"></feComposite></filter><path d="M494.18 349.47C504.09 349.47 512.12 357.51 512.12 367.42C512.12 371.01 512.12 363.83 512.12 367.42C512.12 377.33 504.09 385.37 494.18 385.37C463.85 385.37 390.81 385.37 360.48 385.37C350.57 385.37 342.53 377.33 342.53 367.42C342.53 363.83 342.53 371.01 342.53 367.42C342.53 357.51 350.57 349.47 360.48 349.47C390.81 349.47 463.85 349.47 494.18 349.47Z" id="b1HZJzXCa4" fill="white" fill-opacity="1" filter="url(#shadow16597280)"></path></g><use xlink:href="#j1chK3rPYw" opacity="1" fill="#547fef" fill-opacity="1"></use></g><g><g><filter id="shadow10300473" x="310.23" y="367.49" width="240.59" height="109.9" filterUnits="userSpaceOnUse" primitiveUnits="userSpaceOnUse"><feFlood></feFlood><feComposite in2="SourceAlpha" operator="in"></feComposite><feGaussianBlur stdDeviation="3.16"></feGaussianBlur><feOffset dx="3" dy="6" result="afterOffset"></feOffset><feFlood flood-color="#4b4b4b" flood-opacity="0.5"></feFlood><feComposite in2="afterOffset" operator="in"></feComposite><feMorphology operator="dilate" radius="3"></feMorphology><feComposite in2="SourceAlpha" operator="out"></feComposite></filter><path d="M495.88 401.49C505.79 401.49 513.83 409.53 513.83 419.44C513.83 423.03 513.83 415.85 513.83 419.44C513.83 429.36 505.79 437.39 495.88 437.39C465.55 437.39 392.51 437.39 362.18 437.39C352.27 437.39 344.23 429.36 344.23 419.44C344.23 415.85 344.23 423.03 344.23 419.44C344.23 409.53 352.27 401.49 362.18 401.49C392.51 401.49 465.55 401.49 495.88 401.49Z" id="f3cmMCdvjz" fill="white" fill-opacity="1" filter="url(#shadow10300473)"></path></g><use xlink:href="#a2VOhj2zUm" opacity="1" fill="#4572e6" fill-opacity="1"></use></g><g><g><filter id="shadow1943598" x="111.7" y="190.56" width="182.41" height="218.84" filterUnits="userSpaceOnUse" primitiveUnits="userSpaceOnUse"><feFlood></feFlood><feComposite in2="SourceAlpha" operator="in"></feComposite><feGaussianBlur stdDeviation="3.16"></feGaussianBlur><feOffset dx="3" dy="6" result="afterOffset"></feOffset><feFlood flood-color="#4b4b4b" flood-opacity="0.5"></feFlood><feComposite in2="afterOffset" operator="in"></feComposite><feMorphology operator="dilate" radius="3"></feMorphology><feComposite in2="SourceAlpha" operator="out"></feComposite></filter><path d="M257.12 296.98C257.12 336.95 232.15 369.4 201.41 369.4C170.66 369.4 145.7 336.95 145.7 296.98C145.7 257.01 170.66 224.56 201.41 224.56C232.15 224.56 257.12 257.01 257.12 296.98Z" id="a2mVyHnHSx" fill="white" fill-opacity="1" filter="url(#shadow1943598)"></path></g><use xlink:href="#c2koUtAIik" opacity="1" fill="url(#gradienta1eh1WSWf)"></use><g><use xlink:href="#c2koUtAIik" opacity="1" fill-opacity="0" stroke="#b3fe7f" stroke-width="1" stroke-opacity="0"></use></g></g><g><g><filter id="shadow6021647" x="79.52" y="351.37" width="256.69" height="163.13" filterUnits="userSpaceOnUse" primitiveUnits="userSpaceOnUse"><feFlood></feFlood><feComposite in2="SourceAlpha" operator="in"></feComposite><feGaussianBlur stdDeviation="3.16"></feGaussianBlur><feOffset dx="3" dy="6" result="afterOffset"></feOffset><feFlood flood-color="#4b4b4b" flood-opacity="0.5"></feFlood><feComposite in2="afterOffset" operator="in"></feComposite><feMorphology operator="dilate" radius="3"></feMorphology><feComposite in2="SourceAlpha" operator="out"></feComposite></filter><path d="M299.2 429.93C299.2 454.53 257.6 474.5 206.36 474.5C155.12 474.5 113.52 454.53 113.52 429.93C113.52 405.34 155.12 385.37 206.36 385.37C257.6 385.37 299.2 405.34 299.2 429.93Z" id="a1ANSFPhCQ" fill="white" fill-opacity="1" filter="url(#shadow6021647)"></path></g><use xlink:href="#a15ExpEaVr" opacity="1" fill="#7dea4a" fill-opacity="1"></use></g><g><use xlink:href="#d2vpZhTLGI" opacity="1" fill="#7deb4a" fill-opacity="1"></use></g></g></g></svg>