<?xml version="1.0" encoding="UTF-8" standalone="no"?>
<!DOCTYPE svg PUBLIC "-//W3C//DTD SVG 1.1//EN" "http://www.w3.org/Graphics/SVG/1.1/DTD/svg11.dtd">
<svg version="1.1" xmlns="http://www.w3.org/2000/svg" xmlns:xlink="http://www.w3.org/1999/xlink" preserveAspectRatio="xMidYMid meet" viewBox="0 0 640 640" width="640" height="640"><defs><path d="M324.11 3.26L331.21 3.86L338.32 4.71L345.44 5.81L352.58 7.14L359.73 8.72L366.89 10.54L374.07 12.61L381.26 14.92L388.46 17.47L395.67 20.26L402.89 23.3L410.13 26.58L417.38 30.1L424.65 33.87L431.92 37.87L439.21 42.12L446.51 46.62L453.82 51.36L461.15 56.34L468.49 61.56L475.84 67.03L483.21 72.73L490.58 78.69L497.97 84.88L505.37 91.32L512.79 98L520.22 104.92L527.65 112.09L535.11 119.5L542.57 127.15L550.05 135.05L557.54 143.19L565.04 151.57L572.56 160.19L580.09 169.06L587.63 178.17L595.18 187.52L602.75 197.12L603.48 198.08L604.2 199.05L604.9 200.03L605.59 201.03L606.25 202.03L606.9 203.04L607.54 204.06L608.15 205.1L608.75 206.14L609.33 207.19L609.89 208.24L610.43 209.31L610.96 210.39L611.47 211.47L611.95 212.56L612.43 213.66L612.88 214.77L613.31 215.88L613.54 216.49L613.69 216.52L614.51 216.77L615.31 217.12L616.09 217.56L616.86 218.09L617.6 218.7L618.33 219.4L619.03 220.19L619.71 221.05L620.37 221.98L620.99 222.99L621.59 224.07L622.17 225.21L622.71 226.42L623.22 227.69L623.69 229.02L624.14 230.41L624.54 231.84L624.91 233.33L625.24 234.87L625.53 236.44L625.78 238.06L625.99 239.72L626.16 241.42L626.27 243.14L626.35 244.9L626.37 246.68L626.35 248.47L626.27 250.22L626.16 251.95L625.99 253.64L625.78 255.3L625.53 256.92L625.24 258.5L624.91 260.03L624.54 261.52L624.14 262.96L623.69 264.34L623.22 265.67L622.71 266.94L622.17 268.15L621.59 269.3L620.99 270.37L620.37 271.38L619.71 272.32L619.03 273.18L618.33 273.96L617.6 274.66L616.86 275.28L616.09 275.81L615.31 276.25L614.51 276.59L613.69 276.84L612.86 277L612.02 277.05L611.18 277L610.35 276.84L609.53 276.59L608.73 276.25L607.95 275.81L607.18 275.28L607.01 275.13L606.87 275.07L606.42 274.85L605.98 274.6L605.55 274.32L605.14 274L604.74 273.65L604.36 273.26L603.99 272.84L603.65 272.38L596.05 261.8L588.47 251.48L580.9 241.43L573.35 231.65L565.8 222.14L558.27 212.89L550.76 203.91L543.25 195.2L535.76 186.76L528.28 178.59L520.82 170.68L513.36 163.05L505.92 155.68L498.5 148.58L491.08 141.74L483.68 135.18L476.29 128.88L468.92 122.85L461.56 117.09L454.21 111.59L446.87 106.37L439.55 101.41L432.24 96.72L424.94 92.3L417.66 88.14L410.39 84.26L403.13 80.64L395.88 77.29L388.65 74.21L381.43 71.4L374.22 68.85L367.03 66.57L359.85 64.56L352.68 62.82L345.53 61.35L338.38 60.14L331.26 59.2L324.14 58.53L317.04 58.13L309.95 58L302.87 58.13L295.8 58.53L288.72 59.2L281.65 60.14L274.57 61.34L267.49 62.81L260.41 64.55L253.33 66.56L246.25 68.83L239.17 71.37L232.08 74.18L225 77.25L217.91 80.6L210.82 84.21L203.74 88.09L196.65 92.23L189.56 96.64L182.47 101.32L175.37 106.27L168.28 111.49L161.19 116.97L154.09 122.72L147 128.74L139.9 135.02L132.8 141.58L125.7 148.4L118.6 155.48L111.5 162.84L104.4 170.46L97.29 178.35L90.19 186.51L83.08 194.93L75.98 203.63L68.87 212.59L61.76 221.81L54.65 231.31L47.54 241.07L40.43 251.1L33.32 261.4L26.2 271.96L25.88 272.41L25.54 272.82L25.19 273.21L24.83 273.54L24.45 273.96L23.72 274.66L22.98 275.28L22.21 275.81L21.43 276.25L20.63 276.59L19.81 276.84L18.98 277L18.14 277.05L17.3 277L16.47 276.84L15.65 276.59L14.85 276.25L14.07 275.81L13.3 275.28L12.56 274.66L11.83 273.96L11.13 273.18L10.45 272.32L9.8 271.38L9.17 270.37L8.57 269.3L8 268.15L7.46 266.94L6.95 265.67L6.47 264.34L6.03 262.96L5.62 261.52L5.25 260.03L4.92 258.5L4.63 256.92L4.38 255.3L4.17 253.64L4.01 251.95L3.89 250.22L3.82 248.47L3.79 246.68L3.82 244.9L3.89 243.14L4.01 241.42L4.17 239.72L4.38 238.06L4.63 236.44L4.92 234.87L5.25 233.33L5.62 231.84L6.03 230.41L6.47 229.02L6.95 227.69L7.46 226.42L8 225.21L8.57 224.07L9.17 222.99L9.8 221.98L10.45 221.05L11.13 220.19L11.83 219.4L12.56 218.7L13.3 218.09L14.07 217.56L14.85 217.12L15.65 216.77L16.47 216.52L16.69 216.48L16.95 215.74L17.37 214.61L17.8 213.49L18.26 212.38L18.73 211.28L19.21 210.18L19.72 209.09L20.24 208.01L20.78 206.93L21.34 205.86L21.91 204.81L22.5 203.75L23.11 202.71L23.73 201.68L24.37 200.66L25.03 199.64L25.71 198.64L26.4 197.64L27.11 196.66L34.19 187.08L41.28 177.75L48.36 168.66L55.45 159.82L62.53 151.21L69.61 142.85L76.69 134.73L83.77 126.86L90.85 119.22L97.93 111.83L105.01 104.68L112.09 97.77L119.16 91.11L126.24 84.69L133.31 78.51L140.39 72.57L147.46 66.87L154.53 61.42L161.61 56.21L168.68 51.24L175.75 46.52L182.82 42.03L189.89 37.79L196.96 33.79L204.02 30.03L211.09 26.52L218.16 23.25L225.22 20.22L232.29 17.43L239.35 14.89L246.41 12.58L253.47 10.52L260.54 8.71L267.6 7.13L274.66 5.8L281.72 4.71L288.78 3.86L295.83 3.25L302.89 2.89L309.95 2.77L317.02 2.89L324.11 3.26Z" id="a1wA88wnVX"></path><linearGradient id="gradientc1bft2Lobo" gradientUnits="userSpaceOnUse" x1="315.08" y1="2.77" x2="315.08" y2="277.05"><stop style="stop-color: #65f792;stop-opacity: 1" offset="0%"></stop><stop style="stop-color: #4a8d5b;stop-opacity: 1" offset="100%"></stop></linearGradient><path d="M319.9 131.77L325.57 132.26L331.25 132.96L336.94 133.85L342.64 134.94L348.35 136.23L354.07 137.72L359.8 139.41L365.53 141.29L371.28 143.37L377.04 145.65L382.81 148.13L388.59 150.81L394.38 153.69L400.18 156.76L405.99 160.04L411.81 163.51L417.64 167.18L423.48 171.04L429.33 175.11L435.2 179.38L441.07 183.84L446.95 188.5L452.84 193.36L458.74 198.42L464.65 203.68L470.57 209.13L476.5 214.78L482.45 220.63L488.4 226.69L494.36 232.93L500.33 239.38L506.31 246.03L512.31 252.87L518.31 259.91L524.32 267.15L530.34 274.59L536.38 282.23L542.42 290.06L543 290.84L543.57 291.62L544.12 292.41L544.66 293.21L545.18 294.01L545.7 294.83L546.19 295.65L546.68 296.48L547.15 297.31L547.6 298.15L548.05 299L548.47 299.86L548.89 300.72L549.29 301.59L549.67 302.47L550.04 303.35L550.4 304.23L550.74 305.12L551.07 306.02L551.38 306.92L551.68 307.83L551.96 308.74L552.23 309.66L552.49 310.58L552.72 311.5L552.95 312.43L553.02 312.76L553.6 312.66L554.48 312.61L555.35 312.66L556.21 312.81L557.05 313.05L557.88 313.39L558.69 313.82L559.48 314.34L560.25 314.95L561 315.63L561.72 316.4L562.41 317.24L563.08 318.15L563.72 319.13L564.33 320.19L564.91 321.3L565.45 322.48L565.96 323.72L566.43 325.01L566.87 326.35L567.26 327.75L567.61 329.19L567.93 330.67L568.2 332.2L568.42 333.77L568.59 335.37L568.72 337L568.8 338.66L568.83 340.35L568.8 342.04L568.72 343.7L568.59 345.34L568.42 346.94L568.2 348.5L567.93 350.03L567.61 351.51L567.26 352.96L566.87 354.35L566.43 355.7L565.96 356.99L565.45 358.22L564.91 359.4L564.33 360.52L563.72 361.57L563.08 362.55L562.41 363.47L561.72 364.31L561 365.07L560.25 365.76L559.48 366.36L558.69 366.88L557.88 367.31L557.05 367.65L556.21 367.9L555.35 368.05L554.48 368.1L553.6 368.05L552.74 367.9L551.9 367.65L551.07 367.31L550.26 366.88L549.47 366.36L548.7 365.76L547.96 365.07L547.24 364.31L546.87 363.87L546.72 363.78L546.45 363.6L546.18 363.4L545.93 363.17L545.68 362.93L545.45 362.66L545.22 362.37L539.12 353.97L533.04 345.79L526.96 337.82L520.89 330.06L514.83 322.52L508.77 315.19L502.73 308.07L496.7 301.16L490.68 294.46L484.66 287.98L478.66 281.71L472.66 275.66L466.68 269.81L460.7 264.18L454.74 258.76L448.78 253.55L442.83 248.56L436.89 243.78L430.96 239.21L425.04 234.85L419.13 230.71L413.23 226.77L407.34 223.05L401.45 219.55L395.58 216.25L389.71 213.17L383.86 210.3L378.01 207.65L372.18 205.2L366.35 202.97L360.53 200.95L354.73 199.14L348.93 197.55L343.14 196.17L337.36 195L331.59 194.04L325.83 193.3L320.07 192.77L314.33 192.45L308.6 192.34L302.88 192.45L297.16 192.77L291.43 193.3L285.71 194.04L279.99 195L274.27 196.16L268.56 197.54L262.84 199.13L257.12 200.94L251.4 202.95L245.68 205.18L239.96 207.62L234.25 210.27L228.53 213.14L222.81 216.21L217.1 219.5L211.38 223L205.67 226.72L199.95 230.64L194.24 234.78L188.52 239.13L182.81 243.69L177.09 248.47L171.38 253.45L165.67 258.65L159.95 264.06L154.24 269.68L148.53 275.52L142.82 281.57L137.11 287.83L131.4 294.3L125.68 300.98L119.97 307.88L114.26 314.99L108.55 322.31L102.85 329.84L97.14 337.58L91.43 345.54L86.78 352.19L86.66 352.49L86.12 353.67L85.54 354.78L84.93 355.83L84.29 356.82L83.62 357.73L82.93 358.57L82.21 359.34L81.46 360.02L81.38 360.09L80.01 362.09L79.81 362.38L79.59 362.64L79.36 362.89L79.12 363.11L78.87 363.31L78.61 363.49L78.34 363.65L78.07 363.79L77.79 363.91L77.5 364.01L77.21 364.1L76.92 364.16L76.63 364.2L76.33 364.23L76.04 364.24L75.74 364.23L75.45 364.2L75.16 364.16L74.87 364.1L74.58 364.02L74.3 363.92L74.03 363.81L73.76 363.69L73.51 363.55L73.25 363.39L73.01 363.22L72.78 363.03L72.56 362.83L72.36 362.61L72.16 362.39L71.99 362.14L71.82 361.89L71.67 361.62L71.54 361.33L71.47 361.14L70.68 360.63L69.91 360.02L69.17 359.34L68.45 358.57L67.75 357.73L67.08 356.82L66.44 355.83L65.84 354.78L65.26 353.67L64.71 352.49L64.21 351.25L63.73 349.96L63.3 348.62L62.9 347.22L62.55 345.78L62.24 344.29L61.97 342.77L61.75 341.2L61.57 339.6L61.44 337.97L61.36 336.31L61.34 334.62L61.36 332.93L61.44 331.27L61.57 329.63L61.75 328.03L61.97 326.47L62.24 324.94L62.55 323.45L62.9 322.01L63.3 320.62L63.73 319.27L64.21 317.98L64.71 316.75L65.26 315.57L65.84 314.45L66.44 313.4L67.08 312.42L67.75 311.5L68.45 310.66L69.17 309.9L69.91 309.21L70.68 308.61L71.47 308.09L72.28 307.66L73.11 307.32L73.95 307.07L74.05 307.06L74.12 306.83L74.42 305.92L74.73 305.01L75.06 304.11L75.4 303.22L75.76 302.32L76.13 301.44L76.51 300.56L76.91 299.69L77.32 298.82L77.74 297.96L78.18 297.1L78.63 296.25L79.1 295.41L79.57 294.57L80.07 293.74L80.57 292.92L81.09 292.1L81.62 291.29L82.16 290.49L82.72 289.7L88.38 281.88L94.04 274.26L99.7 266.84L105.36 259.62L111.01 252.59L116.67 245.76L122.33 239.13L127.98 232.7L133.64 226.47L139.29 220.43L144.94 214.59L150.6 208.95L156.25 203.51L161.9 198.27L167.55 193.22L173.2 188.37L178.85 183.72L184.5 179.27L190.14 175.01L195.79 170.95L201.44 167.09L207.08 163.43L212.73 159.97L218.37 156.7L224.02 153.64L229.66 150.77L235.3 148.1L240.95 145.62L246.59 143.35L252.23 141.27L257.87 139.39L263.51 137.71L269.15 136.22L274.78 134.93L280.42 133.85L286.06 132.96L291.69 132.26L297.33 131.77L302.96 131.47L308.6 131.37L314.25 131.47L319.9 131.77Z" id="gIxanTbOA"></path><linearGradient id="gradientg2IEySSkjs" gradientUnits="userSpaceOnUse" x1="315.08" y1="131.37" x2="315.08" y2="368.1"><stop style="stop-color: #65f792;stop-opacity: 1" offset="0%"></stop><stop style="stop-color: #1b7130;stop-opacity: 1" offset="100%"></stop></linearGradient><path d="M314.05 277.34L318.05 277.71L322.06 278.22L326.08 278.89L330.12 279.69L334.16 280.65L338.22 281.75L342.28 283L346.36 284.4L350.45 285.94L354.55 287.63L358.65 289.47L362.77 291.45L366.9 293.58L371.04 295.86L375.19 298.28L379.35 300.85L383.53 303.57L387.71 306.44L391.9 309.45L396.11 312.61L400.32 315.91L404.55 319.37L408.78 322.97L413.03 326.71L417.29 330.61L421.55 334.65L425.83 338.84L430.12 343.17L434.42 347.65L438.73 352.28L443.05 357.06L447.38 361.98L451.73 367.05L456.08 372.26L460.44 377.63L464.82 383.14L469.2 388.8L473.6 394.6L474 395.15L474.39 395.7L474.78 396.26L475.15 396.82L475.52 397.39L475.88 397.97L476.22 398.55L476.56 399.14L476.89 399.73L477.2 400.32L477.51 400.92L477.81 401.53L478.09 402.13L478.37 402.75L478.64 403.36L478.9 403.99L479.15 404.61L479.38 405.24L479.61 405.87L479.83 406.51L480.04 407.15L480.23 407.79L480.42 408.44L480.6 409.08L480.76 409.74L480.92 410.39L481.06 411.05L481.2 411.71L481.2 411.72L481.98 411.68L482.96 411.73L483.92 411.9L484.87 412.17L485.79 412.55L486.69 413.02L487.56 413.59L488.41 414.25L489.22 414.99L490 415.83L490.74 416.74L491.45 417.73L492.12 418.79L492.75 419.92L493.34 421.12L493.88 422.38L494.37 423.7L494.81 425.08L495.2 426.51L495.53 427.98L495.81 429.5L496.04 431.06L496.2 432.66L496.29 434.29L496.33 435.95L496.29 437.61L496.2 439.24L496.04 440.84L495.81 442.4L495.53 443.92L495.2 445.39L494.81 446.82L494.37 448.19L493.88 449.52L493.34 450.78L492.75 451.98L492.12 453.11L491.45 454.17L490.74 455.16L490 456.07L489.22 456.9L488.41 457.65L487.56 458.31L486.69 458.88L485.79 459.35L484.87 459.73L483.92 460L482.96 460.16L481.98 460.22L481.39 460.19L481.3 460.28L481.19 460.38L481.08 460.46L480.97 460.54L480.85 460.62L480.72 460.68L480.6 460.74L480.46 460.79L480.33 460.84L480.19 460.87L480.06 460.9L479.92 460.92L479.78 460.93L479.63 460.93L479.49 460.93L479.35 460.91L479.21 460.89L479.07 460.86L478.94 460.82L478.8 460.76L478.67 460.7L478.54 460.63L478.42 460.56L478.29 460.47L478.18 460.37L478.06 460.26L477.96 460.14L477.85 460.01L477.76 459.87L477.01 458.71L476.4 458.31L475.55 457.65L474.74 456.9L473.96 456.07L473.21 455.16L472.5 454.17L471.83 453.11L471.21 451.98L470.62 450.78L470.08 449.52L469.59 448.19L469.15 446.82L469.1 446.65L465.2 440.91L461.02 434.92L456.84 429.09L452.67 423.43L448.49 417.93L444.32 412.59L440.15 407.42L435.98 402.42L431.82 397.57L427.66 392.9L423.5 388.38L419.34 384.03L415.18 379.85L411.03 375.82L406.88 371.97L402.73 368.27L398.59 364.74L394.44 361.38L390.3 358.18L386.16 355.14L382.03 352.27L377.89 349.56L373.76 347.01L369.63 344.63L365.5 342.42L361.38 340.37L357.25 338.48L353.13 336.75L349.02 335.19L344.9 333.8L340.79 332.57L336.68 331.5L332.57 330.6L328.46 329.86L324.36 329.28L320.26 328.87L316.16 328.63L312.06 328.55L307.96 328.63L303.87 328.87L299.76 329.28L295.66 329.86L291.55 330.6L287.45 331.5L283.33 332.57L279.22 333.8L275.11 335.19L270.99 336.75L266.87 338.48L262.74 340.37L258.62 342.42L254.49 344.63L250.36 347.01L246.23 349.56L242.1 352.27L237.96 355.14L233.82 358.18L229.68 361.38L225.54 364.74L221.39 368.27L217.24 371.97L213.09 375.82L208.94 379.85L204.78 384.03L200.63 388.38L196.47 392.9L192.3 397.57L188.14 402.42L183.97 407.42L179.8 412.59L175.63 417.93L171.46 423.43L167.28 429.09L163.1 434.92L158.92 440.91L154.74 447.07L150.99 452.73L150.78 453.11L150.11 454.17L149.48 455.05L146.36 459.87L146.27 460.01L146.17 460.14L146.06 460.26L145.95 460.37L145.83 460.47L145.71 460.56L145.58 460.63L145.45 460.7L145.32 460.76L145.18 460.82L145.05 460.86L144.91 460.89L144.77 460.91L144.63 460.93L144.49 460.93L144.35 460.93L144.21 460.92L144.07 460.9L143.93 460.87L143.79 460.84L143.66 460.79L143.53 460.74L143.4 460.68L143.27 460.62L143.15 460.54L143.04 460.46L142.93 460.38L142.82 460.28L142.72 460.18L142.63 460.07L142.58 460L141.62 460.16L140.63 460.22L139.65 460.16L138.69 460L137.74 459.73L136.82 459.35L135.92 458.88L135.05 458.31L134.21 457.65L133.39 456.9L132.61 456.07L131.87 455.16L131.16 454.17L130.49 453.11L129.86 451.98L129.28 450.78L128.74 449.52L128.24 448.19L127.8 446.82L127.41 445.39L127.08 443.92L126.8 442.4L126.58 440.84L126.42 439.24L126.32 437.61L126.28 435.95L126.32 434.29L126.42 432.66L126.58 431.06L126.8 429.5L127.08 427.98L127.41 426.51L127.8 425.08L128.24 423.7L128.74 422.38L129.28 421.12L129.86 419.92L130.49 418.79L131.16 417.73L131.87 416.74L132.61 415.83L133.39 414.99L134.21 414.25L135.05 413.59L135.92 413.02L136.82 412.55L137.74 412.17L138.69 411.9L139.65 411.73L140.63 411.68L141.62 411.73L142.58 411.9L142.8 411.96L142.86 411.65L142.98 410.98L143.11 410.32L143.25 409.66L143.4 409L143.57 408.34L143.74 407.68L143.92 407.03L144.11 406.38L144.3 405.73L144.51 405.09L144.73 404.45L144.96 403.81L145.19 403.17L145.44 402.54L145.69 401.91L145.96 401.29L146.23 400.67L146.51 400.05L146.8 399.44L147.1 398.83L147.41 398.22L147.73 397.62L148.06 397.03L148.39 396.43L148.74 395.85L149.09 395.26L149.46 394.68L149.83 394.11L153.68 388.33L157.53 382.7L161.39 377.21L165.25 371.87L169.11 366.67L172.97 361.63L176.84 356.72L180.71 351.97L184.59 347.36L188.46 342.9L192.34 338.58L196.22 334.41L200.11 330.38L204 326.51L207.89 322.78L211.78 319.19L215.68 315.75L219.58 312.46L223.48 309.31L227.38 306.31L231.29 303.46L235.2 300.75L239.11 298.19L243.03 295.78L246.95 293.51L250.87 291.39L254.8 289.41L258.72 287.58L262.65 285.9L266.59 284.37L270.52 282.98L274.46 281.73L278.4 280.63L282.35 279.68L286.29 278.88L290.25 278.22L294.2 277.71L298.15 277.34L302.11 277.12L306.07 277.05L310.05 277.12L314.05 277.34Z" id="cR2qKOxkz"></path><linearGradient id="gradientcq0hWD04d" gradientUnits="userSpaceOnUse" x1="311.31" y1="277.05" x2="311.31" y2="460.93"><stop style="stop-color: #68fc96;stop-opacity: 1" offset="0%"></stop><stop style="stop-color: #1f7936;stop-opacity: 1" offset="100%"></stop></linearGradient><path d="M425.87 522C425.87 585.23 374.54 636.57 311.31 636.57C248.08 636.57 196.74 585.23 196.74 522C196.74 458.77 248.08 407.44 311.31 407.44C374.54 407.44 425.87 458.77 425.87 522Z" id="d2yiEGC4mX"></path><radialGradient id="gradienthk63IyKfr" gradientUnits="userSpaceOnUse" cx="275.54" cy="479.58" dx="275.54" dy="598.95" r="119.38"><stop style="stop-color: #68fc96;stop-opacity: 1" offset="0%"></stop><stop style="stop-color: #16682a;stop-opacity: 1" offset="100%"></stop></radialGradient><path d="M343.21 559.05C372.27 539.05 402.95 533.11 411.68 545.8C420.4 558.48 403.89 585.01 374.83 605C345.77 625 315.09 630.94 306.36 618.26C297.63 605.57 314.14 579.04 343.21 559.05Z" id="c1KdLQPoBI"></path><linearGradient id="gradientbga9LiS9J" gradientUnits="userSpaceOnUse" x1="373.96" y1="604.74" x2="351.8" y2="574.77"><stop style="stop-color: #48a264;stop-opacity: 1" offset="0%"></stop><stop style="stop-color: #1a6f2f;stop-opacity: 1" offset="100%"></stop></linearGradient></defs><g><g><g><g><filter id="shadow14166769" x="-36.21" y="-37.23" width="714.58" height="361.28" filterUnits="userSpaceOnUse" primitiveUnits="userSpaceOnUse"><feFlood></feFlood><feComposite in2="SourceAlpha" operator="in"></feComposite><feGaussianBlur stdDeviation="3.32"></feGaussianBlur><feOffset dx="12" dy="7" result="afterOffset"></feOffset><feFlood flood-color="#000000" flood-opacity="0.5"></feFlood><feComposite in2="afterOffset" operator="in"></feComposite><feMorphology operator="dilate" radius="1"></feMorphology><feComposite in2="SourceAlpha" operator="out"></feComposite></filter><path d="M324.11 3.26L331.21 3.86L338.32 4.71L345.44 5.81L352.58 7.14L359.73 8.72L366.89 10.54L374.07 12.61L381.26 14.92L388.46 17.47L395.67 20.26L402.89 23.3L410.13 26.58L417.38 30.1L424.65 33.87L431.92 37.87L439.21 42.12L446.51 46.62L453.82 51.36L461.15 56.34L468.49 61.56L475.84 67.03L483.21 72.73L490.58 78.69L497.97 84.88L505.37 91.32L512.79 98L520.22 104.92L527.65 112.09L535.11 119.5L542.57 127.15L550.05 135.05L557.54 143.19L565.04 151.57L572.56 160.19L580.09 169.06L587.63 178.17L595.18 187.52L602.75 197.12L603.48 198.08L604.2 199.05L604.9 200.03L605.59 201.03L606.25 202.03L606.9 203.04L607.54 204.06L608.15 205.1L608.75 206.14L609.33 207.19L609.89 208.24L610.43 209.31L610.96 210.39L611.47 211.47L611.95 212.56L612.43 213.66L612.88 214.77L613.31 215.88L613.54 216.49L613.69 216.52L614.51 216.77L615.31 217.12L616.09 217.56L616.86 218.09L617.6 218.7L618.33 219.4L619.03 220.19L619.71 221.05L620.37 221.98L620.99 222.99L621.59 224.07L622.17 225.21L622.71 226.42L623.22 227.69L623.69 229.02L624.14 230.41L624.54 231.84L624.91 233.33L625.24 234.87L625.53 236.44L625.78 238.06L625.99 239.72L626.16 241.42L626.27 243.14L626.35 244.9L626.37 246.68L626.35 248.47L626.27 250.22L626.16 251.95L625.99 253.64L625.78 255.3L625.53 256.92L625.24 258.5L624.91 260.03L624.54 261.52L624.14 262.96L623.69 264.34L623.22 265.67L622.71 266.94L622.17 268.15L621.59 269.3L620.99 270.37L620.37 271.38L619.71 272.32L619.03 273.18L618.33 273.96L617.6 274.66L616.86 275.28L616.09 275.81L615.31 276.25L614.51 276.59L613.69 276.84L612.86 277L612.02 277.05L611.18 277L610.35 276.84L609.53 276.59L608.73 276.25L607.95 275.81L607.18 275.28L607.01 275.13L606.87 275.07L606.42 274.85L605.98 274.6L605.55 274.32L605.14 274L604.74 273.65L604.36 273.26L603.99 272.84L603.65 272.38L596.05 261.8L588.47 251.48L580.9 241.43L573.35 231.65L565.8 222.14L558.27 212.89L550.76 203.91L543.25 195.2L535.76 186.76L528.28 178.59L520.82 170.68L513.36 163.05L505.92 155.68L498.5 148.58L491.08 141.74L483.68 135.18L476.29 128.88L468.92 122.85L461.56 117.09L454.21 111.59L446.87 106.37L439.55 101.41L432.24 96.72L424.94 92.3L417.66 88.14L410.39 84.26L403.13 80.64L395.88 77.29L388.65 74.21L381.43 71.4L374.22 68.85L367.03 66.57L359.85 64.56L352.68 62.82L345.53 61.35L338.38 60.14L331.26 59.2L324.14 58.53L317.04 58.13L309.95 58L302.87 58.13L295.8 58.53L288.72 59.2L281.65 60.14L274.57 61.34L267.49 62.81L260.41 64.55L253.33 66.56L246.25 68.83L239.17 71.37L232.08 74.18L225 77.25L217.91 80.6L210.82 84.21L203.74 88.09L196.65 92.23L189.56 96.64L182.47 101.32L175.37 106.27L168.28 111.49L161.19 116.97L154.09 122.72L147 128.74L139.9 135.02L132.8 141.58L125.7 148.4L118.6 155.48L111.5 162.84L104.4 170.46L97.29 178.35L90.19 186.51L83.08 194.93L75.98 203.63L68.87 212.59L61.76 221.81L54.65 231.31L47.54 241.07L40.43 251.1L33.32 261.4L26.2 271.96L25.88 272.41L25.54 272.82L25.19 273.21L24.83 273.54L24.45 273.96L23.72 274.66L22.98 275.28L22.21 275.81L21.43 276.25L20.63 276.59L19.81 276.84L18.98 277L18.14 277.05L17.3 277L16.47 276.84L15.65 276.59L14.85 276.25L14.07 275.81L13.3 275.28L12.56 274.66L11.83 273.96L11.13 273.18L10.45 272.32L9.8 271.38L9.17 270.37L8.57 269.3L8 268.15L7.46 266.94L6.95 265.67L6.47 264.34L6.03 262.96L5.62 261.52L5.25 260.03L4.92 258.5L4.63 256.92L4.38 255.3L4.17 253.64L4.01 251.95L3.89 250.22L3.82 248.47L3.79 246.68L3.82 244.9L3.89 243.14L4.01 241.42L4.17 239.72L4.38 238.06L4.63 236.44L4.92 234.87L5.25 233.33L5.62 231.84L6.03 230.41L6.47 229.02L6.95 227.69L7.46 226.42L8 225.21L8.57 224.07L9.17 222.99L9.8 221.98L10.45 221.05L11.13 220.19L11.83 219.4L12.56 218.7L13.3 218.09L14.07 217.56L14.85 217.12L15.65 216.77L16.47 216.52L16.69 216.48L16.95 215.74L17.37 214.61L17.8 213.49L18.26 212.38L18.73 211.28L19.21 210.18L19.72 209.09L20.24 208.01L20.78 206.93L21.34 205.86L21.91 204.81L22.5 203.75L23.11 202.71L23.73 201.68L24.37 200.66L25.03 199.64L25.71 198.64L26.4 197.64L27.11 196.66L34.19 187.08L41.28 177.75L48.36 168.66L55.45 159.82L62.53 151.21L69.61 142.85L76.69 134.73L83.77 126.86L90.85 119.22L97.93 111.83L105.01 104.68L112.09 97.77L119.16 91.11L126.24 84.69L133.31 78.51L140.39 72.57L147.46 66.87L154.53 61.42L161.61 56.21L168.68 51.24L175.75 46.52L182.82 42.03L189.89 37.79L196.96 33.79L204.02 30.03L211.09 26.52L218.16 23.25L225.22 20.22L232.29 17.43L239.35 14.89L246.41 12.58L253.47 10.52L260.54 8.71L267.6 7.13L274.66 5.8L281.72 4.71L288.78 3.86L295.83 3.25L302.89 2.89L309.95 2.77L317.02 2.89L324.11 3.26Z" id="a1eZWDyMf" fill="white" fill-opacity="1" filter="url(#shadow14166769)"></path></g><use xlink:href="#a1wA88wnVX" opacity="1" fill="url(#gradientc1bft2Lobo)"></use></g><g><g><filter id="shadow5146948" x="21.34" y="91.37" width="599.49" height="323.72" filterUnits="userSpaceOnUse" primitiveUnits="userSpaceOnUse"><feFlood></feFlood><feComposite in2="SourceAlpha" operator="in"></feComposite><feGaussianBlur stdDeviation="3.32"></feGaussianBlur><feOffset dx="12" dy="7" result="afterOffset"></feOffset><feFlood flood-color="#000000" flood-opacity="0.5"></feFlood><feComposite in2="afterOffset" operator="in"></feComposite><feMorphology operator="dilate" radius="1"></feMorphology><feComposite in2="SourceAlpha" operator="out"></feComposite></filter><path d="M319.9 131.77L325.57 132.26L331.25 132.96L336.94 133.85L342.64 134.94L348.35 136.23L354.07 137.72L359.8 139.41L365.53 141.29L371.28 143.37L377.04 145.65L382.81 148.13L388.59 150.81L394.38 153.69L400.18 156.76L405.99 160.04L411.81 163.51L417.64 167.18L423.48 171.04L429.33 175.11L435.2 179.38L441.07 183.84L446.95 188.5L452.84 193.36L458.74 198.42L464.65 203.68L470.57 209.13L476.5 214.78L482.45 220.63L488.4 226.69L494.36 232.93L500.33 239.38L506.31 246.03L512.31 252.87L518.31 259.91L524.32 267.15L530.34 274.59L536.38 282.23L542.42 290.06L543 290.84L543.57 291.62L544.12 292.41L544.66 293.21L545.18 294.01L545.7 294.83L546.19 295.65L546.68 296.48L547.15 297.31L547.6 298.15L548.05 299L548.47 299.86L548.89 300.72L549.29 301.59L549.67 302.47L550.04 303.35L550.4 304.23L550.74 305.12L551.07 306.02L551.38 306.92L551.68 307.83L551.96 308.74L552.23 309.66L552.49 310.58L552.72 311.5L552.95 312.43L553.02 312.76L553.6 312.66L554.48 312.61L555.35 312.66L556.21 312.81L557.05 313.05L557.88 313.39L558.69 313.82L559.48 314.34L560.25 314.95L561 315.63L561.72 316.4L562.41 317.24L563.08 318.15L563.72 319.13L564.33 320.19L564.91 321.3L565.45 322.48L565.96 323.72L566.43 325.01L566.87 326.35L567.26 327.75L567.61 329.19L567.93 330.67L568.2 332.2L568.42 333.77L568.59 335.37L568.72 337L568.8 338.66L568.83 340.35L568.8 342.04L568.72 343.7L568.59 345.34L568.42 346.94L568.2 348.5L567.93 350.03L567.61 351.51L567.26 352.96L566.87 354.35L566.43 355.7L565.96 356.99L565.45 358.22L564.91 359.4L564.33 360.52L563.72 361.57L563.08 362.55L562.41 363.47L561.72 364.31L561 365.07L560.25 365.76L559.48 366.36L558.69 366.88L557.88 367.31L557.05 367.65L556.21 367.9L555.35 368.05L554.48 368.1L553.6 368.05L552.74 367.9L551.9 367.65L551.07 367.31L550.26 366.88L549.47 366.36L548.7 365.76L547.96 365.07L547.24 364.31L546.87 363.87L546.72 363.78L546.45 363.6L546.18 363.4L545.93 363.17L545.68 362.93L545.45 362.66L545.22 362.37L539.12 353.97L533.04 345.79L526.96 337.82L520.89 330.06L514.83 322.52L508.77 315.19L502.73 308.07L496.7 301.16L490.68 294.46L484.66 287.98L478.66 281.71L472.66 275.66L466.68 269.81L460.7 264.18L454.74 258.76L448.78 253.55L442.83 248.56L436.89 243.78L430.96 239.21L425.04 234.85L419.13 230.71L413.23 226.77L407.34 223.05L401.45 219.55L395.58 216.25L389.71 213.17L383.86 210.3L378.01 207.65L372.18 205.2L366.35 202.97L360.53 200.95L354.73 199.14L348.93 197.55L343.14 196.17L337.36 195L331.59 194.04L325.83 193.3L320.07 192.77L314.33 192.45L308.6 192.34L302.88 192.45L297.16 192.77L291.43 193.3L285.71 194.04L279.99 195L274.27 196.16L268.56 197.54L262.84 199.13L257.12 200.94L251.4 202.95L245.68 205.18L239.96 207.62L234.25 210.27L228.53 213.14L222.81 216.21L217.1 219.5L211.38 223L205.67 226.72L199.95 230.64L194.24 234.78L188.52 239.13L182.81 243.69L177.09 248.47L171.38 253.45L165.67 258.65L159.95 264.06L154.24 269.68L148.53 275.52L142.82 281.57L137.11 287.83L131.4 294.3L125.68 300.98L119.97 307.88L114.26 314.99L108.55 322.31L102.85 329.84L97.14 337.58L91.43 345.54L86.78 352.19L86.66 352.49L86.12 353.67L85.54 354.78L84.93 355.83L84.29 356.82L83.62 357.73L82.93 358.57L82.21 359.34L81.46 360.02L81.38 360.09L80.01 362.09L79.81 362.38L79.59 362.64L79.36 362.89L79.12 363.11L78.87 363.31L78.61 363.49L78.34 363.65L78.07 363.79L77.79 363.91L77.5 364.01L77.21 364.1L76.92 364.16L76.63 364.2L76.33 364.23L76.04 364.24L75.74 364.23L75.45 364.2L75.16 364.16L74.87 364.1L74.58 364.02L74.3 363.92L74.03 363.81L73.76 363.69L73.51 363.55L73.25 363.39L73.01 363.22L72.78 363.03L72.56 362.83L72.36 362.61L72.16 362.39L71.99 362.14L71.82 361.89L71.67 361.62L71.54 361.33L71.47 361.14L70.68 360.63L69.91 360.02L69.17 359.34L68.45 358.57L67.75 357.73L67.08 356.82L66.44 355.83L65.84 354.78L65.26 353.67L64.71 352.49L64.21 351.25L63.73 349.96L63.3 348.62L62.9 347.22L62.55 345.78L62.24 344.29L61.97 342.77L61.75 341.2L61.57 339.6L61.44 337.97L61.36 336.31L61.34 334.62L61.36 332.93L61.44 331.27L61.57 329.63L61.75 328.03L61.97 326.47L62.24 324.94L62.55 323.45L62.9 322.01L63.3 320.62L63.73 319.27L64.21 317.98L64.71 316.75L65.26 315.57L65.84 314.45L66.44 313.4L67.08 312.42L67.75 311.5L68.45 310.66L69.17 309.9L69.91 309.21L70.68 308.61L71.47 308.09L72.28 307.66L73.11 307.32L73.95 307.07L74.05 307.06L74.12 306.83L74.42 305.92L74.73 305.01L75.06 304.11L75.4 303.22L75.76 302.32L76.13 301.44L76.51 300.56L76.91 299.69L77.32 298.82L77.74 297.96L78.18 297.1L78.63 296.25L79.1 295.41L79.57 294.57L80.07 293.74L80.57 292.92L81.09 292.1L81.62 291.29L82.16 290.49L82.72 289.7L88.38 281.88L94.04 274.26L99.7 266.84L105.36 259.62L111.01 252.59L116.67 245.76L122.33 239.13L127.98 232.7L133.64 226.47L139.29 220.43L144.94 214.59L150.6 208.95L156.25 203.51L161.9 198.27L167.55 193.22L173.2 188.37L178.85 183.72L184.5 179.27L190.14 175.01L195.79 170.95L201.44 167.09L207.08 163.43L212.73 159.97L218.37 156.7L224.02 153.64L229.66 150.77L235.3 148.1L240.95 145.62L246.59 143.35L252.23 141.27L257.87 139.39L263.51 137.71L269.15 136.22L274.78 134.93L280.42 133.85L286.06 132.96L291.69 132.26L297.33 131.77L302.96 131.47L308.6 131.37L314.25 131.47L319.9 131.77Z" id="bIz6nq1Z8" fill="white" fill-opacity="1" filter="url(#shadow5146948)"></path></g><use xlink:href="#gIxanTbOA" opacity="1" fill="url(#gradientg2IEySSkjs)"></use></g><g><g><filter id="shadow8443636" x="86.28" y="237.05" width="462.04" height="270.88" filterUnits="userSpaceOnUse" primitiveUnits="userSpaceOnUse"><feFlood></feFlood><feComposite in2="SourceAlpha" operator="in"></feComposite><feGaussianBlur stdDeviation="3.32"></feGaussianBlur><feOffset dx="12" dy="7" result="afterOffset"></feOffset><feFlood flood-color="#000000" flood-opacity="0.5"></feFlood><feComposite in2="afterOffset" operator="in"></feComposite><feMorphology operator="dilate" radius="1"></feMorphology><feComposite in2="SourceAlpha" operator="out"></feComposite></filter><path d="M314.05 277.34L318.05 277.71L322.06 278.22L326.08 278.89L330.12 279.69L334.16 280.65L338.22 281.75L342.28 283L346.36 284.4L350.45 285.94L354.55 287.63L358.65 289.47L362.77 291.45L366.9 293.58L371.04 295.86L375.19 298.28L379.35 300.85L383.53 303.57L387.71 306.44L391.9 309.45L396.11 312.61L400.32 315.91L404.55 319.37L408.78 322.97L413.03 326.71L417.29 330.61L421.55 334.65L425.83 338.84L430.12 343.17L434.42 347.65L438.73 352.28L443.05 357.06L447.38 361.98L451.73 367.05L456.08 372.26L460.44 377.63L464.82 383.14L469.2 388.8L473.6 394.6L474 395.15L474.39 395.7L474.78 396.26L475.15 396.82L475.52 397.39L475.88 397.97L476.22 398.55L476.56 399.14L476.89 399.73L477.2 400.32L477.51 400.92L477.81 401.53L478.09 402.13L478.37 402.75L478.64 403.36L478.9 403.99L479.15 404.61L479.38 405.24L479.61 405.87L479.83 406.51L480.04 407.15L480.23 407.79L480.42 408.44L480.6 409.08L480.76 409.74L480.92 410.39L481.06 411.05L481.2 411.71L481.2 411.72L481.98 411.68L482.96 411.73L483.92 411.9L484.87 412.17L485.79 412.55L486.69 413.02L487.56 413.59L488.41 414.25L489.22 414.99L490 415.83L490.74 416.74L491.45 417.73L492.12 418.79L492.75 419.92L493.34 421.12L493.88 422.38L494.37 423.7L494.81 425.08L495.2 426.51L495.53 427.98L495.81 429.5L496.04 431.06L496.2 432.66L496.29 434.29L496.33 435.95L496.29 437.61L496.2 439.24L496.04 440.84L495.81 442.4L495.53 443.92L495.2 445.39L494.81 446.82L494.37 448.19L493.88 449.52L493.34 450.78L492.75 451.98L492.12 453.11L491.45 454.17L490.74 455.16L490 456.07L489.22 456.9L488.41 457.65L487.56 458.31L486.69 458.88L485.79 459.35L484.87 459.73L483.92 460L482.96 460.16L481.98 460.22L481.39 460.19L481.3 460.28L481.19 460.38L481.08 460.46L480.97 460.54L480.85 460.62L480.72 460.68L480.6 460.74L480.46 460.79L480.33 460.84L480.19 460.87L480.06 460.9L479.92 460.92L479.78 460.93L479.63 460.93L479.49 460.93L479.35 460.91L479.21 460.89L479.07 460.86L478.94 460.82L478.8 460.76L478.67 460.7L478.54 460.63L478.42 460.56L478.29 460.47L478.18 460.37L478.06 460.26L477.96 460.14L477.85 460.01L477.76 459.87L477.01 458.71L476.4 458.31L475.55 457.65L474.74 456.9L473.96 456.07L473.21 455.16L472.5 454.17L471.83 453.11L471.21 451.98L470.62 450.78L470.08 449.52L469.59 448.19L469.15 446.82L469.1 446.65L465.2 440.91L461.02 434.92L456.84 429.09L452.67 423.43L448.49 417.93L444.32 412.59L440.15 407.42L435.98 402.42L431.82 397.57L427.66 392.9L423.5 388.38L419.34 384.03L415.18 379.85L411.03 375.82L406.88 371.97L402.73 368.27L398.59 364.74L394.44 361.38L390.3 358.18L386.16 355.14L382.03 352.27L377.89 349.56L373.76 347.01L369.63 344.63L365.5 342.42L361.38 340.37L357.25 338.48L353.13 336.75L349.02 335.19L344.9 333.8L340.79 332.57L336.68 331.5L332.57 330.6L328.46 329.86L324.36 329.28L320.26 328.87L316.16 328.63L312.06 328.55L307.96 328.63L303.87 328.87L299.76 329.28L295.66 329.86L291.55 330.6L287.45 331.5L283.33 332.57L279.22 333.8L275.11 335.19L270.99 336.75L266.87 338.48L262.74 340.37L258.62 342.42L254.49 344.63L250.36 347.01L246.23 349.56L242.1 352.27L237.96 355.14L233.82 358.18L229.68 361.38L225.54 364.74L221.39 368.27L217.24 371.97L213.09 375.82L208.94 379.85L204.78 384.03L200.63 388.38L196.47 392.9L192.3 397.57L188.14 402.42L183.97 407.42L179.8 412.59L175.63 417.93L171.46 423.43L167.28 429.09L163.1 434.92L158.92 440.91L154.74 447.07L150.99 452.73L150.78 453.11L150.11 454.17L149.48 455.05L146.36 459.87L146.27 460.01L146.17 460.14L146.06 460.26L145.95 460.37L145.83 460.47L145.71 460.56L145.58 460.63L145.45 460.7L145.32 460.76L145.18 460.82L145.05 460.86L144.91 460.89L144.77 460.91L144.63 460.93L144.49 460.93L144.35 460.93L144.21 460.92L144.07 460.9L143.93 460.87L143.79 460.84L143.66 460.79L143.53 460.74L143.4 460.68L143.27 460.62L143.15 460.54L143.04 460.46L142.93 460.38L142.82 460.28L142.72 460.18L142.63 460.07L142.58 460L141.62 460.16L140.63 460.22L139.65 460.16L138.69 460L137.74 459.73L136.82 459.35L135.92 458.88L135.05 458.31L134.21 457.65L133.39 456.9L132.61 456.07L131.87 455.16L131.16 454.17L130.49 453.11L129.86 451.98L129.28 450.78L128.74 449.52L128.24 448.19L127.8 446.82L127.41 445.39L127.08 443.92L126.8 442.4L126.58 440.84L126.42 439.24L126.32 437.61L126.28 435.95L126.32 434.29L126.42 432.66L126.58 431.06L126.8 429.5L127.08 427.98L127.41 426.51L127.8 425.08L128.24 423.7L128.74 422.38L129.28 421.12L129.86 419.92L130.49 418.79L131.16 417.73L131.87 416.74L132.61 415.83L133.39 414.99L134.21 414.25L135.05 413.59L135.92 413.02L136.82 412.55L137.74 412.17L138.69 411.9L139.65 411.73L140.63 411.68L141.62 411.73L142.58 411.9L142.8 411.96L142.86 411.65L142.98 410.98L143.11 410.32L143.25 409.66L143.4 409L143.57 408.34L143.74 407.68L143.92 407.03L144.11 406.38L144.3 405.73L144.51 405.09L144.73 404.45L144.96 403.81L145.19 403.17L145.44 402.54L145.69 401.91L145.96 401.29L146.23 400.67L146.51 400.05L146.8 399.44L147.1 398.83L147.41 398.22L147.73 397.62L148.06 397.03L148.39 396.43L148.74 395.85L149.09 395.26L149.46 394.68L149.83 394.11L153.68 388.33L157.53 382.7L161.39 377.21L165.25 371.87L169.11 366.67L172.97 361.63L176.84 356.72L180.71 351.97L184.59 347.36L188.46 342.9L192.34 338.58L196.22 334.41L200.11 330.38L204 326.51L207.89 322.78L211.78 319.19L215.68 315.75L219.58 312.46L223.48 309.31L227.38 306.31L231.29 303.46L235.2 300.75L239.11 298.19L243.03 295.78L246.95 293.51L250.87 291.39L254.8 289.41L258.72 287.58L262.65 285.9L266.59 284.37L270.52 282.98L274.46 281.73L278.4 280.63L282.35 279.68L286.29 278.88L290.25 278.22L294.2 277.71L298.15 277.34L302.11 277.12L306.07 277.05L310.05 277.12L314.05 277.34Z" id="cp3SnpBpB" fill="white" fill-opacity="1" filter="url(#shadow8443636)"></path></g><use xlink:href="#cR2qKOxkz" opacity="1" fill="url(#gradientcq0hWD04d)"></use></g><g><g><filter id="shadow2302175" x="156.74" y="367.44" width="321.13" height="316.13" filterUnits="userSpaceOnUse" primitiveUnits="userSpaceOnUse"><feFlood></feFlood><feComposite in2="SourceAlpha" operator="in"></feComposite><feGaussianBlur stdDeviation="3.32"></feGaussianBlur><feOffset dx="12" dy="7" result="afterOffset"></feOffset><feFlood flood-color="#000000" flood-opacity="0.5"></feFlood><feComposite in2="afterOffset" operator="in"></feComposite><feMorphology operator="dilate" radius="1"></feMorphology><feComposite in2="SourceAlpha" operator="out"></feComposite></filter><path d="M425.87 522C425.87 585.23 374.54 636.57 311.31 636.57C248.08 636.57 196.74 585.23 196.74 522C196.74 458.77 248.08 407.44 311.31 407.44C374.54 407.44 425.87 458.77 425.87 522Z" id="eG2pl6FYj" fill="white" fill-opacity="1" filter="url(#shadow2302175)"></path></g><use xlink:href="#d2yiEGC4mX" opacity="1" fill="url(#gradienthk63IyKfr)"></use></g><g><use xlink:href="#c1KdLQPoBI" opacity="1" fill="url(#gradientbga9LiS9J)"></use></g></g></g></svg>