<?xml version="1.0" encoding="UTF-8" standalone="no"?>
<!DOCTYPE svg PUBLIC "-//W3C//DTD SVG 1.1//EN" "http://www.w3.org/Graphics/SVG/1.1/DTD/svg11.dtd">
<svg version="1.1" xmlns="http://www.w3.org/2000/svg" xmlns:xlink="http://www.w3.org/1999/xlink" preserveAspectRatio="xMidYMid meet" viewBox="0 0 640 640" width="640" height="640"><defs><path d="M323.99 80.08L331.03 80.47L338.09 81.01L345.15 81.71L352.22 82.57L359.3 83.58L366.39 84.75L373.5 86.07L380.61 87.55L387.74 89.18L394.87 90.97L402.02 92.92L409.17 95.02L416.34 97.27L423.52 99.69L430.71 102.25L437.9 104.98L445.11 107.85L452.33 110.89L459.56 114.08L466.81 117.42L474.06 120.92L481.32 124.58L488.59 128.39L495.88 132.36L503.17 136.48L510.47 140.76L517.79 145.2L525.11 149.79L532.45 154.53L539.8 159.43L547.15 164.49L554.52 169.7L561.9 175.07L569.29 180.59L576.69 186.27L584.1 192.11L591.52 198.1L598.95 204.24L599.85 205.01L600.73 205.8L601.59 206.6L602.43 207.42L603.25 208.26L604.05 209.12L604.83 209.99L605.59 210.87L606.33 211.77L607.05 212.69L607.75 213.62L608.42 214.56L609.08 215.52L609.71 216.49L610.32 217.48L610.91 218.47L611.48 219.48L611.73 219.95L612.02 219.93L613.14 219.99L614.24 220.17L615.31 220.46L616.35 220.86L617.36 221.36L618.33 221.96L619.26 222.66L620.15 223.44L620.99 224.31L621.79 225.27L622.53 226.3L623.22 227.4L623.84 228.57L624.41 229.81L624.91 231.1L625.34 232.45L625.7 233.85L625.99 235.3L626.2 236.78L626.33 238.31L626.37 239.86L626.33 241.42L626.2 242.95L625.99 244.43L625.7 245.88L625.34 247.28L624.91 248.63L624.41 249.92L623.84 251.16L623.22 252.33L622.53 253.43L621.79 254.46L620.99 255.42L620.15 256.29L619.26 257.07L618.33 257.77L617.36 258.37L616.35 258.87L615.31 259.27L614.24 259.56L613.14 259.74L612.02 259.8L610.9 259.74L609.8 259.56L608.73 259.27L607.69 258.87L606.69 258.37L605.71 257.77L604.78 257.07L603.89 256.29L603.05 255.42L602.96 255.3L602.52 255.11L601.93 254.81L601.36 254.48L600.8 254.1L600.25 253.68L599.71 253.22L592.25 246.44L584.8 239.84L577.37 233.41L569.94 227.15L562.53 221.06L555.12 215.14L547.73 209.4L540.34 203.82L532.97 198.42L525.61 193.19L518.26 188.13L510.93 183.25L503.6 178.53L496.28 173.98L488.98 169.61L481.68 165.41L474.4 161.38L467.13 157.52L459.87 153.83L452.62 150.32L445.38 146.97L438.15 143.8L430.94 140.8L423.73 137.97L416.54 135.31L409.35 132.83L402.18 130.51L395.02 128.37L387.87 126.39L380.73 124.59L373.6 122.96L366.48 121.51L359.38 120.22L352.28 119.11L345.2 118.16L338.13 117.39L331.07 116.79L324.01 116.36L316.98 116.1L309.95 116.02L302.94 116.1L295.93 116.36L288.93 116.79L281.92 117.39L274.92 118.15L267.91 119.09L260.91 120.2L253.91 121.48L246.91 122.94L239.91 124.56L232.91 126.35L225.91 128.32L218.91 130.45L211.91 132.76L204.91 135.23L197.92 137.88L190.92 140.7L183.92 143.69L176.93 146.85L169.94 150.18L162.94 153.68L155.95 157.35L148.96 161.19L141.97 165.2L134.98 169.39L127.99 173.74L121 178.27L114.01 182.97L107.02 187.83L100.04 192.87L93.05 198.08L86.07 203.46L79.08 209.01L72.1 214.73L65.12 220.62L58.13 226.69L51.15 232.92L44.17 239.32L37.19 245.9L30.21 252.65L29.71 253.11L29.18 253.54L28.65 253.92L28.1 254.26L28.02 254.31L27.91 254.46L27.11 255.42L26.27 256.29L25.38 257.07L24.45 257.77L23.48 258.37L22.47 258.87L21.43 259.27L20.36 259.56L19.26 259.74L18.14 259.8L17.02 259.74L15.92 259.56L14.85 259.27L13.81 258.87L12.81 258.37L11.83 257.77L10.9 257.07L10.01 256.29L9.17 255.42L8.38 254.46L7.63 253.43L6.95 252.33L6.32 251.16L5.75 249.92L5.25 248.63L4.82 247.28L4.46 245.88L4.17 244.43L3.96 242.95L3.84 241.42L3.79 239.86L3.84 238.31L3.96 236.78L4.17 235.3L4.46 233.85L4.82 232.45L5.25 231.1L5.75 229.81L6.32 228.57L6.95 227.4L7.63 226.3L8.38 225.27L9.17 224.31L10.01 223.44L10.9 222.66L11.83 221.96L12.81 221.36L13.81 220.86L14.85 220.46L15.92 220.17L17.02 219.99L18.14 219.93L18.45 219.95L18.79 219.28L19.34 218.25L19.92 217.24L20.51 216.24L21.13 215.25L21.77 214.27L22.43 213.31L23.11 212.36L23.81 211.42L24.53 210.5L25.27 209.59L26.03 208.69L26.81 207.82L27.61 206.95L28.43 206.1L29.27 205.27L30.13 204.45L31.01 203.65L37.96 197.54L44.91 191.57L51.86 185.77L58.81 180.12L65.77 174.62L72.73 169.28L79.68 164.09L86.64 159.06L93.6 154.18L100.56 149.45L107.52 144.89L114.49 140.47L121.45 136.21L128.42 132.11L135.39 128.16L142.35 124.37L149.32 120.73L156.29 117.24L163.27 113.92L170.24 110.74L177.21 107.72L184.19 104.86L191.16 102.15L198.14 99.59L205.12 97.19L212.1 94.95L219.08 92.86L226.06 90.92L233.05 89.14L240.03 87.51L247.02 86.04L254.01 84.73L260.99 83.56L267.98 82.56L274.97 81.71L281.97 81.01L288.96 80.47L295.95 80.08L302.95 79.85L309.95 79.77L316.97 79.85L323.99 80.08Z" id="aF0qNY1xc"></path><linearGradient id="gradientba5dAVV4z" gradientUnits="userSpaceOnUse" x1="315.08" y1="79.77" x2="315.08" y2="259.8"><stop style="stop-color: #65f792;stop-opacity: 1" offset="0%"></stop><stop style="stop-color: #4a8d5b;stop-opacity: 1" offset="100%"></stop></linearGradient><path d="M322.85 183.36L328.48 183.71L334.11 184.2L339.76 184.83L345.42 185.59L351.08 186.5L356.75 187.55L362.43 188.74L368.13 190.07L373.83 191.53L379.53 193.14L385.25 194.88L390.98 196.77L396.71 198.8L402.46 200.96L408.21 203.27L413.97 205.71L419.74 208.3L425.52 211.02L431.31 213.88L437.11 216.89L442.92 220.03L448.73 223.31L454.55 226.74L460.39 230.3L466.23 234L472.08 237.84L477.94 241.82L483.81 245.95L489.69 250.21L495.57 254.61L501.47 259.15L507.37 263.83L513.29 268.65L519.21 273.61L525.14 278.71L531.08 283.94L537.03 289.32L542.99 294.84L543.67 295.5L544.35 296.17L545 296.85L545.64 297.55L546.27 298.25L546.88 298.97L547.47 299.7L548.05 300.44L548.61 301.19L549.16 301.95L549.69 302.72L550.2 303.5L550.7 304.29L551.18 305.09L551.65 305.9L552.09 306.72L552.52 307.55L552.94 308.39L553.33 309.23L553.71 310.08L554.08 310.94L554.42 311.81L554.75 312.68L555.06 313.56L555.06 313.57L555.28 313.51L556.38 313.33L557.5 313.27L558.62 313.33L559.72 313.51L560.79 313.8L561.83 314.2L562.83 314.7L563.81 315.3L564.74 316L565.63 316.78L566.47 317.66L567.26 318.61L568.01 319.64L568.69 320.74L569.32 321.91L569.89 323.15L570.39 324.44L570.82 325.79L571.18 327.19L571.47 328.64L571.68 330.13L571.8 331.65L571.85 333.21L571.8 334.76L571.68 336.29L571.47 337.77L571.18 339.22L570.82 340.62L570.39 341.97L569.89 343.26L569.32 344.5L568.69 345.67L568.01 346.77L567.26 347.8L566.47 348.76L565.63 349.63L564.74 350.41L563.81 351.11L562.83 351.71L561.83 352.21L560.79 352.61L559.72 352.9L558.62 353.08L557.5 353.14L556.38 353.08L555.28 352.9L554.21 352.61L553.17 352.21L552.16 351.71L551.19 351.11L550.26 350.41L549.37 349.63L548.53 348.76L548.3 348.49L548.29 348.48L547.93 348.31L547.58 348.12L547.23 347.9L546.9 347.65L546.57 347.38L546.25 347.08L540.22 341.15L534.2 335.36L528.19 329.73L522.18 324.25L516.19 318.91L510.2 313.73L504.22 308.69L498.25 303.81L492.29 299.08L486.33 294.5L480.39 290.06L474.45 285.78L468.52 281.65L462.6 277.67L456.69 273.84L450.78 270.15L444.89 266.62L439 263.24L433.12 260.01L427.25 256.93L421.39 254L415.54 251.22L409.69 248.59L403.86 246.11L398.03 243.78L392.21 241.61L386.4 239.58L380.6 237.7L374.8 235.97L369.02 234.39L363.24 232.97L357.47 231.69L351.71 230.56L345.96 229.59L340.21 228.76L334.48 228.08L328.75 227.56L323.03 227.18L317.32 226.96L311.62 226.88L305.93 226.96L300.24 227.18L294.56 227.56L288.88 228.08L283.19 228.75L277.51 229.58L271.83 230.55L266.15 231.67L260.47 232.95L254.8 234.37L249.12 235.94L243.45 237.67L237.77 239.54L232.1 241.56L226.43 243.73L220.76 246.06L215.09 248.53L209.43 251.15L203.76 253.92L198.1 256.84L192.43 259.91L186.77 263.13L181.11 266.51L175.45 270.03L169.79 273.7L164.13 277.52L158.48 281.49L152.82 285.61L147.17 289.88L141.51 294.29L135.86 298.86L130.21 303.58L124.56 308.45L118.92 313.47L113.27 318.64L107.62 323.96L101.98 329.42L96.34 335.04L90.69 340.81L89.74 341.81L89.22 342.65L88.47 343.68L87.68 344.64L86.84 345.51L85.95 346.3L85.02 346.99L84.16 347.52L84.13 347.55L83.8 347.77L83.46 347.97L83.12 348.14L82.78 348.29L82.42 348.42L82.07 348.52L81.71 348.61L81.38 348.66L80.93 348.78L79.83 348.96L78.71 349.02L77.59 348.96L76.49 348.78L75.42 348.49L74.38 348.09L73.37 347.59L72.4 346.99L71.47 346.3L70.58 345.51L69.74 344.64L68.94 343.68L68.2 342.65L67.51 341.55L66.89 340.38L66.32 339.14L65.82 337.85L65.39 336.5L65.02 335.1L64.74 333.66L64.53 332.17L64.4 330.64L64.36 329.09L64.4 327.53L64.53 326.01L64.74 324.52L65.02 323.07L65.39 321.67L65.82 320.32L66.32 319.03L66.89 317.8L67.51 316.62L68.2 315.52L68.94 314.49L69.74 313.54L70.58 312.66L71.47 311.88L72.4 311.18L73.37 310.58L74.38 310.08L75.42 309.68L76.49 309.39L77.59 309.22L78.16 309.19L78.2 309.1L78.59 308.24L78.99 307.39L79.4 306.56L79.84 305.72L80.29 304.9L80.75 304.09L81.24 303.28L81.74 302.48L82.25 301.7L82.78 300.92L83.33 300.15L83.89 299.39L84.47 298.65L85.06 297.91L85.67 297.18L86.29 296.47L86.93 295.76L87.58 295.07L88.25 294.39L93.82 288.89L99.4 283.54L104.98 278.32L110.55 273.24L116.13 268.3L121.71 263.5L127.28 258.84L132.86 254.32L138.44 249.94L144.02 245.69L149.6 241.59L155.18 237.62L160.76 233.8L166.34 230.11L171.92 226.56L177.5 223.15L183.09 219.88L188.67 216.75L194.25 213.76L199.84 210.91L205.42 208.19L211.01 205.62L216.59 203.19L222.18 200.89L227.76 198.73L233.35 196.72L238.94 194.84L244.53 193.1L250.11 191.5L255.7 190.04L261.29 188.71L266.88 187.53L272.47 186.49L278.06 185.58L283.65 184.82L289.25 184.19L294.84 183.71L300.43 183.36L306.02 183.15L311.62 183.08L317.23 183.15L322.85 183.36Z" id="b6i2KiavD2"></path><linearGradient id="gradientc29fsN5QJ0" gradientUnits="userSpaceOnUse" x1="318.1" y1="183.08" x2="318.1" y2="353.14"><stop style="stop-color: #65f792;stop-opacity: 1" offset="0%"></stop><stop style="stop-color: #1b7130;stop-opacity: 1" offset="100%"></stop></linearGradient><path d="M321.77 306.56L325.77 306.98L329.77 307.52L333.78 308.17L337.81 308.95L341.84 309.84L345.89 310.85L349.94 311.99L354.01 313.24L358.08 314.61L362.17 316.1L366.26 317.71L370.37 319.44L374.49 321.29L378.61 323.26L382.75 325.35L386.89 327.55L391.05 329.88L395.22 332.32L399.4 334.89L403.58 337.57L407.78 340.37L411.99 343.29L416.2 346.34L420.43 349.5L424.67 352.78L428.92 356.17L433.18 359.69L437.44 363.33L441.72 367.09L446.01 370.96L450.31 374.96L454.62 379.07L458.94 383.31L463.27 387.66L467.61 392.13L471.96 396.72L476.32 401.43L476.77 401.94L477.21 402.44L477.64 402.96L478.06 403.48L478.46 404.01L478.86 404.55L479.25 405.1L479.63 405.65L480 406.2L480.35 406.77L480.7 407.33L481.03 407.91L481.36 408.49L481.67 409.08L481.97 409.67L482.26 410.26L482.54 410.87L482.81 411.47L483.07 412.08L483.31 412.7L483.55 413.32L483.77 413.94L483.98 414.57L484.18 415.21L484.37 415.84L484.55 416.48L484.59 416.65L484.63 416.64L485.75 416.58L486.88 416.64L487.97 416.82L489.04 417.11L490.08 417.51L491.09 418.01L492.06 418.61L492.99 419.31L493.88 420.09L494.73 420.97L495.52 421.92L496.26 422.95L496.95 424.05L497.58 425.22L498.14 426.46L498.64 427.75L499.08 429.1L499.44 430.5L499.72 431.95L499.93 433.44L500.06 434.96L500.1 436.52L500.06 438.07L499.93 439.6L499.72 441.08L499.44 442.53L499.08 443.93L498.64 445.28L498.14 446.57L497.58 447.81L496.95 448.98L496.26 450.08L495.52 451.11L494.73 452.07L493.88 452.94L492.99 453.72L492.06 454.42L491.09 455.02L490.08 455.52L489.04 455.92L487.97 456.21L486.88 456.39L485.75 456.45L484.63 456.39L483.98 456.28L483.94 456.3L483.78 456.34L483.63 456.38L483.47 456.41L483.31 456.43L483.15 456.45L482.99 456.45L482.83 456.44L482.67 456.42L482.51 456.4L482.35 456.36L482.19 456.31L482.04 456.25L481.89 456.19L481.74 456.11L481.59 456.02L481.45 455.92L481.31 455.81L481.18 455.68L481.05 455.55L480.93 455.4L480.77 455.2L480.42 455.02L479.45 454.42L478.51 453.72L477.63 452.94L476.78 452.07L475.99 451.11L475.25 450.08L474.56 448.98L473.93 447.81L473.37 446.57L472.88 445.31L472.6 444.96L468.43 439.94L464.27 435.06L460.11 430.3L455.95 425.69L451.8 421.2L447.64 416.85L443.49 412.64L439.34 408.55L435.19 404.6L431.05 400.79L426.9 397.11L422.76 393.56L418.62 390.15L414.49 386.87L410.35 383.72L406.22 380.71L402.09 377.83L397.96 375.09L393.83 372.48L389.71 370L385.59 367.66L381.47 365.45L377.35 363.37L373.23 361.43L369.12 359.63L365.01 357.95L360.9 356.41L356.79 355.01L352.69 353.74L348.58 352.6L344.48 351.59L340.38 350.72L336.29 349.99L332.19 349.39L328.1 348.92L324.01 348.58L319.92 348.38L315.84 348.32L311.75 348.38L307.66 348.58L303.57 348.92L299.48 349.39L295.39 349.99L291.29 350.72L287.19 351.59L283.09 352.6L278.99 353.74L274.88 355.01L270.78 356.41L266.67 357.95L262.56 359.63L258.44 361.43L254.33 363.37L250.21 365.45L246.09 367.66L241.97 370L237.84 372.48L233.72 375.09L229.59 377.83L225.46 380.71L221.32 383.72L217.19 386.87L213.05 390.15L208.91 393.56L204.77 397.11L200.63 400.79L196.48 404.6L192.33 408.55L188.18 412.64L184.03 416.85L179.88 421.2L175.72 425.69L171.56 430.3L167.4 435.06L163.24 439.94L159.08 444.96L154.91 450.12L154.72 450.35L154.18 451.11L153.38 452.07L153.33 452.12L150.74 455.4L150.62 455.55L150.49 455.68L150.36 455.81L150.22 455.92L150.08 456.02L149.94 456.11L149.79 456.19L149.63 456.25L149.48 456.31L149.32 456.36L149.16 456.4L149 456.42L148.84 456.44L148.68 456.45L148.52 456.45L148.36 456.43L148.2 456.41L148.05 456.38L147.89 456.34L147.74 456.3L147.59 456.24L147.44 456.18L147.3 456.1L147.21 456.05L146.63 456.21L145.53 456.39L144.41 456.45L143.29 456.39L142.19 456.21L141.12 455.92L140.08 455.52L139.07 455.02L138.1 454.42L137.17 453.72L136.28 452.94L135.44 452.07L134.64 451.11L133.9 450.08L133.21 448.98L132.59 447.81L132.02 446.57L131.52 445.28L131.09 443.93L130.73 442.53L130.44 441.08L130.23 439.6L130.1 438.07L130.06 436.52L130.1 434.96L130.23 433.44L130.44 431.95L130.73 430.5L131.09 429.1L131.52 427.75L132.02 426.46L132.59 425.22L133.21 424.05L133.9 422.95L134.64 421.92L135.44 420.97L136.28 420.09L137.17 419.31L138.1 418.61L139.07 418.01L140.08 417.51L141.12 417.11L142.19 416.82L143.29 416.64L144.41 416.58L145.53 416.64L146.63 416.82L146.92 416.9L147.03 416.39L147.2 415.74L147.37 415.1L147.56 414.46L147.75 413.82L147.96 413.18L148.18 412.55L148.4 411.92L148.64 411.29L148.89 410.67L149.15 410.05L149.42 409.44L149.7 408.83L149.99 408.23L150.29 407.63L150.6 407.03L150.92 406.45L151.25 405.86L151.6 405.28L151.95 404.71L152.31 404.14L152.68 403.58L153.06 403.02L153.45 402.47L153.85 401.93L154.26 401.39L154.69 400.86L158.5 396.17L162.32 391.61L166.14 387.16L169.97 382.84L173.8 378.63L177.63 374.54L181.47 370.57L185.31 366.72L189.15 362.98L192.99 359.37L196.84 355.87L200.69 352.49L204.55 349.23L208.41 346.09L212.27 343.07L216.13 340.16L220 337.38L223.87 334.71L227.75 332.16L231.62 329.73L235.51 327.42L239.39 325.23L243.28 323.15L247.17 321.2L251.06 319.36L254.96 317.64L258.86 316.04L262.76 314.56L266.67 313.2L270.58 311.95L274.49 310.83L278.41 309.82L282.32 308.93L286.25 308.16L290.17 307.51L294.1 306.97L298.03 306.56L301.97 306.26L305.91 306.08L309.85 306.02L313.81 306.08L317.79 306.26L317.79 306.26L321.77 306.56Z" id="a3qpMjK4Z4"></path><linearGradient id="gradientam86zQn6" gradientUnits="userSpaceOnUse" x1="315.08" y1="306.02" x2="315.08" y2="456.45"><stop style="stop-color: #68fc96;stop-opacity: 1" offset="0%"></stop><stop style="stop-color: #1f7936;stop-opacity: 1" offset="100%"></stop></linearGradient><path d="M401.17 530.62C401.17 580.22 360.91 620.49 311.31 620.49C261.71 620.49 221.44 580.22 221.44 530.62C221.44 481.02 261.71 440.75 311.31 440.75C360.91 440.75 401.17 481.02 401.17 530.62Z" id="h4as8l5jST"></path><radialGradient id="gradientc7k58QjnEy" gradientUnits="userSpaceOnUse" cx="283.25" cy="497.34" dx="283.25" dy="590.98" r="93.64"><stop style="stop-color: #68fc96;stop-opacity: 1" offset="0%"></stop><stop style="stop-color: #16682a;stop-opacity: 1" offset="100%"></stop></radialGradient><path d="M334.02 556.97C356.81 541.29 380.88 536.63 387.72 546.58C394.57 556.53 381.62 577.34 358.82 593.02C336.02 608.71 311.96 613.37 305.11 603.42C298.27 593.47 311.22 572.66 334.02 556.97Z" id="d15fVdc9Ns"></path><linearGradient id="gradientaRKNpiOmV" gradientUnits="userSpaceOnUse" x1="358.14" y1="592.81" x2="340.75" y2="569.31"><stop style="stop-color: #48a264;stop-opacity: 1" offset="0%"></stop><stop style="stop-color: #278640;stop-opacity: 1" offset="100%"></stop></linearGradient></defs><g><g><g><g><filter id="shadow11915812" x="-36.21" y="39.77" width="714.58" height="267.03" filterUnits="userSpaceOnUse" primitiveUnits="userSpaceOnUse"><feFlood></feFlood><feComposite in2="SourceAlpha" operator="in"></feComposite><feGaussianBlur stdDeviation="3.32"></feGaussianBlur><feOffset dx="12" dy="7" result="afterOffset"></feOffset><feFlood flood-color="#000000" flood-opacity="0.5"></feFlood><feComposite in2="afterOffset" operator="in"></feComposite><feMorphology operator="dilate" radius="1"></feMorphology><feComposite in2="SourceAlpha" operator="out"></feComposite></filter><path d="M323.99 80.08L331.03 80.47L338.09 81.01L345.15 81.71L352.22 82.57L359.3 83.58L366.39 84.75L373.5 86.07L380.61 87.55L387.74 89.18L394.87 90.97L402.02 92.92L409.17 95.02L416.34 97.27L423.52 99.69L430.71 102.25L437.9 104.98L445.11 107.85L452.33 110.89L459.56 114.08L466.81 117.42L474.06 120.92L481.32 124.58L488.59 128.39L495.88 132.36L503.17 136.48L510.47 140.76L517.79 145.2L525.11 149.79L532.45 154.53L539.8 159.43L547.15 164.49L554.52 169.7L561.9 175.07L569.29 180.59L576.69 186.27L584.1 192.11L591.52 198.1L598.95 204.24L599.85 205.01L600.73 205.8L601.59 206.6L602.43 207.42L603.25 208.26L604.05 209.12L604.83 209.99L605.59 210.87L606.33 211.77L607.05 212.69L607.75 213.62L608.42 214.56L609.08 215.52L609.71 216.49L610.32 217.48L610.91 218.47L611.48 219.48L611.73 219.95L612.02 219.93L613.14 219.99L614.24 220.17L615.31 220.46L616.35 220.86L617.36 221.36L618.33 221.96L619.26 222.66L620.15 223.44L620.99 224.31L621.79 225.27L622.53 226.3L623.22 227.4L623.84 228.57L624.41 229.81L624.91 231.1L625.34 232.45L625.7 233.85L625.99 235.3L626.2 236.78L626.33 238.31L626.37 239.86L626.33 241.42L626.2 242.95L625.99 244.43L625.7 245.88L625.34 247.28L624.91 248.63L624.41 249.92L623.84 251.16L623.22 252.33L622.53 253.43L621.79 254.46L620.99 255.42L620.15 256.29L619.26 257.07L618.33 257.77L617.36 258.37L616.35 258.87L615.31 259.27L614.24 259.56L613.14 259.74L612.02 259.8L610.9 259.74L609.8 259.56L608.73 259.27L607.69 258.87L606.69 258.37L605.71 257.77L604.78 257.07L603.89 256.29L603.05 255.42L602.96 255.3L602.52 255.11L601.93 254.81L601.36 254.48L600.8 254.1L600.25 253.68L599.71 253.22L592.25 246.44L584.8 239.84L577.37 233.41L569.94 227.15L562.53 221.06L555.12 215.14L547.73 209.4L540.34 203.82L532.97 198.42L525.61 193.19L518.26 188.13L510.93 183.25L503.6 178.53L496.28 173.98L488.98 169.61L481.68 165.41L474.4 161.38L467.13 157.52L459.87 153.83L452.62 150.32L445.38 146.97L438.15 143.8L430.94 140.8L423.73 137.97L416.54 135.31L409.35 132.83L402.18 130.51L395.02 128.37L387.87 126.39L380.73 124.59L373.6 122.96L366.48 121.51L359.38 120.22L352.28 119.11L345.2 118.16L338.13 117.39L331.07 116.79L324.01 116.36L316.98 116.1L309.95 116.02L302.94 116.1L295.93 116.36L288.93 116.79L281.92 117.39L274.92 118.15L267.91 119.09L260.91 120.2L253.91 121.48L246.91 122.94L239.91 124.56L232.91 126.35L225.91 128.32L218.91 130.45L211.91 132.76L204.91 135.23L197.92 137.88L190.92 140.7L183.92 143.69L176.93 146.85L169.94 150.18L162.94 153.68L155.95 157.35L148.96 161.19L141.97 165.2L134.98 169.39L127.99 173.74L121 178.27L114.01 182.97L107.02 187.83L100.04 192.87L93.05 198.08L86.07 203.46L79.08 209.01L72.1 214.73L65.12 220.62L58.13 226.69L51.15 232.92L44.17 239.32L37.19 245.9L30.21 252.65L29.71 253.11L29.18 253.54L28.65 253.92L28.1 254.26L28.02 254.31L27.91 254.46L27.11 255.42L26.27 256.29L25.38 257.07L24.45 257.77L23.48 258.37L22.47 258.87L21.43 259.27L20.36 259.56L19.26 259.74L18.14 259.8L17.02 259.74L15.92 259.56L14.85 259.27L13.81 258.87L12.81 258.37L11.83 257.77L10.9 257.07L10.01 256.29L9.17 255.42L8.38 254.46L7.63 253.43L6.95 252.33L6.32 251.16L5.75 249.92L5.25 248.63L4.82 247.28L4.46 245.88L4.17 244.43L3.96 242.95L3.84 241.42L3.79 239.86L3.84 238.31L3.96 236.78L4.17 235.3L4.46 233.85L4.82 232.45L5.25 231.1L5.75 229.81L6.32 228.57L6.95 227.4L7.63 226.3L8.38 225.27L9.17 224.31L10.01 223.44L10.9 222.66L11.83 221.96L12.81 221.36L13.81 220.86L14.85 220.46L15.92 220.17L17.02 219.99L18.14 219.93L18.45 219.95L18.79 219.28L19.34 218.25L19.92 217.24L20.51 216.24L21.13 215.25L21.77 214.27L22.43 213.31L23.11 212.36L23.81 211.42L24.53 210.5L25.27 209.59L26.03 208.69L26.81 207.82L27.61 206.95L28.43 206.1L29.27 205.27L30.13 204.45L31.01 203.65L37.96 197.54L44.91 191.57L51.86 185.77L58.81 180.12L65.77 174.62L72.73 169.28L79.68 164.09L86.64 159.06L93.6 154.18L100.56 149.45L107.52 144.89L114.49 140.47L121.45 136.21L128.42 132.11L135.39 128.16L142.35 124.37L149.32 120.73L156.29 117.24L163.27 113.92L170.24 110.74L177.21 107.72L184.19 104.86L191.16 102.15L198.14 99.59L205.12 97.19L212.1 94.95L219.08 92.86L226.06 90.92L233.05 89.14L240.03 87.51L247.02 86.04L254.01 84.73L260.99 83.56L267.98 82.56L274.97 81.71L281.97 81.01L288.96 80.47L295.95 80.08L302.95 79.85L309.95 79.77L316.97 79.85L323.99 80.08Z" id="d26YInujmB" fill="white" fill-opacity="1" filter="url(#shadow11915812)"></path></g><use xlink:href="#aF0qNY1xc" opacity="1" fill="url(#gradientba5dAVV4z)"></use></g><g><g><filter id="shadow8455058" x="24.36" y="143.08" width="599.49" height="257.06" filterUnits="userSpaceOnUse" primitiveUnits="userSpaceOnUse"><feFlood></feFlood><feComposite in2="SourceAlpha" operator="in"></feComposite><feGaussianBlur stdDeviation="3.32"></feGaussianBlur><feOffset dx="12" dy="7" result="afterOffset"></feOffset><feFlood flood-color="#000000" flood-opacity="0.5"></feFlood><feComposite in2="afterOffset" operator="in"></feComposite><feMorphology operator="dilate" radius="1"></feMorphology><feComposite in2="SourceAlpha" operator="out"></feComposite></filter><path d="M322.85 183.36L328.48 183.71L334.11 184.2L339.76 184.83L345.42 185.59L351.08 186.5L356.75 187.55L362.43 188.74L368.13 190.07L373.83 191.53L379.53 193.14L385.25 194.88L390.98 196.77L396.71 198.8L402.46 200.96L408.21 203.27L413.97 205.71L419.74 208.3L425.52 211.02L431.31 213.88L437.11 216.89L442.92 220.03L448.73 223.31L454.55 226.74L460.39 230.3L466.23 234L472.08 237.84L477.94 241.82L483.81 245.95L489.69 250.21L495.57 254.61L501.47 259.15L507.37 263.83L513.29 268.65L519.21 273.61L525.14 278.71L531.08 283.94L537.03 289.32L542.99 294.84L543.67 295.5L544.35 296.17L545 296.85L545.64 297.55L546.27 298.25L546.88 298.97L547.47 299.7L548.05 300.44L548.61 301.19L549.16 301.95L549.69 302.72L550.2 303.5L550.7 304.29L551.18 305.09L551.65 305.9L552.09 306.72L552.52 307.55L552.94 308.39L553.33 309.23L553.71 310.08L554.08 310.94L554.42 311.81L554.75 312.68L555.06 313.56L555.06 313.57L555.28 313.51L556.38 313.33L557.5 313.27L558.62 313.33L559.72 313.51L560.79 313.8L561.83 314.2L562.83 314.7L563.81 315.3L564.74 316L565.63 316.78L566.47 317.66L567.26 318.61L568.01 319.64L568.69 320.74L569.32 321.91L569.89 323.15L570.39 324.44L570.82 325.79L571.18 327.19L571.47 328.64L571.68 330.13L571.8 331.65L571.85 333.21L571.8 334.76L571.68 336.29L571.47 337.77L571.18 339.22L570.82 340.62L570.39 341.97L569.89 343.26L569.32 344.5L568.69 345.67L568.01 346.77L567.26 347.8L566.47 348.76L565.63 349.63L564.74 350.41L563.81 351.11L562.83 351.71L561.83 352.21L560.79 352.61L559.72 352.9L558.62 353.08L557.5 353.14L556.38 353.08L555.28 352.9L554.21 352.61L553.17 352.21L552.16 351.71L551.19 351.11L550.26 350.41L549.37 349.63L548.53 348.76L548.3 348.49L548.29 348.48L547.93 348.31L547.58 348.12L547.23 347.9L546.9 347.65L546.57 347.38L546.25 347.08L540.22 341.15L534.2 335.36L528.19 329.73L522.18 324.25L516.19 318.91L510.2 313.73L504.22 308.69L498.25 303.81L492.29 299.08L486.33 294.5L480.39 290.06L474.45 285.78L468.52 281.65L462.6 277.67L456.69 273.84L450.78 270.15L444.89 266.62L439 263.24L433.12 260.01L427.25 256.93L421.39 254L415.54 251.22L409.69 248.59L403.86 246.11L398.03 243.78L392.21 241.61L386.4 239.58L380.6 237.7L374.8 235.97L369.02 234.39L363.24 232.97L357.47 231.69L351.71 230.56L345.96 229.59L340.21 228.76L334.48 228.08L328.75 227.56L323.03 227.18L317.32 226.96L311.62 226.88L305.93 226.96L300.24 227.18L294.56 227.56L288.88 228.08L283.19 228.75L277.51 229.58L271.83 230.55L266.15 231.67L260.47 232.95L254.8 234.37L249.12 235.94L243.45 237.67L237.77 239.54L232.1 241.56L226.43 243.73L220.76 246.06L215.09 248.53L209.43 251.15L203.76 253.92L198.1 256.84L192.43 259.91L186.77 263.13L181.11 266.51L175.45 270.03L169.79 273.7L164.13 277.52L158.48 281.49L152.82 285.61L147.17 289.88L141.51 294.29L135.86 298.86L130.21 303.58L124.56 308.45L118.92 313.47L113.27 318.64L107.62 323.96L101.98 329.42L96.34 335.04L90.69 340.81L89.74 341.81L89.22 342.65L88.47 343.68L87.68 344.64L86.84 345.51L85.95 346.3L85.02 346.99L84.16 347.52L84.13 347.55L83.8 347.77L83.46 347.97L83.12 348.14L82.78 348.29L82.42 348.42L82.07 348.52L81.71 348.61L81.38 348.66L80.93 348.78L79.83 348.96L78.71 349.02L77.59 348.96L76.49 348.78L75.42 348.49L74.38 348.09L73.37 347.59L72.4 346.99L71.47 346.3L70.58 345.51L69.74 344.64L68.94 343.68L68.2 342.65L67.51 341.55L66.89 340.38L66.32 339.14L65.82 337.85L65.39 336.5L65.02 335.1L64.74 333.66L64.53 332.17L64.4 330.64L64.36 329.09L64.4 327.53L64.53 326.01L64.74 324.52L65.02 323.07L65.39 321.67L65.82 320.32L66.32 319.03L66.89 317.8L67.51 316.62L68.2 315.52L68.94 314.49L69.74 313.54L70.58 312.66L71.47 311.88L72.4 311.18L73.37 310.58L74.38 310.08L75.42 309.68L76.49 309.39L77.59 309.22L78.16 309.19L78.2 309.1L78.59 308.24L78.99 307.39L79.4 306.56L79.84 305.72L80.29 304.9L80.75 304.09L81.24 303.28L81.74 302.48L82.25 301.7L82.78 300.92L83.33 300.15L83.89 299.39L84.47 298.65L85.06 297.91L85.67 297.18L86.29 296.47L86.93 295.76L87.58 295.07L88.25 294.39L93.82 288.89L99.4 283.54L104.98 278.32L110.55 273.24L116.13 268.3L121.71 263.5L127.28 258.84L132.86 254.32L138.44 249.94L144.02 245.69L149.6 241.59L155.18 237.62L160.76 233.8L166.34 230.11L171.92 226.56L177.5 223.15L183.09 219.88L188.67 216.75L194.25 213.76L199.84 210.91L205.42 208.19L211.01 205.62L216.59 203.19L222.18 200.89L227.76 198.73L233.35 196.72L238.94 194.84L244.53 193.1L250.11 191.5L255.7 190.04L261.29 188.71L266.88 187.53L272.47 186.49L278.06 185.58L283.65 184.82L289.25 184.19L294.84 183.71L300.43 183.36L306.02 183.15L311.62 183.08L317.23 183.15L322.85 183.36Z" id="bUErFoptY" fill="white" fill-opacity="1" filter="url(#shadow8455058)"></path></g><use xlink:href="#b6i2KiavD2" opacity="1" fill="url(#gradientc29fsN5QJ0)"></use></g><g><g><filter id="shadow2640054" x="90.06" y="266.02" width="462.04" height="237.42" filterUnits="userSpaceOnUse" primitiveUnits="userSpaceOnUse"><feFlood></feFlood><feComposite in2="SourceAlpha" operator="in"></feComposite><feGaussianBlur stdDeviation="3.32"></feGaussianBlur><feOffset dx="12" dy="7" result="afterOffset"></feOffset><feFlood flood-color="#000000" flood-opacity="0.5"></feFlood><feComposite in2="afterOffset" operator="in"></feComposite><feMorphology operator="dilate" radius="1"></feMorphology><feComposite in2="SourceAlpha" operator="out"></feComposite></filter><path d="M321.77 306.56L325.77 306.98L329.77 307.52L333.78 308.17L337.81 308.95L341.84 309.84L345.89 310.85L349.94 311.99L354.01 313.24L358.08 314.61L362.17 316.1L366.26 317.71L370.37 319.44L374.49 321.29L378.61 323.26L382.75 325.35L386.89 327.55L391.05 329.88L395.22 332.32L399.4 334.89L403.58 337.57L407.78 340.37L411.99 343.29L416.2 346.34L420.43 349.5L424.67 352.78L428.92 356.17L433.18 359.69L437.44 363.33L441.72 367.09L446.01 370.96L450.31 374.96L454.62 379.07L458.94 383.31L463.27 387.66L467.61 392.13L471.96 396.72L476.32 401.43L476.77 401.94L477.21 402.44L477.64 402.96L478.06 403.48L478.46 404.01L478.86 404.55L479.25 405.1L479.63 405.65L480 406.2L480.35 406.77L480.7 407.33L481.03 407.91L481.36 408.49L481.67 409.08L481.97 409.67L482.26 410.26L482.54 410.87L482.81 411.47L483.07 412.08L483.31 412.7L483.55 413.32L483.77 413.94L483.98 414.57L484.18 415.21L484.37 415.84L484.55 416.48L484.59 416.65L484.63 416.64L485.75 416.58L486.88 416.64L487.97 416.82L489.04 417.11L490.08 417.51L491.09 418.01L492.06 418.61L492.99 419.31L493.88 420.09L494.73 420.97L495.52 421.92L496.26 422.95L496.95 424.05L497.58 425.22L498.14 426.46L498.64 427.75L499.08 429.1L499.44 430.5L499.72 431.95L499.93 433.44L500.06 434.96L500.1 436.52L500.06 438.07L499.93 439.6L499.72 441.08L499.44 442.53L499.08 443.93L498.64 445.28L498.14 446.57L497.58 447.81L496.95 448.98L496.26 450.08L495.52 451.11L494.73 452.07L493.88 452.94L492.99 453.72L492.06 454.42L491.09 455.02L490.08 455.52L489.04 455.92L487.97 456.21L486.88 456.39L485.75 456.45L484.63 456.39L483.98 456.28L483.94 456.3L483.78 456.34L483.63 456.38L483.47 456.41L483.31 456.43L483.15 456.45L482.99 456.45L482.83 456.44L482.67 456.42L482.51 456.4L482.35 456.36L482.19 456.31L482.04 456.25L481.89 456.19L481.74 456.11L481.59 456.02L481.45 455.92L481.31 455.81L481.18 455.68L481.05 455.55L480.93 455.4L480.77 455.2L480.42 455.02L479.45 454.42L478.51 453.72L477.63 452.94L476.78 452.07L475.99 451.11L475.25 450.08L474.56 448.98L473.93 447.81L473.37 446.57L472.88 445.31L472.6 444.96L468.43 439.94L464.27 435.06L460.11 430.3L455.95 425.69L451.8 421.2L447.64 416.85L443.49 412.64L439.34 408.55L435.19 404.6L431.05 400.79L426.9 397.11L422.76 393.56L418.62 390.15L414.49 386.87L410.35 383.72L406.22 380.71L402.09 377.83L397.96 375.09L393.83 372.48L389.71 370L385.59 367.66L381.47 365.45L377.35 363.37L373.23 361.43L369.12 359.63L365.01 357.95L360.9 356.41L356.79 355.01L352.69 353.74L348.58 352.6L344.48 351.59L340.38 350.72L336.29 349.99L332.19 349.39L328.1 348.92L324.01 348.58L319.92 348.38L315.84 348.32L311.75 348.38L307.66 348.58L303.57 348.92L299.48 349.39L295.39 349.99L291.29 350.72L287.19 351.59L283.09 352.6L278.99 353.74L274.88 355.01L270.78 356.41L266.67 357.95L262.56 359.63L258.44 361.43L254.33 363.37L250.21 365.45L246.09 367.66L241.97 370L237.84 372.48L233.72 375.09L229.59 377.83L225.46 380.71L221.32 383.72L217.19 386.87L213.05 390.15L208.91 393.56L204.77 397.11L200.63 400.79L196.48 404.6L192.33 408.55L188.18 412.64L184.03 416.85L179.88 421.2L175.72 425.69L171.56 430.3L167.4 435.06L163.24 439.94L159.08 444.96L154.91 450.12L154.72 450.35L154.18 451.11L153.38 452.07L153.33 452.12L150.74 455.4L150.62 455.55L150.49 455.68L150.36 455.81L150.22 455.92L150.08 456.02L149.94 456.11L149.79 456.19L149.63 456.25L149.48 456.31L149.32 456.36L149.16 456.4L149 456.42L148.84 456.44L148.68 456.45L148.52 456.45L148.36 456.43L148.2 456.41L148.05 456.38L147.89 456.34L147.74 456.3L147.59 456.24L147.44 456.18L147.3 456.1L147.21 456.05L146.63 456.21L145.53 456.39L144.41 456.45L143.29 456.39L142.19 456.21L141.12 455.92L140.08 455.52L139.07 455.02L138.1 454.42L137.17 453.72L136.28 452.94L135.44 452.07L134.64 451.11L133.9 450.08L133.21 448.98L132.59 447.81L132.02 446.57L131.52 445.28L131.09 443.93L130.73 442.53L130.44 441.08L130.23 439.6L130.1 438.07L130.06 436.52L130.1 434.96L130.23 433.44L130.44 431.95L130.73 430.5L131.09 429.1L131.52 427.75L132.02 426.46L132.59 425.22L133.21 424.05L133.9 422.95L134.64 421.92L135.44 420.97L136.28 420.09L137.17 419.31L138.1 418.61L139.07 418.01L140.08 417.51L141.12 417.11L142.19 416.82L143.29 416.64L144.41 416.58L145.53 416.64L146.63 416.82L146.92 416.9L147.03 416.39L147.2 415.74L147.37 415.1L147.56 414.46L147.75 413.82L147.96 413.18L148.18 412.55L148.4 411.92L148.64 411.29L148.89 410.67L149.15 410.05L149.42 409.44L149.7 408.83L149.99 408.23L150.29 407.63L150.6 407.03L150.92 406.45L151.25 405.86L151.6 405.28L151.95 404.71L152.31 404.14L152.68 403.58L153.06 403.02L153.45 402.47L153.85 401.93L154.26 401.39L154.69 400.86L158.5 396.17L162.32 391.61L166.14 387.16L169.97 382.84L173.8 378.63L177.63 374.54L181.47 370.57L185.31 366.72L189.15 362.98L192.99 359.37L196.84 355.87L200.69 352.49L204.55 349.23L208.41 346.09L212.27 343.07L216.13 340.16L220 337.38L223.87 334.71L227.75 332.16L231.62 329.73L235.51 327.42L239.39 325.23L243.28 323.15L247.17 321.2L251.06 319.36L254.96 317.64L258.86 316.04L262.76 314.56L266.67 313.2L270.58 311.95L274.49 310.83L278.41 309.82L282.32 308.93L286.25 308.16L290.17 307.51L294.1 306.97L298.03 306.56L301.97 306.26L305.91 306.08L309.85 306.02L313.81 306.08L317.79 306.26L317.79 306.26L321.77 306.56Z" id="a2JPWC0JKU" fill="white" fill-opacity="1" filter="url(#shadow2640054)"></path></g><use xlink:href="#a3qpMjK4Z4" opacity="1" fill="url(#gradientam86zQn6)"></use></g><g><g><filter id="shadow3905088" x="181.44" y="400.75" width="271.73" height="266.73" filterUnits="userSpaceOnUse" primitiveUnits="userSpaceOnUse"><feFlood></feFlood><feComposite in2="SourceAlpha" operator="in"></feComposite><feGaussianBlur stdDeviation="3.32"></feGaussianBlur><feOffset dx="12" dy="7" result="afterOffset"></feOffset><feFlood flood-color="#000000" flood-opacity="0.5"></feFlood><feComposite in2="afterOffset" operator="in"></feComposite><feMorphology operator="dilate" radius="1"></feMorphology><feComposite in2="SourceAlpha" operator="out"></feComposite></filter><path d="M401.17 530.62C401.17 580.22 360.91 620.49 311.31 620.49C261.71 620.49 221.44 580.22 221.44 530.62C221.44 481.02 261.71 440.75 311.31 440.75C360.91 440.75 401.17 481.02 401.17 530.62Z" id="aT44nAAVX" fill="white" fill-opacity="1" filter="url(#shadow3905088)"></path></g><use xlink:href="#h4as8l5jST" opacity="1" fill="url(#gradientc7k58QjnEy)"></use></g><g><use xlink:href="#d15fVdc9Ns" opacity="1" fill="url(#gradientaRKNpiOmV)"></use></g></g></g></svg>