<?xml version="1.0" encoding="UTF-8" standalone="no"?>
<!DOCTYPE svg PUBLIC "-//W3C//DTD SVG 1.1//EN" "http://www.w3.org/Graphics/SVG/1.1/DTD/svg11.dtd">
<svg version="1.1" xmlns="http://www.w3.org/2000/svg" xmlns:xlink="http://www.w3.org/1999/xlink" preserveAspectRatio="xMidYMid meet" viewBox="0 0 640 640" width="640" height="640"><defs><path d="M322.96 19.34L330.06 19.94L337.17 20.79L344.29 21.89L351.43 23.22L358.58 24.8L365.74 26.62L372.92 28.69L380.11 31L387.31 33.55L394.52 36.34L401.74 39.38L408.98 42.66L416.23 46.18L423.5 49.95L430.77 53.95L438.06 58.21L445.36 62.7L452.68 67.44L460 72.42L467.34 77.64L474.69 83.11L482.06 88.82L489.43 94.77L496.82 100.96L504.22 107.4L511.64 114.08L519.07 121L526.51 128.17L533.96 135.58L541.42 143.23L548.9 151.13L556.39 159.27L563.89 167.65L571.41 176.27L578.94 185.14L586.48 194.25L594.03 203.6L601.6 213.2L602.33 214.16L603.05 215.13L603.75 216.11L604.44 217.11L605.1 218.11L605.75 219.12L606.39 220.14L607 221.18L607.6 222.22L608.18 223.27L608.74 224.33L609.28 225.39L609.81 226.47L610.32 227.55L610.81 228.64L611.28 229.74L611.73 230.85L612.16 231.96L612.39 232.57L612.54 232.6L613.36 232.85L614.16 233.2L614.94 233.64L615.71 234.17L616.46 234.78L617.18 235.48L617.88 236.27L618.56 237.13L619.22 238.06L619.84 239.07L620.45 240.15L621.02 241.29L621.56 242.5L622.07 243.77L622.54 245.1L622.99 246.49L623.39 247.93L623.76 249.41L624.09 250.95L624.38 252.53L624.63 254.15L624.84 255.8L625.01 257.5L625.12 259.22L625.2 260.98L625.22 262.76L625.2 264.55L625.12 266.3L625.01 268.03L624.84 269.72L624.63 271.38L624.38 273L624.09 274.58L623.76 276.11L623.39 277.6L622.99 279.04L622.54 280.42L622.07 281.75L621.56 283.02L621.02 284.23L620.45 285.38L619.84 286.46L619.22 287.46L618.56 288.4L617.88 289.26L617.18 290.04L616.46 290.74L615.71 291.36L614.94 291.89L614.16 292.33L613.36 292.67L612.54 292.93L611.72 293.08L610.87 293.13L610.03 293.08L609.2 292.93L608.38 292.67L607.58 292.33L606.8 291.89L606.04 291.36L605.86 291.21L605.72 291.15L605.27 290.93L604.83 290.68L604.4 290.4L603.99 290.08L603.59 289.73L603.21 289.34L602.84 288.92L602.5 288.46L594.9 277.88L587.32 267.56L579.75 257.51L572.2 247.73L564.65 238.22L557.12 228.97L549.61 220L542.1 211.29L534.61 202.84L527.13 194.67L519.67 186.77L512.21 179.13L504.77 171.76L497.35 164.66L489.93 157.82L482.53 151.26L475.14 144.96L467.77 138.93L460.41 133.17L453.06 127.67L445.72 122.45L438.4 117.49L431.09 112.8L423.79 108.38L416.51 104.23L409.24 100.34L401.98 96.72L394.73 93.37L387.5 90.29L380.28 87.48L373.07 84.93L365.88 82.65L358.7 80.64L351.53 78.9L344.38 77.43L337.24 76.22L330.11 75.28L322.99 74.61L315.89 74.21L308.8 74.08L301.72 74.21L294.65 74.61L287.57 75.28L280.5 76.22L273.42 77.42L266.34 78.89L259.26 80.63L252.18 82.64L245.1 84.91L238.02 87.45L230.93 90.26L223.85 93.33L216.76 96.68L209.67 100.29L202.59 104.17L195.5 108.31L188.41 112.73L181.32 117.41L174.22 122.35L167.13 127.57L160.04 133.05L152.94 138.8L145.85 144.82L138.75 151.1L131.65 157.66L124.55 164.48L117.45 171.57L110.35 178.92L103.25 186.54L96.14 194.43L89.04 202.59L81.93 211.01L74.83 219.71L67.72 228.67L60.61 237.89L53.5 247.39L46.39 257.15L39.28 267.18L32.17 277.48L25.05 288.04L24.73 288.49L24.39 288.91L24.04 289.29L23.68 289.62L23.3 290.04L22.58 290.74L21.83 291.36L21.06 291.89L20.28 292.33L19.48 292.67L18.66 292.93L17.83 293.08L16.99 293.13L16.15 293.08L15.32 292.93L14.5 292.67L13.7 292.33L12.92 291.89L12.16 291.36L11.41 290.74L10.68 290.04L9.98 289.26L9.3 288.4L8.65 287.46L8.02 286.46L7.42 285.38L6.85 284.23L6.31 283.02L5.8 281.75L5.32 280.42L4.88 279.04L4.47 277.6L4.1 276.11L3.77 274.58L3.48 273L3.23 271.38L3.02 269.72L2.86 268.03L2.74 266.3L2.67 264.55L2.64 262.76L2.67 260.98L2.74 259.22L2.86 257.5L3.02 255.8L3.23 254.15L3.48 252.53L3.77 250.95L4.1 249.41L4.47 247.93L4.88 246.49L5.32 245.1L5.8 243.77L6.31 242.5L6.85 241.29L7.42 240.15L8.02 239.07L8.65 238.06L9.3 237.13L9.98 236.27L10.68 235.48L11.41 234.78L12.16 234.17L12.92 233.64L13.7 233.2L14.5 232.85L15.32 232.6L15.54 232.56L15.8 231.82L16.22 230.69L16.65 229.57L17.11 228.46L17.58 227.36L18.06 226.26L18.57 225.17L19.09 224.09L19.63 223.01L20.19 221.95L20.76 220.89L21.35 219.84L21.96 218.79L22.58 217.76L23.23 216.74L23.88 215.72L24.56 214.72L25.25 213.72L25.96 212.74L33.04 203.16L40.13 193.83L47.21 184.74L54.3 175.9L61.38 167.29L68.46 158.93L75.54 150.81L82.62 142.94L89.7 135.3L96.78 127.91L103.86 120.76L110.94 113.85L118.01 107.19L125.09 100.77L132.16 94.59L139.24 88.65L146.31 82.95L153.38 77.5L160.46 72.29L167.53 67.32L174.6 62.6L181.67 58.11L188.74 53.87L195.81 49.87L202.87 46.12L209.94 42.6L217.01 39.33L224.07 36.3L231.14 33.51L238.2 30.97L245.26 28.67L252.33 26.61L259.39 24.79L266.45 23.21L273.51 21.88L280.57 20.79L287.63 19.94L294.68 19.34L301.74 18.97L308.8 18.85L315.87 18.97L322.96 19.34Z" id="b4neL0W8k"></path><linearGradient id="gradienta1fu9VmQLq" gradientUnits="userSpaceOnUse" x1="313.93" y1="18.85" x2="313.93" y2="293.13"><stop style="stop-color: #65f792;stop-opacity: 1" offset="0%"></stop><stop style="stop-color: #4a8d5b;stop-opacity: 1" offset="100%"></stop></linearGradient><path d="M319.9 155.89L325.57 156.39L331.25 157.08L336.94 157.97L342.64 159.06L348.35 160.35L354.07 161.84L359.8 163.53L365.53 165.41L371.28 167.49L377.04 169.78L382.81 172.26L388.59 174.93L394.38 177.81L400.18 180.88L405.99 184.16L411.81 187.63L417.64 191.3L423.48 195.17L429.33 199.23L435.2 203.5L441.07 207.96L446.95 212.62L452.84 217.48L458.74 222.54L464.65 227.8L470.57 233.25L476.5 238.9L482.45 244.76L488.4 250.81L494.36 257.06L500.33 263.5L506.31 270.15L512.31 276.99L518.31 284.03L524.32 291.27L530.34 298.71L536.38 306.35L542.42 314.18L543 314.96L543.57 315.74L544.12 316.53L544.66 317.33L545.18 318.13L545.7 318.95L546.19 319.77L546.68 320.6L547.15 321.43L547.6 322.28L548.05 323.13L548.47 323.98L548.89 324.84L549.29 325.71L549.67 326.59L550.04 327.47L550.4 328.35L550.74 329.25L551.07 330.14L551.38 331.04L551.68 331.95L551.96 332.86L552.23 333.78L552.49 334.7L552.72 335.63L552.95 336.56L553.02 336.88L553.6 336.78L554.48 336.73L555.35 336.78L556.21 336.93L557.05 337.17L557.88 337.52L558.69 337.95L559.48 338.46L560.25 339.07L561 339.75L561.72 340.52L562.41 341.36L563.08 342.27L563.72 343.26L564.33 344.31L564.91 345.42L565.45 346.6L565.96 347.84L566.43 349.13L566.87 350.47L567.26 351.87L567.61 353.31L567.93 354.8L568.2 356.32L568.42 357.89L568.59 359.49L568.72 361.12L568.8 362.78L568.83 364.47L568.8 366.16L568.72 367.82L568.59 369.46L568.42 371.06L568.2 372.62L567.93 374.15L567.61 375.64L567.26 377.08L566.87 378.47L566.43 379.82L565.96 381.11L565.45 382.34L564.91 383.52L564.33 384.64L563.72 385.69L563.08 386.67L562.41 387.59L561.72 388.43L561 389.19L560.25 389.88L559.48 390.48L558.69 391L557.88 391.43L557.05 391.77L556.21 392.02L555.35 392.17L554.48 392.22L553.6 392.17L552.74 392.02L551.9 391.77L551.07 391.43L550.26 391L549.47 390.48L548.7 389.88L547.96 389.19L547.24 388.43L546.87 387.99L546.72 387.9L546.45 387.72L546.18 387.52L545.93 387.29L545.68 387.05L545.45 386.78L545.22 386.49L539.12 378.09L533.04 369.91L526.96 361.94L520.89 354.18L514.83 346.64L508.77 339.31L502.73 332.19L496.7 325.28L490.68 318.59L484.66 312.1L478.66 305.83L472.66 299.78L466.68 293.93L460.7 288.3L454.74 282.88L448.78 277.67L442.83 272.68L436.89 267.9L430.96 263.33L425.04 258.97L419.13 254.83L413.23 250.9L407.34 247.18L401.45 243.67L395.58 240.38L389.71 237.29L383.86 234.42L378.01 231.77L372.18 229.32L366.35 227.09L360.53 225.07L354.73 223.27L348.93 221.67L343.14 220.29L337.36 219.12L331.59 218.17L325.83 217.42L320.07 216.89L314.33 216.57L308.6 216.47L302.88 216.57L297.16 216.89L291.43 217.42L285.71 218.16L279.99 219.12L274.27 220.28L268.56 221.66L262.84 223.26L257.12 225.06L251.4 227.07L245.68 229.3L239.96 231.74L234.25 234.4L228.53 237.26L222.81 240.34L217.1 243.63L211.38 247.13L205.67 250.84L199.95 254.76L194.24 258.9L188.52 263.25L182.81 267.81L177.09 272.59L171.38 277.57L165.67 282.77L159.95 288.18L154.24 293.81L148.53 299.64L142.82 305.69L137.11 311.95L131.4 318.42L125.68 325.1L119.97 332L114.26 339.11L108.55 346.43L102.85 353.96L97.14 361.71L91.43 369.66L86.78 376.31L86.66 376.61L86.12 377.79L85.54 378.9L84.93 379.96L84.29 380.94L83.62 381.85L82.93 382.69L82.21 383.46L81.46 384.14L81.38 384.21L80.01 386.21L79.81 386.5L79.59 386.76L79.36 387.01L79.12 387.23L78.87 387.43L78.61 387.61L78.34 387.77L78.07 387.91L77.79 388.03L77.5 388.14L77.21 388.22L76.92 388.28L76.63 388.33L76.33 388.35L76.04 388.36L75.74 388.35L75.45 388.32L75.16 388.28L74.87 388.22L74.58 388.14L74.3 388.05L74.03 387.94L73.76 387.81L73.51 387.67L73.25 387.51L73.01 387.34L72.78 387.15L72.56 386.95L72.36 386.74L72.16 386.51L71.99 386.26L71.82 386.01L71.67 385.74L71.54 385.46L71.47 385.26L70.68 384.75L69.91 384.14L69.17 383.46L68.45 382.69L67.75 381.85L67.08 380.94L66.44 379.96L65.84 378.9L65.26 377.79L64.71 376.61L64.21 375.37L63.73 374.08L63.3 372.74L62.9 371.34L62.55 369.9L62.24 368.42L61.97 366.89L61.75 365.32L61.57 363.72L61.44 362.09L61.36 360.43L61.34 358.74L61.36 357.05L61.44 355.39L61.57 353.75L61.75 352.15L61.97 350.59L62.24 349.06L62.55 347.58L62.9 346.13L63.3 344.74L63.73 343.4L64.21 342.1L64.71 340.87L65.26 339.69L65.84 338.57L66.44 337.52L67.08 336.54L67.75 335.62L68.45 334.78L69.17 334.02L69.91 333.33L70.68 332.73L71.47 332.21L72.28 331.78L73.11 331.44L73.95 331.19L74.05 331.18L74.12 330.95L74.42 330.04L74.73 329.13L75.06 328.23L75.4 327.34L75.76 326.45L76.13 325.56L76.51 324.68L76.91 323.81L77.32 322.94L77.74 322.08L78.18 321.22L78.63 320.37L79.1 319.53L79.57 318.69L80.07 317.86L80.57 317.04L81.09 316.22L81.62 315.42L82.16 314.61L82.72 313.82L88.38 306L94.04 298.38L99.7 290.96L105.36 283.74L111.01 276.71L116.67 269.89L122.33 263.26L127.98 256.82L133.64 250.59L139.29 244.55L144.94 238.71L150.6 233.07L156.25 227.63L161.9 222.39L167.55 217.34L173.2 212.49L178.85 207.84L184.5 203.39L190.14 199.13L195.79 195.08L201.44 191.22L207.08 187.56L212.73 184.09L218.37 180.83L224.02 177.76L229.66 174.89L235.3 172.22L240.95 169.74L246.59 167.47L252.23 165.39L257.87 163.51L263.51 161.83L269.15 160.34L274.78 159.06L280.42 157.97L286.06 157.08L291.69 156.38L297.33 155.89L302.96 155.59L308.6 155.49L314.25 155.59L319.9 155.89Z" id="cpr1cdtgx"></path><linearGradient id="gradientb71dx38CC" gradientUnits="userSpaceOnUse" x1="315.08" y1="155.49" x2="315.08" y2="392.22"><stop style="stop-color: #65f792;stop-opacity: 1" offset="0%"></stop><stop style="stop-color: #1b7130;stop-opacity: 1" offset="100%"></stop></linearGradient><path d="M314.05 298.27L318.05 298.64L322.06 299.15L326.08 299.81L330.12 300.62L334.16 301.58L338.22 302.68L342.28 303.93L346.36 305.32L350.45 306.87L354.55 308.56L358.65 310.39L362.77 312.38L366.9 314.51L371.04 316.79L375.19 319.21L379.35 321.78L383.53 324.5L387.71 327.36L391.9 330.38L396.11 333.54L400.32 336.84L404.55 340.3L408.78 343.9L413.03 347.64L417.29 351.54L421.55 355.58L425.83 359.76L430.12 364.1L434.42 368.58L438.73 373.21L443.05 377.98L447.38 382.91L451.73 387.98L456.08 393.19L460.44 398.56L464.82 404.07L469.2 409.72L473.6 415.53L474 416.08L474.39 416.63L474.78 417.19L475.15 417.75L475.52 418.32L475.88 418.9L476.22 419.48L476.56 420.06L476.89 420.66L477.2 421.25L477.51 421.85L477.81 422.45L478.09 423.06L478.37 423.68L478.64 424.29L478.9 424.91L479.15 425.54L479.38 426.17L479.61 426.8L479.83 427.44L480.04 428.08L480.23 428.72L480.42 429.36L480.6 430.01L480.76 430.66L480.92 431.32L481.06 431.98L481.2 432.64L481.2 432.65L481.98 432.61L482.96 432.66L483.92 432.83L484.87 433.1L485.79 433.47L486.69 433.95L487.56 434.51L488.41 435.17L489.22 435.92L490 436.75L490.74 437.67L491.45 438.66L492.12 439.72L492.75 440.85L493.34 442.05L493.88 443.31L494.37 444.63L494.81 446.01L495.2 447.43L495.53 448.91L495.81 450.43L496.04 451.99L496.2 453.59L496.29 455.22L496.33 456.88L496.29 458.54L496.2 460.17L496.04 461.77L495.81 463.33L495.53 464.85L495.2 466.32L494.81 467.75L494.37 469.12L493.88 470.44L493.34 471.7L492.75 472.9L492.12 474.04L491.45 475.1L490.74 476.09L490 477L489.22 477.83L488.41 478.58L487.56 479.24L486.69 479.81L485.79 480.28L484.87 480.65L483.92 480.93L482.96 481.09L481.98 481.15L481.39 481.12L481.3 481.21L481.19 481.3L481.08 481.39L480.97 481.47L480.85 481.55L480.72 481.61L480.6 481.67L480.46 481.72L480.33 481.77L480.19 481.8L480.06 481.83L479.92 481.85L479.78 481.86L479.63 481.86L479.49 481.86L479.35 481.84L479.21 481.82L479.07 481.79L478.94 481.74L478.8 481.69L478.67 481.63L478.54 481.56L478.42 481.48L478.29 481.39L478.18 481.3L478.06 481.19L477.96 481.07L477.85 480.94L477.76 480.8L477.01 479.64L476.4 479.24L475.55 478.58L474.74 477.83L473.96 477L473.21 476.09L472.5 475.1L471.83 474.04L471.21 472.9L470.62 471.7L470.08 470.44L469.59 469.12L469.15 467.75L469.1 467.58L465.2 461.84L461.02 455.85L456.84 450.02L452.67 444.36L448.49 438.86L444.32 433.52L440.15 428.35L435.98 423.34L431.82 418.5L427.66 413.82L423.5 409.31L419.34 404.96L415.18 400.77L411.03 396.75L406.88 392.89L402.73 389.2L398.59 385.67L394.44 382.31L390.3 379.1L386.16 376.07L382.03 373.2L377.89 370.49L373.76 367.94L369.63 365.56L365.5 363.35L361.38 361.29L357.25 359.41L353.13 357.68L349.02 356.12L344.9 354.73L340.79 353.5L336.68 352.43L332.57 351.53L328.46 350.79L324.36 350.21L320.26 349.8L316.16 349.56L312.06 349.47L307.96 349.56L303.87 349.8L299.76 350.21L295.66 350.79L291.55 351.53L287.45 352.43L283.33 353.5L279.22 354.73L275.11 356.12L270.99 357.68L266.87 359.41L262.74 361.29L258.62 363.35L254.49 365.56L250.36 367.94L246.23 370.49L242.1 373.2L237.96 376.07L233.82 379.1L229.68 382.31L225.54 385.67L221.39 389.2L217.24 392.89L213.09 396.75L208.94 400.77L204.78 404.96L200.63 409.31L196.47 413.82L192.3 418.5L188.14 423.34L183.97 428.35L179.8 433.52L175.63 438.86L171.46 444.36L167.28 450.02L163.1 455.85L158.92 461.84L154.74 468L150.99 473.66L150.78 474.04L150.11 475.1L149.48 475.98L146.36 480.8L146.27 480.94L146.17 481.07L146.06 481.19L145.95 481.3L145.83 481.39L145.71 481.48L145.58 481.56L145.45 481.63L145.32 481.69L145.18 481.74L145.05 481.79L144.91 481.82L144.77 481.84L144.63 481.86L144.49 481.86L144.35 481.86L144.21 481.85L144.07 481.83L143.93 481.8L143.79 481.77L143.66 481.72L143.53 481.67L143.4 481.61L143.27 481.55L143.15 481.47L143.04 481.39L142.93 481.3L142.82 481.21L142.72 481.11L142.63 481L142.58 480.93L141.62 481.09L140.63 481.15L139.65 481.09L138.69 480.93L137.74 480.65L136.82 480.28L135.92 479.81L135.05 479.24L134.21 478.58L133.39 477.83L132.61 477L131.87 476.09L131.16 475.1L130.49 474.04L129.86 472.9L129.28 471.7L128.74 470.44L128.24 469.12L127.8 467.75L127.41 466.32L127.08 464.85L126.8 463.33L126.58 461.77L126.42 460.17L126.32 458.54L126.28 456.88L126.32 455.22L126.42 453.59L126.58 451.99L126.8 450.43L127.08 448.91L127.41 447.43L127.8 446.01L128.24 444.63L128.74 443.31L129.28 442.05L129.86 440.85L130.49 439.72L131.16 438.66L131.87 437.67L132.61 436.75L133.39 435.92L134.21 435.17L135.05 434.51L135.92 433.95L136.82 433.47L137.74 433.1L138.69 432.83L139.65 432.66L140.63 432.61L141.62 432.66L142.58 432.83L142.8 432.89L142.86 432.58L142.98 431.91L143.11 431.25L143.25 430.58L143.4 429.92L143.57 429.27L143.74 428.61L143.92 427.96L144.11 427.31L144.3 426.66L144.51 426.02L144.73 425.38L144.96 424.74L145.19 424.1L145.44 423.47L145.69 422.84L145.96 422.22L146.23 421.6L146.51 420.98L146.8 420.37L147.1 419.76L147.41 419.15L147.73 418.55L148.06 417.95L148.39 417.36L148.74 416.77L149.09 416.19L149.46 415.61L149.83 415.04L153.68 409.26L157.53 403.62L161.39 398.14L165.25 392.8L169.11 387.6L172.97 382.55L176.84 377.65L180.71 372.9L184.59 368.29L188.46 363.82L192.34 359.51L196.22 355.34L200.11 351.31L204 347.44L207.89 343.7L211.78 340.12L215.68 336.68L219.58 333.39L223.48 330.24L227.38 327.24L231.29 324.39L235.2 321.68L239.11 319.12L243.03 316.71L246.95 314.44L250.87 312.32L254.8 310.34L258.72 308.51L262.65 306.83L266.59 305.29L270.52 303.9L274.46 302.66L278.4 301.56L282.35 300.61L286.29 299.81L290.25 299.15L294.2 298.64L298.15 298.27L302.11 298.05L306.07 297.98L310.05 298.05L314.05 298.27Z" id="akrDBeyIf"></path><linearGradient id="gradientdnWTD3pZ" gradientUnits="userSpaceOnUse" x1="311.31" y1="297.98" x2="311.31" y2="481.86"><stop style="stop-color: #68fc96;stop-opacity: 1" offset="0%"></stop><stop style="stop-color: #1f7936;stop-opacity: 1" offset="100%"></stop></linearGradient><path d="M401.17 530.62C401.17 580.22 360.91 620.49 311.31 620.49C261.71 620.49 221.44 580.22 221.44 530.62C221.44 481.02 261.71 440.75 311.31 440.75C360.91 440.75 401.17 481.02 401.17 530.62Z" id="bwaR8wZzy"></path><radialGradient id="gradientc22esZXhdR" gradientUnits="userSpaceOnUse" cx="283.25" cy="497.34" dx="283.25" dy="590.98" r="93.64"><stop style="stop-color: #68fc96;stop-opacity: 1" offset="0%"></stop><stop style="stop-color: #16682a;stop-opacity: 1" offset="100%"></stop></radialGradient><path d="M334.02 556.97C356.81 541.29 380.88 536.63 387.72 546.58C394.57 556.53 381.62 577.34 358.82 593.02C336.02 608.71 311.96 613.37 305.11 603.42C298.27 593.47 311.22 572.66 334.02 556.97Z" id="f3Y68UpS1"></path><linearGradient id="gradienta21DnkjBEu" gradientUnits="userSpaceOnUse" x1="358.14" y1="592.81" x2="340.75" y2="569.31"><stop style="stop-color: #48a264;stop-opacity: 1" offset="0%"></stop><stop style="stop-color: #278640;stop-opacity: 1" offset="100%"></stop></linearGradient></defs><g><g><g><g><filter id="shadow13534591" x="-37.36" y="-21.15" width="714.58" height="361.28" filterUnits="userSpaceOnUse" primitiveUnits="userSpaceOnUse"><feFlood></feFlood><feComposite in2="SourceAlpha" operator="in"></feComposite><feGaussianBlur stdDeviation="3.32"></feGaussianBlur><feOffset dx="12" dy="7" result="afterOffset"></feOffset><feFlood flood-color="#000000" flood-opacity="0.5"></feFlood><feComposite in2="afterOffset" operator="in"></feComposite><feMorphology operator="dilate" radius="1"></feMorphology><feComposite in2="SourceAlpha" operator="out"></feComposite></filter><path d="M322.96 19.34L330.06 19.94L337.17 20.79L344.29 21.89L351.43 23.22L358.58 24.8L365.74 26.62L372.92 28.69L380.11 31L387.31 33.55L394.52 36.34L401.74 39.38L408.98 42.66L416.23 46.18L423.5 49.95L430.77 53.95L438.06 58.21L445.36 62.7L452.68 67.44L460 72.42L467.34 77.64L474.69 83.11L482.06 88.82L489.43 94.77L496.82 100.96L504.22 107.4L511.64 114.08L519.07 121L526.51 128.17L533.96 135.58L541.42 143.23L548.9 151.13L556.39 159.27L563.89 167.65L571.41 176.27L578.94 185.14L586.48 194.25L594.03 203.6L601.6 213.2L602.33 214.16L603.05 215.13L603.75 216.11L604.44 217.11L605.1 218.11L605.75 219.12L606.39 220.14L607 221.18L607.6 222.22L608.18 223.27L608.74 224.33L609.28 225.39L609.81 226.47L610.32 227.55L610.81 228.64L611.28 229.74L611.73 230.85L612.16 231.96L612.39 232.57L612.54 232.6L613.36 232.85L614.16 233.2L614.94 233.64L615.71 234.17L616.46 234.78L617.18 235.48L617.88 236.27L618.56 237.13L619.22 238.06L619.84 239.07L620.45 240.15L621.02 241.29L621.56 242.5L622.07 243.77L622.54 245.1L622.99 246.49L623.39 247.93L623.76 249.41L624.09 250.95L624.38 252.53L624.63 254.15L624.84 255.8L625.01 257.5L625.12 259.22L625.2 260.98L625.22 262.76L625.2 264.55L625.12 266.3L625.01 268.03L624.84 269.72L624.63 271.38L624.38 273L624.09 274.58L623.76 276.11L623.39 277.6L622.99 279.04L622.54 280.42L622.07 281.75L621.56 283.02L621.02 284.23L620.45 285.38L619.84 286.46L619.22 287.46L618.56 288.4L617.88 289.26L617.18 290.04L616.46 290.74L615.71 291.36L614.94 291.89L614.16 292.33L613.36 292.67L612.54 292.93L611.72 293.08L610.87 293.13L610.03 293.08L609.2 292.93L608.38 292.67L607.58 292.33L606.8 291.89L606.04 291.36L605.86 291.21L605.72 291.15L605.27 290.93L604.83 290.68L604.4 290.4L603.99 290.08L603.59 289.73L603.21 289.34L602.84 288.92L602.5 288.46L594.9 277.88L587.32 267.56L579.75 257.51L572.2 247.73L564.65 238.22L557.12 228.97L549.61 220L542.1 211.29L534.61 202.84L527.13 194.67L519.67 186.77L512.21 179.13L504.77 171.76L497.35 164.66L489.93 157.82L482.53 151.26L475.14 144.96L467.77 138.93L460.41 133.17L453.06 127.67L445.72 122.45L438.4 117.49L431.09 112.8L423.79 108.38L416.51 104.23L409.24 100.34L401.98 96.72L394.73 93.37L387.5 90.29L380.28 87.48L373.07 84.93L365.88 82.65L358.7 80.64L351.53 78.9L344.38 77.43L337.24 76.22L330.11 75.28L322.99 74.61L315.89 74.21L308.8 74.08L301.72 74.21L294.65 74.61L287.57 75.28L280.5 76.22L273.42 77.42L266.34 78.89L259.26 80.63L252.18 82.64L245.1 84.91L238.02 87.45L230.93 90.26L223.85 93.33L216.76 96.68L209.67 100.29L202.59 104.17L195.5 108.31L188.41 112.73L181.32 117.41L174.22 122.35L167.13 127.57L160.04 133.05L152.94 138.8L145.85 144.82L138.75 151.1L131.65 157.66L124.55 164.48L117.45 171.57L110.35 178.92L103.25 186.54L96.14 194.43L89.04 202.59L81.93 211.01L74.83 219.71L67.72 228.67L60.61 237.89L53.5 247.39L46.39 257.15L39.28 267.18L32.17 277.48L25.05 288.04L24.73 288.49L24.39 288.91L24.04 289.29L23.68 289.62L23.3 290.04L22.58 290.74L21.83 291.36L21.06 291.89L20.28 292.33L19.48 292.67L18.66 292.93L17.83 293.08L16.99 293.13L16.15 293.08L15.32 292.93L14.5 292.67L13.7 292.33L12.92 291.89L12.16 291.36L11.41 290.74L10.68 290.04L9.98 289.26L9.3 288.4L8.65 287.46L8.02 286.46L7.42 285.38L6.85 284.23L6.31 283.02L5.8 281.75L5.32 280.42L4.88 279.04L4.47 277.6L4.1 276.11L3.77 274.58L3.48 273L3.23 271.38L3.02 269.72L2.86 268.03L2.74 266.3L2.67 264.55L2.64 262.76L2.67 260.98L2.74 259.22L2.86 257.5L3.02 255.8L3.23 254.15L3.48 252.53L3.77 250.95L4.1 249.41L4.47 247.93L4.88 246.49L5.32 245.1L5.8 243.77L6.31 242.5L6.85 241.29L7.42 240.15L8.02 239.07L8.65 238.06L9.3 237.13L9.98 236.27L10.68 235.48L11.41 234.78L12.16 234.17L12.92 233.64L13.7 233.2L14.5 232.85L15.32 232.6L15.54 232.56L15.8 231.82L16.22 230.69L16.65 229.57L17.11 228.46L17.58 227.36L18.06 226.26L18.57 225.17L19.09 224.09L19.63 223.01L20.19 221.95L20.76 220.89L21.35 219.84L21.96 218.79L22.58 217.76L23.23 216.74L23.88 215.72L24.56 214.72L25.25 213.72L25.96 212.74L33.04 203.16L40.13 193.83L47.21 184.74L54.3 175.9L61.38 167.29L68.46 158.93L75.54 150.81L82.62 142.94L89.7 135.3L96.78 127.91L103.86 120.76L110.94 113.85L118.01 107.19L125.09 100.77L132.16 94.59L139.24 88.65L146.31 82.95L153.38 77.5L160.46 72.29L167.53 67.32L174.6 62.6L181.67 58.11L188.74 53.87L195.81 49.87L202.87 46.12L209.94 42.6L217.01 39.33L224.07 36.3L231.14 33.51L238.2 30.97L245.26 28.67L252.33 26.61L259.39 24.79L266.45 23.21L273.51 21.88L280.57 20.79L287.63 19.94L294.68 19.34L301.74 18.97L308.8 18.85L315.87 18.97L322.96 19.34Z" id="b1xPwh6OIn" fill="white" fill-opacity="1" filter="url(#shadow13534591)"></path></g><use xlink:href="#b4neL0W8k" opacity="1" fill="url(#gradienta1fu9VmQLq)"></use></g><g><g><filter id="shadow15669716" x="21.34" y="115.49" width="599.49" height="323.72" filterUnits="userSpaceOnUse" primitiveUnits="userSpaceOnUse"><feFlood></feFlood><feComposite in2="SourceAlpha" operator="in"></feComposite><feGaussianBlur stdDeviation="3.32"></feGaussianBlur><feOffset dx="12" dy="7" result="afterOffset"></feOffset><feFlood flood-color="#000000" flood-opacity="0.5"></feFlood><feComposite in2="afterOffset" operator="in"></feComposite><feMorphology operator="dilate" radius="1"></feMorphology><feComposite in2="SourceAlpha" operator="out"></feComposite></filter><path d="M319.9 155.89L325.57 156.39L331.25 157.08L336.94 157.97L342.64 159.06L348.35 160.35L354.07 161.84L359.8 163.53L365.53 165.41L371.28 167.49L377.04 169.78L382.81 172.26L388.59 174.93L394.38 177.81L400.18 180.88L405.99 184.16L411.81 187.63L417.64 191.3L423.48 195.17L429.33 199.23L435.2 203.5L441.07 207.96L446.95 212.62L452.84 217.48L458.74 222.54L464.65 227.8L470.57 233.25L476.5 238.9L482.45 244.76L488.4 250.81L494.36 257.06L500.33 263.5L506.31 270.15L512.31 276.99L518.31 284.03L524.32 291.27L530.34 298.71L536.38 306.35L542.42 314.18L543 314.96L543.57 315.74L544.12 316.53L544.66 317.33L545.18 318.13L545.7 318.95L546.19 319.77L546.68 320.6L547.15 321.43L547.6 322.28L548.05 323.13L548.47 323.98L548.89 324.84L549.29 325.71L549.67 326.59L550.04 327.47L550.4 328.35L550.74 329.25L551.07 330.14L551.38 331.04L551.68 331.95L551.96 332.86L552.23 333.78L552.49 334.7L552.72 335.63L552.95 336.56L553.02 336.88L553.6 336.78L554.48 336.73L555.35 336.78L556.21 336.93L557.05 337.17L557.88 337.52L558.69 337.95L559.48 338.46L560.25 339.07L561 339.75L561.72 340.52L562.41 341.36L563.08 342.27L563.72 343.26L564.33 344.31L564.91 345.42L565.45 346.6L565.96 347.84L566.43 349.13L566.87 350.47L567.26 351.87L567.61 353.31L567.93 354.8L568.2 356.32L568.42 357.89L568.59 359.49L568.72 361.12L568.8 362.78L568.83 364.47L568.8 366.16L568.72 367.82L568.59 369.46L568.42 371.06L568.2 372.62L567.93 374.15L567.61 375.64L567.26 377.08L566.87 378.47L566.43 379.82L565.96 381.11L565.45 382.34L564.91 383.52L564.33 384.64L563.72 385.69L563.08 386.67L562.41 387.59L561.72 388.43L561 389.19L560.25 389.88L559.48 390.48L558.69 391L557.88 391.43L557.05 391.77L556.21 392.02L555.35 392.17L554.48 392.22L553.6 392.17L552.74 392.02L551.9 391.77L551.07 391.43L550.26 391L549.47 390.48L548.7 389.88L547.96 389.19L547.24 388.43L546.87 387.99L546.72 387.9L546.45 387.72L546.18 387.52L545.93 387.29L545.68 387.05L545.45 386.78L545.22 386.49L539.12 378.09L533.04 369.91L526.96 361.94L520.89 354.18L514.83 346.64L508.77 339.31L502.73 332.19L496.7 325.28L490.68 318.59L484.66 312.1L478.66 305.83L472.66 299.78L466.68 293.93L460.7 288.3L454.74 282.88L448.78 277.67L442.83 272.68L436.89 267.9L430.96 263.33L425.04 258.97L419.13 254.83L413.23 250.9L407.34 247.18L401.45 243.67L395.58 240.38L389.71 237.29L383.86 234.42L378.01 231.77L372.18 229.32L366.35 227.09L360.53 225.07L354.73 223.27L348.93 221.67L343.14 220.29L337.36 219.12L331.59 218.17L325.83 217.42L320.07 216.89L314.33 216.57L308.6 216.47L302.88 216.57L297.16 216.89L291.43 217.42L285.71 218.16L279.99 219.12L274.27 220.28L268.56 221.66L262.84 223.26L257.12 225.06L251.4 227.07L245.68 229.3L239.96 231.74L234.25 234.4L228.53 237.26L222.81 240.34L217.1 243.63L211.38 247.13L205.67 250.84L199.95 254.76L194.24 258.9L188.52 263.25L182.81 267.81L177.09 272.59L171.38 277.57L165.67 282.77L159.95 288.18L154.24 293.81L148.53 299.64L142.82 305.69L137.11 311.95L131.4 318.42L125.68 325.1L119.97 332L114.26 339.11L108.55 346.43L102.85 353.96L97.14 361.71L91.43 369.66L86.78 376.31L86.66 376.61L86.12 377.79L85.54 378.9L84.93 379.96L84.29 380.94L83.62 381.85L82.93 382.69L82.21 383.46L81.46 384.14L81.38 384.21L80.01 386.21L79.81 386.5L79.59 386.76L79.36 387.01L79.12 387.23L78.87 387.43L78.61 387.61L78.34 387.77L78.07 387.91L77.79 388.03L77.5 388.14L77.21 388.22L76.92 388.28L76.63 388.33L76.33 388.35L76.04 388.36L75.74 388.35L75.45 388.32L75.16 388.28L74.87 388.22L74.58 388.14L74.3 388.05L74.03 387.94L73.76 387.81L73.51 387.67L73.25 387.51L73.01 387.34L72.78 387.15L72.56 386.95L72.36 386.74L72.16 386.51L71.99 386.26L71.82 386.01L71.67 385.74L71.54 385.46L71.47 385.26L70.68 384.75L69.91 384.14L69.17 383.46L68.45 382.69L67.75 381.85L67.08 380.94L66.44 379.96L65.84 378.9L65.26 377.79L64.71 376.61L64.21 375.37L63.73 374.08L63.3 372.74L62.9 371.34L62.55 369.9L62.24 368.42L61.97 366.89L61.75 365.32L61.57 363.72L61.44 362.09L61.36 360.43L61.34 358.74L61.36 357.05L61.44 355.39L61.57 353.75L61.75 352.15L61.97 350.59L62.24 349.06L62.55 347.58L62.9 346.13L63.3 344.74L63.73 343.4L64.21 342.1L64.71 340.87L65.26 339.69L65.84 338.57L66.44 337.52L67.08 336.54L67.75 335.62L68.45 334.78L69.17 334.02L69.91 333.33L70.68 332.73L71.47 332.21L72.28 331.78L73.11 331.44L73.95 331.19L74.05 331.18L74.12 330.95L74.42 330.04L74.73 329.13L75.06 328.23L75.4 327.34L75.76 326.45L76.13 325.56L76.51 324.68L76.91 323.81L77.32 322.94L77.74 322.08L78.18 321.22L78.63 320.37L79.1 319.53L79.57 318.69L80.07 317.86L80.57 317.04L81.09 316.22L81.62 315.42L82.16 314.61L82.72 313.82L88.38 306L94.04 298.38L99.7 290.96L105.36 283.74L111.01 276.71L116.67 269.89L122.33 263.26L127.98 256.82L133.64 250.59L139.29 244.55L144.94 238.71L150.6 233.07L156.25 227.63L161.9 222.39L167.55 217.34L173.2 212.49L178.85 207.84L184.5 203.39L190.14 199.13L195.79 195.08L201.44 191.22L207.08 187.56L212.73 184.09L218.37 180.83L224.02 177.76L229.66 174.89L235.3 172.22L240.95 169.74L246.59 167.47L252.23 165.39L257.87 163.51L263.51 161.83L269.15 160.34L274.78 159.06L280.42 157.97L286.06 157.08L291.69 156.38L297.33 155.89L302.96 155.59L308.6 155.49L314.25 155.59L319.9 155.89Z" id="cZ0Q2bjkK" fill="white" fill-opacity="1" filter="url(#shadow15669716)"></path></g><use xlink:href="#cpr1cdtgx" opacity="1" fill="url(#gradientb71dx38CC)"></use></g><g><g><filter id="shadow9771924" x="86.28" y="257.98" width="462.04" height="270.88" filterUnits="userSpaceOnUse" primitiveUnits="userSpaceOnUse"><feFlood></feFlood><feComposite in2="SourceAlpha" operator="in"></feComposite><feGaussianBlur stdDeviation="3.32"></feGaussianBlur><feOffset dx="12" dy="7" result="afterOffset"></feOffset><feFlood flood-color="#000000" flood-opacity="0.5"></feFlood><feComposite in2="afterOffset" operator="in"></feComposite><feMorphology operator="dilate" radius="1"></feMorphology><feComposite in2="SourceAlpha" operator="out"></feComposite></filter><path d="M314.05 298.27L318.05 298.64L322.06 299.15L326.08 299.81L330.12 300.62L334.16 301.58L338.22 302.68L342.28 303.93L346.36 305.32L350.45 306.87L354.55 308.56L358.65 310.39L362.77 312.38L366.9 314.51L371.04 316.79L375.19 319.21L379.35 321.78L383.53 324.5L387.71 327.36L391.9 330.38L396.11 333.54L400.32 336.84L404.55 340.3L408.78 343.9L413.03 347.64L417.29 351.54L421.55 355.58L425.83 359.76L430.12 364.1L434.42 368.58L438.73 373.21L443.05 377.98L447.38 382.91L451.73 387.98L456.08 393.19L460.44 398.56L464.82 404.07L469.2 409.72L473.6 415.53L474 416.08L474.39 416.63L474.78 417.19L475.15 417.75L475.52 418.32L475.88 418.9L476.22 419.48L476.56 420.06L476.89 420.66L477.2 421.25L477.51 421.85L477.81 422.45L478.09 423.06L478.37 423.68L478.64 424.29L478.9 424.91L479.15 425.54L479.38 426.17L479.61 426.8L479.83 427.44L480.04 428.08L480.23 428.72L480.42 429.36L480.6 430.01L480.76 430.66L480.92 431.32L481.06 431.98L481.2 432.64L481.2 432.65L481.98 432.61L482.96 432.66L483.92 432.83L484.87 433.1L485.79 433.47L486.69 433.95L487.56 434.51L488.41 435.17L489.22 435.92L490 436.75L490.74 437.67L491.45 438.66L492.12 439.72L492.75 440.85L493.34 442.05L493.88 443.31L494.37 444.63L494.81 446.01L495.2 447.43L495.53 448.91L495.81 450.43L496.04 451.99L496.2 453.59L496.29 455.22L496.33 456.88L496.29 458.54L496.2 460.17L496.04 461.77L495.81 463.33L495.53 464.85L495.2 466.32L494.81 467.75L494.37 469.12L493.88 470.44L493.34 471.7L492.75 472.9L492.12 474.04L491.45 475.1L490.74 476.09L490 477L489.22 477.83L488.41 478.58L487.56 479.24L486.69 479.81L485.79 480.28L484.87 480.65L483.92 480.93L482.96 481.09L481.98 481.15L481.39 481.12L481.3 481.21L481.19 481.3L481.08 481.39L480.97 481.47L480.85 481.55L480.72 481.61L480.6 481.67L480.46 481.72L480.33 481.77L480.19 481.8L480.06 481.83L479.92 481.85L479.78 481.86L479.63 481.86L479.49 481.86L479.35 481.84L479.21 481.82L479.07 481.79L478.94 481.74L478.8 481.69L478.67 481.63L478.54 481.56L478.42 481.48L478.29 481.39L478.18 481.3L478.06 481.19L477.96 481.07L477.85 480.94L477.76 480.8L477.01 479.64L476.4 479.24L475.55 478.58L474.74 477.83L473.96 477L473.21 476.09L472.5 475.1L471.83 474.04L471.21 472.9L470.62 471.7L470.08 470.44L469.59 469.12L469.15 467.75L469.1 467.58L465.2 461.84L461.02 455.85L456.84 450.02L452.67 444.36L448.49 438.86L444.32 433.52L440.15 428.35L435.98 423.34L431.82 418.5L427.66 413.82L423.5 409.31L419.34 404.96L415.18 400.77L411.03 396.75L406.88 392.89L402.73 389.2L398.59 385.67L394.44 382.31L390.3 379.1L386.16 376.07L382.03 373.2L377.89 370.49L373.76 367.94L369.63 365.56L365.5 363.35L361.38 361.29L357.25 359.41L353.13 357.68L349.02 356.12L344.9 354.73L340.79 353.5L336.68 352.43L332.57 351.53L328.46 350.79L324.36 350.21L320.26 349.8L316.16 349.56L312.06 349.47L307.96 349.56L303.87 349.8L299.76 350.21L295.66 350.79L291.55 351.53L287.45 352.43L283.33 353.5L279.22 354.73L275.11 356.12L270.99 357.68L266.87 359.41L262.74 361.29L258.62 363.35L254.49 365.56L250.36 367.94L246.23 370.49L242.1 373.2L237.96 376.07L233.82 379.1L229.68 382.31L225.54 385.67L221.39 389.2L217.24 392.89L213.09 396.75L208.94 400.77L204.78 404.96L200.63 409.31L196.47 413.82L192.3 418.5L188.14 423.34L183.97 428.35L179.8 433.52L175.63 438.86L171.46 444.36L167.28 450.02L163.1 455.85L158.92 461.84L154.74 468L150.99 473.66L150.78 474.04L150.11 475.1L149.48 475.98L146.36 480.8L146.27 480.94L146.17 481.07L146.06 481.19L145.95 481.3L145.83 481.39L145.71 481.48L145.58 481.56L145.45 481.63L145.32 481.69L145.18 481.74L145.05 481.79L144.91 481.82L144.77 481.84L144.63 481.86L144.49 481.86L144.35 481.86L144.21 481.85L144.07 481.83L143.93 481.8L143.79 481.77L143.66 481.72L143.53 481.67L143.4 481.61L143.27 481.55L143.15 481.47L143.04 481.39L142.93 481.3L142.82 481.21L142.72 481.11L142.63 481L142.58 480.93L141.62 481.09L140.63 481.15L139.65 481.09L138.69 480.93L137.74 480.65L136.82 480.28L135.92 479.81L135.05 479.24L134.21 478.58L133.39 477.83L132.61 477L131.87 476.09L131.16 475.1L130.49 474.04L129.86 472.9L129.28 471.7L128.74 470.44L128.24 469.12L127.8 467.75L127.41 466.32L127.08 464.85L126.8 463.33L126.58 461.77L126.42 460.17L126.32 458.54L126.28 456.88L126.32 455.22L126.42 453.59L126.58 451.99L126.8 450.43L127.08 448.91L127.41 447.43L127.8 446.01L128.24 444.63L128.74 443.31L129.28 442.05L129.86 440.85L130.49 439.72L131.16 438.66L131.87 437.67L132.61 436.75L133.39 435.92L134.21 435.17L135.05 434.51L135.92 433.95L136.82 433.47L137.74 433.1L138.69 432.83L139.65 432.66L140.63 432.61L141.62 432.66L142.58 432.83L142.8 432.89L142.86 432.58L142.98 431.91L143.11 431.25L143.25 430.58L143.4 429.92L143.57 429.27L143.74 428.61L143.92 427.96L144.11 427.31L144.3 426.66L144.51 426.02L144.73 425.38L144.96 424.74L145.19 424.1L145.44 423.47L145.69 422.84L145.96 422.22L146.23 421.6L146.51 420.98L146.8 420.37L147.1 419.76L147.41 419.15L147.73 418.55L148.06 417.95L148.39 417.36L148.74 416.77L149.09 416.19L149.46 415.61L149.83 415.04L153.68 409.26L157.53 403.62L161.39 398.14L165.25 392.8L169.11 387.6L172.97 382.55L176.84 377.65L180.71 372.9L184.59 368.29L188.46 363.82L192.34 359.51L196.22 355.34L200.11 351.31L204 347.44L207.89 343.7L211.78 340.12L215.68 336.68L219.58 333.39L223.48 330.24L227.38 327.24L231.29 324.39L235.2 321.68L239.11 319.12L243.03 316.71L246.95 314.44L250.87 312.32L254.8 310.34L258.72 308.51L262.65 306.83L266.59 305.29L270.52 303.9L274.46 302.66L278.4 301.56L282.35 300.61L286.29 299.81L290.25 299.15L294.2 298.64L298.15 298.27L302.11 298.05L306.07 297.98L310.05 298.05L314.05 298.27Z" id="d7xd9XQFw" fill="white" fill-opacity="1" filter="url(#shadow9771924)"></path></g><use xlink:href="#akrDBeyIf" opacity="1" fill="url(#gradientdnWTD3pZ)"></use></g><g><g><filter id="shadow10324321" x="181.44" y="400.75" width="271.73" height="266.73" filterUnits="userSpaceOnUse" primitiveUnits="userSpaceOnUse"><feFlood></feFlood><feComposite in2="SourceAlpha" operator="in"></feComposite><feGaussianBlur stdDeviation="3.32"></feGaussianBlur><feOffset dx="12" dy="7" result="afterOffset"></feOffset><feFlood flood-color="#000000" flood-opacity="0.5"></feFlood><feComposite in2="afterOffset" operator="in"></feComposite><feMorphology operator="dilate" radius="1"></feMorphology><feComposite in2="SourceAlpha" operator="out"></feComposite></filter><path d="M401.17 530.62C401.17 580.22 360.91 620.49 311.31 620.49C261.71 620.49 221.44 580.22 221.44 530.62C221.44 481.02 261.71 440.75 311.31 440.75C360.91 440.75 401.17 481.02 401.17 530.62Z" id="l2mmQBtwi" fill="white" fill-opacity="1" filter="url(#shadow10324321)"></path></g><use xlink:href="#bwaR8wZzy" opacity="1" fill="url(#gradientc22esZXhdR)"></use></g><g><use xlink:href="#f3Y68UpS1" opacity="1" fill="url(#gradienta21DnkjBEu)"></use></g></g></g></svg>