<?xml version="1.0" encoding="UTF-8" standalone="no"?>
<!DOCTYPE svg PUBLIC "-//W3C//DTD SVG 1.1//EN" "http://www.w3.org/Graphics/SVG/1.1/DTD/svg11.dtd">
<svg version="1.1" xmlns="http://www.w3.org/2000/svg" xmlns:xlink="http://www.w3.org/1999/xlink" preserveAspectRatio="xMidYMid meet" viewBox="0 0 640 640" width="640" height="640"><defs><path d="M565.93 324.44C565.93 462.01 454.24 573.7 316.67 573.7C179.1 573.7 67.41 462.01 67.41 324.44C67.41 186.87 179.1 75.19 316.67 75.19C454.24 75.19 565.93 186.87 565.93 324.44Z" id="a19bWtKPZv"></path><path d="M466.3 376.67C471.82 376.67 476.3 381.14 476.3 386.67C476.3 405.41 476.3 451.63 476.3 470.37C476.3 475.89 471.82 480.37 466.3 480.37C404.44 480.37 228.89 480.37 167.04 480.37C161.51 480.37 157.04 475.89 157.04 470.37C157.04 451.63 157.04 405.41 157.04 386.67C157.04 381.14 161.51 376.67 167.04 376.67C228.89 376.67 404.44 376.67 466.3 376.67Z" id="a7duMV1gbu"></path><path d="M211.11 449.26L210.37 406.3" id="ahM1Au448"></path><path d="M226.67 415.93L195.56 441.11" id="e1zzMs0uQD"></path><path d="M230.37 441.11L192.59 415.93" id="cae7GuZtQ"></path><path d="M280.74 449.26L280 406.3" id="aBKAk0xed"></path><path d="M296.3 415.93L265.19 441.11" id="i9T8IlBKWw"></path><path d="M300 441.11L262.22 415.93" id="ag4qnSjMg"></path><path d="M351.48 449.26L350.74 406.3" id="as3Cqj1Of"></path><path d="M367.04 415.93L335.93 441.11" id="c6fsk3uZs6"></path><path d="M370.74 441.11L332.96 415.93" id="c1UlfDstPQ"></path><path d="M420 449.26L419.26 406.3" id="b3jvzm67Wm"></path><path d="M435.56 415.93L404.44 441.11" id="b4YIYkzMhr"></path><path d="M439.26 441.11L401.48 415.93" id="a4Xn8ri1n"></path><path d="M386.3 215.93C391.82 215.93 396.3 220.4 396.3 225.93C396.3 253.26 396.3 325.26 396.3 352.59C396.3 358.12 391.82 362.59 386.3 362.59C357.48 362.59 281.04 362.59 252.22 362.59C246.7 362.59 242.22 358.12 242.22 352.59C242.22 325.26 242.22 253.26 242.22 225.93C242.22 220.4 246.7 215.93 252.22 215.93C281.04 215.93 357.48 215.93 386.3 215.93Z" id="b5LYc2xvjk"></path><path d="M386.7 215.93C392 215.93 396.3 220.22 396.3 225.52C396.3 252.94 396.3 325.58 396.3 352.99C396.3 358.3 392 362.59 386.7 362.59C372.69 362.59 340.27 362.59 326.26 362.59C320.96 362.59 316.67 358.3 316.67 352.99C316.67 325.58 316.67 252.94 316.67 225.52C316.67 220.22 320.96 215.93 326.26 215.93C340.27 215.93 372.69 215.93 386.7 215.93Z" id="ck6JH7LL8"></path><path d="M360 215.93C358.02 169.51 346.3 146.3 324.81 146.3C303.33 146.3 290.12 169.51 285.19 215.93" id="a1MhHPsUI4"></path><path d="M360 215.93C359.01 172.47 347.65 149.26 325.93 146.3" id="d3nw40Yps"></path><path d="M336.3 271.11C336.3 281.13 328.16 289.26 318.15 289.26C308.13 289.26 300 281.13 300 271.11C300 261.09 308.13 252.96 318.15 252.96C328.16 252.96 336.3 261.09 336.3 271.11Z" id="a1sUmBDC8T"></path><path d="M318.89 275.19C322.78 275.19 325.93 278.34 325.93 282.22C325.93 289.41 325.93 303.93 325.93 311.11C325.93 315 322.78 318.15 318.89 318.15C317.48 318.15 320.3 318.15 318.89 318.15C315 318.15 311.85 315 311.85 311.11C311.85 303.93 311.85 289.41 311.85 282.22C311.85 278.34 315 275.19 318.89 275.19C320.3 275.19 317.48 275.19 318.89 275.19Z" id="b4UxQfGefN"></path></defs><g><g><g><use xlink:href="#a19bWtKPZv" opacity="1" fill="#30b0ab" fill-opacity="1"></use></g><g><use xlink:href="#a7duMV1gbu" opacity="1" fill="#e0f0ee" fill-opacity="1"></use></g><g><g><use xlink:href="#ahM1Au448" opacity="1" fill-opacity="0" stroke="#000000" stroke-width="11" stroke-opacity="1"></use></g></g><g><g><use xlink:href="#e1zzMs0uQD" opacity="1" fill-opacity="0" stroke="#000000" stroke-width="11" stroke-opacity="1"></use></g></g><g><g><use xlink:href="#cae7GuZtQ" opacity="1" fill-opacity="0" stroke="#000000" stroke-width="11" stroke-opacity="1"></use></g></g><g><g><use xlink:href="#aBKAk0xed" opacity="1" fill-opacity="0" stroke="#000000" stroke-width="11" stroke-opacity="1"></use></g></g><g><g><use xlink:href="#i9T8IlBKWw" opacity="1" fill-opacity="0" stroke="#000000" stroke-width="11" stroke-opacity="1"></use></g></g><g><g><use xlink:href="#ag4qnSjMg" opacity="1" fill-opacity="0" stroke="#000000" stroke-width="11" stroke-opacity="1"></use></g></g><g><g><use xlink:href="#as3Cqj1Of" opacity="1" fill-opacity="0" stroke="#000000" stroke-width="11" stroke-opacity="1"></use></g></g><g><g><use xlink:href="#c6fsk3uZs6" opacity="1" fill-opacity="0" stroke="#000000" stroke-width="11" stroke-opacity="1"></use></g></g><g><g><use xlink:href="#c1UlfDstPQ" opacity="1" fill-opacity="0" stroke="#000000" stroke-width="11" stroke-opacity="1"></use></g></g><g><g><use xlink:href="#b3jvzm67Wm" opacity="1" fill-opacity="0" stroke="#000000" stroke-width="11" stroke-opacity="1"></use></g></g><g><g><use xlink:href="#b4YIYkzMhr" opacity="1" fill-opacity="0" stroke="#000000" stroke-width="11" stroke-opacity="1"></use></g></g><g><g><use xlink:href="#a4Xn8ri1n" opacity="1" fill-opacity="0" stroke="#000000" stroke-width="11" stroke-opacity="1"></use></g></g><g><use xlink:href="#b5LYc2xvjk" opacity="1" fill="#fec703" fill-opacity="1"></use></g><g><use xlink:href="#ck6JH7LL8" opacity="1" fill="#fc8c06" fill-opacity="1"></use></g><g><use xlink:href="#a1MhHPsUI4" opacity="1" fill="#14d692" fill-opacity="0"></use><g><use xlink:href="#a1MhHPsUI4" opacity="1" fill-opacity="0" stroke="#fec703" stroke-width="16" stroke-opacity="1"></use></g></g><g><g><use xlink:href="#d3nw40Yps" opacity="1" fill-opacity="0" stroke="#fc8c06" stroke-width="16" stroke-opacity="1"></use></g></g><g><use xlink:href="#a1sUmBDC8T" opacity="1" fill="#565656" fill-opacity="1"></use></g><g><use xlink:href="#b4UxQfGefN" opacity="1" fill="#565656" fill-opacity="1"></use></g></g></g></svg>