<?xml version="1.0" encoding="UTF-8" standalone="no"?>
<!DOCTYPE svg PUBLIC "-//W3C//DTD SVG 1.1//EN" "http://www.w3.org/Graphics/SVG/1.1/DTD/svg11.dtd">
<svg version="1.1" xmlns="http://www.w3.org/2000/svg" xmlns:xlink="http://www.w3.org/1999/xlink" preserveAspectRatio="xMidYMid meet" viewBox="0 0 640 640" width="640" height="640"><defs><path d="M610.88 286.01C610.88 443.87 482.73 572.03 324.87 572.03C167.02 572.03 38.86 443.87 38.86 286.01C38.86 128.16 167.02 0 324.87 0C482.73 0 610.88 128.16 610.88 286.01Z" id="a4f2tcCM2C"></path><radialGradient id="gradientgmS4mMT9X" gradientUnits="userSpaceOnUse" cx="324.87" cy="264.66" dx="324.87" dy="572.03" r="307.37"><stop style="stop-color: #0045ff;stop-opacity: 1" offset="0%"></stop><stop style="stop-color: #00a8ff;stop-opacity: 1" offset="100%"></stop></radialGradient><path d="M564.88 274.2C564.88 415.13 455.17 529.54 320.03 529.54C184.89 529.54 75.17 415.13 75.17 274.2C75.17 133.27 184.89 18.85 320.03 18.85C455.17 18.85 564.88 133.27 564.88 274.2Z" id="chyF3CpHQ"></path><path d="M577.47 275.31C577.47 415.63 473.09 529.54 344.51 529.54C215.94 529.54 111.55 415.63 111.55 275.31C111.55 134.99 215.94 21.08 344.51 21.08C473.09 21.08 577.47 134.99 577.47 275.31Z" id="a1cIFudmeI"></path><path d="M129.25 275.31C129.66 206.38 169.09 134.54 247.55 59.8C255.03 52.68 264.97 48.73 275.29 48.8C278.51 48.81 272.08 48.78 275.29 48.8C281.38 48.83 284.48 56.13 280.28 60.53C213.51 130.5 179.92 199.82 179.51 268.48C179.11 337.14 211.88 406.93 277.83 477.84C281.98 482.3 278.79 489.56 272.7 489.52C269.48 489.5 275.91 489.54 272.7 489.52C262.31 489.46 252.3 485.69 244.45 478.88C167.25 411.88 128.85 344.02 129.25 275.31Z" id="aBCKfJUQB"></path><path d="M273.16 259.51C273.16 288.08 249.96 311.27 221.39 311.27C192.81 311.27 169.62 288.08 169.62 259.51C169.62 230.93 192.81 207.74 221.39 207.74C249.96 207.74 273.16 230.93 273.16 259.51Z" id="d8r3Hysl2g"></path><radialGradient id="gradienta1isA6zpPH" gradientUnits="userSpaceOnUse" cx="257.76" cy="227.32" dx="185.01" dy="295.88" r="99.97"><stop style="stop-color: #68f500;stop-opacity: 1" offset="0%"></stop><stop style="stop-color: #508429;stop-opacity: 1" offset="100%"></stop></radialGradient><path d="M398.94 259.51C398.94 288.08 375.74 311.27 347.17 311.27C318.6 311.27 295.4 288.08 295.4 259.51C295.4 230.93 318.6 207.74 347.17 207.74C375.74 207.74 398.94 230.93 398.94 259.51Z" id="dXfDOTQhE"></path><radialGradient id="gradienta1kFgQt2WC" gradientUnits="userSpaceOnUse" cx="380.75" cy="223.13" dx="310.79" dy="297.28" r="101.95"><stop style="stop-color: #68f202;stop-opacity: 1" offset="0%"></stop><stop style="stop-color: #508429;stop-opacity: 1" offset="100%"></stop></radialGradient><path d="M525.42 259.51C525.42 288.08 502.23 311.27 473.66 311.27C445.08 311.27 421.89 288.08 421.89 259.51C421.89 230.93 445.08 207.74 473.66 207.74C502.23 207.74 525.42 230.93 525.42 259.51Z" id="abHpHzMg3"></path><radialGradient id="gradientj3kcBehKiH" gradientUnits="userSpaceOnUse" cx="511.43" cy="225.93" dx="434.48" dy="297.28" r="104.95"><stop style="stop-color: #67ef02;stop-opacity: 1" offset="0%"></stop><stop style="stop-color: #508429;stop-opacity: 1" offset="100%"></stop></radialGradient><path d="M458.66 434.13C481.33 414.52 498.52 388.34 510.23 355.6C513.39 346.77 524.9 344.62 531.04 351.71C533.78 354.89 528.29 348.54 531.04 351.71C539.34 361.31 540.99 374.97 535.22 386.27C519.66 416.72 500.53 441.76 477.83 461.4C455.29 480.9 428.76 495.54 398.23 505.3C386.1 509.18 372.83 505.45 364.5 495.82C361.76 492.65 367.25 499 364.5 495.82C358.31 488.66 362.02 477.47 371.27 475.43C406.75 467.62 435.88 453.85 458.66 434.13Z" id="b1LZD6fmAk"></path><path d="M224.04 552.57L231.02 629.53L303.1 568.58L347.17 568.58L256.92 636.55L208.39 636.55L197.7 537.64L224.04 552.57Z" id="c7E6XNuiZ"></path><path d="M249.68 509.73L254.27 609.35L229.8 629.58L221.39 505.06L249.68 509.73Z" id="a1dthGPZuw"></path><path d="M353.61 526.05L254.27 611.39L247.27 509.26L353.61 526.05Z" id="f136JwA5Ie"></path></defs><g><g><g><g><filter id="shadow15904905" x="29.86" y="-9" width="591.03" height="591.03" filterUnits="userSpaceOnUse" primitiveUnits="userSpaceOnUse"><feFlood></feFlood><feComposite in2="SourceAlpha" operator="in"></feComposite><feGaussianBlur stdDeviation="1"></feGaussianBlur><feOffset dx="1" dy="1" result="afterOffset"></feOffset><feFlood flood-color="#000000" flood-opacity="0.5"></feFlood><feComposite in2="afterOffset" operator="in"></feComposite><feMorphology operator="dilate" radius="1"></feMorphology><feComposite in2="SourceAlpha" operator="out"></feComposite></filter><path d="M610.88 286.01C610.88 443.87 482.73 572.03 324.87 572.03C167.02 572.03 38.86 443.87 38.86 286.01C38.86 128.16 167.02 0 324.87 0C482.73 0 610.88 128.16 610.88 286.01Z" id="ae2GccgKH" fill="white" fill-opacity="1" filter="url(#shadow15904905)"></path></g><use xlink:href="#a4f2tcCM2C" opacity="1" fill="url(#gradientgmS4mMT9X)"></use><g><filter id="shadow1366840" x="29.86" y="-9" width="591.03" height="591.03" filterUnits="userSpaceOnUse" primitiveUnits="userSpaceOnUse"><feFlood></feFlood><feComposite in2="SourceAlpha" operator="out"></feComposite><feGaussianBlur stdDeviation="1"></feGaussianBlur><feOffset dx="1" dy="1" result="afterOffset"></feOffset><feFlood flood-color="#008dff" flood-opacity="0.8"></feFlood><feComposite in2="afterOffset" operator="in"></feComposite><feMorphology operator="dilate" radius="1"></feMorphology><feComposite in2="SourceAlpha" operator="in"></feComposite></filter><path d="M610.88 286.01C610.88 443.87 482.73 572.03 324.87 572.03C167.02 572.03 38.86 443.87 38.86 286.01C38.86 128.16 167.02 0 324.87 0C482.73 0 610.88 128.16 610.88 286.01Z" id="cJ7sez2UN" fill="white" fill-opacity="1" filter="url(#shadow1366840)"></path></g></g><g><g><filter id="shadow588431" x="10.17" y="-46.15" width="622.71" height="663.69" filterUnits="userSpaceOnUse" primitiveUnits="userSpaceOnUse"><feFlood></feFlood><feComposite in2="SourceAlpha" operator="in"></feComposite><feGaussianBlur stdDeviation="4.24"></feGaussianBlur><feOffset dx="3" dy="23" result="afterOffset"></feOffset><feFlood flood-color="#000000" flood-opacity="0.5"></feFlood><feComposite in2="afterOffset" operator="in"></feComposite><feMorphology operator="dilate" radius="1"></feMorphology><feComposite in2="SourceAlpha" operator="out"></feComposite></filter><path d="M564.88 274.2C564.88 415.13 455.17 529.54 320.03 529.54C184.89 529.54 75.17 415.13 75.17 274.2C75.17 133.27 184.89 18.85 320.03 18.85C455.17 18.85 564.88 133.27 564.88 274.2Z" id="e6qR36epi" fill="white" fill-opacity="1" filter="url(#shadow588431)"></path></g><use xlink:href="#chyF3CpHQ" opacity="1" fill="#6eb4f6" fill-opacity="1"></use></g><g><use xlink:href="#a1cIFudmeI" opacity="1" fill="#4085c6" fill-opacity="1"></use></g><g><use xlink:href="#aBCKfJUQB" opacity="1" fill="#599bd8" fill-opacity="1"></use></g><g><g><filter id="shadow8092522" x="125.62" y="163.74" width="196.54" height="199.54" filterUnits="userSpaceOnUse" primitiveUnits="userSpaceOnUse"><feFlood></feFlood><feComposite in2="SourceAlpha" operator="in"></feComposite><feGaussianBlur stdDeviation="3.87"></feGaussianBlur><feOffset dx="-5" dy="8" result="afterOffset"></feOffset><feFlood flood-color="#000000" flood-opacity="0.5"></feFlood><feComposite in2="afterOffset" operator="in"></feComposite><feMorphology operator="dilate" radius="1"></feMorphology><feComposite in2="SourceAlpha" operator="out"></feComposite></filter><path d="M273.16 259.51C273.16 288.08 249.96 311.27 221.39 311.27C192.81 311.27 169.62 288.08 169.62 259.51C169.62 230.93 192.81 207.74 221.39 207.74C249.96 207.74 273.16 230.93 273.16 259.51Z" id="m5Nqpjl6Fu" fill="white" fill-opacity="1" filter="url(#shadow8092522)"></path></g><use xlink:href="#d8r3Hysl2g" opacity="1" fill="url(#gradienta1isA6zpPH)"></use></g><g><g><filter id="shadow13871198" x="251.4" y="163.74" width="196.54" height="199.54" filterUnits="userSpaceOnUse" primitiveUnits="userSpaceOnUse"><feFlood></feFlood><feComposite in2="SourceAlpha" operator="in"></feComposite><feGaussianBlur stdDeviation="3.87"></feGaussianBlur><feOffset dx="-5" dy="8" result="afterOffset"></feOffset><feFlood flood-color="#000000" flood-opacity="0.5"></feFlood><feComposite in2="afterOffset" operator="in"></feComposite><feMorphology operator="dilate" radius="1"></feMorphology><feComposite in2="SourceAlpha" operator="out"></feComposite></filter><path d="M398.94 259.51C398.94 288.08 375.74 311.27 347.17 311.27C318.6 311.27 295.4 288.08 295.4 259.51C295.4 230.93 318.6 207.74 347.17 207.74C375.74 207.74 398.94 230.93 398.94 259.51Z" id="b3CcrDC1AK" fill="white" fill-opacity="1" filter="url(#shadow13871198)"></path></g><use xlink:href="#dXfDOTQhE" opacity="1" fill="url(#gradienta1kFgQt2WC)"></use></g><g><g><filter id="shadow65956" x="377.89" y="163.74" width="196.54" height="199.54" filterUnits="userSpaceOnUse" primitiveUnits="userSpaceOnUse"><feFlood></feFlood><feComposite in2="SourceAlpha" operator="in"></feComposite><feGaussianBlur stdDeviation="3.87"></feGaussianBlur><feOffset dx="-5" dy="8" result="afterOffset"></feOffset><feFlood flood-color="#000000" flood-opacity="0.5"></feFlood><feComposite in2="afterOffset" operator="in"></feComposite><feMorphology operator="dilate" radius="1"></feMorphology><feComposite in2="SourceAlpha" operator="out"></feComposite></filter><path d="M525.42 259.51C525.42 288.08 502.23 311.27 473.66 311.27C445.08 311.27 421.89 288.08 421.89 259.51C421.89 230.93 445.08 207.74 473.66 207.74C502.23 207.74 525.42 230.93 525.42 259.51Z" id="ehWO07vMu" fill="white" fill-opacity="1" filter="url(#shadow65956)"></path></g><use xlink:href="#abHpHzMg3" opacity="1" fill="url(#gradientj3kcBehKiH)"></use></g><g><use xlink:href="#b1LZD6fmAk" opacity="1" fill="#599bd8" fill-opacity="1"></use></g><g><use xlink:href="#c7E6XNuiZ" opacity="1" fill="#00a1fe" fill-opacity="1"></use><g><use xlink:href="#c7E6XNuiZ" opacity="1" fill-opacity="0" stroke="#00a1fc" stroke-width="1" stroke-opacity="1"></use></g></g><g><g><filter id="shadow5186609" x="162.39" y="446.06" width="157.88" height="246.53" filterUnits="userSpaceOnUse" primitiveUnits="userSpaceOnUse"><feFlood></feFlood><feComposite in2="SourceAlpha" operator="in"></feComposite><feGaussianBlur stdDeviation="4.8"></feGaussianBlur><feOffset dx="-7" dy="4" result="afterOffset"></feOffset><feFlood flood-color="#000000" flood-opacity="0.5"></feFlood><feComposite in2="afterOffset" operator="in"></feComposite><feMorphology operator="dilate" radius="1"></feMorphology><feComposite in2="SourceAlpha" operator="out"></feComposite></filter><path d="M249.68 509.73L254.27 609.35L229.8 629.58L221.39 505.06L249.68 509.73Z" id="aPfqyb2aW" fill="white" fill-opacity="1" filter="url(#shadow5186609)"></path></g><use xlink:href="#a1dthGPZuw" opacity="1" fill="#6eb4f6" fill-opacity="1"></use><g><use xlink:href="#a1dthGPZuw" opacity="1" fill-opacity="0" stroke="#6eb4f6" stroke-width="1" stroke-opacity="1"></use></g></g><g><use xlink:href="#f136JwA5Ie" opacity="1" fill="#4085c6" fill-opacity="1"></use><g><use xlink:href="#f136JwA5Ie" opacity="1" fill-opacity="0" stroke="#4085c6" stroke-width="1" stroke-opacity="1"></use></g></g></g></g></svg>