<?xml version="1.0" encoding="UTF-8" standalone="no"?>
<!DOCTYPE svg PUBLIC "-//W3C//DTD SVG 1.1//EN" "http://www.w3.org/Graphics/SVG/1.1/DTD/svg11.dtd">
<svg version="1.1" xmlns="http://www.w3.org/2000/svg" xmlns:xlink="http://www.w3.org/1999/xlink" preserveAspectRatio="xMidYMid meet" viewBox="0 0 640 640" width="640" height="640"><defs><path d="M567.18 273.05C567.18 413.98 457.46 528.39 322.32 528.39C187.19 528.39 77.47 413.98 77.47 273.05C77.47 132.12 187.19 17.7 322.32 17.7C457.46 17.7 567.18 132.12 567.18 273.05Z" id="eo3DLHtli"></path><path d="M579.77 274.16C579.77 414.48 475.38 528.39 346.81 528.39C218.24 528.39 113.85 414.48 113.85 274.16C113.85 133.85 218.24 19.93 346.81 19.93C475.38 19.93 579.77 133.85 579.77 274.16Z" id="a3HCxdcu8"></path><path d="M131.55 274.16C131.96 205.23 171.39 133.39 249.85 58.65C257.32 51.53 267.27 47.59 277.59 47.65C280.81 47.67 274.37 47.63 277.59 47.65C283.68 47.68 286.78 54.98 282.57 59.38C215.8 129.35 182.22 198.67 181.81 267.33C181.41 335.99 214.18 405.78 280.13 476.69C284.27 481.15 281.09 488.41 274.99 488.38C271.78 488.36 278.21 488.39 274.99 488.38C264.61 488.31 254.59 484.54 246.75 477.73C169.54 410.73 131.14 342.87 131.55 274.16Z" id="d25nFxXMP"></path><path d="M275.45 258.36C275.45 286.93 252.26 310.13 223.68 310.13C195.11 310.13 171.91 286.93 171.91 258.36C171.91 229.78 195.11 206.59 223.68 206.59C252.26 206.59 275.45 229.78 275.45 258.36Z" id="b9ZL8EDP4"></path><radialGradient id="gradientb7qvFnXogr" gradientUnits="userSpaceOnUse" cx="260.06" cy="226.18" dx="187.31" dy="294.74" r="99.97"><stop style="stop-color: #ffffff;stop-opacity: 1" offset="0%"></stop><stop style="stop-color: #a4a4a4;stop-opacity: 1" offset="100%"></stop></radialGradient><path d="M401.24 258.36C401.24 286.93 378.04 310.13 349.47 310.13C320.9 310.13 297.7 286.93 297.7 258.36C297.7 229.78 320.9 206.59 349.47 206.59C378.04 206.59 401.24 229.78 401.24 258.36Z" id="aJG8fTexy"></path><radialGradient id="gradientdwqN4Wizz" gradientUnits="userSpaceOnUse" cx="383.05" cy="221.98" dx="313.09" dy="296.13" r="101.95"><stop style="stop-color: #ffffff;stop-opacity: 1" offset="0%"></stop><stop style="stop-color: #a4a4a4;stop-opacity: 1" offset="100%"></stop></radialGradient><path d="M527.72 258.36C527.72 286.93 504.52 310.13 475.95 310.13C447.38 310.13 424.18 286.93 424.18 258.36C424.18 229.78 447.38 206.59 475.95 206.59C504.52 206.59 527.72 229.78 527.72 258.36Z" id="bPBTq5DcM"></path><radialGradient id="gradienta7xaQd0R8" gradientUnits="userSpaceOnUse" cx="513.73" cy="224.78" dx="436.78" dy="296.13" r="104.95"><stop style="stop-color: #ffffff;stop-opacity: 1" offset="0%"></stop><stop style="stop-color: #a4a4a4;stop-opacity: 1" offset="100%"></stop></radialGradient><path d="M355.9 524.9L256.56 610.25L249.57 508.11L355.9 524.9Z" id="aA4Z2oaG"></path><path d="M251.98 508.58L256.56 608.2L232.09 628.43L223.68 503.91L251.98 508.58Z" id="b1omkHoFZA"></path><path d="M460.96 432.98C483.63 413.37 500.82 387.19 512.53 354.45C515.69 345.62 527.2 343.47 533.33 350.56C536.08 353.74 530.59 347.39 533.33 350.56C541.64 360.16 543.29 373.83 537.52 385.12C521.96 415.57 502.83 440.61 480.13 460.26C457.59 479.76 431.06 494.39 400.53 504.15C388.4 508.03 375.13 504.3 366.8 494.67C364.06 491.5 369.55 497.85 366.8 494.67C360.6 487.51 364.31 476.32 373.56 474.29C409.04 466.47 438.18 452.7 460.96 432.98Z" id="b67jmMyX1D"></path></defs><g><g><g><g><filter id="shadow2506304" x="12.47" y="-47.3" width="622.71" height="663.69" filterUnits="userSpaceOnUse" primitiveUnits="userSpaceOnUse"><feFlood></feFlood><feComposite in2="SourceAlpha" operator="in"></feComposite><feGaussianBlur stdDeviation="4.24"></feGaussianBlur><feOffset dx="3" dy="23" result="afterOffset"></feOffset><feFlood flood-color="#000000" flood-opacity="0.5"></feFlood><feComposite in2="afterOffset" operator="in"></feComposite><feMorphology operator="dilate" radius="1"></feMorphology><feComposite in2="SourceAlpha" operator="out"></feComposite></filter><path d="M567.18 273.05C567.18 413.98 457.46 528.39 322.32 528.39C187.19 528.39 77.47 413.98 77.47 273.05C77.47 132.12 187.19 17.7 322.32 17.7C457.46 17.7 567.18 132.12 567.18 273.05Z" id="j3mCSbAATT" fill="white" fill-opacity="1" filter="url(#shadow2506304)"></path></g><use xlink:href="#eo3DLHtli" opacity="1" fill="#6eb4f6" fill-opacity="1"></use></g><g><use xlink:href="#a3HCxdcu8" opacity="1" fill="#4085c6" fill-opacity="1"></use></g><g><use xlink:href="#d25nFxXMP" opacity="1" fill="#599bd8" fill-opacity="1"></use></g><g><g><filter id="shadow5092198" x="127.91" y="162.59" width="196.54" height="199.54" filterUnits="userSpaceOnUse" primitiveUnits="userSpaceOnUse"><feFlood></feFlood><feComposite in2="SourceAlpha" operator="in"></feComposite><feGaussianBlur stdDeviation="3.87"></feGaussianBlur><feOffset dx="-5" dy="8" result="afterOffset"></feOffset><feFlood flood-color="#000000" flood-opacity="0.5"></feFlood><feComposite in2="afterOffset" operator="in"></feComposite><feMorphology operator="dilate" radius="1"></feMorphology><feComposite in2="SourceAlpha" operator="out"></feComposite></filter><path d="M275.45 258.36C275.45 286.93 252.26 310.13 223.68 310.13C195.11 310.13 171.91 286.93 171.91 258.36C171.91 229.78 195.11 206.59 223.68 206.59C252.26 206.59 275.45 229.78 275.45 258.36Z" id="a2fHhnEg5K" fill="white" fill-opacity="1" filter="url(#shadow5092198)"></path></g><use xlink:href="#b9ZL8EDP4" opacity="1" fill="url(#gradientb7qvFnXogr)"></use></g><g><g><filter id="shadow8559496" x="253.7" y="162.59" width="196.54" height="199.54" filterUnits="userSpaceOnUse" primitiveUnits="userSpaceOnUse"><feFlood></feFlood><feComposite in2="SourceAlpha" operator="in"></feComposite><feGaussianBlur stdDeviation="3.87"></feGaussianBlur><feOffset dx="-5" dy="8" result="afterOffset"></feOffset><feFlood flood-color="#000000" flood-opacity="0.5"></feFlood><feComposite in2="afterOffset" operator="in"></feComposite><feMorphology operator="dilate" radius="1"></feMorphology><feComposite in2="SourceAlpha" operator="out"></feComposite></filter><path d="M401.24 258.36C401.24 286.93 378.04 310.13 349.47 310.13C320.9 310.13 297.7 286.93 297.7 258.36C297.7 229.78 320.9 206.59 349.47 206.59C378.04 206.59 401.24 229.78 401.24 258.36Z" id="a2RyPqx2oB" fill="white" fill-opacity="1" filter="url(#shadow8559496)"></path></g><use xlink:href="#aJG8fTexy" opacity="1" fill="url(#gradientdwqN4Wizz)"></use></g><g><g><filter id="shadow16037869" x="380.18" y="162.59" width="196.54" height="199.54" filterUnits="userSpaceOnUse" primitiveUnits="userSpaceOnUse"><feFlood></feFlood><feComposite in2="SourceAlpha" operator="in"></feComposite><feGaussianBlur stdDeviation="3.87"></feGaussianBlur><feOffset dx="-5" dy="8" result="afterOffset"></feOffset><feFlood flood-color="#000000" flood-opacity="0.5"></feFlood><feComposite in2="afterOffset" operator="in"></feComposite><feMorphology operator="dilate" radius="1"></feMorphology><feComposite in2="SourceAlpha" operator="out"></feComposite></filter><path d="M527.72 258.36C527.72 286.93 504.52 310.13 475.95 310.13C447.38 310.13 424.18 286.93 424.18 258.36C424.18 229.78 447.38 206.59 475.95 206.59C504.52 206.59 527.72 229.78 527.72 258.36Z" id="d3aoFFg6gY" fill="white" fill-opacity="1" filter="url(#shadow16037869)"></path></g><use xlink:href="#bPBTq5DcM" opacity="1" fill="url(#gradienta7xaQd0R8)"></use></g><g><use xlink:href="#aA4Z2oaG" opacity="1" fill="#4085c6" fill-opacity="1"></use><g><use xlink:href="#aA4Z2oaG" opacity="1" fill-opacity="0" stroke="#4085c6" stroke-width="1" stroke-opacity="1"></use></g></g><g><g><filter id="shadow1907895" x="164.68" y="444.91" width="157.88" height="246.53" filterUnits="userSpaceOnUse" primitiveUnits="userSpaceOnUse"><feFlood></feFlood><feComposite in2="SourceAlpha" operator="in"></feComposite><feGaussianBlur stdDeviation="4.8"></feGaussianBlur><feOffset dx="-7" dy="4" result="afterOffset"></feOffset><feFlood flood-color="#000000" flood-opacity="0.5"></feFlood><feComposite in2="afterOffset" operator="in"></feComposite><feMorphology operator="dilate" radius="1"></feMorphology><feComposite in2="SourceAlpha" operator="out"></feComposite></filter><path d="M251.98 508.58L256.56 608.2L232.09 628.43L223.68 503.91L251.98 508.58Z" id="cz0Rh49jt" fill="white" fill-opacity="1" filter="url(#shadow1907895)"></path></g><use xlink:href="#b1omkHoFZA" opacity="1" fill="#6eb4f6" fill-opacity="1"></use><g><use xlink:href="#b1omkHoFZA" opacity="1" fill-opacity="0" stroke="#6eb4f6" stroke-width="1" stroke-opacity="1"></use></g></g><g><use xlink:href="#b67jmMyX1D" opacity="1" fill="#599bd8" fill-opacity="1"></use></g></g></g></svg>