<?xml version="1.0" encoding="UTF-8" standalone="no"?>
<!DOCTYPE svg PUBLIC "-//W3C//DTD SVG 1.1//EN" "http://www.w3.org/Graphics/SVG/1.1/DTD/svg11.dtd">
<svg version="1.1" xmlns="http://www.w3.org/2000/svg" xmlns:xlink="http://www.w3.org/1999/xlink" preserveAspectRatio="xMidYMid meet" viewBox="0 0 640 640" width="640" height="640"><defs><path d="M82.88 128.52C61 133.81 55.52 149.03 66.47 174.18C97.11 330.38 114.62 419.74 119 442.24C123.38 464.74 139.24 470.7 166.6 460.11C422.69 399.22 562.77 364.14 586.84 354.87C610.92 345.61 623.5 329.06 624.6 305.23C604.9 178.16 592.31 97.41 586.84 62.99C581.37 28.57 563.86 16 534.31 25.26L104.22 120.57C111.88 120.57 104.77 123.22 82.88 128.52Z" id="d3bsDTNscq"></path><path d="M66.47 176.17L61 146.39L76.32 130.5L552.37 22.32L572.07 29.24L128.85 465.19L66.47 176.17Z" id="e1VZOq8ah8"></path><linearGradient id="gradientb6dNYr39sc" gradientUnits="userSpaceOnUse" x1="280.42" y1="77.91" x2="364.14" y2="238.84"><stop style="stop-color: #b6d9fe;stop-opacity: 1" offset="0%"></stop><stop style="stop-color: #3c6ae7;stop-opacity: 1" offset="100%"></stop></linearGradient><path d="M63.68 155.07L126.9 445.65L126.9 459.55L145.29 465.19C123.83 470.7 107.74 474.85 97.01 477.63C86.28 480.41 77.73 474.38 71.34 459.55C33.28 288.08 13.1 195.85 10.8 182.88C8.51 169.9 12.72 159.24 23.45 150.9L67.13 135.61L63.68 155.07Z" id="holDJ3MxS"></path><path d="M437.24 392.82L320 559.66L328.05 420.62L437.24 392.82Z" id="c1qTb8hfH"></path><path d="M328.05 422.01L320 559.66L268.28 530.46L274.02 434.53L328.05 422.01Z" id="a1g2PKdgbN"></path><path d="M521.07 98.54C525.09 97.58 529.12 100.06 530.07 104.08C531.02 108.03 532.11 112.61 533.05 116.56C534.01 120.57 531.53 124.6 527.52 125.56C454.06 143.08 240.95 193.89 167.5 211.41C163.48 212.37 159.45 209.89 158.5 205.88C157.55 201.93 156.46 197.35 155.52 193.4C154.56 189.38 157.04 185.35 161.05 184.39C234.51 166.88 447.62 116.06 521.07 98.54Z" id="bdbJ3ADXP"></path><path d="M539.92 173.71C543.94 172.76 547.97 175.23 548.92 179.25C549.87 183.2 550.96 187.78 551.9 191.73C552.86 195.74 550.38 199.77 546.37 200.73C472.91 218.25 259.8 269.07 186.35 286.58C182.33 287.54 178.3 285.06 177.35 281.05C176.4 277.1 175.31 272.52 174.37 268.57C173.41 264.55 175.89 260.52 179.9 259.57C253.36 242.05 466.47 191.23 539.92 173.71Z" id="aSCo0maWi"></path><path d="M387.24 295.8C389.37 295.3 391.5 296.61 392.01 298.74C393.12 303.37 395.51 313.42 396.62 318.05C397.12 320.18 395.81 322.31 393.68 322.82C354.76 332.1 241.82 359.04 202.89 368.32C200.76 368.83 198.63 367.51 198.12 365.39C197.02 360.75 194.62 350.7 193.52 346.07C193.01 343.94 194.32 341.81 196.45 341.3C235.38 332.02 348.31 305.09 387.24 295.8Z" id="d4g964ZdYm"></path></defs><g><g><g><use xlink:href="#d3bsDTNscq" opacity="1" fill="#3c6ae7" fill-opacity="1"></use><g><use xlink:href="#d3bsDTNscq" opacity="1" fill-opacity="0" stroke="#000000" stroke-width="1" stroke-opacity="0"></use></g></g><g><use xlink:href="#e1VZOq8ah8" opacity="1" fill="url(#gradientb6dNYr39sc)"></use><g><use xlink:href="#e1VZOq8ah8" opacity="1" fill-opacity="0" stroke="#947575" stroke-width="1" stroke-opacity="0"></use></g></g><g><use xlink:href="#holDJ3MxS" opacity="1" fill="#3c6ae7" fill-opacity="1"></use><g><use xlink:href="#holDJ3MxS" opacity="1" fill-opacity="0" stroke="#4d4b4b" stroke-width="1" stroke-opacity="1"></use></g></g><g><use xlink:href="#c1qTb8hfH" opacity="1" fill="#3c6ae7" fill-opacity="1"></use><g><use xlink:href="#c1qTb8hfH" opacity="1" fill-opacity="0" stroke="#000000" stroke-width="1" stroke-opacity="0"></use></g></g><g><use xlink:href="#a1g2PKdgbN" opacity="1" fill="#6489ef" fill-opacity="1"></use><g><use xlink:href="#a1g2PKdgbN" opacity="1" fill-opacity="0" stroke="#000000" stroke-width="1" stroke-opacity="0"></use></g></g><g><use xlink:href="#bdbJ3ADXP" opacity="1" fill="#ffffff" fill-opacity="1"></use></g><g><use xlink:href="#aSCo0maWi" opacity="1" fill="#ffffff" fill-opacity="1"></use></g><g><use xlink:href="#d4g964ZdYm" opacity="1" fill="#ffffff" fill-opacity="1"></use></g></g></g></svg>