<?xml version="1.0" encoding="UTF-8" standalone="no"?>
<!DOCTYPE svg PUBLIC "-//W3C//DTD SVG 1.1//EN" "http://www.w3.org/Graphics/SVG/1.1/DTD/svg11.dtd">
<svg version="1.1" xmlns="http://www.w3.org/2000/svg" xmlns:xlink="http://www.w3.org/1999/xlink" preserveAspectRatio="xMidYMid meet" viewBox="0 0 640 640" width="640" height="640"><defs><path d="M327.3 361.16L333.77 361.82L340.17 362.73L346.48 363.89L352.7 365.29L358.83 366.94L364.86 368.82L370.79 370.92L376.61 373.25L382.31 375.8L387.89 378.56L393.35 381.52L398.68 384.69L403.88 388.06L408.93 391.62L413.84 395.36L418.6 399.29L423.2 403.4L427.64 407.67L431.92 412.11L436.02 416.71L439.95 421.47L443.69 426.38L447.25 431.43L450.62 436.63L453.79 441.96L456.76 447.42L459.52 453L462.06 458.7L464.39 464.52L466.28 469.82L466 469.97L465.67 470.17L465.35 470.38L465.03 470.6L464.73 470.83L464.43 471.08L464.14 471.33L463.87 471.6L463.6 471.88L463.34 472.16L463.1 472.46L462.87 472.77L462.65 473.08L462.44 473.4L462.24 473.74L462.2 473.81L453.13 480.94L435.22 498.1L435.02 496.2L434.33 491.3L433.44 486.46L432.36 481.7L431.1 477L429.66 472.38L428.05 467.83L426.26 463.37L424.31 459L422.19 454.72L419.92 450.54L417.49 446.45L414.91 442.47L412.18 438.6L409.31 434.84L406.3 431.19L403.16 427.66L399.88 424.26L396.48 420.98L392.95 417.84L389.3 414.83L385.54 411.96L381.67 409.23L377.69 406.65L373.6 404.22L369.42 401.95L365.14 399.83L360.77 397.88L356.31 396.09L351.77 394.48L347.14 393.04L342.45 391.78L337.68 390.7L332.84 389.81L327.94 389.12L322.98 388.61L317.96 388.31L312.89 388.2L307.82 388.31L302.81 388.61L297.84 389.12L292.94 389.81L288.11 390.7L283.34 391.78L278.64 393.04L274.02 394.48L269.47 396.09L265.01 397.88L260.64 399.83L256.36 401.95L252.18 404.22L248.09 406.65L244.11 409.23L240.24 411.96L236.48 414.83L232.83 417.84L229.3 420.98L225.9 424.26L222.62 427.66L219.48 431.19L216.47 434.84L213.6 438.6L210.87 442.47L208.29 446.45L205.86 450.54L203.59 454.72L201.47 459L199.52 463.37L197.73 467.83L196.12 472.38L194.68 477L193.42 481.7L192.35 486.46L191.46 491.3L191.39 491.77L176.56 480.94L167.69 466.14L167.68 466.11L167.58 465.73L167.46 465.35L167.33 464.99L167.18 464.62L167.02 464.27L166.85 463.92L166.67 463.58L166.47 463.25L166.26 462.92L166.04 462.61L165.81 462.3L165.56 462.01L165.31 461.72L165.1 461.51L166.22 458.7L168.77 453L171.52 447.42L174.49 441.96L177.66 436.63L181.03 431.43L184.59 426.38L188.33 421.47L192.26 416.71L196.36 412.11L200.64 407.67L205.08 403.4L209.68 399.29L214.44 395.36L219.35 391.62L224.4 388.06L229.6 384.69L234.93 381.52L240.39 378.56L245.97 375.8L251.67 373.25L257.49 370.92L263.42 368.82L269.45 366.94L275.58 365.29L281.8 363.89L288.11 362.73L294.51 361.82L300.98 361.16L307.53 360.76L314.14 360.63L320.75 360.76L327.3 361.16Z" id="aF31JYMhT"></path><path d="M337.58 87.2L347.18 88.17L356.68 89.53L366.04 91.25L375.28 93.34L384.38 95.78L393.33 98.56L402.12 101.69L410.76 105.14L419.22 108.92L427.51 113.02L435.61 117.42L443.52 122.13L451.23 127.12L458.73 132.41L466.02 137.97L473.08 143.79L479.91 149.89L486.5 156.23L492.85 162.82L498.94 169.65L504.77 176.71L510.33 184L515.61 191.5L520.61 199.21L525.31 207.12L529.71 215.22L533.81 223.51L537.59 231.97L541.05 240.61L544.17 249.41L546.96 258.36L549.4 267.45L551.48 276.69L553.21 286.06L554.56 295.55L555.54 305.16L556.13 314.87L556.33 324.69L556.13 334.5L555.54 344.22L554.56 353.83L553.21 363.32L551.48 372.68L549.4 381.92L546.96 391.02L544.17 399.97L541.05 408.77L537.59 417.4L533.81 425.87L529.71 434.15L525.31 442.26L520.61 450.16L515.61 457.87L510.33 465.38L504.77 472.66L498.94 479.72L492.85 486.55L486.5 493.14L479.91 499.49L473.08 505.58L466.02 511.41L458.73 516.97L451.23 522.25L443.52 527.25L435.61 531.95L427.51 536.36L419.22 540.45L410.76 544.23L402.12 547.69L393.33 550.81L384.38 553.6L375.28 556.04L366.04 558.12L356.68 559.85L347.18 561.2L337.58 562.18L327.86 562.77L318.05 562.97L308.23 562.77L298.52 562.18L288.91 561.2L279.42 559.85L270.05 558.12L260.81 556.04L251.72 553.6L242.77 550.81L233.97 547.69L225.33 544.23L216.87 540.45L208.58 536.36L200.48 531.95L192.57 527.25L184.86 522.25L177.36 516.97L170.07 511.41L163.01 505.58L156.18 499.49L149.59 493.14L143.24 486.55L137.15 479.72L131.32 472.66L125.77 465.38L120.48 457.87L115.49 450.16L110.78 442.26L106.38 434.15L102.28 425.87L98.5 417.4L95.05 408.77L91.92 399.97L89.14 391.02L86.7 381.92L84.61 372.68L82.89 363.32L81.53 353.83L80.56 344.22L79.96 334.5L79.77 324.69L79.96 314.87L80.56 305.16L81.53 295.55L82.89 286.06L84.61 276.69L86.7 267.45L89.14 258.36L91.92 249.41L95.05 240.61L98.5 231.97L102.28 223.51L106.38 215.22L110.78 207.12L115.49 199.21L120.48 191.5L125.77 184L131.32 176.71L137.15 169.65L143.24 162.82L149.59 156.23L156.18 149.89L163.01 143.79L170.07 137.97L177.36 132.41L184.86 127.12L192.57 122.13L200.48 117.42L208.58 113.02L216.87 108.92L225.33 105.14L233.97 101.69L242.77 98.56L251.72 95.78L260.81 93.34L270.05 91.25L279.42 89.53L288.91 88.17L298.52 87.2L308.23 86.61L318.05 86.41L327.86 86.61L337.58 87.2ZM300.98 117.18L292.59 118.03L284.29 119.21L276.11 120.72L268.04 122.54L260.09 124.67L252.27 127.11L244.58 129.84L237.04 132.86L229.64 136.16L222.4 139.74L215.32 143.59L208.41 147.7L201.67 152.06L195.12 156.68L188.75 161.54L182.58 166.63L176.61 171.95L170.85 177.49L165.31 183.25L159.99 189.22L154.89 195.39L150.04 201.76L145.42 208.31L141.06 215.05L136.95 221.96L133.1 229.04L129.52 236.28L126.22 243.68L123.2 251.22L120.47 258.91L118.03 266.73L115.9 274.68L114.08 282.75L112.57 290.93L111.39 299.23L110.53 307.62L110.02 316.11L109.84 324.69L110.02 333.26L110.53 341.75L111.39 350.15L112.57 358.44L114.08 366.63L115.9 374.7L118.03 382.65L120.47 390.47L123.2 398.15L126.22 405.7L129.52 413.09L133.1 420.33L136.95 427.41L141.06 434.33L145.42 441.06L150.04 447.62L154.89 453.98L159.99 460.15L165.31 466.12L170.85 471.88L176.61 477.42L182.58 482.75L188.75 487.84L195.12 492.7L201.67 497.31L208.41 501.68L215.32 505.79L222.4 509.64L229.64 513.22L237.04 516.52L244.58 519.54L252.27 522.27L260.09 524.7L268.04 526.84L276.11 528.66L284.29 530.16L292.59 531.35L300.98 532.2L309.47 532.72L318.05 532.89L326.62 532.72L335.11 532.2L343.51 531.35L351.8 530.16L359.98 528.66L368.06 526.84L376 524.7L383.83 522.27L391.51 519.54L399.06 516.52L406.45 513.22L413.69 509.64L420.77 505.79L427.69 501.68L434.42 497.31L440.98 492.7L447.34 487.84L453.51 482.75L459.48 477.42L465.24 471.88L470.78 466.12L476.11 460.15L481.2 453.98L486.06 447.62L490.67 441.06L495.04 434.33L499.15 427.41L503 420.33L506.57 413.09L509.88 405.7L512.9 398.15L515.63 390.47L518.06 382.65L520.19 374.7L522.02 366.63L523.52 358.44L524.71 350.15L525.56 341.75L526.08 333.26L526.25 324.69L526.08 316.11L525.56 307.62L524.71 299.23L523.52 290.93L522.02 282.75L520.19 274.68L518.06 266.73L515.63 258.91L512.9 251.22L509.88 243.68L506.57 236.28L503 229.04L499.15 221.96L495.04 215.05L490.67 208.31L486.06 201.76L481.2 195.39L476.11 189.22L470.78 183.25L465.24 177.49L459.48 171.95L453.51 166.63L447.34 161.54L440.98 156.68L434.42 152.06L427.69 147.7L420.77 143.59L413.69 139.74L406.45 136.16L399.06 132.86L391.51 129.84L383.83 127.11L376 124.67L368.06 122.54L359.98 120.72L351.8 119.21L343.51 118.03L335.11 117.18L326.62 116.66L318.05 116.48L309.47 116.66L300.98 117.18Z" id="bY6ybkWqE"></path><path d="M323.78 221.79L326.6 222.08L329.38 222.48L332.13 222.98L334.84 223.6L337.51 224.31L340.14 225.13L342.72 226.05L345.25 227.06L347.74 228.17L350.17 229.37L352.55 230.66L354.87 232.04L357.13 233.51L359.33 235.06L361.47 236.69L363.54 238.4L365.55 240.19L367.48 242.05L369.34 243.99L371.13 245.99L372.84 248.06L374.47 250.2L376.02 252.4L377.49 254.66L378.87 256.99L380.16 259.36L381.36 261.79L382.47 264.28L383.48 266.81L384.4 269.39L385.22 272.02L385.94 274.69L386.55 277.4L387.05 280.15L387.45 282.93L387.74 285.75L387.91 288.6L387.97 291.48L387.91 294.36L387.74 297.22L387.45 300.03L387.05 302.82L386.55 305.57L385.94 308.28L385.22 310.95L384.4 313.58L383.48 316.16L382.47 318.69L381.36 321.17L380.16 323.61L378.87 325.98L377.49 328.3L376.02 330.57L374.47 332.77L372.84 334.91L371.13 336.98L369.34 338.98L367.48 340.92L365.55 342.78L363.54 344.57L361.47 346.28L359.33 347.91L357.13 349.46L354.87 350.92L352.55 352.3L350.17 353.6L347.74 354.8L345.25 355.91L342.72 356.92L340.14 357.84L337.51 358.66L334.84 359.37L332.13 359.98L329.38 360.49L326.6 360.89L323.78 361.17L320.93 361.35L318.05 361.41L315.17 361.35L312.32 361.17L309.5 360.89L306.71 360.49L303.96 359.98L301.25 359.37L298.58 358.66L295.96 357.84L293.37 356.92L290.84 355.91L288.36 354.8L285.93 353.6L283.55 352.3L281.23 350.92L278.96 349.46L276.76 347.91L274.63 346.28L272.55 344.57L270.55 342.78L268.61 340.92L266.75 338.98L264.97 336.98L263.25 334.91L261.62 332.77L260.07 330.57L258.61 328.3L257.23 325.98L255.93 323.61L254.73 321.17L253.62 318.69L252.61 316.16L251.69 313.58L250.87 310.95L250.16 308.28L249.55 305.57L249.04 302.82L248.64 300.03L248.36 297.22L248.18 294.36L248.12 291.48L248.18 288.6L248.36 285.75L248.64 282.93L249.04 280.15L249.55 277.4L250.16 274.69L250.87 272.02L251.69 269.39L252.61 266.81L253.62 264.28L254.73 261.79L255.93 259.36L257.23 256.99L258.61 254.66L260.07 252.4L261.62 250.2L263.25 248.06L264.97 245.99L266.75 243.99L268.61 242.05L270.55 240.19L272.55 238.4L274.63 236.69L276.76 235.06L278.96 233.51L281.23 232.04L283.55 230.66L285.93 229.37L288.36 228.17L290.84 227.06L293.37 226.05L295.96 225.13L298.58 224.31L301.25 223.6L303.96 222.98L306.71 222.48L309.5 222.08L312.32 221.79L315.17 221.62L318.05 221.56L320.93 221.62L323.78 221.79ZM314.46 248.27L312.7 248.45L310.95 248.7L309.23 249.01L307.54 249.4L305.87 249.85L304.22 250.36L302.61 250.93L301.02 251.57L299.47 252.26L297.95 253.01L296.46 253.82L295.01 254.68L293.59 255.6L292.22 256.57L290.88 257.59L289.58 258.66L288.33 259.78L287.12 260.95L285.95 262.16L284.83 263.41L283.76 264.71L282.74 266.04L281.77 267.42L280.86 268.84L279.99 270.29L279.18 271.78L278.43 273.3L277.74 274.85L277.1 276.44L276.53 278.05L276.02 279.7L275.57 281.37L275.19 283.06L274.87 284.78L274.62 286.53L274.44 288.29L274.33 290.07L274.3 291.88L274.33 293.68L274.44 295.46L274.62 297.22L274.87 298.97L275.19 300.69L275.57 302.38L276.02 304.05L276.53 305.7L277.1 307.31L277.74 308.9L278.43 310.45L279.18 311.97L279.99 313.46L280.86 314.91L281.77 316.33L282.74 317.71L283.76 319.04L284.83 320.34L285.95 321.59L287.12 322.8L288.33 323.97L289.58 325.09L290.88 326.16L292.22 327.18L293.59 328.15L295.01 329.07L296.46 329.93L297.95 330.74L299.47 331.49L301.02 332.18L302.61 332.82L304.22 333.39L305.87 333.9L307.54 334.35L309.23 334.74L310.95 335.05L312.7 335.3L314.46 335.48L316.24 335.59L318.05 335.63L319.85 335.59L321.63 335.48L323.4 335.3L325.14 335.05L326.86 334.74L328.56 334.35L330.23 333.9L331.87 333.39L333.48 332.82L335.07 332.18L336.62 331.49L338.15 330.74L339.63 329.93L341.09 329.07L342.5 328.15L343.88 327.18L345.22 326.16L346.51 325.09L347.77 323.97L348.98 322.8L350.14 321.59L351.26 320.34L352.33 319.04L353.35 317.71L354.32 316.33L355.24 314.91L356.1 313.46L356.91 311.97L357.66 310.45L358.36 308.9L358.99 307.31L359.56 305.7L360.08 304.05L360.52 302.38L360.91 300.69L361.22 298.97L361.47 297.22L361.65 295.46L361.76 293.68L361.8 291.88L361.76 290.07L361.65 288.29L361.47 286.53L361.22 284.78L360.91 283.06L360.52 281.37L360.08 279.7L359.56 278.05L358.99 276.44L358.36 274.85L357.66 273.3L356.91 271.78L356.1 270.29L355.24 268.84L354.32 267.42L353.35 266.04L352.33 264.71L351.26 263.41L350.14 262.16L348.98 260.95L347.77 259.78L346.51 258.66L345.22 257.59L343.88 256.57L342.5 255.6L341.09 254.68L339.63 253.82L338.15 253.01L336.62 252.26L335.07 251.57L333.48 250.93L331.87 250.36L330.23 249.85L328.56 249.4L326.86 249.01L325.14 248.7L323.4 248.45L321.63 248.27L319.85 248.16L318.05 248.13L316.24 248.16L314.46 248.27Z" id="b2bVB6GPBl"></path></defs><g><g><g><use xlink:href="#aF31JYMhT" opacity="1" fill="#ffffff" fill-opacity="1"></use><g><use xlink:href="#aF31JYMhT" opacity="1" fill-opacity="0" stroke="#ffffff" stroke-width="1" stroke-opacity="1"></use></g></g><g><use xlink:href="#bY6ybkWqE" opacity="1" fill="#ffffff" fill-opacity="1"></use><g><use xlink:href="#bY6ybkWqE" opacity="1" fill-opacity="0" stroke="#ffffff" stroke-width="1" stroke-opacity="1"></use></g></g><g><use xlink:href="#b2bVB6GPBl" opacity="1" fill="#ffffff" fill-opacity="1"></use><g><use xlink:href="#b2bVB6GPBl" opacity="1" fill-opacity="0" stroke="#ffffff" stroke-width="1" stroke-opacity="1"></use></g></g></g></g></svg>