<?xml version="1.0" encoding="UTF-8" standalone="no"?>
<!DOCTYPE svg PUBLIC "-//W3C//DTD SVG 1.1//EN" "http://www.w3.org/Graphics/SVG/1.1/DTD/svg11.dtd">
<svg version="1.1" xmlns="http://www.w3.org/2000/svg" xmlns:xlink="http://www.w3.org/1999/xlink" preserveAspectRatio="xMidYMid meet" viewBox="0 0 640 640" width="640" height="640"><defs><path d="M570.49 606C570.49 619.8 457.57 631 318.49 631C179.41 631 66.49 619.8 66.49 606C66.49 592.2 179.41 581 318.49 581C457.57 581 570.49 592.2 570.49 606Z" id="a1YuvUG51K"></path><radialGradient id="gradientgqkUezbB7" gradientUnits="userSpaceOnUse" cx="318.49" cy="617" dx="562.36" dy="606" r="244.12"><stop style="stop-color: #53baf0;stop-opacity: 1" offset="0%"></stop><stop style="stop-color: #ffffff;stop-opacity: 0" offset="100%"></stop></radialGradient><path d="M594.14 324.6C594.14 475.9 471.3 598.74 320 598.74C168.7 598.74 45.86 475.9 45.86 324.6C45.86 173.3 168.7 50.46 320 50.46C471.3 50.46 594.14 173.3 594.14 324.6Z" id="a12XimiwV"></path><path d="M500.46 174.6C500.46 226.62 418.05 268.85 316.55 268.85C215.05 268.85 132.64 226.62 132.64 174.6C132.64 122.58 215.05 80.34 316.55 80.34C418.05 80.34 500.46 122.58 500.46 174.6Z" id="bBIcXFJl8"></path><linearGradient id="gradientaSrDK2uMj" gradientUnits="userSpaceOnUse" x1="316.55" y1="80.34" x2="316.55" y2="268.85"><stop style="stop-color: #cedeed;stop-opacity: 1" offset="0%"></stop><stop style="stop-color: #53baf0;stop-opacity: 1" offset="100%"></stop></linearGradient><path d="M175.9 509.85C173.75 462.49 241.36 420.88 326.79 417C412.22 413.11 483.33 448.41 485.48 495.77C487.64 543.14 420.03 584.74 334.59 588.63C249.16 592.51 178.05 557.22 175.9 509.85Z" id="baKtWVNTB"></path><linearGradient id="gradientbEpkNQor0" gradientUnits="userSpaceOnUse" x1="334.59" y1="588.63" x2="326.79" y2="417"><stop style="stop-color: #cedeed;stop-opacity: 1" offset="0%"></stop><stop style="stop-color: #53baf0;stop-opacity: 1" offset="100%"></stop></linearGradient><path d="" id="fS3VZwD85"></path><path d="M380.42 415.98L228.78 511.36L226.33 324.59L223.89 137.83L377.97 229.2L532.06 320.59L380.42 415.98Z" id="bgr7GpuZi"></path><path d="" id="dJLDgwcd4"></path><path d="M69.11 367.01C61.9 316.44 69.59 260.07 92.18 197.88C94.12 192.56 98.82 188.74 104.43 187.94C106.25 187.68 102.61 188.2 104.43 187.94C108.74 187.33 112.28 191.32 111.15 195.52C95.32 254.49 91.01 309.21 98.2 359.68C105.8 412.97 126.11 461.88 159.12 506.4L159.12 506.4L159.12 506.4C154.27 507.09 151.23 507.52 150.02 507.7C144.32 508.51 138.59 506.46 134.7 502.21C98.13 462.29 76.27 417.22 69.11 367.01Z" id="c2fs5t7Jvu"></path></defs><g><g><g><use xlink:href="#a1YuvUG51K" opacity="1" fill="url(#gradientgqkUezbB7)"></use></g><g><g><filter id="shadow376362" x="-17.14" y="-12.54" width="686.28" height="675.28" filterUnits="userSpaceOnUse" primitiveUnits="userSpaceOnUse"><feFlood></feFlood><feComposite in2="SourceAlpha" operator="in"></feComposite><feGaussianBlur stdDeviation="4.24"></feGaussianBlur><feOffset dx="12" dy="1" result="afterOffset"></feOffset><feFlood flood-color="#0199e9" flood-opacity="1"></feFlood><feComposite in2="afterOffset" operator="in"></feComposite><feMorphology operator="dilate" radius="10"></feMorphology><feComposite in2="SourceAlpha" operator="out"></feComposite></filter><path d="M594.14 324.6C594.14 475.9 471.3 598.74 320 598.74C168.7 598.74 45.86 475.9 45.86 324.6C45.86 173.3 168.7 50.46 320 50.46C471.3 50.46 594.14 173.3 594.14 324.6Z" id="etKDVXdF6" fill="white" fill-opacity="1" filter="url(#shadow376362)"></path></g><use xlink:href="#a12XimiwV" opacity="1" fill="#53baf0" fill-opacity="1"></use><g><use xlink:href="#a12XimiwV" opacity="1" fill-opacity="0" stroke="#53baf0" stroke-width="1" stroke-opacity="1"></use></g></g><g><use xlink:href="#bBIcXFJl8" opacity="1" fill="url(#gradientaSrDK2uMj)"></use></g><g><use xlink:href="#baKtWVNTB" opacity="1" fill="url(#gradientbEpkNQor0)"></use></g><g><g><use xlink:href="#fS3VZwD85" opacity="1" fill-opacity="0" stroke="#000000" stroke-width="1" stroke-opacity="1"></use></g></g><g><use xlink:href="#bgr7GpuZi" opacity="1" fill="#004c7f" fill-opacity="1"></use></g><g><g><use xlink:href="#dJLDgwcd4" opacity="1" fill-opacity="0" stroke="#508fb3" stroke-width="1" stroke-opacity="1"></use></g></g><g><use xlink:href="#c2fs5t7Jvu" opacity="1" fill="#91ccee" fill-opacity="1"></use></g></g></g></svg>